<svg width="131" height="294" viewBox="0 0 131 294" fill="none" xmlns="http://www.w3.org/2000/svg">
<g clip-path="url(#clip0_560_48)">
<path d="M1.24022 3.10478C1.28023 2.34526 1.28023 2.34526 1.70694 1.91887C2.41368 1.89222 2.41368 1.89222 3.20042 2.13206C3.45951 2.4794 3.45951 2.47941 3.69214 2.91241C4.24573 3.85239 4.90751 4.51845 5.72068 5.23677C5.91963 5.41682 5.91963 5.41681 6.1226 5.60049C6.49782 5.93903 6.87535 6.27472 7.25417 6.60922C7.41891 6.75515 7.58365 6.9011 7.75339 7.05145C8.01893 7.28424 8.28531 7.51609 8.55264 7.74684C9.41083 8.49239 10.2505 9.25898 11.0946 10.0204C11.4501 10.3403 11.8057 10.66 12.1613 10.9798C12.8725 11.6194 13.5837 12.259 14.2949 12.8986C14.4704 13.0563 14.6458 13.2141 14.8266 13.3766C15.188 13.7017 15.5491 14.0271 15.9101 14.3526C16.7091 15.073 17.5091 15.7914 18.322 16.4963C19.1681 17.2323 19.9926 17.9913 20.8178 18.7505C21.5511 19.4239 22.2936 20.0847 23.0458 20.7369C23.9073 21.4894 24.7534 22.2593 25.6027 23.0255C25.9582 23.3453 26.3138 23.6651 26.6695 23.9849C27.2082 24.4692 27.7467 24.9537 28.2846 25.4389C29.0837 26.1593 29.8837 26.8777 30.6966 27.5826C31.5427 28.3186 32.3672 29.0776 33.1924 29.8368C33.9257 30.5102 34.6682 31.171 35.4204 31.8232C36.2819 32.5757 37.128 33.3456 37.9773 34.1118C38.3328 34.4316 38.6884 34.7514 39.0441 35.0712C39.5828 35.5555 40.1213 36.04 40.6592 36.5252C41.4583 37.2456 42.2583 37.964 43.0712 38.6689C43.9173 39.4049 44.7418 40.1639 45.567 40.9231C46.3003 41.5965 47.0428 42.2573 47.795 42.9095C48.6565 43.662 49.5026 44.4319 50.3519 45.1981C50.7074 45.5179 51.063 45.8377 51.4187 46.1575C51.9574 46.6418 52.4959 47.1263 53.0338 47.6115C53.8329 48.3319 54.6329 49.0503 55.4458 49.7552C56.2919 50.4911 57.1164 51.2502 57.9416 52.0094C58.6749 52.6828 59.4174 53.3436 60.1696 53.9958C61.0311 54.7483 61.8772 55.5182 62.7265 56.2843C63.082 56.6042 63.4376 56.924 63.7933 57.2437C64.332 57.7281 64.8705 58.2126 65.4084 58.6978C66.2075 59.4182 67.0075 60.1366 67.8203 60.8415C68.6665 61.5775 69.491 62.3365 70.3162 63.0957C71.0495 63.7691 71.792 64.4299 72.5442 65.0821C73.4057 65.8345 74.2518 66.6045 75.1011 67.3706C75.4566 67.6905 75.8122 68.0103 76.1679 68.33C76.7066 68.8144 77.2451 69.2989 77.783 69.7841C78.5821 70.5045 79.3821 71.2229 80.1949 71.9277C81.0411 72.6637 81.8655 73.4228 82.6908 74.1819C83.4241 74.8554 84.1666 75.5162 84.9188 76.1684C85.7803 76.9208 86.6264 77.6908 87.4757 78.4569C87.8312 78.7768 88.1868 79.0966 88.5425 79.4163C89.0812 79.9007 89.6197 80.3852 90.1576 80.8704C90.9567 81.5908 91.7567 82.3092 92.5695 83.014C93.4157 83.75 94.2401 84.5091 95.0654 85.2682C95.7987 85.9417 96.5412 86.6025 97.2934 87.2547C98.1549 88.0071 99.0009 88.7771 99.8503 89.5432C100.206 89.8631 100.561 90.1829 100.917 90.5026C101.456 90.9869 101.994 91.4715 102.532 91.9567C103.331 92.677 104.131 93.3955 104.944 94.1003C105.79 94.8363 106.615 95.5954 107.44 96.3545C108.173 97.028 108.916 97.6888 109.668 98.341C110.53 99.0934 111.376 99.8634 112.225 100.63C112.58 100.949 112.936 101.269 113.292 101.589C113.83 102.073 114.369 102.558 114.907 103.043C115.706 103.763 116.506 104.482 117.319 105.187C118.165 105.923 118.99 106.682 119.815 107.441C120.543 108.11 121.28 108.765 122.027 109.411C122.57 109.889 123.105 110.376 123.639 110.863C124.309 111.474 124.982 112.081 125.666 112.675C125.864 112.85 125.864 112.85 126.066 113.027C126.422 113.337 126.783 113.641 127.146 113.942C127.364 114.128 127.582 114.314 127.8 114.501C128.002 114.67 128.205 114.84 128.413 115.015C128.867 115.553 128.867 115.553 128.98 116.206C128.846 116.945 128.67 117.172 128.12 117.672C127.963 117.818 127.805 117.963 127.643 118.113C127.484 118.254 127.324 118.394 127.16 118.538C126.96 118.715 126.96 118.715 126.756 118.896C126.484 119.135 126.211 119.372 125.936 119.608C125.339 120.13 124.756 120.666 124.173 121.203C123.328 121.98 122.476 122.747 121.609 123.498C120.748 124.251 119.902 125.021 119.052 125.787C118.52 126.266 117.987 126.745 117.454 127.224C117.092 127.549 116.731 127.875 116.37 128.2C115.571 128.921 114.771 129.639 113.958 130.344C113.227 130.98 112.512 131.633 111.798 132.289C110.954 133.066 110.102 133.833 109.235 134.585C108.373 135.337 107.527 136.107 106.678 136.873C106.145 137.352 105.612 137.832 105.079 138.311C104.718 138.636 104.357 138.961 103.996 139.287C103.197 140.007 102.397 140.725 101.584 141.43C100.852 142.067 100.137 142.719 99.4236 143.376C98.579 144.153 97.727 144.919 96.86 145.671C95.9984 146.423 95.1524 147.193 94.3031 147.959C93.9475 148.279 93.5919 148.599 93.2363 148.919C93.0603 149.077 92.8842 149.235 92.7029 149.399C91.1027 150.838 91.1027 150.838 90.571 151.316C90.2096 151.641 89.8485 151.966 89.4876 152.292C88.6885 153.012 87.8885 153.731 87.0756 154.435C86.3442 155.072 85.6288 155.725 84.9154 156.381C84.0708 157.158 83.2189 157.924 82.3518 158.676C81.4903 159.428 80.6442 160.198 79.7949 160.965C79.2622 161.444 78.7293 161.923 78.1964 162.402C77.835 162.727 77.4739 163.052 77.113 163.378C76.3139 164.098 75.5139 164.817 74.7011 165.522C73.9696 166.158 73.2542 166.811 72.5408 167.467C71.6962 168.244 70.8443 169.01 69.9772 169.762C69.1157 170.515 68.2696 171.285 67.4203 172.051C66.8876 172.53 66.3547 173.009 65.8218 173.488C65.4604 173.813 65.0993 174.139 64.7384 174.464C63.9393 175.185 63.1393 175.903 62.3265 176.608C61.4801 177.344 60.6555 178.103 59.8301 178.863C59.1025 179.531 58.3652 180.186 57.6185 180.833C57.0748 181.31 56.5405 181.797 56.0058 182.284C55.3403 182.891 54.6729 183.494 53.9923 184.083C53.2649 184.715 52.5542 185.363 51.8454 186.015C51.0008 186.792 50.1488 187.559 49.2818 188.311C48.4202 189.063 47.5742 189.833 46.7249 190.599C46.1921 191.078 45.6593 191.557 45.1264 192.036C44.765 192.362 44.4039 192.687 44.0429 193.013C43.2438 193.733 42.4439 194.451 41.631 195.156C40.8996 195.792 40.1842 196.445 39.4708 197.102C38.6262 197.879 37.7742 198.645 36.9072 199.397C36.0456 200.149 35.1996 200.919 34.3503 201.685C33.9947 202.005 33.6391 202.325 33.2835 202.645C33.1075 202.803 32.9315 202.961 32.7501 203.124C31.1499 204.564 31.1499 204.564 30.6182 205.042C30.2569 205.367 29.8957 205.692 29.5348 206.018C28.7357 206.738 27.9357 207.456 27.1229 208.161C26.3914 208.797 25.6761 209.45 24.9627 210.107C24.1181 210.884 23.2661 211.65 22.3991 212.402C21.5375 213.154 20.6915 213.924 19.8421 214.69C19.3094 215.17 18.7765 215.649 18.2436 216.128C17.8823 216.453 17.5211 216.778 17.1602 217.104C16.3611 217.824 15.5611 218.543 14.7483 219.248C14.0168 219.884 13.3015 220.537 12.5881 221.193C11.7435 221.97 10.8915 222.736 10.0245 223.488C9.16291 224.241 8.31674 225.01 7.46754 225.777C6.92688 226.265 6.38604 226.752 5.84237 227.237C5.51185 227.535 5.18591 227.838 4.8656 228.148C3.80243 229.152 3.80243 229.152 2.92041 229.334C2.20603 229.152 2.0808 228.957 1.70695 228.335C1.62461 227.848 1.62461 227.848 1.62136 227.304C1.61863 227.097 1.6159 226.889 1.61309 226.676C1.61353 226.337 1.61353 226.337 1.61397 225.992C1.61182 225.753 1.60967 225.514 1.60746 225.268C1.60137 224.477 1.60013 223.686 1.59944 222.894C1.59738 222.345 1.59523 221.795 1.59298 221.245C1.58915 220.092 1.58794 218.939 1.58834 217.787C1.58873 216.456 1.58198 215.126 1.57186 213.795C1.56247 212.513 1.56019 211.231 1.56057 209.949C1.55981 209.405 1.55698 208.86 1.55204 208.316C1.54576 207.554 1.54761 206.792 1.55146 206.03C1.54787 205.806 1.54427 205.581 1.54056 205.35C1.55733 204.045 1.73486 203.324 2.67264 202.391C2.7764 202.299 2.88017 202.207 2.98708 202.112C3.18922 201.919 3.18922 201.919 3.39545 201.722C3.51591 201.622 3.63638 201.522 3.76049 201.419C4.51427 200.778 5.24694 200.117 5.97405 199.447C6.81854 198.67 7.6706 197.903 8.53764 197.152C9.3992 196.399 10.2452 195.629 11.0946 194.863C11.6273 194.384 12.1602 193.905 12.6931 193.426C13.0544 193.101 13.4156 192.775 13.7765 192.45C14.5756 191.729 15.3756 191.011 16.1884 190.306C16.9199 189.67 17.6352 189.017 18.3486 188.36C19.1932 187.584 20.0452 186.817 20.9122 186.065C21.7738 185.313 22.6198 184.543 23.4692 183.777C24.0019 183.297 24.5348 182.818 25.0677 182.339C25.429 182.014 25.7902 181.689 26.1511 181.363C26.9502 180.643 27.7502 179.924 28.563 179.22C29.2945 178.583 30.0098 177.93 30.7232 177.274C31.5678 176.497 32.4198 175.731 33.2868 174.979C34.1484 174.227 34.9944 173.457 35.8438 172.69C36.3765 172.211 36.9094 171.732 37.4423 171.253C37.8036 170.928 38.1648 170.603 38.5257 170.277C39.3248 169.557 40.1248 168.838 40.9376 168.133C41.6691 167.497 42.3844 166.844 43.0978 166.188C43.9424 165.411 44.7944 164.645 45.6614 163.893C46.523 163.14 47.369 162.37 48.2184 161.604C48.5739 161.284 48.9295 160.964 49.2851 160.645C49.4611 160.486 49.6372 160.328 49.8185 160.165C51.4187 158.726 51.4187 158.726 51.9504 158.248C52.3118 157.923 52.6729 157.597 53.0338 157.272C53.8329 156.552 54.6329 155.833 55.4458 155.128C56.1772 154.492 56.8926 153.839 57.606 153.183C58.4506 152.406 59.3025 151.639 60.1696 150.888C61.0311 150.135 61.8772 149.365 62.7265 148.599C63.2592 148.12 63.7921 147.641 64.325 147.162C64.6864 146.837 65.0475 146.511 65.4084 146.186C66.2075 145.465 67.0075 144.747 67.8203 144.042C68.5518 143.406 69.2672 142.753 69.9806 142.097C70.8252 141.32 71.6771 140.553 72.5442 139.801C73.4057 139.049 74.2518 138.279 75.1011 137.513C75.6338 137.034 76.1667 136.554 76.6996 136.075C77.061 135.75 77.4221 135.425 77.783 135.099C78.5821 134.379 79.3821 133.661 80.1949 132.956C80.9264 132.319 81.6418 131.666 82.3552 131.01C83.1998 130.233 84.0517 129.467 84.9188 128.715C85.7803 127.963 86.6264 127.193 87.4757 126.426C88.0084 125.947 88.5413 125.468 89.0742 124.989C89.4356 124.664 89.7967 124.339 90.1576 124.013C90.9567 123.293 91.7567 122.574 92.5695 121.869C93.301 121.233 94.0163 120.58 94.7298 119.924C96.2965 118.486 96.2965 118.486 96.9833 117.872C97.1112 117.757 97.2391 117.642 97.3709 117.524C97.7167 117.259 97.7167 117.259 98.3568 117.046C98.4825 116.47 98.4825 116.47 98.3568 115.767C97.9282 115.193 97.4033 114.742 96.8633 114.274C96.7349 114.161 96.6064 114.047 96.4741 113.93C96.1997 113.689 95.924 113.45 95.6473 113.212C95.0481 112.687 94.4621 112.149 93.8763 111.609C93.0318 110.832 92.1798 110.066 91.3127 109.314C90.4512 108.562 89.6052 107.792 88.7558 107.025C88.4003 106.706 88.0447 106.386 87.689 106.066C87.1503 105.582 86.6118 105.097 86.0739 104.612C85.2748 103.892 84.4748 103.173 83.662 102.468C82.8158 101.732 81.9914 100.973 81.1661 100.214C80.4328 99.5407 79.6903 98.8799 78.9382 98.2277C78.0766 97.4753 77.2306 96.7053 76.3812 95.9392C76.0257 95.6193 75.6701 95.2995 75.3144 94.9798C74.7757 94.4955 74.2372 94.0109 73.6993 93.5257C72.9002 92.8054 72.1002 92.0869 71.2874 91.3821C70.4412 90.6461 69.6168 89.887 68.7915 89.1279C68.0582 88.4544 67.3157 87.7936 66.5636 87.1414C65.702 86.389 64.856 85.619 64.0066 84.8529C63.6511 84.533 63.2955 84.2132 62.9399 83.8935C62.4011 83.4092 61.8626 82.9246 61.3247 82.4394C60.5256 81.719 59.7256 81.0006 58.9128 80.2958C58.0664 79.5596 57.2418 78.8004 56.4164 78.0411C55.6888 77.3728 54.9515 76.7178 54.2048 76.071C53.4553 75.4129 52.7216 74.7374 51.9846 74.0656C51.5201 73.6452 51.0521 73.2307 50.5786 72.8205C49.8512 72.1892 49.1405 71.5405 48.4317 70.8884C47.5871 70.1115 46.7352 69.345 45.8681 68.5932C45.0066 67.8407 44.1605 67.0708 43.3112 66.3047C42.9556 65.9848 42.6001 65.665 42.2444 65.3453C41.7057 64.8609 41.1671 64.3764 40.6292 63.8912C39.8302 63.1708 39.0302 62.4524 38.2173 61.7475C37.3712 61.0115 36.5467 60.2525 35.7215 59.4934C34.9881 58.8199 34.2457 58.1591 33.4935 57.5069C32.632 56.7545 31.7859 55.9845 30.9366 55.2184C30.581 54.8985 30.2255 54.5787 29.8698 54.259C29.3311 53.7746 28.7926 53.2901 28.2546 52.8049C27.3021 51.9462 26.3483 51.0897 25.3769 50.2523C25.0845 49.9955 24.7977 49.7322 24.5151 49.4645C24.368 49.3274 24.2208 49.1902 24.0692 49.0489C23.9386 48.9239 23.8079 48.7988 23.6733 48.67C23.1443 48.3229 22.8101 48.3282 22.189 48.396C21.8924 48.6438 21.8924 48.6438 21.9529 49.3281C21.9536 49.6594 21.9555 49.9906 21.9584 50.3219C21.9594 50.5957 21.9594 50.5957 21.9605 50.8751C21.9632 51.4949 21.9674 52.1147 21.9716 52.7345C21.9737 53.1802 21.9758 53.6259 21.9778 54.0715C21.9824 55.0447 21.9876 56.0179 21.9933 56.9911C22.0025 58.5742 22.0103 60.1574 22.0177 61.7406C22.0203 62.2937 22.0229 62.8468 22.0255 63.3999C22.0275 63.8184 22.0275 63.8184 22.0295 64.2453C22.0329 64.9674 22.0365 65.6896 22.04 66.4118C22.0617 70.7879 22.0782 75.1639 22.0913 79.54C22.0922 79.8486 22.0931 80.1572 22.094 80.4657C22.1025 83.304 22.1107 86.1423 22.1185 88.9806C22.124 90.9288 22.1296 92.877 22.1354 94.8251C22.1361 95.0678 22.1361 95.0678 22.1368 95.3154C22.1524 100.556 22.1779 105.797 22.2082 111.038C22.2394 116.426 22.2599 121.814 22.2675 127.201C22.2685 127.963 22.2697 128.724 22.271 129.486C22.2714 129.711 22.2714 129.711 22.2718 129.94C22.276 132.349 22.2915 134.759 22.3112 137.168C22.3308 139.592 22.3384 142.016 22.3348 144.44C22.3331 145.753 22.3367 147.065 22.3543 148.377C22.3703 149.58 22.3714 150.783 22.3609 151.986C22.3597 152.42 22.3639 152.854 22.3741 153.288C22.4496 156.688 22.4496 156.688 21.269 158.039C20.6048 158.7 19.8952 159.284 19.1414 159.84C18.6986 160.169 18.2897 160.528 17.8819 160.898C17.7557 161.006 17.6295 161.115 17.4994 161.227C16.9203 161.734 16.3547 162.255 15.7884 162.777C14.9542 163.544 14.1117 164.3 13.2548 165.042C12.6695 165.558 12.0955 166.086 11.5213 166.614C10.6871 167.382 9.84459 168.137 8.98769 168.88C8.4024 169.396 7.82838 169.924 7.25418 170.452C5.23416 172.309 5.23416 172.309 4.26721 173.117C4.12474 173.236 3.98228 173.355 3.8355 173.478C3.41379 173.756 3.41379 173.756 2.74705 173.73C2.13366 173.543 2.13366 173.543 1.70695 172.904C1.65258 172.367 1.65258 172.367 1.65111 171.711C1.64952 171.461 1.64792 171.21 1.64628 170.952C1.6469 170.537 1.6469 170.537 1.64753 170.113C1.64646 169.817 1.64521 169.52 1.64379 169.223C1.6404 168.402 1.63968 167.581 1.63938 166.761C1.63859 165.87 1.63535 164.979 1.63242 164.089C1.627 162.321 1.62389 160.553 1.62147 158.785C1.61849 156.672 1.61314 154.558 1.60774 152.444C1.59726 148.309 1.58931 144.174 1.5824 140.039C1.57635 136.425 1.56927 132.811 1.5613 129.197C1.51315 107.257 1.48696 85.3177 1.48853 63.3781C1.48859 62.646 1.48863 61.9139 1.48867 61.1818C1.48924 51.8362 1.49127 42.4907 1.49842 33.1451C1.5001 30.939 1.5017 28.7329 1.50287 26.5267C1.50304 26.2109 1.50304 26.2109 1.50321 25.8887C1.50375 24.8463 1.50427 23.804 1.50477 22.7616C1.50585 20.5711 1.50764 18.3806 1.51038 16.1901C1.51216 14.7315 1.51321 13.2729 1.51365 11.8143C1.51393 10.9818 1.51457 10.1494 1.51614 9.31699C1.51783 8.42376 1.51791 7.53055 1.51781 6.63731C1.51896 6.2436 1.51896 6.24357 1.52013 5.8419C1.51984 5.60644 1.51954 5.37098 1.51924 5.12837C1.51944 4.92386 1.51963 4.71935 1.51984 4.50864C1.483 3.86638 1.28039 3.84056 1.24022 3.10478Z" fill="#6C63FF"/>
<path d="M1.61958 290.625C1.61654 290.418 1.6135 290.211 1.61037 289.998C1.61033 289.773 1.61028 289.547 1.61024 289.315C1.60775 289.076 1.60525 288.838 1.60268 288.592C1.59551 287.802 1.59323 287.012 1.59159 286.222C1.58899 285.673 1.58633 285.123 1.5836 284.574C1.5788 283.422 1.57675 282.27 1.57628 281.118C1.57563 279.789 1.56701 278.461 1.55469 277.132C1.54325 275.851 1.54009 274.57 1.53998 273.289C1.53883 272.746 1.53524 272.202 1.52913 271.658C1.52129 270.897 1.52294 270.136 1.52689 269.374C1.52035 269.039 1.52035 269.039 1.51367 268.696C1.53369 267.29 1.8138 266.565 2.81663 265.567C3.00644 265.394 3.00644 265.394 3.20009 265.218C3.36474 265.058 3.36474 265.058 3.53272 264.894C3.83746 264.599 4.1521 264.316 4.46688 264.032C4.57755 263.932 4.68821 263.832 4.80223 263.729C5.54268 263.062 6.29073 262.404 7.04381 261.751C7.90536 260.998 8.7514 260.228 9.60074 259.462C10.1335 258.983 10.6663 258.504 11.1992 258.025C11.5606 257.699 11.9217 257.374 12.2827 257.049C13.0818 256.328 13.8817 255.61 14.6946 254.905C15.426 254.269 16.1414 253.616 16.8548 252.959C17.6994 252.183 18.5514 251.416 19.4184 250.664C20.28 249.912 21.126 249.142 21.9753 248.376C22.5081 247.896 23.0409 247.417 23.5738 246.938C23.9352 246.613 24.2963 246.288 24.6573 245.962C25.4564 245.242 26.2563 244.523 27.0692 243.819C27.8006 243.182 28.516 242.529 29.2294 241.873C30.074 241.096 30.926 240.33 31.793 239.578C32.6546 238.826 33.5006 238.056 34.3499 237.289C34.7055 236.97 35.0611 236.65 35.4167 236.33C35.5927 236.172 35.7687 236.013 35.9501 235.85C37.5503 234.411 37.5503 234.411 38.082 233.933C38.4433 233.608 38.8045 233.283 39.1654 232.957C39.9645 232.237 40.7645 231.518 41.5773 230.814C42.3088 230.177 43.0241 229.524 43.7375 228.868C44.5821 228.091 45.4341 227.325 46.3011 226.573C47.1627 225.82 48.0087 225.051 48.8581 224.284C49.3908 223.805 49.9237 223.326 50.4566 222.847C50.8179 222.522 51.1791 222.196 51.54 221.871C52.3391 221.151 53.1391 220.432 53.9519 219.727C54.6834 219.091 55.3987 218.438 56.1121 217.782C56.9567 217.005 57.8087 216.238 58.6757 215.487C59.5373 214.734 60.3833 213.964 61.2327 213.198C61.7654 212.719 62.2983 212.24 62.8312 211.761C63.1925 211.436 63.5537 211.11 63.9146 210.785C64.7137 210.064 65.5137 209.346 66.3265 208.641C67.058 208.005 67.7733 207.352 68.4867 206.696C69.3313 205.919 70.1833 205.152 71.0503 204.4C71.9119 203.648 72.7579 202.878 73.6073 202.112C74.14 201.633 74.6729 201.153 75.2058 200.674C75.5671 200.349 75.9283 200.024 76.2892 199.698C77.0883 198.978 77.8883 198.259 78.7011 197.555C79.5474 196.819 80.3721 196.059 81.1975 195.3C81.9251 194.632 82.6624 193.977 83.4091 193.33C83.9528 192.853 84.4871 192.366 85.0218 191.878C85.6872 191.272 86.3547 190.669 87.0353 190.079C87.7627 189.448 88.4734 188.799 89.1822 188.147C90.0268 187.37 90.8787 186.604 91.7458 185.852C92.6073 185.1 93.4534 184.33 94.3027 183.564C94.8354 183.084 95.3683 182.605 95.9012 182.126C96.2626 181.801 96.6237 181.476 96.9846 181.15C97.7837 180.43 98.5837 179.711 99.3966 179.006C100.128 178.37 100.843 177.717 101.557 177.061C102.401 176.284 103.253 175.518 104.12 174.766C104.982 174.013 105.828 173.243 106.677 172.477C107.21 171.998 107.743 171.519 108.276 171.04C108.637 170.715 108.998 170.389 109.359 170.064C110.158 169.343 110.958 168.625 111.771 167.92C112.503 167.284 113.218 166.631 113.931 165.975C114.776 165.198 115.628 164.431 116.495 163.679C117.357 162.927 118.203 162.157 119.052 161.391C119.585 160.912 120.117 160.433 120.65 159.954C121.012 159.628 121.373 159.303 121.734 158.977C123.778 157.134 123.778 157.134 124.57 156.454C124.92 156.152 125.265 155.845 125.608 155.535C125.914 155.268 125.914 155.268 126.226 154.995C126.414 154.828 126.601 154.661 126.794 154.489C127.373 154.142 127.373 154.142 128.071 154.169C128.263 154.23 128.455 154.292 128.653 154.355C128.909 154.867 128.902 155.203 128.915 155.775C128.92 155.984 128.925 156.194 128.931 156.409C128.935 156.64 128.94 156.871 128.945 157.108C128.95 157.351 128.956 157.593 128.961 157.843C129.01 160.087 129.038 162.331 129.061 164.575C129.076 166.082 129.097 167.588 129.135 169.095C129.172 170.553 129.191 172.01 129.198 173.468C129.204 174.021 129.216 174.575 129.234 175.129C129.374 179.678 129.374 179.678 128.143 181.173C127.455 181.873 126.71 182.462 125.906 183.024C125.14 183.576 124.447 184.212 123.746 184.843C123.469 185.089 123.469 185.089 123.187 185.341C123.028 185.484 122.869 185.628 122.706 185.775C122.436 186.019 122.436 186.019 122.161 186.267C121.98 186.43 121.799 186.593 121.612 186.762C121.079 187.241 120.547 187.72 120.014 188.199C119.652 188.524 119.291 188.849 118.93 189.175C118.131 189.895 117.331 190.614 116.518 191.319C115.787 191.955 115.071 192.608 114.358 193.264C113.513 194.041 112.662 194.807 111.794 195.559C110.933 196.312 110.087 197.082 109.238 197.848C108.705 198.327 108.172 198.806 107.639 199.285C107.278 199.61 106.917 199.936 106.556 200.261C105.757 200.982 104.957 201.7 104.144 202.405C103.412 203.041 102.697 203.694 101.983 204.35C101.139 205.127 100.287 205.894 99.4199 206.646C98.5583 207.398 97.7123 208.168 96.863 208.934C96.3302 209.413 95.7974 209.892 95.2645 210.372C94.9031 210.697 94.542 211.022 94.181 211.348C93.3819 212.068 92.582 212.786 91.7691 213.491C90.9228 214.227 90.0982 214.987 89.2728 215.746C88.5451 216.414 87.8078 217.069 87.0611 217.716C86.5175 218.193 85.9831 218.68 85.4485 219.168C84.783 219.774 84.1155 220.377 83.4349 220.966C82.7075 221.598 81.9968 222.247 81.288 222.899C80.4435 223.675 79.5915 224.442 78.7244 225.194C77.8629 225.946 77.0169 226.716 76.1675 227.482C75.6348 227.962 75.1019 228.441 74.569 228.92C74.2077 229.245 73.8465 229.57 73.4856 229.896C72.6865 230.616 71.8865 231.335 71.0737 232.039C70.3422 232.676 69.6269 233.329 68.9134 233.985C68.0689 234.762 67.2169 235.528 66.3499 236.28C65.4883 237.033 64.6423 237.802 63.7929 238.569C63.2602 239.048 62.7273 239.527 62.1944 240.006C61.8331 240.331 61.4719 240.656 61.111 240.982C60.3119 241.702 59.5119 242.421 58.6991 243.126C57.9676 243.762 57.2523 244.415 56.5389 245.071C55.6943 245.848 54.8423 246.615 53.9753 247.366C53.1137 248.119 52.2677 248.889 51.4183 249.655C50.8856 250.134 50.3527 250.613 49.8198 251.092C49.4585 251.417 49.0973 251.743 48.7364 252.068C47.9373 252.789 47.1373 253.507 46.3245 254.212C45.4782 254.948 44.6535 255.707 43.8281 256.467C43.1005 257.135 42.3632 257.79 41.6165 258.437C41.0728 258.914 40.5385 259.401 40.0038 259.888C39.3384 260.495 38.6709 261.098 37.9903 261.687C37.2629 262.319 36.5522 262.967 35.8434 263.619C34.9988 264.396 34.1469 265.163 33.2798 265.915C32.4183 266.667 31.5722 267.437 30.7229 268.203C30.1902 268.682 29.6573 269.161 29.1244 269.641C28.763 269.966 28.4019 270.291 28.041 270.617C27.2419 271.337 26.4419 272.055 25.629 272.76C24.8976 273.396 24.1822 274.049 23.4688 274.706C22.6242 275.483 21.7723 276.249 20.9052 277.001C20.0437 277.753 19.1976 278.523 18.3483 279.289C17.8156 279.769 17.2827 280.248 16.7498 280.727C16.3884 281.052 16.0273 281.377 15.6664 281.703C14.8673 282.423 14.0673 283.142 13.2544 283.847C12.523 284.483 11.8076 285.136 11.0942 285.792C10.2496 286.569 9.39768 287.335 8.53063 288.087C8.03866 288.517 7.55266 288.953 7.06715 289.39C6.8881 289.55 6.70906 289.71 6.52459 289.874C6.14943 290.216 5.78009 290.564 5.41615 290.917C3.71982 292.538 3.71982 292.538 2.34667 292.508C1.78911 291.866 1.62595 291.472 1.61958 290.625Z" fill="#6C63FF" fill-opacity="0.2"/>
</g>
<defs>
<clipPath id="clip0_560_48">
<rect width="294" height="131" fill="white" transform="translate(0 294) rotate(-90)"/>
</clipPath>
</defs>
</svg>
