<?xml version="1.0" encoding="UTF-8"?>
<svg version="1.1" xmlns="http://www.w3.org/2000/svg" width="1379" height="614">
<path d="M0 0 C3.5625 0.1875 3.5625 0.1875 5.5625 2.1875 C5.6875 5.5 5.6875 5.5 4.5625 9.1875 C2.93334961 10.40185547 2.93334961 10.40185547 0.90234375 11.4921875 C-3.50658808 14.08686356 -6.63071679 17.18864039 -10 21 C-10.84449707 21.93247559 -10.84449707 21.93247559 -11.70605469 22.88378906 C-13.29393024 24.64248292 -14.86852067 26.41194992 -16.4375 28.1875 C-17.12199219 28.95964844 -17.80648438 29.73179688 -18.51171875 30.52734375 C-19.60362444 31.77196352 -20.69110148 33.02048693 -21.7734375 34.2734375 C-25.27042933 38.295799 -28.86609365 42.23129566 -32.4375 46.1875 C-33.93778679 47.85390851 -35.43778872 49.52057353 -36.9375 51.1875 C-39.9375 54.52083333 -42.9375 57.85416667 -45.9375 61.1875 C-46.67742188 62.00992188 -47.41734375 62.83234375 -48.1796875 63.6796875 C-49.70458244 65.37342894 -51.23065402 67.06611169 -52.7578125 68.7578125 C-56.13662708 72.50314256 -59.50645965 76.25268207 -62.8125 80.0625 C-66.26466078 84.02847076 -69.82500881 87.89267646 -73.38574219 91.76074219 C-76.54447965 95.1977442 -79.64388336 98.67771321 -82.703125 102.203125 C-86.23250714 106.24124691 -89.84384226 110.20664681 -93.4375 114.1875 C-94.93778679 115.85390851 -96.43778872 117.52057353 -97.9375 119.1875 C-100.2092129 121.71250493 -102.48185414 124.23663304 -104.7578125 126.7578125 C-108.13662708 130.50314256 -111.50645965 134.25268207 -114.8125 138.0625 C-118.26466078 142.02847076 -121.82500881 145.89267646 -125.38574219 149.76074219 C-128.54447965 153.1977442 -131.64388336 156.67771321 -134.703125 160.203125 C-138.23250714 164.24124691 -141.84384226 168.20664681 -145.4375 172.1875 C-146.93778679 173.85390851 -148.43778872 175.52057353 -149.9375 177.1875 C-152.2092129 179.71250493 -154.48185414 182.23663304 -156.7578125 184.7578125 C-160.13662708 188.50314256 -163.50645965 192.25268207 -166.8125 196.0625 C-170.26466078 200.02847076 -173.82500881 203.89267646 -177.38574219 207.76074219 C-180.54447965 211.1977442 -183.64388336 214.67771321 -186.703125 218.203125 C-190.23250714 222.24124691 -193.84384226 226.20664681 -197.4375 230.1875 C-198.93778679 231.85390851 -200.43778872 233.52057353 -201.9375 235.1875 C-204.2092129 237.71250493 -206.48185414 240.23663304 -208.7578125 242.7578125 C-212.13662708 246.50314256 -215.50645965 250.25268207 -218.8125 254.0625 C-222.26466078 258.02847076 -225.82500881 261.89267646 -229.38574219 265.76074219 C-232.54447965 269.1977442 -235.64388336 272.67771321 -238.703125 276.203125 C-242.23250714 280.24124691 -245.84384226 284.20664681 -249.4375 288.1875 C-250.93778679 289.85390851 -252.43778872 291.52057353 -253.9375 293.1875 C-256.2092129 295.71250493 -258.48185414 298.23663304 -260.7578125 300.7578125 C-264.13662708 304.50314256 -267.50645965 308.25268207 -270.8125 312.0625 C-274.26466078 316.02847076 -277.82500881 319.89267646 -281.38574219 323.76074219 C-284.54447965 327.1977442 -287.64388336 330.67771321 -290.703125 334.203125 C-294.23250714 338.24124691 -297.84384226 342.20664681 -301.4375 346.1875 C-302.93778679 347.85390851 -304.43778872 349.52057353 -305.9375 351.1875 C-308.2092129 353.71250493 -310.48185414 356.23663304 -312.7578125 358.7578125 C-316.13662708 362.50314256 -319.50645965 366.25268207 -322.8125 370.0625 C-326.26466078 374.02847076 -329.82500881 377.89267646 -333.38574219 381.76074219 C-336.54447965 385.1977442 -339.64388336 388.67771321 -342.703125 392.203125 C-346.23250714 396.24124691 -349.84384226 400.20664681 -353.4375 404.1875 C-354.93778679 405.85390851 -356.43778872 407.52057353 -357.9375 409.1875 C-360.2092129 411.71250493 -362.48185414 414.23663304 -364.7578125 416.7578125 C-368.13662708 420.50314256 -371.50645965 424.25268207 -374.8125 428.0625 C-378.26466078 432.02847076 -381.82500881 435.89267646 -385.38574219 439.76074219 C-388.54447965 443.1977442 -391.64388336 446.67771321 -394.703125 450.203125 C-398.23250714 454.24124691 -401.84384226 458.20664681 -405.4375 462.1875 C-406.93778679 463.85390851 -408.43778872 465.52057353 -409.9375 467.1875 C-412.2092129 469.71250493 -414.48185414 472.23663304 -416.7578125 474.7578125 C-420.13662708 478.50314256 -423.50645965 482.25268207 -426.8125 486.0625 C-430.26466078 490.02847076 -433.82500881 493.89267646 -437.38574219 497.76074219 C-440.54447965 501.1977442 -443.64388336 504.67771321 -446.703125 508.203125 C-450.23250714 512.24124691 -453.84384226 516.20664681 -457.4375 520.1875 C-458.93778679 521.85390851 -460.43778872 523.52057353 -461.9375 525.1875 C-464.2092129 527.71250493 -466.48185414 530.23663304 -468.7578125 532.7578125 C-472.13662708 536.50314256 -475.50645965 540.25268207 -478.8125 544.0625 C-482.26533819 548.029249 -485.82627381 551.89432669 -489.38793945 555.76293945 C-492.52267052 559.17348806 -495.59476302 562.62909116 -498.62890625 566.12890625 C-500.8676125 568.6770665 -503.15160212 571.18160593 -505.4375 573.6875 C-508.30221815 576.82833556 -511.14935902 579.97850756 -513.9375 583.1875 C-514.75541016 584.115625 -514.75541016 584.115625 -515.58984375 585.0625 C-517.04104503 586.73153488 -518.46522981 588.42406451 -519.87890625 590.125 C-520.75207026 591.14629005 -521.62576617 592.16712558 -522.5 593.1875 C-523.29535156 594.13625 -524.09070313 595.085 -524.91015625 596.0625 C-527.4375 598.1875 -527.4375 598.1875 -530.5 598.71875 C-533.96392314 598.09229582 -535.03074712 597.26469133 -537.375 594.6875 C-538.05820312 593.95015625 -538.74140625 593.2128125 -539.4453125 592.453125 C-540.10273437 591.70546875 -540.76015625 590.9578125 -541.4375 590.1875 C-542.26894531 589.25164062 -542.26894531 589.25164062 -543.1171875 588.296875 C-544.23717476 587.02148281 -545.35011774 585.73988029 -546.45703125 584.453125 C-548.90355851 581.65433642 -551.41830278 578.92063546 -553.9375 576.1875 C-557.58189467 572.22911348 -561.17664278 568.23572594 -564.703125 564.171875 C-568.23250714 560.13375309 -571.84384226 556.16835319 -575.4375 552.1875 C-577.68546977 549.69062008 -579.93258007 547.19296849 -582.1796875 544.6953125 C-583.70458244 543.00157106 -585.23065402 541.30888831 -586.7578125 539.6171875 C-590.13662708 535.87185744 -593.50645965 532.12231793 -596.8125 528.3125 C-599.79666686 524.88417808 -602.85938484 521.53129199 -605.9375 518.1875 C-609.58161716 514.22885351 -613.17663655 510.23573312 -616.703125 506.171875 C-620.23250714 502.13375309 -623.84384226 498.16835319 -627.4375 494.1875 C-629.68546977 491.69062008 -631.93258007 489.19296849 -634.1796875 486.6953125 C-635.70458244 485.00157106 -637.23065402 483.30888831 -638.7578125 481.6171875 C-642.13662708 477.87185744 -645.50645965 474.12231793 -648.8125 470.3125 C-651.79666686 466.88417808 -654.85938484 463.53129199 -657.9375 460.1875 C-661.58161716 456.22885351 -665.17663655 452.23573312 -668.703125 448.171875 C-672.23250714 444.13375309 -675.84384226 440.16835319 -679.4375 436.1875 C-680.93778679 434.52109149 -682.43778872 432.85442647 -683.9375 431.1875 C-684.68 430.3625 -685.4225 429.5375 -686.1875 428.6875 C-692.9375 421.1875 -692.9375 421.1875 -695.1796875 418.6953125 C-696.70458244 417.00157106 -698.23065402 415.30888831 -699.7578125 413.6171875 C-703.13662708 409.87185744 -706.50645965 406.12231793 -709.8125 402.3125 C-712.79666686 398.88417808 -715.85938484 395.53129199 -718.9375 392.1875 C-722.58161716 388.22885351 -726.17663655 384.23573312 -729.703125 380.171875 C-733.23250714 376.13375309 -736.84384226 372.16835319 -740.4375 368.1875 C-742.68546977 365.69062008 -744.93258007 363.19296849 -747.1796875 360.6953125 C-748.70458244 359.00157106 -750.23065402 357.30888831 -751.7578125 355.6171875 C-755.13662708 351.87185744 -758.50645965 348.12231793 -761.8125 344.3125 C-764.79666686 340.88417808 -767.85938484 337.53129199 -770.9375 334.1875 C-774.58161716 330.22885351 -778.17663655 326.23573312 -781.703125 322.171875 C-785.23250714 318.13375309 -788.84384226 314.16835319 -792.4375 310.1875 C-794.68546977 307.69062008 -796.93258007 305.19296849 -799.1796875 302.6953125 C-800.70458244 301.00157106 -802.23065402 299.30888831 -803.7578125 297.6171875 C-807.13662708 293.87185744 -810.50645965 290.12231793 -813.8125 286.3125 C-817.26533819 282.345751 -820.82627381 278.48067331 -824.38793945 274.61206055 C-827.52267052 271.20151194 -830.59476302 267.74590884 -833.62890625 264.24609375 C-835.8676125 261.6979335 -838.15160212 259.19339407 -840.4375 256.6875 C-843.28274228 253.56842989 -846.1094958 250.43994609 -848.875 247.25 C-851.8363351 243.8406142 -854.87902486 240.5095569 -857.9375 237.1875 C-861.58164329 233.22887814 -865.17663717 229.2357324 -868.703125 225.171875 C-872.23250714 221.13375309 -875.84384226 217.16835319 -879.4375 213.1875 C-881.68546977 210.69062008 -883.93258007 208.19296849 -886.1796875 205.6953125 C-887.70458244 204.00157106 -889.23065402 202.30888831 -890.7578125 200.6171875 C-894.13662708 196.87185744 -897.50645965 193.12231793 -900.8125 189.3125 C-903.79666686 185.88417808 -906.85938484 182.53129199 -909.9375 179.1875 C-913.58161716 175.22885351 -917.17663655 171.23573312 -920.703125 167.171875 C-924.23250714 163.13375309 -927.84384226 159.16835319 -931.4375 155.1875 C-932.93778679 153.52109149 -934.43778872 151.85442647 -935.9375 150.1875 C-936.68 149.3625 -937.4225 148.5375 -938.1875 147.6875 C-944.9375 140.1875 -944.9375 140.1875 -947.1796875 137.6953125 C-948.70458244 136.00157106 -950.23065402 134.30888831 -951.7578125 132.6171875 C-955.13662708 128.87185744 -958.50645965 125.12231793 -961.8125 121.3125 C-964.79666686 117.88417808 -967.85938484 114.53129199 -970.9375 111.1875 C-974.58161716 107.22885351 -978.17663655 103.23573312 -981.703125 99.171875 C-985.23250714 95.13375309 -988.84384226 91.16835319 -992.4375 87.1875 C-994.68546977 84.69062008 -996.93258007 82.19296849 -999.1796875 79.6953125 C-1000.70458244 78.00157106 -1002.23065402 76.30888831 -1003.7578125 74.6171875 C-1007.13662708 70.87185744 -1010.50645965 67.12231793 -1013.8125 63.3125 C-1016.79666686 59.88417808 -1019.85938484 56.53129199 -1022.9375 53.1875 C-1026.58161716 49.22885351 -1030.17663655 45.23573312 -1033.703125 41.171875 C-1037.23249465 37.13376738 -1040.84320631 33.16775811 -1044.4375 29.1875 C-1046.72582719 26.6534464 -1049.01256262 24.11849305 -1051.28515625 21.5703125 C-1052.68447014 20.02116283 -1054.1080555 18.49348123 -1055.55859375 16.9921875 C-1060.26698796 12.00905802 -1060.26698796 12.00905802 -1061.125 7.875 C-1060.26845884 4.52670273 -1059.35471688 3.93972688 -1056.4375 2.1875 C-1054.15324688 1.80159664 -1054.15324688 1.80159664 -1051.59977722 1.78636169 C-1050.62835281 1.77356674 -1049.65692841 1.76077179 -1048.65606689 1.74758911 C-1047.06710602 1.74962845 -1047.06710602 1.74962845 -1045.44604492 1.75170898 C-1044.32529068 1.74163315 -1043.20453644 1.73155731 -1042.04981995 1.72117615 C-1038.33910182 1.69264362 -1034.62878979 1.68681663 -1030.91796875 1.68359375 C-1028.33970471 1.6739557 -1025.76144233 1.66386345 -1023.18318176 1.65333557 C-1017.77531433 1.63536042 -1012.36760818 1.62968751 -1006.9597168 1.6315918 C-1000.71899017 1.63339274 -994.4790427 1.6017636 -988.23851317 1.55436081 C-982.22526245 1.51032024 -976.21243289 1.49962991 -970.1989994 1.50142097 C-967.64532605 1.49788152 -965.09164689 1.48461561 -962.5380764 1.46142387 C-958.9637748 1.43200359 -955.391473 1.44066229 -951.81713867 1.45874023 C-950.76390411 1.44188171 -949.71066956 1.42502319 -948.6255188 1.40765381 C-942.50433406 1.48626079 -939.12344915 2.31833684 -934.74721241 6.71370029 C-934.31500731 7.2000542 -933.88280222 7.6864081 -933.4375 8.1875 C-932.53257812 9.13496094 -932.53257812 9.13496094 -931.609375 10.1015625 C-931.14015625 10.66617187 -930.6709375 11.23078125 -930.1875 11.8125 C-927.18244819 15.34546632 -924.08276201 18.77951235 -920.9375 22.1875 C-917.29282776 26.14562635 -913.69835095 30.13928129 -910.171875 34.203125 C-906.64249286 38.24124691 -903.03115774 42.20664681 -899.4375 46.1875 C-897.18953023 48.68437992 -894.94241993 51.18203151 -892.6953125 53.6796875 C-891.17041756 55.37342894 -889.64434598 57.06611169 -888.1171875 58.7578125 C-884.73837292 62.50314256 -881.36854035 66.25268207 -878.0625 70.0625 C-875.07833314 73.49082192 -872.01561516 76.84370801 -868.9375 80.1875 C-865.29338284 84.14614649 -861.69836345 88.13926688 -858.171875 92.203125 C-854.64249286 96.24124691 -851.03115774 100.20664681 -847.4375 104.1875 C-845.18953023 106.68437992 -842.94241993 109.18203151 -840.6953125 111.6796875 C-839.17041756 113.37342894 -837.64434598 115.06611169 -836.1171875 116.7578125 C-832.73837292 120.50314256 -829.36854035 124.25268207 -826.0625 128.0625 C-823.07833314 131.49082192 -820.01561516 134.84370801 -816.9375 138.1875 C-813.29338284 142.14614649 -809.69836345 146.13926688 -806.171875 150.203125 C-802.64249286 154.24124691 -799.03115774 158.20664681 -795.4375 162.1875 C-793.18953023 164.68437992 -790.94241993 167.18203151 -788.6953125 169.6796875 C-787.17041756 171.37342894 -785.64434598 173.06611169 -784.1171875 174.7578125 C-780.73837292 178.50314256 -777.36854035 182.25268207 -774.0625 186.0625 C-771.07833314 189.49082192 -768.01561516 192.84370801 -764.9375 196.1875 C-761.29338284 200.14614649 -757.69836345 204.13926688 -754.171875 208.203125 C-750.64249286 212.24124691 -747.03115774 216.20664681 -743.4375 220.1875 C-741.93721321 221.85390851 -740.43721128 223.52057353 -738.9375 225.1875 C-738.195 226.0125 -737.4525 226.8375 -736.6875 227.6875 C-729.9375 235.1875 -729.9375 235.1875 -727.6953125 237.6796875 C-726.17041756 239.37342894 -724.64434598 241.06611169 -723.1171875 242.7578125 C-719.73837292 246.50314256 -716.36854035 250.25268207 -713.0625 254.0625 C-710.07833314 257.49082192 -707.01561516 260.84370801 -703.9375 264.1875 C-700.29338284 268.14614649 -696.69836345 272.13926688 -693.171875 276.203125 C-689.64249286 280.24124691 -686.03115774 284.20664681 -682.4375 288.1875 C-680.18953023 290.68437992 -677.94241993 293.18203151 -675.6953125 295.6796875 C-674.17041756 297.37342894 -672.64434598 299.06611169 -671.1171875 300.7578125 C-667.73837292 304.50314256 -664.36854035 308.25268207 -661.0625 312.0625 C-658.07833314 315.49082192 -655.01561516 318.84370801 -651.9375 322.1875 C-648.29338284 326.14614649 -644.69836345 330.13926688 -641.171875 334.203125 C-637.64249286 338.24124691 -634.03115774 342.20664681 -630.4375 346.1875 C-628.18953023 348.68437992 -625.94241993 351.18203151 -623.6953125 353.6796875 C-622.17041756 355.37342894 -620.64434598 357.06611169 -619.1171875 358.7578125 C-615.73837292 362.50314256 -612.36854035 366.25268207 -609.0625 370.0625 C-606.07833314 373.49082192 -603.01561516 376.84370801 -599.9375 380.1875 C-596.29338284 384.14614649 -592.69836345 388.13926688 -589.171875 392.203125 C-585.64249286 396.24124691 -582.03115774 400.20664681 -578.4375 404.1875 C-576.18953023 406.68437992 -573.94241993 409.18203151 -571.6953125 411.6796875 C-570.17041756 413.37342894 -568.64434598 415.06611169 -567.1171875 416.7578125 C-563.73837292 420.50314256 -560.36854035 424.25268207 -557.0625 428.0625 C-554.07832278 431.49083383 -551.01518265 434.84329959 -547.9375 438.1875 C-541.19386647 445.53069549 -541.19386647 445.53069549 -538.3125 448.75 C-537.77367187 449.34941406 -537.23484375 449.94882812 -536.6796875 450.56640625 C-535.4375 452.1875 -535.4375 452.1875 -534.4375 455.1875 C-531.73549579 455.77689897 -531.73549579 455.77689897 -528.4375 455.1875 C-525.74691525 453.17877577 -523.629741 450.71849789 -521.4375 448.1875 C-520.90511719 447.58550781 -520.37273438 446.98351562 -519.82421875 446.36328125 C-518.69434918 445.07700969 -517.57103715 443.78495863 -516.453125 442.48828125 C-513.99269651 439.67976889 -511.46771422 436.93291506 -508.9375 434.1875 C-505.29313142 430.22908886 -501.69835784 426.23572665 -498.171875 422.171875 C-494.64249286 418.13375309 -491.03115774 414.16835319 -487.4375 410.1875 C-485.93721321 408.52109149 -484.43721128 406.85442647 -482.9375 405.1875 C-480.6657871 402.66249507 -478.39314586 400.13836696 -476.1171875 397.6171875 C-472.73837292 393.87185744 -469.36854035 390.12231793 -466.0625 386.3125 C-462.61033922 382.34652924 -459.04999119 378.48232354 -455.48925781 374.61425781 C-452.33052035 371.1772558 -449.23111664 367.69728679 -446.171875 364.171875 C-442.64249286 360.13375309 -439.03115774 356.16835319 -435.4375 352.1875 C-433.93721321 350.52109149 -432.43721128 348.85442647 -430.9375 347.1875 C-428.6657871 344.66249507 -426.39314586 342.13836696 -424.1171875 339.6171875 C-420.73837292 335.87185744 -417.36854035 332.12231793 -414.0625 328.3125 C-410.61033922 324.34652924 -407.04999119 320.48232354 -403.48925781 316.61425781 C-400.33052035 313.1772558 -397.23111664 309.69728679 -394.171875 306.171875 C-390.64249286 302.13375309 -387.03115774 298.16835319 -383.4375 294.1875 C-381.93721321 292.52109149 -380.43721128 290.85442647 -378.9375 289.1875 C-376.6657871 286.66249507 -374.39314586 284.13836696 -372.1171875 281.6171875 C-368.73837292 277.87185744 -365.36854035 274.12231793 -362.0625 270.3125 C-358.60966181 266.345751 -355.04872619 262.48067331 -351.48706055 258.61206055 C-348.35232948 255.20151194 -345.28023698 251.74590884 -342.24609375 248.24609375 C-339.1597052 244.73307698 -335.99121222 241.29450182 -332.83984375 237.83984375 C-330.86808156 235.66289004 -328.92384663 233.46911326 -327 231.25 C-324.0386649 227.8406142 -320.99597514 224.5095569 -317.9375 221.1875 C-314.29335671 217.22887814 -310.69836283 213.2357324 -307.171875 209.171875 C-303.64249286 205.13375309 -300.03115774 201.16835319 -296.4375 197.1875 C-294.93721321 195.52109149 -293.43721128 193.85442647 -291.9375 192.1875 C-289.6657871 189.66249507 -287.39314586 187.13836696 -285.1171875 184.6171875 C-281.73837292 180.87185744 -278.36854035 177.12231793 -275.0625 173.3125 C-271.61033922 169.34652924 -268.04999119 165.48232354 -264.48925781 161.61425781 C-261.33052035 158.1772558 -258.23111664 154.69728679 -255.171875 151.171875 C-251.64249286 147.13375309 -248.03115774 143.16835319 -244.4375 139.1875 C-242.93721321 137.52109149 -241.43721128 135.85442647 -239.9375 134.1875 C-237.6657871 131.66249507 -235.39314586 129.13836696 -233.1171875 126.6171875 C-229.08954343 122.15264645 -225.07213474 117.6819829 -221.14453125 113.12890625 C-219.93957086 111.75850507 -218.70456357 110.41424487 -217.44921875 109.08984375 C-216.80597656 108.40019531 -216.16273438 107.71054688 -215.5 107 C-214.91347656 106.38769531 -214.32695313 105.77539062 -213.72265625 105.14453125 C-212.0943355 102.66493036 -212.11948384 101.09857104 -212.4375 98.1875 C-213.59948786 96.79739998 -213.59948786 96.79739998 -216.80931205 97.08056152 C-218.36312245 97.08396687 -219.91692558 97.09308761 -221.4706831 97.10635185 C-222.75519565 97.11136201 -222.75519565 97.11136201 -224.06565794 97.11647338 C-226.97286661 97.12899372 -229.8799855 97.14868449 -232.78715515 97.16818237 C-234.87756165 97.17847507 -236.96797056 97.18828985 -239.05838138 97.19766438 C-243.62306518 97.219027 -248.187719 97.24346307 -252.75237465 97.2701683 C-260.17819629 97.31345782 -267.60404167 97.34974499 -275.02990723 97.38458252 C-277.62424744 97.39679488 -280.21858764 97.40900837 -282.81292784 97.42122293 C-284.77559829 97.43044233 -284.77559829 97.43044233 -286.77791865 97.43984798 C-290.16529821 97.45586019 -293.55267474 97.47243907 -296.94005067 97.48919838 C-317.4658265 97.59071833 -337.99159797 97.66818021 -358.51753235 97.72927856 C-359.96492751 97.73361805 -361.41232266 97.73795886 -362.85971781 97.74230097 C-376.17266289 97.78212164 -389.48561289 97.82017597 -402.79856622 97.8571279 C-411.93643291 97.8825291 -421.07429665 97.90885165 -430.2121582 97.93603516 C-431.35030033 97.93940156 -431.35030033 97.93940156 -432.51143523 97.94283598 C-457.09457973 98.01588003 -481.67724569 98.13515448 -506.26007832 98.27742524 C-531.5308248 98.42341131 -556.80130288 98.51980536 -582.07245725 98.55513284 C-585.64414424 98.56015523 -589.2158301 98.56575727 -592.78751564 98.57172012 C-593.8419154 98.57345689 -593.8419154 98.57345689 -594.91761616 98.57522875 C-606.21921065 98.59532526 -617.51989032 98.66772499 -628.82110067 98.7600193 C-640.19042798 98.85179076 -651.55863147 98.887629 -662.92841765 98.87050746 C-669.08597826 98.86288581 -675.24092883 98.87959089 -681.3979969 98.96212387 C-687.0407512 99.03723296 -692.67919326 99.04246017 -698.32219253 98.99319614 C-700.35816116 98.98757001 -702.3943963 99.00713429 -704.42980834 99.05506895 C-720.37703453 99.40900755 -720.37703453 99.40900755 -726.71297801 93.87510514 C-729.81610272 90.76201504 -732.55508558 87.4362381 -735.16512249 83.90333976 C-736.70430466 81.82770581 -738.3877743 79.91136574 -740.125 78 C-740.63417969 77.40832031 -741.14335938 76.81664063 -741.66796875 76.20703125 C-744.0463442 73.49263807 -746.49258905 70.84177613 -748.9375 68.1875 C-752.53770455 64.27775645 -756.08167782 60.32883329 -759.5625 56.3125 C-761.98300075 53.56926582 -764.45950642 50.87865432 -766.9375 48.1875 C-770.53762756 44.27768405 -774.08167605 40.32883532 -777.5625 36.3125 C-779.98300341 33.5692628 -782.45964798 30.87878746 -784.9375 28.1875 C-793.64697971 18.71964383 -793.64697971 18.71964383 -797.4375 14.1875 C-797.99695313 13.51976562 -798.55640625 12.85203125 -799.1328125 12.1640625 C-800.4375 10.1875 -800.4375 10.1875 -800.3125 7.0625 C-799.4375 4.1875 -799.4375 4.1875 -796.4375 2.1875 C-793.92090374 1.93269098 -793.92090374 1.93269098 -790.84274387 1.92578697 C-789.66870495 1.91832148 -788.49466602 1.91085599 -787.28505015 1.90316427 C-785.33731665 1.90606637 -785.33731665 1.90606637 -783.35023499 1.9090271 C-781.95823093 1.90402361 -780.56622978 1.89814765 -779.17423272 1.89147437 C-775.32406671 1.87558889 -771.47397354 1.8722377 -767.62377872 1.87082577 C-763.44635771 1.86712833 -759.26897636 1.85194405 -755.09157848 1.83821106 C-746.79991409 1.81280064 -738.50826216 1.79819365 -730.21656789 1.78689598 C-720.30202322 1.7729275 -710.3875148 1.74784442 -700.47299378 1.72251268 C-681.07703143 1.6733847 -661.68105943 1.63613437 -642.28506272 1.60373981 C-625.33353419 1.57537873 -608.38202258 1.54221566 -591.43051147 1.50488281 C-488.5239389 1.27917488 -385.61753128 1.15643146 -282.71070614 1.1638189 C-279.27677014 1.16406171 -275.84283413 1.16426544 -272.40889812 1.16446257 C-228.57367654 1.16714447 -184.738463 1.17664222 -140.9032532 1.21014106 C-130.5555542 1.21804154 -120.2078557 1.22551696 -109.86015511 1.23101234 C-108.37867628 1.23179945 -108.37867628 1.23179945 -106.86726858 1.23260245 C-101.97816709 1.23516211 -97.08906554 1.23759073 -92.19996393 1.23991501 C-81.92545306 1.24500118 -71.65095531 1.25339443 -61.37645117 1.26624168 C-54.53484804 1.27457716 -47.69324832 1.27948616 -40.85164043 1.28155088 C-36.94714401 1.28285872 -33.04266709 1.28585194 -29.13817704 1.29323649 C-24.94849818 1.30114689 -20.75885435 1.30149954 -16.56916809 1.30102539 C-14.722454 1.30641813 -14.722454 1.30641813 -12.83843255 1.31191981 C-11.73397436 1.31054526 -10.62951617 1.30917072 -9.49158955 1.30775452 C-8.53231471 1.30867631 -7.57303988 1.3095981 -6.58469611 1.31054783 C-3.57219622 1.13791266 -3.45116167 0.18824518 0 0 Z " fill="#f7f8fa" transform="translate(1364.4375,5.8125)"/>
<path d="M0 0 C0.96997925 -0.01424011 1.9399585 -0.02848022 2.93933105 -0.04315186 C3.99706726 -0.04336334 5.05480347 -0.04357483 6.14459229 -0.04379272 C7.26374023 -0.05547485 8.38288818 -0.06715698 9.53594971 -0.07919312 C13.24184698 -0.11283236 16.94734476 -0.12352224 20.65338135 -0.13119507 C23.2292495 -0.14337296 25.80511622 -0.15585887 28.38098145 -0.16864014 C33.78464697 -0.19113283 39.18815226 -0.20074773 44.59185791 -0.20297241 C50.82471429 -0.20600382 57.0565764 -0.24640717 63.28914428 -0.30412066 C69.29706494 -0.35778201 75.30444083 -0.37255384 81.3126297 -0.37308884 C83.86270375 -0.37847098 86.41278068 -0.39532656 88.96269989 -0.42393875 C92.53460989 -0.46067129 96.10384887 -0.45294466 99.67584229 -0.43441772 C101.25030121 -0.46509842 101.25030121 -0.46509842 102.85656738 -0.49639893 C109.45409216 -0.40255097 112.85331225 0.91029023 117.53581619 5.61058998 C118.34424532 6.50024232 118.34424532 6.50024232 119.16900635 7.40786743 C119.92312868 8.17960832 119.92312868 8.17960832 120.69248581 8.96693993 C122.07183293 10.39526171 123.40264712 11.86995741 124.73150635 13.34536743 C125.20056396 13.86405396 125.66962158 14.38274048 126.15289307 14.91714478 C129.2829321 18.3876631 132.37165011 21.8937712 135.43463135 25.42349243 C138.96401349 29.46161434 142.57534861 33.42701424 146.16900635 37.40786743 C148.41697612 39.90474735 150.66408642 42.40239894 152.91119385 44.90005493 C154.43608879 46.59379638 155.96216036 48.28647912 157.48931885 49.97817993 C160.86813343 53.72350999 164.237966 57.47304951 167.54400635 61.28286743 C170.5281732 64.71118936 173.59089119 68.06407544 176.66900635 71.40786743 C180.31312351 75.36651392 183.9081429 79.35963431 187.43463135 83.42349243 C190.96401349 87.46161434 194.57534861 91.42701424 198.16900635 95.40786743 C200.41697612 97.90474735 202.66408642 100.40239894 204.91119385 102.90005493 C206.43608879 104.59379638 207.96216036 106.28647912 209.48931885 107.97817993 C212.86813343 111.72350999 216.237966 115.47304951 219.54400635 119.28286743 C222.5281732 122.71118936 225.59089119 126.06407544 228.66900635 129.40786743 C232.31312351 133.36651392 235.9081429 137.35963431 239.43463135 141.42349243 C242.96401349 145.46161434 246.57534861 149.42701424 250.16900635 153.40786743 C251.66929314 155.07427594 253.16929507 156.74094096 254.66900635 158.40786743 C255.41150635 159.23286743 256.15400635 160.05786743 256.91900635 160.90786743 C263.66900635 168.40786743 263.66900635 168.40786743 265.91119385 170.90005493 C267.43608879 172.59379638 268.96216036 174.28647912 270.48931885 175.97817993 C273.86813343 179.72350999 277.237966 183.47304951 280.54400635 187.28286743 C283.5281732 190.71118936 286.59089119 194.06407544 289.66900635 197.40786743 C293.31312351 201.36651392 296.9081429 205.35963431 300.43463135 209.42349243 C303.96401349 213.46161434 307.57534861 217.42701424 311.16900635 221.40786743 C313.41697612 223.90474735 315.66408642 226.40239894 317.91119385 228.90005493 C319.43608879 230.59379638 320.96216036 232.28647912 322.48931885 233.97817993 C325.86813343 237.72350999 329.237966 241.47304951 332.54400635 245.28286743 C335.5281732 248.71118936 338.59089119 252.06407544 341.66900635 255.40786743 C345.31312351 259.36651392 348.9081429 263.35963431 352.43463135 267.42349243 C355.96401349 271.46161434 359.57534861 275.42701424 363.16900635 279.40786743 C365.41697612 281.90474735 367.66408642 284.40239894 369.91119385 286.90005493 C371.43608879 288.59379638 372.96216036 290.28647912 374.48931885 291.97817993 C377.86813343 295.72350999 381.237966 299.47304951 384.54400635 303.28286743 C387.5281732 306.71118936 390.59089119 310.06407544 393.66900635 313.40786743 C397.31312351 317.36651392 400.9081429 321.35963431 404.43463135 325.42349243 C407.96401349 329.46161434 411.57534861 333.42701424 415.16900635 337.40786743 C417.41697612 339.90474735 419.66408642 342.40239894 421.91119385 344.90005493 C423.43608879 346.59379638 424.96216036 348.28647912 426.48931885 349.97817993 C429.86813343 353.72350999 433.237966 357.47304951 436.54400635 361.28286743 C439.99684454 365.24961643 443.55778015 369.11469412 447.1194458 372.98330688 C450.25417686 376.39385549 453.32626937 379.84945859 456.3604126 383.34927368 C458.59911885 385.89743393 460.88310846 388.40197336 463.16900635 390.90786743 C466.01424863 394.02693754 468.84100215 397.15542134 471.60650635 400.34536743 C474.56784145 403.75475324 477.61053121 407.08581053 480.66900635 410.40786743 C484.31314963 414.36648929 487.90814352 418.35963503 491.43463135 422.42349243 C494.96401349 426.46161434 498.57534861 430.42701424 502.16900635 434.40786743 C504.41697612 436.90474735 506.66408642 439.40239894 508.91119385 441.90005493 C510.43608879 443.59379638 511.96216036 445.28647912 513.48931885 446.97817993 C516.86813343 450.72350999 520.237966 454.47304951 523.54400635 458.28286743 C526.5281732 461.71118936 529.59089119 465.06407544 532.66900635 468.40786743 C536.31312351 472.36651392 539.9081429 476.35963431 543.43463135 480.42349243 C546.96401349 484.46161434 550.57534861 488.42701424 554.16900635 492.40786743 C556.41697612 494.90474735 558.66408642 497.40239894 560.91119385 499.90005493 C562.43608879 501.59379638 563.96216036 503.28647912 565.48931885 504.97817993 C568.86813343 508.72350999 572.237966 512.47304951 575.54400635 516.28286743 C578.5281732 519.71118936 581.59089119 523.06407544 584.66900635 526.40786743 C588.31312351 530.36651392 591.9081429 534.35963431 595.43463135 538.42349243 C598.96401349 542.46161434 602.57534861 546.42701424 606.16900635 550.40786743 C608.41697612 552.90474735 610.66408642 555.40239894 612.91119385 557.90005493 C614.43608879 559.59379638 615.96216036 561.28647912 617.48931885 562.97817993 C626.13452867 572.56117523 626.13452867 572.56117523 629.32525635 576.27114868 C630.74135242 577.91226002 632.18401367 579.53047838 633.63775635 581.13833618 C634.8907251 582.57112915 634.8907251 582.57112915 636.16900635 584.03286743 C636.95275635 584.91200806 637.73650635 585.79114868 638.54400635 586.69692993 C640.16900635 589.40786743 640.16900635 589.40786743 640.04400635 592.68130493 C639.75525635 593.58107056 639.46650635 594.48083618 639.16900635 595.40786743 C636.76953531 596.60760295 635.19314018 596.57359507 632.51173401 596.63578796 C631.52937775 596.66028519 630.54702148 596.68478241 629.53489685 596.71002197 C628.45291519 596.73156342 627.37093353 596.75310486 626.25616455 596.77529907 C625.11929199 596.80114578 623.98241943 596.82699249 622.81109619 596.85362244 C612.28682891 597.0797594 601.76102365 597.21525584 591.2349062 597.31899357 C584.1659608 597.3902425 577.10014596 597.4913937 570.03302002 597.66983032 C563.19631236 597.84243344 556.36272472 597.9293578 549.52394676 597.96484184 C546.92623338 597.99173812 544.32864378 598.04636324 541.73214149 598.1301136 C520.39357621 598.78725147 520.39357621 598.78725147 513.38247681 593.01843262 C510.09761122 589.79112605 507.33562482 586.30180093 504.70184898 582.53205681 C502.11093316 578.94160615 499.12953073 575.69448305 496.16900635 572.40786743 C495.01271729 571.11235962 495.01271729 571.11235962 493.83306885 569.79067993 C493.16017822 569.04560181 492.4872876 568.30052368 491.79400635 567.53286743 C490.65318604 566.26829712 490.65318604 566.26829712 489.48931885 564.97817993 C488.72361572 564.12997681 487.9579126 563.28177368 487.16900635 562.40786743 C484.92103658 559.91098751 482.67392628 557.41333592 480.42681885 554.91567993 C478.9019239 553.22193849 477.37585233 551.52925574 475.84869385 549.83755493 C472.46987927 546.09222487 469.1000467 542.34268536 465.79400635 538.53286743 C462.80983949 535.10454551 459.74712151 531.75165942 456.66900635 528.40786743 C453.02488919 524.44922094 449.4298698 520.45610055 445.90338135 516.39224243 C442.37399921 512.35412052 438.76266409 508.38872062 435.16900635 504.40786743 C432.92103658 501.91098751 430.67392628 499.41333592 428.42681885 496.91567993 C426.9019239 495.22193849 425.37585233 493.52925574 423.84869385 491.83755493 C420.46987927 488.09222487 417.1000467 484.34268536 413.79400635 480.53286743 C410.80983949 477.10454551 407.74712151 473.75165942 404.66900635 470.40786743 C401.02488919 466.44922094 397.4298698 462.45610055 393.90338135 458.39224243 C390.37399921 454.35412052 386.76266409 450.38872062 383.16900635 446.40786743 C380.92103658 443.91098751 378.67392628 441.41333592 376.42681885 438.91567993 C374.9019239 437.22193849 373.37585233 435.52925574 371.84869385 433.83755493 C368.46987927 430.09222487 365.1000467 426.34268536 361.79400635 422.53286743 C358.34116815 418.56611844 354.78023254 414.70104074 351.21856689 410.83242798 C348.08383583 407.42187937 345.01174333 403.96627628 341.9776001 400.46646118 C339.73889385 397.91830093 337.45490423 395.4137615 335.16900635 392.90786743 C332.32376407 389.78879732 329.49701054 386.66031352 326.73150635 383.47036743 C323.77017124 380.06098163 320.72748148 376.72992433 317.66900635 373.40786743 C314.02486306 369.44924558 310.42986917 365.45609983 306.90338135 361.39224243 C303.37399921 357.35412052 299.76266409 353.38872062 296.16900635 349.40786743 C293.92103658 346.91098751 291.67392628 344.41333592 289.42681885 341.91567993 C287.9019239 340.22193849 286.37585233 338.52925574 284.84869385 336.83755493 C281.46987927 333.09222487 278.1000467 329.34268536 274.79400635 325.53286743 C271.80983949 322.10454551 268.74712151 318.75165942 265.66900635 315.40786743 C262.02488919 311.44922094 258.4298698 307.45610055 254.90338135 303.39224243 C251.37399921 299.35412052 247.76266409 295.38872062 244.16900635 291.40786743 C241.92103658 288.91098751 239.67392628 286.41333592 237.42681885 283.91567993 C235.9019239 282.22193849 234.37585233 280.52925574 232.84869385 278.83755493 C229.46987927 275.09222487 226.1000467 271.34268536 222.79400635 267.53286743 C219.80983949 264.10454551 216.74712151 260.75165942 213.66900635 257.40786743 C210.02488919 253.44922094 206.4298698 249.45610055 202.90338135 245.39224243 C199.37399921 241.35412052 195.76266409 237.38872062 192.16900635 233.40786743 C189.92103658 230.91098751 187.67392628 228.41333592 185.42681885 225.91567993 C183.9019239 224.22193849 182.37585233 222.52925574 180.84869385 220.83755493 C177.46987927 217.09222487 174.1000467 213.34268536 170.79400635 209.53286743 C167.34116815 205.56611844 163.78023254 201.70104074 160.21856689 197.83242798 C157.08383583 194.42187937 154.01174333 190.96627628 150.9776001 187.46646118 C148.73889385 184.91830093 146.45490423 182.4137615 144.16900635 179.90786743 C141.32376407 176.78879732 138.49701054 173.66031352 135.73150635 170.47036743 C132.77017124 167.06098163 129.72748148 163.72992433 126.66900635 160.40786743 C123.02486306 156.44924558 119.42986917 152.45609983 115.90338135 148.39224243 C112.37399921 144.35412052 108.76266409 140.38872062 105.16900635 136.40786743 C102.92103658 133.91098751 100.67392628 131.41333592 98.42681885 128.91567993 C96.9019239 127.22193849 95.37585233 125.52925574 93.84869385 123.83755493 C90.46987927 120.09222487 87.1000467 116.34268536 83.79400635 112.53286743 C80.80983949 109.10454551 77.74712151 105.75165942 74.66900635 102.40786743 C71.02488919 98.44922094 67.4298698 94.45610055 63.90338135 90.39224243 C60.37399921 86.35412052 56.76266409 82.38872062 53.16900635 78.40786743 C50.92103658 75.91098751 48.67392628 73.41333592 46.42681885 70.91567993 C44.9019239 69.22193849 43.37585233 67.52925574 41.84869385 65.83755493 C38.46987927 62.09222487 35.1000467 58.34268536 31.79400635 54.53286743 C28.80983949 51.10454551 25.74712151 47.75165942 22.66900635 44.40786743 C19.02488919 40.44922094 15.4298698 36.45610055 11.90338135 32.39224243 C9.88801872 30.08637708 7.84346759 27.80847612 5.79400635 25.53286743 C5.04377197 24.69368774 4.2935376 23.85450806 3.52056885 22.98989868 C1.91912067 21.23149794 0.28730289 19.5003911 -1.37005615 17.79458618 C-8.97090644 9.84385549 -8.97090644 9.84385549 -8.83099365 3.40786743 C-5.82150868 0.79458936 -3.97247093 0.02987028 0 0 Z " fill="#f7f8fa" transform="translate(15.83099365234375,7.592132568359375)"/>
</svg>
