<svg width="1519" height="811" viewBox="0 0 1519 811" fill="none" xmlns="http://www.w3.org/2000/svg">
<g style="mix-blend-mode:multiply">
<path fill-rule="evenodd" clip-rule="evenodd" d="M397.357 484.013C396.536 485.89 394.265 488.287 395.811 490.652C397.356 493.033 393.256 497.78 392.215 498.726C391.19 499.672 389.66 501.091 390.165 503.441C390.67 505.838 386.569 507.242 385.528 508.203C384.503 509.165 381.917 513.912 380.403 515.331C378.858 516.735 378.353 521.008 381.412 522.428C384.503 523.863 386.554 529.067 382.453 530.502C378.353 531.905 377.817 536.21 379.362 538.087C380.908 539.979 383.463 546.161 385.528 547.564C387.579 548.983 391.19 559.896 392.704 562.766C394.25 565.604 399.911 576.044 399.391 580.317C398.87 584.591 404.532 588.849 406.078 589.795C407.623 590.741 414.294 596.434 416.865 597.869C419.435 599.304 426.106 601.18 425.081 612.109C424.056 623.005 423.031 643.868 423.031 648.142C423.031 652.415 420.981 656.216 419.94 657.146C418.931 658.092 418.41 663.801 418.931 666.624C419.435 669.478 419.94 680.391 415.84 693.211C411.724 706.016 412.749 714.09 412.749 715.967C412.749 717.843 410.178 723.094 409.673 724.987C409.153 726.879 411.519 731.373 413.742 734.243C415.966 737.098 414.184 742.443 413.301 746.134C412.418 749.839 412.417 750.249 412.843 752.694C413.301 755.138 411.077 757.63 409.721 758.828C408.396 760.074 407.513 767.454 408.396 773.62C409.295 779.77 411.944 790.43 411.944 791.25C411.944 792.07 412.402 801.926 415.067 803.156C417.732 804.386 416.392 808.502 427.068 808.092C430.159 807.682 433.708 807.682 435.49 809.322C437.272 810.962 441.719 809.322 445.284 808.502C448.832 807.682 447.507 805.616 443.06 804.796C438.613 803.976 435.048 801.532 433.282 798.646C431.516 795.776 431.942 792.512 430.601 790.43C429.276 788.396 424.845 784.28 431.058 780.196C437.272 776.096 442.634 767.47 443.06 764.615C443.501 761.73 442.145 760.91 439.953 760.91C437.761 760.91 433.282 753.119 442.145 749.839C451.024 746.544 448.375 735.458 446.593 733.013C444.826 730.538 443.927 727.668 446.167 725.223C448.375 722.747 452.38 729.749 456.828 725.633C461.275 721.549 456.828 715.793 458.594 714.137C460.36 712.497 471.479 721.549 479.459 708.019C483.906 699.787 476.368 694.883 475.027 692.407C473.687 689.963 467.93 685.027 469.697 683.797C471.463 682.567 477.251 687.913 480.342 689.963C483.464 691.997 488.795 694.883 492.327 689.553C495.892 684.223 498.557 683.797 498.557 679.728C498.557 675.66 500.781 673.578 502.121 673.957C503.446 674.367 506.095 671.102 508.319 665.378C510.543 659.606 516.772 655.932 514.548 650.996C512.325 646.076 512.766 641.172 518.996 638.712C525.194 636.236 523.001 632.972 525.194 632.562C527.433 632.12 529.657 632.972 531.439 630.086C533.205 627.232 537.652 628.446 538.536 628.446C539.419 628.446 545.632 627.216 546.106 622.296C546.531 617.391 548.755 612.866 551.862 609.16C554.984 605.485 554.984 596.434 554.984 591.119C554.984 585.805 552.761 581.295 557.65 576.769C562.539 572.243 563.422 570.619 566.103 565.683C568.752 560.779 572.301 562.403 572.774 551.727C573.2 541.083 570.093 536.557 566.544 538.607C562.98 540.673 560.315 538.197 557.665 534.523C555 530.817 552.319 527.143 550.095 527.143C547.872 527.143 542.557 531.227 540.775 527.521C538.977 523.847 535.902 525.471 535.003 526.323C534.136 527.143 531.88 527.963 531.88 522.617C531.88 517.271 527.007 517.697 525.209 517.697C523.412 517.697 518.57 516.057 516.788 514.417C515.006 512.792 511.016 511.941 507.467 514.827C503.919 517.697 501.695 516.057 504.345 513.187C507.01 510.301 512.34 505.775 510.133 503.331C507.893 500.886 505.244 502.101 505.244 495.951C505.244 489.8 499.472 484.88 488.811 484.045C478.134 483.225 474.585 480.78 472.819 478.32C471.037 475.844 471.479 472.17 465.265 470.53C459.051 468.859 459.051 461.494 453.721 461.494C448.39 461.494 440.379 464.38 439.953 461.084C439.496 457.82 435.048 462.298 431.942 458.624C428.835 454.918 422.621 455.738 422.164 459.034C421.706 462.298 422.621 468.464 419.041 467.644C415.493 466.824 415.95 464.79 417.259 460.264C418.615 455.738 420.382 452.064 417.732 452.064C415.083 452.064 414.61 457.804 411.503 457.804C408.396 457.804 403.964 457.804 403.05 462.708C402.167 467.644 392.846 467.644 394.612 474.204C396.379 480.765 399.139 479.929 397.309 484.029L397.357 484.013Z" fill="#F1F1F1"/>
<path fill-rule="evenodd" clip-rule="evenodd" d="M678.106 344.847C675.456 347.891 673.406 354.072 675.756 355.145C678.106 356.249 678.106 360.033 674.573 363.802C671.056 367.618 669.274 369.779 666.94 369.243C664.59 368.675 662.84 367.603 658.724 376.828C654.623 386.053 647.006 401.192 645.256 402.832C643.473 404.472 644.057 409.345 646.438 409.881C648.788 410.417 648.788 414.217 648.788 417.466C648.788 420.714 652.289 427.763 648.189 432.1C644.073 436.437 639.373 439.685 642.306 441.325C645.256 442.934 647.59 449.446 647.59 452.159C647.59 454.871 652.273 458.656 655.207 460.848C658.14 462.992 662.856 467.329 661.089 469.505C659.323 471.681 661.089 474.914 664.023 477.09C666.94 479.266 676.939 485.212 678.106 487.924C679.273 490.652 681.039 492.261 687.489 491.724C693.94 491.172 703.922 489.012 708.039 489.012C712.155 489.012 715.656 487.908 718.006 486.315C720.355 484.675 722.721 480.891 728.572 481.427C734.439 481.979 737.971 483.603 738.571 486.852C739.154 490.084 739.154 491.709 747.371 491.172C755.603 490.636 756.155 492.812 757.937 494.973C759.672 497.149 757.937 504.734 757.937 508.535C757.937 512.335 751.487 515.568 754.988 519.904C758.505 524.225 764.971 531.274 764.971 534.002C764.971 536.73 770.806 538.323 770.806 542.66C770.806 546.996 775.553 552.957 774.402 557.31C773.171 561.646 774.402 564.879 776.168 566.535C777.887 568.143 776.168 572.48 773.171 575.728C770.238 578.993 767.888 585.49 767.336 591.987C766.721 598.484 765.538 604.46 769.639 607.157C773.818 609.869 774.402 615.278 774.402 616.351C774.402 617.423 780.789 621.239 779.637 628.84C778.47 636.425 778.455 645.619 783.154 651.58C787.854 657.556 790.204 662.965 790.204 666.23C790.204 669.494 790.204 671.087 792.538 672.19C794.903 673.263 796.055 676.527 793.721 678.136C791.402 679.776 793.169 682.472 794.903 685.184C796.686 687.897 798.42 694.946 804.271 691.697C810.138 688.433 817.771 687.361 821.319 687.361C824.868 687.361 833.053 688.433 840.055 677.063C847.12 665.678 856.504 651.58 857.702 649.971C858.901 648.331 860.636 645.619 856.519 645.098C852.451 644.562 855.352 639.138 858.317 638.601C861.251 638.049 866.534 639.153 869.42 635.337C872.369 631.568 868.868 624.503 868.253 621.239C867.701 617.991 862.97 614.19 862.97 612.046C862.97 609.901 865.919 609.317 870.035 607.157C874.12 604.981 877.636 602.268 878.819 599.572C880.065 596.86 889.433 597.932 889.985 588.722C890.6 579.529 889.985 566.535 886.468 560.006C882.983 553.493 882.368 550.261 882.983 545.356C883.535 540.484 883.535 531.258 887.083 526.938C890.6 522.601 897.019 516.088 902.333 510.127C907.585 504.182 916.417 497.669 919.918 491.693C923.466 485.732 924.633 479.219 926.368 475.45C928.15 471.65 934.584 464.632 935.168 459.744C935.751 454.871 936.366 451.591 930.516 453.767C924.649 455.943 917 455.943 912.915 457.568C908.784 459.176 902.917 463.529 900.583 454.871C898.233 446.214 896.467 444.542 892.398 440.757C888.297 436.988 883.55 432.636 883.014 427.763C882.399 422.891 878.851 420.178 877.116 419.074C875.318 418.002 874.167 409.881 874.167 406.601C874.167 403.321 873.016 400.119 870.082 399.031C867.117 397.943 867.732 394.143 866.581 390.342C865.398 386.542 864.783 380.581 861.85 377.884C858.948 375.172 852.498 366.499 854.233 364.354C856.015 362.178 859.516 368.139 861.314 369.779C863.033 371.419 864.231 368.675 864.783 362.73C865.398 356.753 862.449 351.344 857.198 351.344C851.946 351.344 847.183 350.272 844.234 352.448C841.301 354.624 840.118 355.145 833.116 353.52C826.066 351.88 816.068 344.863 811.999 344.327C807.851 343.791 802.584 344.863 803.751 348.648C804.949 352.448 802.584 358.409 799.682 359.497C796.749 360.569 796.749 354.624 792.617 354.057C788.485 353.521 784.968 344.327 777.382 343.791C769.718 343.239 760.965 344.327 759.751 339.975C758.584 335.638 760.334 334.566 762.132 334.566C763.93 334.566 765.05 329.677 763.867 328.589C762.684 327.517 766.8 320.468 762.132 320.468C757.464 320.468 746.251 323.716 738.649 323.18C731.001 322.644 720.434 321.004 714.568 328.053C708.717 335.102 701.068 331.853 698.15 331.853C695.233 331.853 690.533 332.389 686.985 337.798C683.468 343.207 680.55 342.135 678.2 344.847H678.106Z" fill="#F1F1F1"/>
<path fill-rule="evenodd" clip-rule="evenodd" d="M1197.69 618.763C1195.18 620.403 1188.33 622.674 1189.2 625.797C1190.04 628.919 1188.33 632.451 1188.33 632.451C1188.33 632.451 1189.64 635.195 1190.04 637.151C1190.45 639.122 1188.33 644.2 1190.45 650.082C1192.58 655.948 1198.11 668.075 1198.11 676.7C1198.11 685.326 1198.11 686.888 1201.11 688.449C1204.03 690.01 1208.73 690.01 1210.87 687.692C1212.97 685.342 1217.59 683.765 1221.01 683.765C1224.43 683.765 1230.33 685.736 1232.87 682.204C1235.41 678.687 1243.48 675.565 1246.04 675.155C1248.56 674.777 1255.8 673.594 1258.75 672.805C1261.72 672.033 1268.04 671.623 1268.94 672.805C1269.77 673.988 1274.02 672.805 1276.16 676.338C1278.28 679.854 1277.82 680.233 1280.36 684.175C1282.91 688.07 1283.75 686.903 1285.47 685.342C1287.15 683.765 1289.25 682.992 1289.68 682.204C1290.12 681.416 1291.79 679.476 1292.67 683.387C1293.51 687.282 1294.77 688.464 1294.77 691.224C1294.77 693.984 1298.6 692.785 1299.87 695.923C1301.16 699.046 1300.31 703.745 1304.93 706.852C1309.66 709.99 1314.28 710.778 1315.59 711.961C1316.82 713.144 1318.52 712.34 1320.62 709.611C1322.75 706.852 1322.32 706.095 1325.74 709.611C1329.14 713.128 1328.73 715.068 1331.67 712.34C1334.64 709.611 1333.38 706.852 1338.91 706.473C1344.4 706.095 1342.67 706.473 1344.4 704.534C1346.12 702.578 1343.12 701.017 1344.83 699.046C1346.5 697.075 1346.5 693.164 1347.76 690.436C1349.05 687.708 1350.33 681.416 1352.87 679.066C1355.36 676.716 1357.54 675.959 1357.96 671.638C1358.41 667.318 1357.96 661.861 1359.64 658.329C1361.34 654.812 1358.41 654.008 1357.54 651.69C1356.72 649.34 1358.8 642.67 1355.8 639.532C1352.87 636.409 1352.03 633.65 1350.79 632.893C1349.45 632.104 1350.33 625.844 1347.35 625.055C1344.4 624.283 1344.4 621.145 1342.65 618.416C1340.98 615.688 1340.98 613.307 1338.46 611.746C1335.9 610.185 1329.12 610.563 1329.12 605.485C1329.12 600.408 1328.22 596.465 1327.43 594.904C1326.53 593.343 1326.53 587.477 1324.44 585.111C1322.31 582.762 1318.9 588.265 1318.51 581.973C1318.1 575.713 1316.36 573.363 1315.1 571.423C1313.85 569.468 1312.58 565.526 1311.27 570.256C1310.04 574.956 1309.14 582.777 1309.64 585.884C1310.04 589.054 1308.74 591.782 1307.94 594.131C1307.06 596.45 1306.65 601.165 1304.52 601.165C1302.39 601.165 1296.03 594.904 1292.66 592.949C1289.24 591.009 1282.08 588.281 1283.31 585.521C1284.6 582.793 1286.74 580.822 1287.56 578.504C1288.43 576.123 1289.24 573.016 1285.45 573.394C1281.62 573.789 1279.49 572.606 1277.38 572.212C1275.28 571.833 1271.86 571.439 1271.86 573.394C1271.86 575.35 1268.02 574.183 1265.93 574.183C1263.83 574.183 1261.26 574.987 1260 578.851C1258.74 582.793 1255.33 584.354 1257.92 585.9C1260.41 587.477 1259.18 589.038 1256.57 587.477C1254.07 585.9 1250.64 586.688 1249.86 584.339C1248.97 581.989 1247.32 579.639 1244.72 581.989C1242.18 584.339 1238.79 588.644 1236.69 590.993C1234.57 593.343 1232.46 594.904 1232.46 595.693C1232.46 596.481 1231.17 598.042 1229.91 596.45C1228.64 594.904 1226.09 595.283 1225.65 600.392C1225.24 605.47 1224.81 607.819 1221.41 609.002C1218.02 610.169 1214.64 609.38 1211.66 612.14C1208.71 614.884 1206.16 615.263 1204.44 615.263C1202.72 615.263 1200.64 616.824 1197.7 618.795L1197.69 618.763Z" fill="#F1F1F1"/>
<path fill-rule="evenodd" clip-rule="evenodd" d="M444.038 187.278C442.366 190.007 440.868 195.699 435.695 193.129C430.538 190.574 428.141 188.729 428.551 185.433C428.914 182.138 431.721 175.909 426.548 176.618C421.391 177.359 419.388 173.701 414.231 170.752C409.09 167.835 399.549 166.715 397.562 166.715C395.574 166.715 395.985 167.835 394.376 171.493C392.783 175.168 389.219 178.826 392.405 181.396C395.59 183.951 395.18 187.625 392.405 189.833C389.629 192.025 390.023 192.766 393.572 197.166C397.167 201.581 399.927 207.432 394.376 212.573C388.825 217.729 385.229 218.092 388.446 222.492C391.6 226.891 392.405 230.203 392.783 232.758C393.193 235.312 390.812 237.173 386.838 239.349C382.863 241.573 380.088 236.448 378.085 233.499C376.113 230.566 377.312 224.684 375.325 222.492C373.322 220.3 372.139 218.833 367.771 216.263C363.387 213.692 351.89 206.738 349.493 204.515C347.111 202.323 340.771 201.96 337.191 201.597C333.611 201.219 332.019 200.115 332.019 196.078C332.019 192.041 330.836 192.041 327.666 192.041C324.496 192.041 324.48 187.641 324.48 183.62C324.48 179.599 325.269 174.836 328.849 171.872C332.413 168.954 334.4 163.451 333.611 161.637C332.807 159.792 334.4 158.704 337.57 159.051C340.756 159.414 344.714 158.688 349.871 155.755C355.044 152.822 356.227 143.297 357.425 141.452C358.608 139.607 359.791 135.933 363.371 138.519C366.935 141.074 372.928 140.711 375.703 137.778C378.479 134.845 377.296 131.549 376.886 128.963C376.508 126.408 378.069 124.957 379.268 124.595C380.466 124.216 381.649 119.817 377.296 119.438C372.928 119.075 371.335 118.713 368.149 117.625C364.979 116.505 362.598 119.817 364.175 121.267C365.768 122.718 361.399 124.942 359.791 127.149C358.23 129.341 359.002 135.223 355.044 134.12C351.085 133.016 350.675 126.408 351.085 123.112C351.464 119.817 348.704 116.883 344.73 117.23C340.74 117.609 337.964 119.075 336.781 116.489C335.599 113.935 340.756 112.105 337.586 109.898C334.416 107.706 325.269 99.6316 322.083 101.082C318.913 102.565 313.362 111.743 318.913 113.935C324.48 116.127 332.823 120.905 326.057 125.683C319.307 130.429 324.575 133.962 319.607 135.949C314.608 137.92 318.188 131.328 306.801 131.328C295.415 131.328 291.141 130.019 286.851 128.064C282.578 126.077 274.046 126.077 270.466 126.739C266.902 127.402 266.192 130.698 268.337 133.962C270.466 137.258 265.482 137.92 265.482 137.92C265.482 137.92 256.241 131.991 251.241 131.991C246.242 131.991 238.42 131.328 237 128.695C235.581 126.061 231.307 122.135 224.195 121.488C217.05 120.826 211.357 116.868 202.116 116.868C192.874 116.868 182.166 113.603 177.214 114.234C172.214 114.897 166.505 118.855 163.667 119.501C160.812 120.164 157.264 116.237 154.425 120.826C151.571 125.431 149.442 127.386 146.587 123.428C143.733 119.501 124.508 114.897 111.702 114.234C98.865 113.603 88.204 112.941 77.5115 108.983C66.8347 105.041 52.5938 108.983 48.32 110.308C44.0303 111.601 39.3307 114.676 35.3092 118.807C31.2719 122.939 29.0324 122.513 26.3514 122.939C23.6546 123.349 17.8352 127.481 24.9951 129.956C32.1708 132.432 35.3092 134.104 38.4318 136.99C41.5543 139.891 46.0648 144.859 38.8891 143.203C31.7292 141.547 29.0324 139.055 24.0962 139.907C19.1915 140.727 17.4094 146.53 19.6331 149.826C21.8725 153.153 25.8941 154.778 30.3887 154.778C34.8834 154.778 43.8253 150.646 43.8253 153.958C43.8253 157.269 42.9264 162.631 38.9049 163.892C34.8676 165.122 28.5908 167.188 23.2288 170.074C17.851 172.991 24.112 177.533 28.6066 180.009C33.0855 182.485 41.6017 184.55 40.7027 189.108C39.788 193.681 42.0432 195.321 48.7458 193.239C55.4641 191.174 67.5602 186.632 58.1451 197.371C48.7458 208.126 39.788 213.929 35.3249 215.585C30.8303 217.225 25.8941 219.716 28.165 220.946C30.4045 222.192 30.8461 221.766 38.0059 218.881C45.1658 215.995 55.0383 212.257 61.2992 206.06C67.5602 199.847 78.3158 196.141 76.5179 192.419C74.7358 188.682 80.571 182.075 82.3531 181.255C84.1352 180.419 85.933 180.419 83.6778 184.55C81.4542 188.682 80.9968 191.174 82.3531 191.174C83.7094 191.174 84.5925 189.944 89.9703 187.468C95.3481 184.992 97.1302 183.746 97.1302 182.075C97.1302 180.403 98.4707 177.943 102.95 179.189C107.444 180.419 111.466 185.37 119.509 186.632C127.583 187.878 135.185 186.632 140.137 189.534C145.057 192.419 145.94 194.895 151.334 194.075C156.712 193.239 160.292 198.191 163.872 203.584C167.452 208.962 175.085 227.98 180.888 234.587C186.723 241.21 184.484 241.21 185.383 245.373C186.266 249.489 187.622 251.996 190.303 256.507C192.984 261.08 197.921 278.016 198.362 291.247C198.82 304.493 201.516 314.854 207.32 323.511C213.139 332.2 216.719 338.808 222.097 339.659C227.491 340.479 229.257 342.545 231.496 349.168C233.736 355.776 240.028 373.453 243.119 377.522C246.195 381.574 255.878 399.867 258.937 397.833C262.013 395.814 259.363 392.14 255.878 388.103C252.361 384.003 248.813 373.879 244.428 367.76C240.028 361.673 236.07 353.962 239.161 352.338C242.22 350.729 247.504 362.919 251.02 367.76C254.537 372.633 264.221 385.643 269.488 392.944C274.771 400.277 277.846 403.116 276.522 409.187C275.213 415.29 284.423 420.982 293.239 425.855C302.039 430.712 311.706 433.551 313.914 434.765C316.09 435.995 319.181 436.405 321.389 433.156C323.597 429.892 327.54 433.945 329.748 437.193C331.956 440.473 340.298 446.15 345.581 446.15C350.865 446.15 354.397 448.989 356.148 453.452C357.914 457.914 359.207 464.412 363.182 466.02C367.156 467.66 370.657 471.303 375.073 472.943C379.457 474.551 379.015 475.371 383.857 471.713C388.714 468.054 393.098 470.514 393.966 471.713C394.849 472.943 397.498 470.514 394.407 467.66C391.348 464.822 388.257 464.822 382.548 466.02C376.839 467.25 377.265 469.284 372.423 463.592C367.613 457.915 367.171 459.523 368.023 452.632C368.89 445.74 375.073 433.535 369.332 433.535C363.592 433.535 354.381 433.945 351.306 434.355C348.231 434.765 345.581 433.535 347.348 429.482C349.114 425.445 352.631 425.445 352.631 418.932C352.631 412.42 357.031 404.708 349.571 406.348C342.096 407.988 341.213 411.631 339.462 416.078C337.68 420.572 335.504 419.752 331.987 420.162C328.47 420.572 321.421 423.411 317.021 416.488C312.621 409.581 309.104 403.51 310.429 397.817C311.738 392.124 310.87 386.447 311.296 380.754C311.722 375.077 313.062 370.205 316.122 368.565C319.197 366.956 331.971 361.658 337.665 363.708C343.389 365.726 345.581 367.366 344.257 362.478C342.948 357.605 346.906 358.015 352.189 358.409C357.457 358.787 367.124 356.801 369.332 361.658C371.54 366.546 370.215 372.617 372.849 377.08C375.498 381.543 379 386.021 381.633 385.611C384.283 385.201 386.049 379.114 383.841 373.832C381.633 368.549 377.249 357.999 378.132 353.93C379 349.862 382.091 345.399 387.8 342.971C393.509 340.526 403.633 334.439 402.734 326.697C401.867 319.017 403.192 309.666 409.342 308.025C415.493 306.417 425.176 300.314 424.734 292.603C424.309 284.892 428.693 280.413 433.077 280.413C437.461 280.413 437.036 280.413 440.584 277.953C444.085 275.525 444.968 277.953 442.776 282.037C440.584 286.09 442.335 287.304 444.511 287.714C446.719 288.124 447.602 284.056 452.002 281.233C456.402 278.379 462.127 276.36 464.76 275.13C467.394 273.932 464.855 267.324 458.153 267.829C452.649 268.239 448.69 267.829 448.264 266.189C447.823 264.581 451.781 262.152 451.781 257.658C451.781 253.163 446.056 249.962 443.849 250.766C441.656 251.586 433.74 258.068 431.547 261.348C429.371 264.596 427.147 264.186 425.838 263.366C424.498 262.578 425.381 257.674 431.547 254.015C437.714 250.388 440.347 245.074 445.173 244.285C450.015 243.465 457.932 245.074 461.89 245.074C465.849 245.074 469.807 245.894 471.558 242.645C473.324 239.397 475.074 236.558 477.708 237.378C480.358 238.167 478.15 242.251 475.973 247.928C473.765 253.589 470.69 256.869 470.69 260.528C470.69 264.186 475.09 262.956 479.049 262.168C483.023 261.348 489.158 263.776 491.366 266.615C493.558 269.469 497.106 266.615 498.399 264.186C499.724 261.758 500.607 256.885 497.09 256.065C493.542 255.245 490.908 248.764 485.641 248.354C480.358 247.944 480.799 245.909 483.875 243.891C486.95 241.872 491.35 240.232 486.95 233.31C482.55 226.418 485.183 227.223 482.124 223.17C479.033 219.101 479.459 213.409 471.999 215.049C464.508 216.689 464.965 212.21 462.773 210.176C460.581 208.126 459.256 204.089 461.89 201.645C464.508 199.216 462.773 199.216 459.241 196.362C455.724 193.523 452.207 187.862 452.649 184.582C453.106 181.333 450.33 176.965 444.006 187.294L444.038 187.278Z" fill="#F1F1F1"/>
<path fill-rule="evenodd" clip-rule="evenodd" d="M261.571 122.86C265.34 121.204 269.93 117.577 276.963 120.006C283.997 122.466 287.072 124.074 290.163 122.056C293.254 120.006 299.389 114.755 293.254 111.475C287.072 108.242 282.262 106.223 281.363 101.745C280.496 97.2662 276.963 92.3935 273.888 91.195C270.829 89.965 267.312 93.6235 269.046 96.052C270.813 98.4963 267.296 98.9063 264.205 96.052C261.114 93.2135 254.963 91.195 251.005 89.9807C247.046 88.7507 242.662 90.8007 236.922 88.3407C231.213 85.9122 229.021 80.2194 225.062 81.4337C221.104 82.6637 217.587 80.6137 214.054 78.5952C210.553 76.5451 205.696 78.9736 203.945 80.2036C202.179 81.4337 207.036 83.4679 203.062 87.0949C199.104 90.7692 191.612 95.6262 197.795 99.679C203.945 103.763 203.945 107.8 212.288 104.158C220.662 100.499 221.545 95.2477 223.722 95.2477C225.898 95.2477 223.312 102.959 226.371 106.618C229.462 110.276 232.112 120.826 242.662 119.596C246.179 118.397 247.504 122.056 248.797 123.27C250.137 124.469 251.446 127.339 261.571 122.86Z" fill="#F1F1F1"/>
<path fill-rule="evenodd" clip-rule="evenodd" d="M305.556 123.649C308.647 123.396 312.574 124.059 314.34 124.879C316.09 125.699 316.974 124.879 319.623 122.45C322.241 119.99 320.916 118.397 316.532 117.167C312.132 115.969 307.716 115.149 303.774 116.757C299.815 118.397 300.682 124.059 305.54 123.649H305.556Z" fill="#F1F1F1"/>
<path fill-rule="evenodd" clip-rule="evenodd" d="M292.797 96.8562C294.721 97.8497 299.389 99.2847 301.581 102.139C303.789 104.977 306.864 105.387 311.264 102.139C315.664 98.8905 316.09 96.8562 313.456 93.6077C310.823 90.3592 316.547 85.0764 310.381 84.6664C304.215 84.2564 300.256 82.2379 293.664 87.5049C287.056 92.7877 288.838 94.8062 292.797 96.8562Z" fill="#F1F1F1"/>
<path fill-rule="evenodd" clip-rule="evenodd" d="M357.441 156.954C359.05 154.494 360.075 144.764 364.491 146.404C368.875 148.044 375.041 150.883 379.441 153.295C383.825 155.755 387.342 158.184 382.942 161.417C378.558 164.665 374.6 160.218 373.259 157.758C371.95 155.33 369.301 157.758 367.992 160.612C366.683 163.435 364.049 165.469 360.075 162.631C356.116 159.792 356.116 158.972 357.441 156.938V156.954Z" fill="#F1F1F1"/>
<path fill-rule="evenodd" clip-rule="evenodd" d="M403.633 152.491C405.557 151.214 409.358 151.261 412.875 154.935C416.392 158.594 422.542 163.057 428.709 165.895C434.875 168.734 438.833 169.144 440.142 170.358C441.467 171.588 447.618 171.588 444.101 168.324C440.568 165.075 433.093 161.432 433.992 159.414C434.875 157.38 443.659 162.662 446.293 164.681C448.942 166.715 450.693 163.861 452.018 161.842C453.342 159.824 451.119 153.721 446.293 151.293C441.451 148.848 433.534 141.121 435.742 138.298C437.934 135.46 441.451 136.674 445.41 141.957C449.384 147.24 452.475 154.541 456.859 148.06C461.259 141.547 467.851 135.46 461.701 135.05C455.55 134.64 453.358 129.357 447.618 128.569C441.893 127.749 439.275 128.143 436.625 125.304C433.992 122.466 434.418 119.202 437.509 118.003C440.568 116.773 439.701 111.49 433.093 108.652C426.516 105.813 417.259 103.385 413.316 100.121C409.342 96.872 404.942 93.6392 399.675 93.6392C394.407 93.6392 391.758 95.6577 386.475 96.8878C381.191 98.1178 379.867 96.8878 381.191 91.605C382.516 86.338 380.734 83.1052 375.482 83.1052C370.231 83.1052 365.799 90.8165 365.799 92.425C365.799 94.0335 366.257 98.1178 363.623 97.7078C360.973 97.2978 361.857 92.835 364.065 88.3565C366.272 83.8937 364.506 83.0895 359.207 84.2879C353.956 85.518 346.464 87.1264 345.155 92.4092C343.847 97.692 344.698 107.832 350.439 108.242C356.148 108.652 357.914 110.292 358.781 111.475C359.665 112.705 369.332 112.295 375.956 113.525C382.548 114.755 387.831 115.575 387.831 113.115C387.831 110.655 391.774 110.276 393.098 113.935C394.407 117.593 397.057 120.826 402.34 121.646C407.623 122.466 410.698 124.074 409.815 128.537C408.932 133.016 411.582 135.838 406.298 138.298C401.031 140.727 413.364 146.01 404.532 145.19C395.732 144.37 395.306 142.351 392.673 144.78C390.023 147.24 392.215 149.652 393.982 152.081C395.748 154.525 398.823 155.755 403.665 152.491H403.633Z" fill="#F1F1F1"/>
<path fill-rule="evenodd" clip-rule="evenodd" d="M320.932 88.7349C320.932 91.8258 320.49 93.1977 321.389 95.2162C322.256 97.2505 324.449 98.8905 327.54 97.2505C330.599 95.6104 336.34 89.9492 338.532 88.7192C340.74 87.4892 343.815 82.2379 338.989 81.8121C334.132 81.4021 333.249 80.9921 327.997 81.4021C322.698 81.8121 320.932 80.9921 320.932 88.7034V88.7349Z" fill="#F1F1F1"/>
<path fill-rule="evenodd" clip-rule="evenodd" d="M510.527 165.895C514.407 170.689 519.311 178.085 522.828 178.085C526.345 178.085 530.745 176.855 532.086 180.119C533.395 183.368 536.028 189.029 539.119 180.119C542.21 171.178 544.402 169.128 543.961 165.075C543.519 161.022 543.961 159.398 546.61 157.364C549.228 155.345 551.894 153.295 551.894 150.457C551.894 147.618 556.294 145.994 558.044 145.174C559.795 144.354 565.519 139.686 567.727 140.506C569.904 141.326 570.803 140.096 575.628 136.453C580.47 132.795 584.854 129.562 584.854 126.314C584.854 123.065 587.504 122.245 589.27 123.854C591.036 125.494 597.171 126.724 602.47 123.854C607.722 121.015 617.862 114.534 620.054 113.714C622.247 112.894 629.296 108.431 627.545 102.344C625.779 96.2412 621.805 98.6855 624.454 93.4027C627.088 88.1199 627.088 86.4799 630.605 86.8899C634.122 87.2999 634.563 83.2314 636.314 81.2129C638.096 79.1629 637.197 73.5016 636.314 69.4331C635.447 65.3646 631.504 64.9703 635.888 57.6375C640.288 50.3362 640.288 49.5162 640.288 45.0377C640.288 40.5591 643.379 37.3264 646.455 34.8979C649.53 32.4536 653.488 28.4166 660.096 25.5466C666.704 22.7081 669.322 23.1181 665.364 17.4253C661.405 11.7325 659.639 15.4068 653.062 16.2268C646.455 17.0153 635.462 20.2953 631.078 21.5096C626.678 22.7081 619.644 26.3666 616.569 27.9909C613.478 29.5993 611.27 27.1708 615.229 24.3166C619.187 21.5096 627.104 19.8696 628.429 17.0153C629.738 14.1768 638.538 9.71401 629.738 8.51553C620.953 7.28551 615.654 5.25125 609.078 5.25125C602.502 5.25125 598.07 6.07126 594.112 3.64276C590.153 1.18272 586.636 -0.441539 580.47 0.788481C574.335 2.0185 566.844 1.19849 564.652 2.0185C562.444 2.83852 559.81 -1.23001 554.969 0.378474C550.127 2.0185 547.935 4.85701 548.818 6.07126C549.701 7.30128 546.185 6.07126 540.018 5.66125C533.852 5.25125 529.909 6.48127 526.818 6.48127C523.727 6.48127 525.509 11.354 518.901 10.9598C512.309 10.5498 505.717 10.1398 504.392 10.1398C503.067 10.1398 501.317 10.1398 492.075 12.1583C482.834 14.2083 478.449 14.2083 473.166 14.6026C467.899 15.0126 460.408 16.6211 462.616 20.7054C464.824 24.7423 462.174 25.9724 454.273 25.9724C446.372 25.9724 437.982 29.6309 437.982 30.8451C437.982 32.0594 438.865 34.0936 444.164 33.2736C449.431 32.4536 451.639 35.3237 446.798 38.9664C441.956 42.6249 435.348 43.035 430.081 43.445C424.798 43.855 412.481 45.8735 417.78 49.9262C423.031 54.0105 428.33 54.0105 428.33 54.799C428.33 55.5875 424.798 56.029 429.198 59.2618C433.582 62.5103 436.231 65.7746 437.099 67.7931C437.966 69.8116 441.515 69.4015 445.441 66.563C449.416 63.7245 465.249 65.7746 471.416 69.4015C477.566 73.0758 487.675 82.8056 488.133 90.1384C488.558 97.4397 486.808 103.527 490.766 103.527C494.725 103.527 501.333 95.8154 506.616 103.148C511.883 110.45 514.517 120.195 506.616 123.459C498.699 126.708 494.283 128.726 495.608 136.028C496.933 143.36 503.525 157.143 510.59 165.879L510.527 165.895Z" fill="#F1F1F1"/>
<path fill-rule="evenodd" clip-rule="evenodd" d="M364.254 400.451C366.32 400.451 369.127 396.902 371.666 397.155C374.221 397.391 380.86 397.849 382.926 397.612C384.961 397.391 385.749 398.337 386.758 399.741C387.784 401.16 394.202 404.472 396.237 405.181C398.271 405.875 402.356 407.783 404.154 409.187C405.951 410.622 409.011 411.079 407.481 412.483C405.936 413.902 404.154 413.445 400.842 413.445C397.53 413.445 394.691 412.246 394.691 410.354C394.691 408.461 391.884 406.348 389.581 405.859C387.279 405.402 384.724 405.402 383.699 403.51C382.658 401.617 380.86 400.435 378.069 400.435C375.277 400.435 368.606 399.236 371.161 401.838C373.7 404.44 371.666 406.333 368.843 405.623C366.036 404.898 364.506 404.897 363.229 403.731C361.951 402.564 362.708 400.435 364.254 400.435V400.451Z" fill="#F1F1F1"/>
<path fill-rule="evenodd" clip-rule="evenodd" d="M410.304 421.566C411.803 421.566 411.061 417.324 412.607 415.92C414.152 414.485 418.489 414.265 421.817 414.974C425.144 415.668 431.279 417.781 432.557 418.759C433.85 419.705 434.607 423.222 430.759 423.222C426.911 423.222 426.422 423.474 424.624 425.351C422.842 427.259 421.044 425.839 417.464 425.351C413.884 424.893 411.582 425.351 409.784 425.603C408.002 425.824 408.775 421.566 410.304 421.566Z" fill="#F1F1F1"/>
<path fill-rule="evenodd" clip-rule="evenodd" d="M395.464 419.705C393.761 419.169 389.313 419.216 391.363 421.566C393.398 423.947 395.7 424.404 396.473 425.146C397.246 425.839 399.028 425.603 400.558 425.146C402.103 424.657 400.558 423.222 398.76 422.055C396.978 420.872 396.978 420.162 395.448 419.705H395.464Z" fill="#F1F1F1"/>
<path fill-rule="evenodd" clip-rule="evenodd" d="M409.516 406.932C409.137 407.799 410.557 409.534 411.834 409.534C413.112 409.534 414.878 408.351 414.373 406.695C413.869 405.039 410.289 405.292 409.5 406.916L409.516 406.932Z" fill="#F1F1F1"/>
<path fill-rule="evenodd" clip-rule="evenodd" d="M441.246 418.27C438.944 418.27 436.121 419.216 436.909 421.109C437.666 423.001 437.919 424.404 440.742 423.71C443.565 423.001 445.599 420.872 446.892 420.162C448.154 419.453 452.239 417.324 449.179 417.324C446.12 417.324 442.792 418.27 441.246 418.27Z" fill="#F1F1F1"/>
<path fill-rule="evenodd" clip-rule="evenodd" d="M461.717 461.983C462.458 464.002 462.49 465.058 464.792 464.822C467.095 464.585 468.877 461.273 468.877 460.8C468.877 460.311 467.852 458.198 465.297 458.656C462.742 459.145 461.196 460.548 461.717 461.983Z" fill="#F1F1F1"/>
<path fill-rule="evenodd" clip-rule="evenodd" d="M472.977 454.871C470.706 453.483 470.422 452.758 472.22 451.812C474.017 450.866 475.011 448.752 475.011 448.264C475.011 447.806 477.314 447.333 478.339 448.264C479.364 449.21 479.868 450.645 477.045 451.812C474.238 452.979 475.516 452.979 475.516 453.925C475.516 454.871 473.718 455.36 472.961 454.871H472.977Z" fill="#F1F1F1"/>
<path fill-rule="evenodd" clip-rule="evenodd" d="M476.809 444.479C476.51 443.69 477.062 442.618 478.607 442.618C480.153 442.618 482.187 443.075 481.935 444.968C481.667 446.86 480.137 447.806 478.859 447.317C477.598 446.86 477.077 445.189 476.809 444.479Z" fill="#F1F1F1"/>
<path fill-rule="evenodd" clip-rule="evenodd" d="M476.557 435.522C475.058 435.522 474.002 433.393 475.532 432.447C477.061 431.501 476.32 428.899 478.591 430.555C480.894 432.195 482.439 433.377 480.373 434.56C478.339 435.758 477.818 435.506 476.541 435.506L476.557 435.522Z" fill="#F1F1F1"/>
<path fill-rule="evenodd" clip-rule="evenodd" d="M470.911 430.334C469.886 430.334 469.145 429.151 469.145 428.205C469.145 427.259 470.674 427.243 472.204 427.243C473.734 427.243 474.759 428.41 473.466 429.388C472.204 430.334 471.684 430.334 470.911 430.334Z" fill="#F1F1F1"/>
<path fill-rule="evenodd" clip-rule="evenodd" d="M479.38 439.291C478.639 439.953 478.087 437.635 479.38 437.178C480.657 436.705 481.414 435.774 481.414 437.178C481.414 438.581 480.657 438.124 479.38 439.291Z" fill="#F1F1F1"/>
<path fill-rule="evenodd" clip-rule="evenodd" d="M464.271 423.237C463.357 422.827 461.48 422.291 462.489 421.377C463.514 420.399 463.01 419.232 465.312 419.942C467.615 420.635 468.64 422.544 467.347 423.726C466.069 424.893 465.817 423.963 464.271 423.237Z" fill="#F1F1F1"/>
<path fill-rule="evenodd" clip-rule="evenodd" d="M390.623 389.475C388.509 389.159 389.077 386.479 391.064 385.154C393.035 383.861 394.029 382.931 394.029 385.028C394.029 387.125 393.335 388.702 394.329 389.633C395.322 390.547 398.429 390.263 396.742 391.446C395.038 392.629 394.486 393.417 393.051 392.235C391.632 391.068 391.506 389.633 390.638 389.475H390.623Z" fill="#F1F1F1"/>
<path fill-rule="evenodd" clip-rule="evenodd" d="M394.471 381.748C395.18 380.155 396.016 379.651 395.023 377.947C394.013 376.26 395.023 375.188 396.726 376.102C398.429 377.017 400.716 378.2 400.132 380.833C399.565 383.467 399.438 383.971 400.432 384.776C401.41 385.564 399.706 385.406 398.019 385.028C396.3 384.649 394.029 382.678 394.486 381.764L394.471 381.748Z" fill="#F1F1F1"/>
<path fill-rule="evenodd" clip-rule="evenodd" d="M401.977 391.43C400.511 391.43 399.99 389.617 401.283 388.955C402.561 388.292 403.113 386.857 403.964 388.166C404.816 389.475 402.845 390.926 402.845 391.178C402.845 391.43 402.277 391.43 401.977 391.43Z" fill="#F1F1F1"/>
<path fill-rule="evenodd" clip-rule="evenodd" d="M407.528 396.287C406.424 394.789 405.557 396.697 405.1 395.247C405.557 393.685 405.557 392.897 407.103 393.023C408.648 393.149 408.238 394.08 409.216 395.12C410.225 396.161 411.361 396.808 410.777 397.344C410.225 397.88 408.08 397.092 407.528 396.303V396.287Z" fill="#F1F1F1"/>
<path fill-rule="evenodd" clip-rule="evenodd" d="M389.629 380.423C390.906 380.423 391.9 378.736 391.474 377.695C391.048 376.654 390.323 375.598 388.919 376.402C387.5 377.191 385.781 378.468 387.058 379.934C388.336 381.385 389.345 380.439 389.613 380.439L389.629 380.423Z" fill="#F1F1F1"/>
<path fill-rule="evenodd" clip-rule="evenodd" d="M457.601 254.725C455.882 253.148 452.727 252.249 451.513 251.129C450.299 250.01 451.04 248.212 452.743 247.991C454.446 247.786 457.348 249.805 459.54 251.823C461.002 253.169 461.333 254.209 460.534 254.945C459.304 256.065 458.089 255.182 457.616 254.74L457.601 254.725Z" fill="#F1F1F1"/>
<path fill-rule="evenodd" clip-rule="evenodd" d="M465.612 269.516C464.224 268.87 462.458 266.378 464.87 264.817C467.315 263.256 468.056 264.581 468.293 266.836C468.545 269.091 470.248 269.311 469.759 271.771C469.271 274.247 466.842 275.146 466.589 272.67C466.369 270.21 466.589 269.989 465.627 269.532L465.612 269.516Z" fill="#F1F1F1"/>
<path fill-rule="evenodd" clip-rule="evenodd" d="M450.298 178.211C448.469 178.416 446.403 176.413 448.848 174.395C451.276 172.376 452.002 171.493 452.491 173.969C452.98 176.413 452.491 178.006 450.298 178.211Z" fill="#F1F1F1"/>
<path fill-rule="evenodd" clip-rule="evenodd" d="M374.741 171.052C376.303 169.569 376.429 168.576 377.422 167.882C378.384 167.22 379.362 164.302 376.681 164.539C374.016 164.744 370.609 165.864 369.395 167.22C368.197 168.576 367.471 171.493 370.389 172.376C373.29 173.275 373.543 172.156 374.757 171.052H374.741Z" fill="#F1F1F1"/>
<path fill-rule="evenodd" clip-rule="evenodd" d="M398.05 132.669C395.984 132.669 394.187 131.77 395.369 128.868C396.6 125.951 398.524 121.914 401.22 124.406C403.886 126.866 407.765 127.985 404.611 130.666C401.441 133.378 399.265 132.684 398.05 132.684V132.669Z" fill="#F1F1F1"/>
<path fill-rule="evenodd" clip-rule="evenodd" d="M228.453 64.923C229.635 62.7468 235.013 62.2422 233.31 58.6468C231.607 55.0355 231.859 49.2166 227.222 51.2351C222.617 53.2536 219.952 52.1182 216.782 55.7294C213.628 59.3248 210.222 63.3618 207.556 63.5668C204.875 63.8034 200.523 62.2422 201.737 66.2792C202.951 70.3162 204.891 72.7605 208.534 70.5212C212.177 68.2977 212.903 67.3988 216.073 68.5027C219.227 69.6223 227.743 62.0214 225.314 66.2792C222.886 70.5212 223.848 73.4543 226.749 69.8589C229.667 66.2792 227.743 66.2792 228.453 64.923Z" fill="#F1F1F1"/>
<path fill-rule="evenodd" clip-rule="evenodd" d="M229.919 71.4358C232.348 70.7419 233.562 69.8588 234.524 67.178C235.502 64.4657 236.732 63.141 239.634 62.9045C242.536 62.6837 245.201 66.4842 247.898 67.8404C250.563 69.1965 253.244 71.215 254.458 71.6408C255.657 72.0981 262.486 72.0981 262.233 70.0796C261.981 68.0611 257.124 66.4842 258.338 64.0241C259.537 61.5483 262.706 55.0355 264.157 59.3248C265.624 63.5668 264.157 65.5853 267.58 66.0426C270.97 66.4684 275.355 64.923 274.613 68.96C273.888 72.997 274.613 78.3901 270.97 78.3901C267.327 78.3901 263.937 76.6082 260.041 77.9644C256.146 79.289 251.052 82.6637 248.15 81.7648C245.201 80.8817 241.826 79.9829 243.04 78.6267C244.271 77.2705 244.018 73.4701 241.101 75.2678C238.183 77.0497 236.243 76.624 231.622 76.624C227.002 76.624 227.491 72.1297 229.919 71.4673V71.4358Z" fill="#F1F1F1"/>
<path fill-rule="evenodd" clip-rule="evenodd" d="M318.834 77.034C322.95 76.5452 325.395 77.9329 326.862 78.1536C328.328 78.3902 330.505 75.0155 327.35 72.997C324.181 70.9785 321.263 66.4842 320.049 68.7235C318.834 70.9785 316.894 72.7605 315.68 73.6751C314.482 74.574 316.894 77.2548 318.834 77.0182V77.034Z" fill="#F1F1F1"/>
<path fill-rule="evenodd" clip-rule="evenodd" d="M308.899 71.8774C308.489 69.2281 309.624 66.7207 310.35 65.3961C311.075 64.0399 311.075 60.0029 306.454 60.2395C301.834 60.4445 301.36 57.3064 298.427 59.7822C295.51 62.258 296.503 64.4815 291.867 66.0742C287.262 67.6196 287.971 68.3135 287.009 65.8377C286.047 63.3776 285.543 60.681 283.114 59.3564C280.701 57.9687 277.294 58.8991 278.509 62.4788C279.723 66.0742 284.344 68.755 284.833 70.7735C285.306 72.792 287.987 73.4543 292.135 73.2493C296.267 73.0285 299.405 73.0285 300.398 74.3847C301.36 75.7409 304.515 75.5044 306.707 75.5044C308.899 75.5044 309.135 73.4543 308.899 71.9089V71.8774Z" fill="#F1F1F1"/>
<path fill-rule="evenodd" clip-rule="evenodd" d="M260.057 52.1339C259.347 49.9893 258.354 48.5543 261.019 47.8762C263.7 47.2139 267.091 46.0785 263.937 43.6342C260.767 41.1584 256.162 38.0045 253.733 39.5657C251.304 41.1426 251.052 42.483 247.882 43.1611C244.728 43.8234 240.123 39.7864 239.871 43.1611C239.618 46.5358 240.612 51.2351 243.514 52.1182C246.431 53.017 251.289 51.4558 251.289 53.4743C251.289 55.4928 254.443 55.4928 257.108 55.2563C259.789 55.0198 260.735 54.3574 260.026 52.1182L260.057 52.1339Z" fill="#F1F1F1"/>
<path fill-rule="evenodd" clip-rule="evenodd" d="M286.047 48.097C289.138 47.3873 289.69 46.5358 293.333 49.2166C296.976 51.8974 297.717 52.3547 299.91 53.0171C302.086 53.7109 304.515 53.7109 303.789 50.3362C303.064 46.9616 305.966 44.2808 300.619 42.7038C295.273 41.1426 290.652 41.8049 288.492 39.1241C286.299 36.4118 286.047 34.3933 282.168 34.8506C278.304 35.3079 277.563 37.5314 279.739 39.7864C281.947 42.0257 282.893 42.9246 281.947 44.2808C280.953 45.6369 281.679 48.0812 283.382 48.9801C285.085 49.8789 285.085 48.3177 286.063 48.0812L286.047 48.097Z" fill="#F1F1F1"/>
<path fill-rule="evenodd" clip-rule="evenodd" d="M344.367 65.5853C344.856 67.3042 346.559 70.0796 350.676 69.3858C354.807 68.7235 357.236 68.9442 358.214 70.9627C359.192 72.9812 361.131 74.1009 365.027 71.4043C368.891 68.7235 373.527 67.5881 377.154 68.2661C380.813 68.96 389.566 70.0796 386.16 73.2178C382.769 76.3559 384.456 78.6109 380.309 79.9356C376.192 81.2917 370.594 78.1378 369.632 79.0367C368.67 79.9356 364.775 79.494 361.131 79.494C357.488 79.494 349.24 79.9356 349.461 77.9171C349.714 75.8986 346.07 76.1351 345.093 77.2548C344.115 78.3744 341.923 78.3744 339.021 77.9171C336.103 77.4755 336.103 76.3559 335.126 72.3189C334.164 68.2661 332.681 64.6865 329.038 65.1438C325.395 65.5696 323.219 66.2634 320.554 64.2449C317.873 62.2264 316.39 59.3091 317.131 57.9371C317.857 56.6125 320.554 53.2378 314.955 53.6951C309.356 54.1209 308.631 54.594 307.921 50.9828C307.18 47.4031 303.048 40.6695 307.921 42.4515C312.779 44.265 313.741 45.8262 317.62 46.5042C321.516 47.1666 321.752 47.1666 321.263 50.0839C320.774 53.0013 330.489 51.8659 327.114 54.7832C323.692 57.7164 324.906 58.6152 328.313 58.8202C331.703 59.0568 332.934 59.5141 332.934 60.8703C332.934 62.2264 335.126 61.3276 337.318 60.6337C339.494 59.9714 342.901 60.6337 344.351 65.5696L344.367 65.5853Z" fill="#F1F1F1"/>
<path fill-rule="evenodd" clip-rule="evenodd" d="M337.57 50.5728C342.175 50.3362 343.894 48.7908 346.796 47.8604C349.713 46.9616 354.823 43.6184 353.136 41.1426C351.417 38.6668 346.796 38.2095 347.789 35.0871C348.751 31.949 349.004 31.0501 344.635 29.694C340.267 28.3378 338.059 26.5558 335.378 23.1812C332.712 19.8065 331.041 19.3807 329.069 22.0615C327.145 24.7739 326.877 26.9974 326.877 28.8109C326.877 30.6244 325.679 30.6086 324.701 33.2894C323.739 35.986 321.058 38.446 324.953 38.6826C328.849 38.9033 332.492 40.4645 332.492 41.1584C332.492 41.8522 327.161 44.2807 329.085 46.5515C331.057 48.8066 332.728 50.7935 337.601 50.5885L337.57 50.5728Z" fill="#F1F1F1"/>
<path fill-rule="evenodd" clip-rule="evenodd" d="M366.967 63.8034C366.967 68.55 376.666 61.3433 378.637 62.6837C380.561 64.0399 380.34 66.7207 384.693 65.1595C389.077 63.5826 391.506 64.2607 392.957 62.4472C394.423 60.6652 392.704 59.9872 390.544 58.1737C388.336 56.3759 388.336 54.1367 391.269 54.3732C394.187 54.6098 392.72 49.6739 396.363 49.8789C400.022 50.0997 404.643 48.5543 404.879 46.2992C405.132 44.0442 401.236 40.023 407.056 38.8876C412.907 37.7679 419.215 36.4118 422.353 32.8321C425.507 29.2366 426.501 28.1012 432.32 27.4389C438.155 26.7608 435.49 22.2823 438.881 19.1442C442.272 16.006 446.64 16.006 451.024 16.4634C455.393 16.8891 459.761 16.006 459.761 13.2937C459.761 10.5813 459.525 7.69552 451.024 7.69552C442.524 7.69552 429.639 5.01471 420.413 5.44049C411.172 5.8978 397.562 7.9163 389.298 9.03593C381.018 10.1556 374.726 10.1556 369.632 12.8364C364.522 15.5487 364.995 13.7352 356.022 14.1926C347.017 14.6499 339.258 13.956 339.005 17.5672C338.784 21.1469 340.708 23.3862 345.818 24.7423C350.896 26.067 362.093 28.7793 364.774 28.322C367.44 27.8647 368.891 33.2579 362.803 32.359C356.747 31.4601 351.385 34.614 354.539 37.0899C357.709 39.5341 365.957 44.0284 360.879 44.9273C355.769 45.8262 352.126 48.302 350.896 50.9828C349.682 53.6636 357.22 57.7006 353.341 59.0568C349.445 60.4129 343.137 64.4499 350.171 64.4499C357.205 64.4499 362.062 65.3488 362.803 63.3303C363.544 61.3118 366.935 62.668 366.935 63.7876L366.967 63.8034Z" fill="#F1F1F1"/>
<path fill-rule="evenodd" clip-rule="evenodd" d="M6.41714 161.322C9.0193 163.23 11.1168 164.129 12.7885 162.079C14.4602 160.029 14.7283 157.711 8.90891 156.717C3.08953 155.692 -0.521955 156.465 0.0615598 157.995C0.613533 159.524 5.02932 160.297 6.41714 161.322Z" fill="#F1F1F1"/>
<path fill-rule="evenodd" clip-rule="evenodd" d="M18.04 183.32C17.5827 183.983 19.4278 186.648 21.0995 186.9C22.7712 187.152 25.5469 185.875 25.815 184.345C26.0831 182.816 19.9956 180.513 18.04 183.32Z" fill="#F1F1F1"/>
<path fill-rule="evenodd" clip-rule="evenodd" d="M75.0983 199.689C72.5908 201.392 68.727 203.016 71.2345 205.051C73.7105 207.101 74.5464 207.353 77.5901 205.051C80.6338 202.748 82.3055 200.966 80.9177 199.689C79.5141 198.38 78.4259 197.387 75.0983 199.689Z" fill="#F1F1F1"/>
<path fill-rule="evenodd" clip-rule="evenodd" d="M718.495 222.066C715.246 219.669 714.568 219.054 711.934 215.396C709.285 211.769 708.323 213.897 706.998 208.126C705.689 202.37 706.336 201.455 707.661 200.257C708.969 199.027 709.963 196.614 706.998 196.614C704.033 196.614 699.775 197.844 699.775 196.614C699.775 195.384 702.078 193.886 703.055 192.987C704.049 192.072 705.358 189.029 701.431 189.029C697.504 189.029 695.202 191.757 693.861 194.186C692.552 196.614 692.205 194.485 691.906 199.658C691.574 204.814 690.581 206.943 693.199 209.671C695.817 212.399 693.861 215.727 696.164 216.342C698.466 216.925 700.769 214.844 702.724 217.54C704.696 220.284 707.661 221.814 704.696 223.927C701.747 226.04 698.135 224.242 698.135 226.04C698.135 227.838 700.091 231.181 696.826 233.94C693.546 236.653 697.82 237.567 697.82 237.567C697.82 237.567 697.488 239.081 695.833 240.611C694.192 242.109 691.259 245.468 692.883 246.966C694.539 248.496 694.539 246.966 697.82 246.051C701.1 245.168 700.453 244.853 706.336 243.323C712.266 241.825 715.562 241.21 717.864 241.51C720.151 241.825 722.438 241.825 722.122 239.081C721.791 236.369 722.769 234.839 724.425 233.956C726.065 233.042 727.043 229.383 725.087 228.484C723.116 227.57 721.46 229.683 719.82 227.869C718.18 226.056 720.151 223.328 718.495 222.098V222.066Z" fill="#F1F1F1"/>
<path fill-rule="evenodd" clip-rule="evenodd" d="M688.294 226.923C687.711 224.258 685.645 223.596 689.272 221.483C692.868 219.369 691.574 216.626 690.265 215.396C688.941 214.197 685.976 212.084 683.358 214.197C680.74 216.31 681.387 219.638 679.415 219.638C677.444 219.638 676.135 219.638 674.826 221.782C673.517 223.895 673.848 227.223 675.157 227.538C676.45 227.838 677.791 230.881 676.45 232.08C675.157 233.31 669.574 232.695 672.176 235.423C674.826 238.151 673.501 239.964 677.791 238.151C682.049 236.337 689.777 233.704 688.294 226.923Z" fill="#F1F1F1"/>
<path d="M1509.35 134.23C1506.73 131.092 1501.63 129.089 1497.79 129.499C1493.95 129.878 1489.67 128.711 1486.26 125.951C1482.87 123.191 1469.59 118.46 1465.76 116.473C1461.92 114.502 1454.67 111.743 1448.65 110.954C1442.68 110.166 1435.43 108.195 1432.91 109.771C1430.32 111.364 1430.32 112.121 1430.73 114.912C1431.19 117.64 1429.93 121.204 1426.9 120.432C1423.9 119.643 1420.94 112.925 1415.39 112.531C1409.8 112.121 1398.72 109.771 1393.56 112.91C1388.46 116.079 1386.79 117.246 1385.5 113.32C1384.21 109.361 1380.31 99.9155 1370.53 100.704C1360.68 101.461 1351.72 104.252 1347.89 102.675C1344.02 101.098 1344.02 90.4381 1335.48 91.2265C1326.96 92.015 1320.98 94.7747 1318.87 90.8481C1316.72 86.8899 1312.84 81.3706 1309.86 81.3706C1306.88 81.3706 1300.46 88.0884 1300.46 92.015C1300.46 95.9416 1300.46 97.5343 1296.6 98.7328C1292.77 99.8998 1286.37 97.9128 1282.93 98.3228C1279.52 98.7328 1271 94.7747 1268.4 100.704C1265.86 106.602 1264.98 104.252 1260.75 101.461C1256.42 98.7328 1253.47 97.1401 1254.32 92.8035C1255.22 88.4669 1248.37 84.5245 1242.35 83.736C1236.37 82.9475 1231.74 81.3548 1230.85 85.7072C1230.02 90.0438 1225.73 89.6338 1222.7 89.2553C1219.73 88.8453 1207.78 84.9187 1202.64 84.1303C1197.53 83.3418 1188.16 84.1303 1185.98 81.7806C1183.84 79.3994 1183.45 75.0628 1178.32 79.3994C1173.21 83.736 1172.77 77.4282 1179.19 74.2586C1185.59 71.1204 1190.72 70.332 1190.72 65.6011C1190.72 60.8703 1188.59 58.0948 1180.86 58.0948C1173.13 58.0948 1160.39 61.233 1162.09 56.9121C1163.83 52.5755 1162.53 50.6043 1157.36 50.6043C1152.19 50.6043 1146.72 50.1943 1143.75 53.7425C1140.77 57.3221 1140.3 56.5021 1136.02 57.3221C1131.81 58.0948 1134.34 63.5984 1127.93 63.2199C1121.53 62.8099 1116.8 60.0502 1111.26 62.0372C1105.71 64.0084 1098.44 64.7653 1090.75 67.5565C1083.08 70.3162 1070.29 73.8643 1073.29 77.4125C1076.22 80.9291 1071.11 81.7491 1066.43 81.7491C1061.74 81.7491 1056.19 82.1275 1056.19 84.0987C1056.19 86.0699 1061.74 90.4065 1058.72 92.7877C1055.75 95.1689 1048.46 85.2814 1044.21 86.8584C1039.95 88.4511 1037.79 91.9992 1037.35 94.7431C1036.95 97.5028 1031.35 96.3359 1032.22 91.195C1033.12 86.0857 1028.81 84.5087 1027.1 88.8296C1025.36 93.1662 1026.24 106.192 1027.96 110.513C1029.7 114.849 1031.83 127.465 1028.39 131.423C1024.97 135.365 1022.38 138.519 1016.01 139.292C1009.59 140.112 1008.33 137.731 1013.45 135.76C1018.55 133.773 1022.85 130.619 1022.85 124.311C1022.85 118.003 1021.53 105.766 1019.83 104.205C1018.14 102.628 1018.53 99.064 1020.3 95.1374C1021.97 91.1792 1021.13 88.4196 1015.99 89.208C1010.88 89.9965 1006.58 89.9965 1004.42 95.5158C1002.34 101.035 995.459 105.75 999.355 112.074C1003.22 118.382 1007.45 121.93 1005.33 123.112C1003.22 124.311 990.791 118.003 988.252 116.032C985.697 114.045 978.869 113.272 975.036 112.484C971.141 111.695 967.293 112.074 970.731 115.622C974.153 119.202 969.895 119.202 966.489 119.202C963.082 119.202 951.948 119.58 950.229 120.384C948.557 121.157 944.662 122.356 944.662 119.974C944.662 117.593 941.287 114.455 933.985 119.202C926.746 123.932 920.375 127.859 920.375 129.436C920.375 131.013 912.679 131.817 913.042 128.238C913.515 124.689 909.209 120.369 906.686 120.747C904.1 121.125 899.826 124.689 902.428 126.676C904.951 128.648 902.807 133.378 899.826 134.167C896.814 134.955 890.884 138.093 888.755 140.096C886.547 142.067 876.375 151.513 869.12 149.952C861.85 148.375 866.108 140.885 862.702 138.093C859.264 135.365 863.963 133.378 869.12 135.365C874.214 137.305 878.047 140.885 885.711 135.365C893.392 129.814 887.43 125.888 882.32 123.507C877.148 121.141 858.396 114.029 854.138 112.862C849.864 111.68 851.173 101.035 834.898 102.234C818.686 103.401 802.868 103.006 791.355 116.032C779.811 129.042 769.954 140.096 766.548 145.616C763.173 151.135 764.482 157.821 752.906 161.369C741.378 164.917 740.085 170.437 740.085 178.321C740.085 186.206 739.233 196.078 747.355 194.895C755.477 193.697 760.177 189.739 761.454 186.206C762.716 182.658 767.005 187.389 766.154 192.104C765.318 196.851 769.544 202.37 769.97 205.13C770.412 207.889 771.263 214.986 774.67 213.787C778.108 212.604 778.991 209.845 782.382 206.297C785.772 202.748 790.488 203.158 789.21 196.441C787.949 189.723 790.078 188.556 792.207 187.783C794.352 186.995 801.165 181.854 796.039 179.094C790.929 176.334 790.488 172.376 790.094 170.405C789.62 168.434 787.949 164.476 794.352 161.748C800.77 158.956 805.028 151.86 806.322 148.344C807.583 144.796 811.841 142.036 816.541 142.036C821.241 142.036 828.069 143.991 822.502 147.965C816.983 151.876 805.028 161.748 807.157 170.831C809.365 179.898 808.419 186.585 815.279 182.264C822.108 177.927 828.511 177.123 833.652 176.334C838.762 175.546 843.052 178.306 843.052 179.883C843.052 181.46 836.601 185.402 830.246 184.992C823.827 184.613 817.85 182.642 817.85 186.979C817.85 191.315 822.108 191.315 820.799 196.425C819.522 201.566 813.545 202.733 813.15 199.184C812.756 195.636 815.279 190.117 811.841 190.905C808.419 191.694 808.419 198.412 806.322 201.55C804.13 204.688 803.325 208.236 805.896 210.207C808.183 211.989 804.603 211.658 802.032 213.913L801.717 213.661C799.966 216.831 797.585 218.281 795.519 217.414C793.39 216.547 793.137 216.831 788.658 217.982C784.18 219.164 781.231 220.316 779.433 220.868C777.635 221.451 775.884 220.016 774.118 219.432C772.32 218.849 770.853 217.982 768.44 220.3C766.091 222.602 766.091 222.034 764.577 220.868C763.078 219.716 761.012 219.432 759.562 215.963C758.048 212.51 761.628 206.99 761.628 204.388C761.628 201.786 762.495 198.033 762.81 196.015C763.078 193.996 761.012 194.864 758.947 196.882C756.849 198.901 750.336 199.768 751.534 205.54C752.733 211.327 755.098 214.229 755.098 217.698C755.098 221.167 755.382 224.652 753.301 224.337C751.235 224.053 744.122 225.788 741.441 226.939C738.776 228.106 737.577 228.973 736.394 232.742C735.212 236.495 734.912 235.628 732.247 236.211C729.582 236.779 723.92 238.23 723.352 241.431C722.753 244.601 721.27 243.733 718.605 246.335C715.924 248.937 715.64 248.37 713.559 248.07C711.461 247.786 710.278 249.221 710.893 251.539C711.461 253.873 710.594 252.69 707.329 252.99C704.065 253.274 701.084 253.857 698.434 253.857C695.785 253.857 696.637 257.894 699.901 258.762C703.181 259.629 706.131 262.231 707.029 264.849C707.928 267.451 708.827 267.151 710.294 268.318C711.792 269.469 714.457 272.938 713.874 276.423C713.275 279.877 712.376 281.028 712.076 283.646C711.776 286.248 710.294 286.248 705.547 285.381C700.8 284.513 696.952 283.93 693.687 283.346C690.407 282.779 688.057 282.479 685.045 283.646C682.08 284.797 681.497 283.646 679.115 285.081C676.75 286.547 678.232 289.149 679.415 291.168C680.598 293.186 679.715 296.94 680.314 298.99C680.897 301.008 679.115 305.629 678.232 308.231C677.333 310.832 679.715 313.718 679.115 316.32C678.516 318.922 679.715 320.941 682.08 320.941C684.446 320.941 689.824 320.373 691.022 322.975C692.205 325.577 694.271 325.577 696.652 324.41C699.034 323.259 705.263 326.46 707.029 322.975C708.827 319.506 713.275 318.055 714.457 315.153C715.656 312.268 719.504 311.684 717.706 309.082C715.94 306.48 717.422 304.745 719.189 302.995C720.971 301.26 723.936 298.091 726.632 296.64C729.298 295.189 730.48 294.905 730.78 290.868C731.08 286.8 731.08 287.115 734.06 285.664C737.025 284.214 738.807 284.214 740.589 285.664C742.356 287.115 744.737 286.816 746.22 285.948C747.718 285.081 749.484 283.646 750.383 283.646C751.282 283.646 752.449 282.479 753.064 281.012C753.648 279.577 755.414 279.293 757.212 280.445C758.994 281.596 760.192 283.614 761.975 287.982C763.757 292.319 767.62 296.056 769.103 297.223C770.57 298.375 773.534 298.091 775.916 300.109C778.297 302.128 782.776 307.931 783.328 308.514C783.943 309.082 783.943 312.267 783.06 314.57C782.177 316.888 781.577 319.79 784.227 317.456C786.939 315.153 786.324 313.703 786.939 313.119C787.507 312.551 789.605 309.949 787.507 308.798C785.441 307.647 785.441 305.613 786.324 304.178C787.255 302.727 788.99 303.31 790.22 303.878C791.387 304.462 792.869 306.196 793.437 305.329C794.084 304.462 792.538 302.443 791.087 301.576C789.62 300.708 786.955 298.974 785.709 298.106C784.542 297.239 785.709 295.505 782.193 295.189C778.581 294.905 777.099 292.019 775.932 290.285C774.733 288.55 772.667 284.198 770.585 283.33C768.504 282.463 767.005 281.312 768.235 278.426C769.418 275.54 768.235 274.941 770.885 273.522C773.534 272.071 774.465 273.206 774.149 275.824C773.818 278.426 779.464 274.673 780.379 278.71C781.262 282.763 787.239 287.115 788.974 288.266C790.788 289.418 795.787 291.152 797.269 292.603C798.783 294.038 802.631 295.773 800.25 298.958C797.884 302.128 800.865 303.862 802.899 307.048C804.997 310.217 807.094 314.838 807.094 318.023C807.094 321.209 809.129 323.795 811.826 322.644C814.475 321.493 821.919 319.758 820.137 316.289C818.339 312.819 815.973 311.085 814.475 308.199C812.977 305.313 813.892 302.711 816.289 304.162C818.67 305.597 817.14 299.51 822.502 300.109C827.849 300.693 827.139 304.635 831.208 302.412C835.277 300.188 841.475 299.542 838.541 297.507C835.639 295.457 833.463 293.707 834.756 290.868C834.819 290.821 834.662 290.458 834.709 290.379C834.898 288.692 835.292 287.241 836.617 286.311C838.32 285.144 840.039 281.58 841.348 278.836C842.61 276.077 845.165 277.259 846.49 273.317C847.704 269.359 848.193 266.599 852.025 267.798C855.842 268.98 857.986 272.118 856.677 274.5C855.447 276.865 856.677 278.836 858.869 280.807C860.967 282.779 863.538 279.625 866.124 276.881C868.632 274.121 869.925 271.74 866.944 271.361C863.963 270.951 868.237 266.615 872.133 266.615C876.028 266.615 878.52 270.163 875.508 272.923C872.495 275.682 873.363 279.64 877.195 280.429C881.09 281.202 883.188 285.16 887.067 286.327C890.9 287.525 895.142 291.073 892.13 294.606C889.165 298.154 887.462 296.987 881.09 296.608C874.656 296.198 868.647 291.862 862.26 291.862C855.873 291.862 854.596 294.243 852.041 296.198C849.486 298.17 846.016 295.41 841.743 299.368C837.532 303.31 836.223 305.266 833.668 305.676C831.113 306.054 825.988 310.785 829.804 315.5C833.668 320.247 839.645 322.597 841.743 324.599C843.903 326.57 846.001 322.612 851.568 323.811C857.166 324.993 857.561 327.359 862.718 324.599C867.843 321.84 870.824 321.84 868.237 324.599C865.635 327.359 866.55 332.878 866.55 336.836C866.55 340.795 863.538 345.115 862.718 348.632C861.819 352.18 863.979 353.773 865.272 357.321C866.534 360.869 863.963 368.77 866.124 371.908C868.222 375.077 870.382 379.792 872.48 383.766C874.64 387.693 880.191 389.664 881.5 397.17C882.746 404.661 884.465 410.559 889.149 412.924C893.849 415.29 896.009 420.036 896.814 424.751C897.728 429.498 896.877 437.777 899.448 441.325C902.002 444.873 898.974 449.604 905.803 448.421C912.695 447.223 922.504 442.87 929.333 438.171C936.193 433.424 948.132 424.736 952.39 423.569C956.616 422.386 958.319 418.459 960.038 414.501C961.773 410.575 965.164 408.982 966.899 406.222C968.602 403.462 969.028 400.293 965.606 395.562C962.183 390.831 956.616 391.635 956.222 388.056C955.812 384.539 953.226 380.187 951.096 382.158C948.967 384.129 945.939 390.043 941.729 390.437C937.392 390.847 935.294 390.847 935.294 384.918C935.294 378.988 934.884 378.231 931.462 377.427C928.024 376.639 924.207 372.712 922.504 368.754C920.769 364.811 919.082 362.446 923.324 359.276C927.645 356.138 928.513 361.279 929.743 364.039C931.036 366.798 936.982 370.725 938.322 373.895C939.552 377.033 943.858 380.202 949.377 379.02C954.944 377.821 959.66 377.821 960.496 380.612C961.379 383.341 963.082 386.51 968.208 385.343C973.349 384.145 975.068 384.145 976.298 386.132C977.56 388.071 980.998 387.299 985.319 386.51C989.561 385.722 988.725 388.481 993.819 386.51C998.945 384.539 1000.24 386.889 1001.06 390.847C1001.94 394.773 1003.25 395.956 1005.76 395.956C1008.27 395.956 1006.63 398.732 1007.08 401.507C1007.48 404.267 1009.18 408.193 1013.01 408.193C1016.84 408.193 1019.04 404.645 1021.56 403.857C1024.19 403.068 1023.7 405.844 1022.88 411.757C1022 417.655 1022.4 428.299 1025.88 436.2C1029.29 444.085 1034.38 453.941 1035.26 459.081C1036.15 464.207 1037.8 472.864 1040.41 472.864C1043.01 472.864 1045.11 469.694 1048.48 465.389C1051.87 461.053 1052.31 459.87 1052.79 455.533C1053.18 451.197 1056.21 449.998 1054.9 444.479C1053.59 438.96 1054.9 434.229 1057.88 433.85C1060.91 433.44 1064.76 430.302 1064.76 427.132C1064.76 423.963 1067.28 421.613 1070.7 419.248C1074.14 416.898 1078.37 414.927 1080.07 409.013C1081.8 403.084 1083.49 402.706 1086.93 403.494C1090.35 404.282 1093.76 403.888 1094.61 401.129C1095.48 398.369 1099.31 397.58 1099.74 401.917C1100.21 406.254 1101.42 408.225 1105.3 410.196C1106.28 410.732 1106.71 411.805 1107.35 412.656C1105.6 412.814 1104.42 412.94 1104.42 412.94C1104.42 417.765 1107.73 420.194 1107.73 423.821C1107.73 427.448 1107.04 433.503 1111 432.92C1111.14 432.888 1111.26 432.746 1111.45 432.699C1111.93 433.409 1112.45 433.976 1113.36 433.898C1115.21 433.724 1116.58 431.911 1117.81 430.176C1118.12 430.491 1118.41 430.507 1118.8 431.122C1122.13 435.948 1124.73 438.96 1126.01 445.015C1127.32 451.071 1129.29 459.539 1127.32 463.781C1125.33 468.023 1124.1 465.594 1129.97 474.662C1135.9 483.745 1133.25 485.574 1135.9 492.213C1138.52 498.884 1143.09 501.281 1146.34 503.094C1149.6 504.908 1149.6 501.281 1147.63 495.872C1145.72 490.4 1145.72 485.574 1141.09 479.519C1136.56 473.463 1129.31 471.666 1131.28 458.94C1133.25 446.245 1132.6 442.003 1135.9 446.245C1139.13 450.456 1148.97 460.138 1151.57 463.797C1154.21 467.424 1160.09 464.396 1167.31 459.555C1174.5 454.698 1174.5 450.456 1170.59 442.019C1169.19 438.944 1167.22 435.963 1165.28 433.156L1165.5 433.125L1167.22 432.336C1167.22 432.336 1159.57 422.118 1157.69 417.292C1158.06 414.533 1159.19 411.931 1161.43 410.165C1163.04 408.871 1164.6 407.468 1165.96 406.001C1168.95 405.449 1171.05 404.898 1170.59 404.487C1169.08 403.116 1167.79 404.204 1166.26 405.718C1166.57 405.386 1166.95 405.055 1167.22 404.724C1170.21 400.766 1173.19 401.586 1173.59 405.923C1174.05 410.228 1174.05 409.849 1170.59 413.791C1167.22 417.734 1168.5 418.128 1171.05 420.099C1173.59 422.07 1177.91 416.551 1179.6 415.368C1181.3 414.17 1178.71 409.849 1177.89 408.272C1177 406.695 1177.89 403.131 1180.4 402.374C1182.99 401.586 1189.41 401.176 1192.81 398.416C1196.2 395.657 1202.64 397.628 1207.78 390.531C1212.92 383.435 1217.13 373.185 1220.18 370.82C1223.12 368.47 1225.32 360.191 1225.32 355.46C1225.32 350.729 1221.45 344.012 1219.29 338.855C1217.13 333.746 1211.14 330.576 1217.13 326.649C1223.12 322.723 1223.98 320.72 1226.12 320.72C1228.27 320.72 1230 315.989 1226.12 315.611C1222.29 315.201 1215.9 317.172 1214.17 317.992C1212.43 318.78 1212.04 317.172 1209.91 313.245C1207.78 309.319 1210.32 307.347 1214.59 307.347C1218.87 307.347 1224.86 293.549 1226.12 297.87C1227.41 302.207 1228.23 304.178 1232.07 304.178C1235.9 304.178 1238.49 304.556 1239.38 308.909C1240.22 313.245 1245.77 319.553 1244.48 325.072C1243.23 330.592 1243.23 334.96 1248.34 332.579C1253.44 330.213 1257.3 326.239 1258.18 321.934C1259.02 317.598 1253.44 313.655 1250.47 310.486C1247.44 307.347 1247.44 304.556 1250.47 302.207C1253.44 299.841 1256.89 296.277 1260.28 292.351C1263.67 288.392 1263.25 282.873 1266.68 285.664C1270.11 288.392 1273.94 290.001 1279.49 283.677C1285.06 277.37 1296.57 264.36 1298.75 257.264C1300.86 250.151 1302.58 245.815 1302.12 241.1C1301.71 236.369 1304.71 236.369 1304.71 228.484C1304.71 220.599 1301.32 217.036 1298.73 217.036C1296.14 217.036 1294.05 220.205 1288.89 217.414C1283.75 214.686 1279.03 215.064 1285.02 210.334C1291 205.587 1301.3 197.718 1304.28 192.577C1307.25 187.436 1309.34 183.888 1316.64 183.1C1323.93 182.327 1330.71 186.648 1335 186.648C1339.29 186.648 1339.65 185.071 1340.13 183.51C1340.54 181.917 1341.4 181.917 1343.55 181.917C1345.69 181.917 1349.51 184.298 1346.51 186.648C1343.55 189.029 1345.27 190.196 1350.8 189.407C1356.32 188.619 1358.06 186.648 1360.58 187.058C1363.17 187.436 1364.48 183.51 1362.77 183.1C1361.09 182.721 1361.09 180.34 1363.58 179.551C1366.15 178.795 1369.15 175.625 1372.54 171.698C1375.99 167.74 1378.56 168.529 1379.87 169.317C1381.1 170.106 1388.83 166.952 1386.71 170.5C1384.52 174.048 1386.26 176.808 1389.68 174.458C1393.09 172.077 1392.22 176.808 1386.26 181.554C1380.23 186.285 1378.12 191.41 1371.73 193.791C1365.28 196.141 1363.18 204.798 1364.89 210.318C1366.61 215.869 1367 223.343 1368.31 228.484C1369.6 233.594 1368.74 238.75 1371.73 237.552C1374.73 236.369 1380.22 230.045 1380.71 227.317C1381.1 224.558 1385.8 225.33 1386.26 221.388C1386.71 217.43 1391.78 218.218 1391.37 213.109C1390.96 207.984 1391.76 204.42 1396.1 204.041C1400.31 203.631 1397.33 198.112 1396.49 192.609C1395.66 187.089 1399.47 181.948 1404.14 179.993C1408.87 178.022 1412.31 178.81 1414.85 176.855C1417.39 174.852 1421.27 174.474 1423.37 176.445C1425.51 178.416 1428.1 179.205 1431.52 174.868C1434.91 170.531 1443.43 169.759 1447.29 166.21C1451.15 162.662 1456.67 161.874 1460.98 162.662C1465.24 163.435 1467.35 159.083 1464.35 155.156C1461.4 151.229 1458.39 149.258 1462.68 148.076C1466.94 146.877 1472.47 146.089 1470.77 142.146C1469.05 138.188 1473.74 137.005 1475.46 140.175C1477.19 143.313 1479.71 141.342 1482.74 141.342C1485.77 141.342 1488.26 147.24 1492.54 148.832C1496.87 150.409 1500.26 148.454 1501.1 146.073C1501.95 143.723 1500.67 141.736 1505.36 140.964C1510.04 140.175 1511.76 137.384 1509.24 134.246L1509.35 134.23Z" fill="#F1F1F1"/>
<path fill-rule="evenodd" clip-rule="evenodd" d="M1139.3 503.52C1134.82 500.398 1128.69 496.692 1126.83 493.27C1124.97 489.879 1122.68 486.883 1119.02 486.442C1115.28 486.032 1107.92 483.887 1112.49 489.422C1117.13 494.973 1124.53 501.36 1127.32 507.336C1130.08 513.297 1136.54 522.254 1139.71 529.082C1142.98 535.895 1149.44 540.594 1153.61 540.168C1157.74 539.727 1162.39 532.079 1157.31 527.805C1152.22 523.547 1149.89 516.719 1146.7 512.051C1143.44 507.352 1141.15 504.797 1139.3 503.52Z" fill="#F1F1F1"/>
<path fill-rule="evenodd" clip-rule="evenodd" d="M1171.48 544.71C1167.64 544.71 1163.64 541.745 1160.39 541.319C1157.16 540.878 1152.54 547.264 1159 549.409C1165.48 551.522 1167.77 550.245 1173.83 551.522C1179.79 552.8 1188.08 554.913 1190.43 555.78C1192.72 556.632 1195.95 552.39 1190.43 550.671C1184.88 548.952 1186.24 545.136 1181.17 543.842C1176.1 542.565 1175.15 544.694 1171.49 544.694L1171.48 544.71Z" fill="#F1F1F1"/>
<path fill-rule="evenodd" clip-rule="evenodd" d="M1185.83 527.379C1193.59 526.875 1194.12 533.766 1200.13 527.379C1206.11 521.008 1208.39 519.715 1207.04 514.18C1205.62 508.629 1204.26 509.039 1207.97 507.778C1211.64 506.5 1209.33 500.949 1207.48 497.559C1205.62 494.153 1208.41 492.008 1210.29 490.305C1212.12 488.586 1211.15 485.637 1208.88 481.79C1206.57 477.942 1204.7 479.219 1201.99 480.922C1199.22 482.641 1200.15 488.586 1195.97 489.864C1191.8 491.157 1191.8 494.989 1188.6 495.84C1185.32 496.692 1182.14 496.692 1181.62 500.114C1181.17 503.52 1180.29 503.11 1176.57 502.243C1172.85 501.391 1172.42 501.391 1170.56 504.813C1168.72 508.219 1170.14 512.051 1172.85 518.422C1175.62 524.824 1179.38 527.836 1185.84 527.379H1185.83Z" fill="#F1F1F1"/>
<path fill-rule="evenodd" clip-rule="evenodd" d="M1208.87 558.508C1206.85 559.517 1203.33 558.098 1202.84 555.953C1202.42 553.825 1206.11 554.676 1207.95 554.676C1209.8 554.676 1213.95 555.954 1208.85 558.508H1208.87Z" fill="#F1F1F1"/>
<path fill-rule="evenodd" clip-rule="evenodd" d="M1232.79 560.527C1236.96 556.663 1237.84 555.007 1242.44 553.714C1247.06 552.437 1252.16 550.292 1247.06 554.14C1242.05 557.988 1240.19 558.414 1237.35 560.527C1234.62 562.671 1229.53 563.523 1232.79 560.527Z" fill="#F1F1F1"/>
<path fill-rule="evenodd" clip-rule="evenodd" d="M1216.36 561.599C1215.1 560.874 1212.02 559.186 1214.01 559.06C1215.98 558.934 1217.16 558.335 1218.35 559.312C1219.54 560.274 1221.17 560.968 1220.73 561.741C1220.24 562.529 1217.23 562.088 1216.37 561.583L1216.36 561.599Z" fill="#F1F1F1"/>
<path fill-rule="evenodd" clip-rule="evenodd" d="M1218.25 555.417C1219.66 555.496 1222.84 556.947 1224.42 556.49C1226 556.048 1226.56 555.086 1227.73 555.212C1228.85 555.354 1231.31 553.998 1229.09 553.793C1226.88 553.62 1224.89 553.541 1222.92 553.225C1221 552.894 1219.56 552.626 1217.67 553.146C1215.71 553.683 1216.44 555.291 1218.27 555.417H1218.25Z" fill="#F1F1F1"/>
<path fill-rule="evenodd" clip-rule="evenodd" d="M1212.46 535.705C1213.36 533.34 1213.13 532 1211.79 529.208C1210.46 526.433 1213.11 523.642 1213.47 521.481C1213.82 519.337 1214.78 517.775 1215.11 513.77C1215.46 509.765 1212.81 506.973 1220.85 507.273C1228.88 507.588 1232.19 508.834 1234.87 506.973C1237.57 505.128 1243.25 505.128 1238.23 508.535C1233.2 511.925 1232.87 510.979 1227.82 510.38C1222.83 509.765 1218.47 510.38 1218.8 513.77C1219.15 517.16 1224.8 517.775 1226.85 517.476C1228.88 517.176 1230.19 519.652 1226.85 521.828C1223.49 523.973 1221.85 526.149 1224.8 528.01C1227.82 529.839 1233.52 532.93 1229.51 535.737C1225.47 538.512 1223.8 538.181 1222.45 534.176C1221.12 530.17 1221.12 525.55 1219.78 529.855C1218.46 534.176 1220.16 538.512 1216.82 538.512C1213.47 538.512 1211.08 539.127 1212.43 535.737L1212.46 535.705Z" fill="#F1F1F1"/>
<path fill-rule="evenodd" clip-rule="evenodd" d="M1265.2 519.4C1263.84 517.539 1265.2 516.309 1268.91 515.379C1272.55 514.448 1277.25 514.149 1277.25 517.854C1277.25 521.56 1276.57 522.475 1279.22 525.266C1281.93 528.057 1282.9 528.357 1284.96 525.881C1286.98 523.421 1287.25 520.346 1290.58 520.031C1293.97 519.699 1296.33 520.346 1299.98 521.56C1303.71 522.79 1309.72 526.811 1314.03 528.357C1318.38 529.886 1323.44 531.763 1326.42 535.153C1329.42 538.56 1337.15 543.164 1335.11 545.041C1333.11 546.902 1332.45 549.977 1335.77 552.137C1339.13 554.313 1345.17 560.164 1346.17 561.709C1347.19 563.239 1347.19 566.33 1343.16 564.185C1339.13 562.009 1335.77 562.955 1333.76 560.148C1331.78 557.388 1331.14 553.998 1325.76 552.121C1320.41 550.261 1317.42 549.646 1317.7 552.121C1318.08 554.597 1315.35 555.827 1310.72 555.827C1306.08 555.827 1305.35 553.351 1302.33 552.121C1299.38 550.891 1299.99 554.597 1297.66 549.046C1295.32 543.496 1294.64 543.795 1294.64 540.704C1294.64 537.614 1290.28 537.014 1286.6 534.838C1282.9 532.662 1282.9 532.047 1277.9 529.571C1272.88 527.111 1267.24 527.726 1268.53 525.25C1269.85 522.774 1266.56 521.245 1265.2 519.4Z" fill="#F1F1F1"/>
<path fill-rule="evenodd" clip-rule="evenodd" d="M1344.97 542.061C1347.03 541.903 1353.01 537.409 1354.02 536.179C1355.08 534.949 1357.38 534.949 1355.35 532.173C1353.37 529.382 1353.69 529.697 1350.99 532.788C1348.36 535.879 1349.37 536.179 1345.99 536.825C1342.62 537.424 1341.63 538.97 1339.65 539.285C1337.62 539.585 1340.98 542.376 1344.97 542.076V542.061Z" fill="#F1F1F1"/>
<path fill-rule="evenodd" clip-rule="evenodd" d="M1367.06 546.508C1364.62 545.53 1364.37 544.647 1364.04 542.187C1363.66 539.711 1363 538.796 1366.04 541.855C1369.04 544.946 1372.03 544.946 1371.35 546.807C1370.74 548.684 1370.08 547.722 1367.08 546.508H1367.06Z" fill="#F1F1F1"/>
<path fill-rule="evenodd" clip-rule="evenodd" d="M1405.92 623.81C1409.93 627.531 1410.92 628.462 1413.6 628.761C1416.3 629.077 1416.6 626.885 1413.6 625.371C1410.62 623.81 1410.28 623.81 1407.25 620.703C1404.22 617.612 1403.19 616.083 1402.25 616.398C1401.22 616.713 1403.57 621.649 1405.94 623.81H1405.92Z" fill="#F1F1F1"/>
<path fill-rule="evenodd" clip-rule="evenodd" d="M1447.6 701.632C1444.92 700.102 1446.64 698.242 1444.26 695.45C1441.93 692.675 1438.6 690.215 1440.26 688.654C1441.93 687.124 1442.57 688.654 1445.6 690.83C1448.61 693.006 1449.95 694.536 1449.95 697.327C1449.95 700.118 1450.98 702.878 1451.99 703.193C1452.97 703.509 1454.31 705.953 1456.31 707.514C1458.36 709.044 1460.33 709.99 1462.98 707.829C1465.74 705.653 1468.03 706.599 1466.01 710.305C1464.04 714.011 1461.33 714.311 1460.03 716.787C1458.68 719.247 1457 721.107 1456.67 723.583C1456.33 726.059 1453.65 727.589 1451.66 726.658C1449.69 725.744 1451.34 724.182 1450.33 722.322C1449.29 720.477 1449.29 716.171 1447.01 715.556C1444.66 714.926 1446.31 714.311 1448.65 712.765C1451 711.204 1450.33 703.193 1447.64 701.632H1447.6Z" fill="#F1F1F1"/>
<path fill-rule="evenodd" clip-rule="evenodd" d="M1443.25 734.701C1441.38 736.467 1442.94 738.407 1439.58 740.882C1436.25 743.358 1434.58 742.743 1432.95 746.449C1431.25 750.155 1428.87 757.866 1423.89 756.636C1418.84 755.39 1415.86 753.545 1414.9 753.845C1413.86 754.16 1411.87 753.246 1414.2 749.508C1416.57 745.802 1416.57 742.097 1422.84 741.182C1429.26 740.267 1432.95 736.861 1433.9 733.155C1434.91 729.45 1437.24 728.204 1437.24 725.744C1437.24 723.284 1438.6 719.562 1440.93 722.322C1443.25 725.113 1447.29 722.653 1447.29 725.413C1447.29 728.172 1446.64 731.594 1443.25 734.685V734.701Z" fill="#F1F1F1"/>
<path fill-rule="evenodd" clip-rule="evenodd" d="M1326.52 723.788C1329.92 725.018 1330.21 726.264 1332.95 724.403C1335.6 722.527 1336.94 720.697 1336.94 724.703C1336.94 728.708 1336.25 732.114 1334.59 734.59C1332.97 737.066 1330.9 740.157 1328.24 737.681C1325.59 735.237 1324.91 731.815 1323.24 729.67C1321.53 727.494 1316.5 720.098 1326.53 723.804L1326.52 723.788Z" fill="#F1F1F1"/>
<path fill-rule="evenodd" clip-rule="evenodd" d="M1246.62 530.438C1245.08 531.511 1244.57 529.823 1242.89 529.823C1241.2 529.823 1242.89 528.593 1244.57 527.994C1246.28 527.363 1246.94 527.363 1247.92 528.31C1248.94 529.224 1247.92 529.524 1246.62 530.454V530.438Z" fill="#F1F1F1"/>
<path fill-rule="evenodd" clip-rule="evenodd" d="M1253.59 529.508C1250.68 530.17 1248.59 527.978 1252.24 527.332C1255.94 526.717 1256.61 527.016 1259.33 527.332C1261.95 527.647 1263.67 531.337 1260.63 530.423C1257.6 529.508 1256.29 528.893 1253.59 529.508Z" fill="#F1F1F1"/>
<path fill-rule="evenodd" clip-rule="evenodd" d="M1459.43 620.372C1457.6 620.372 1453.38 618.227 1457.05 616.966C1460.76 615.72 1461.78 614.805 1462.1 616.966C1462.46 619.142 1460.76 620.372 1459.45 620.372H1459.43Z" fill="#F1F1F1"/>
<path fill-rule="evenodd" clip-rule="evenodd" d="M1461.78 612.03C1462.45 609.475 1467.11 608.292 1467.79 608.608C1468.47 608.939 1468.47 611.399 1466.8 612.03C1465.11 612.629 1461.42 613.26 1461.78 612.03Z" fill="#F1F1F1"/>
<path fill-rule="evenodd" clip-rule="evenodd" d="M1413.84 587.997C1412.69 585.742 1414.49 583.976 1415.12 583.976C1415.81 583.976 1416.47 584.906 1416.47 586.767C1416.47 588.628 1415.12 590.772 1413.82 587.997H1413.84Z" fill="#F1F1F1"/>
<path fill-rule="evenodd" clip-rule="evenodd" d="M1389.62 557.925C1387.27 557.31 1384.93 555.149 1386.97 555.149C1389 555.149 1391.32 555.465 1392.28 556.695C1393.29 557.925 1389.62 557.925 1389.62 557.925Z" fill="#F1F1F1"/>
<path fill-rule="evenodd" clip-rule="evenodd" d="M1392.22 563.476C1392.88 565.447 1395.81 565.951 1395.81 565.951C1395.81 565.951 1396.19 564.091 1394.85 563.476C1393.5 562.876 1391.82 562.561 1392.22 563.476Z" fill="#F1F1F1"/>
<path fill-rule="evenodd" clip-rule="evenodd" d="M1378.42 555.133C1378.42 553.888 1377.36 552.989 1376.42 553.604C1375.39 554.203 1375.39 555.133 1376.68 556.08C1378.04 556.994 1378.42 556.08 1378.42 555.133Z" fill="#F1F1F1"/>
<path fill-rule="evenodd" clip-rule="evenodd" d="M1248.94 510.663C1247.68 508.125 1245.91 506.343 1248.61 503.252C1251.29 500.161 1250.94 501.076 1252.25 504.166C1253.61 507.257 1254.63 508.203 1252.62 510.663C1250.64 513.139 1250.64 514.054 1248.96 510.663H1248.94Z" fill="#F1F1F1"/>
<path fill-rule="evenodd" clip-rule="evenodd" d="M1240.87 480.086C1240.32 478.636 1240.6 478.226 1241.55 476.081C1242.59 473.905 1243.89 470.215 1242.89 468.37C1241.94 466.493 1242.6 464.017 1238.9 466.809C1235.22 469.6 1233.53 468.37 1229.86 469.899C1226.18 471.461 1225.21 474.551 1229.54 474.819C1233.9 475.151 1235.22 475.151 1234.21 477.91C1233.23 480.701 1236.26 481.001 1237.92 482.562C1239.59 484.092 1241.94 482.562 1240.88 480.086H1240.87Z" fill="#F1F1F1"/>
<path fill-rule="evenodd" clip-rule="evenodd" d="M1222.18 438.092C1221.8 434.702 1223.5 431.911 1225.87 429.135C1228.22 426.344 1226.18 426.044 1225.87 422.954C1225.51 419.863 1226.18 420.162 1222.84 419.863C1219.5 419.547 1219.18 421.424 1218.49 423.253C1217.84 425.114 1218.16 429.75 1218.16 430.996C1218.16 432.242 1214.15 430.996 1215.85 434.055C1217.54 437.146 1218.5 439.937 1219.51 442.713C1220.51 445.504 1221.15 444.558 1223.5 444.242C1225.87 443.959 1227.86 443.328 1230.57 445.804C1233.23 448.279 1234.21 447.049 1233.53 444.889C1232.89 442.713 1230.87 440.552 1228.22 440.883C1225.51 441.167 1222.48 441.167 1222.18 438.092Z" fill="#F1F1F1"/>
<path fill-rule="evenodd" clip-rule="evenodd" d="M1237.22 456.306C1237.22 454.713 1237.22 454.161 1236.25 452.6C1235.22 451.071 1234.2 449.509 1236.85 449.21C1239.56 448.91 1240.2 447.065 1240.2 451.686C1240.2 456.306 1239.87 460.627 1240.2 461.541C1240.58 462.488 1237.21 460.012 1237.21 456.306H1237.22Z" fill="#F1F1F1"/>
<path fill-rule="evenodd" clip-rule="evenodd" d="M1223.5 458.782C1223.5 455.644 1222.48 452.001 1226.18 454.161C1229.86 456.306 1230.57 457.252 1232.56 458.451C1234.57 459.712 1232.56 461.873 1230.88 464.349C1229.2 466.793 1225.88 466.194 1225.52 464.017C1225.22 461.873 1223.52 460.927 1223.52 458.782H1223.5Z" fill="#F1F1F1"/>
<path fill-rule="evenodd" clip-rule="evenodd" d="M1210.84 465.578C1211.64 463.97 1211.8 462.787 1213.49 462.188C1215.13 461.541 1215.13 460.942 1215.13 458.782C1215.13 456.621 1213.84 456.006 1212.48 458.451C1211.12 460.942 1210.15 460.311 1209.15 463.103C1208.1 465.878 1204.15 466.808 1203.79 468.985C1203.47 471.129 1203.79 471.461 1206.5 469.6C1209.15 467.739 1209.45 468.07 1210.86 465.594L1210.84 465.578Z" fill="#F1F1F1"/>
<path fill-rule="evenodd" clip-rule="evenodd" d="M1168.98 420.777C1169.66 422.954 1170.31 423.569 1173.02 423.253C1175.67 422.954 1177.69 421.724 1178.4 419.547C1179 417.371 1180.69 412.751 1177.37 413.066C1173.97 413.397 1173.02 414.627 1170.67 415.542C1168.34 416.472 1167.96 417.718 1168.98 420.777Z" fill="#F1F1F1"/>
<path fill-rule="evenodd" clip-rule="evenodd" d="M1218.82 396.697C1218.5 394.852 1218.82 391.462 1220.49 389.585C1222.16 387.756 1223.14 385.28 1224.15 384.965C1225.21 384.634 1227.18 384.965 1226.17 388.371C1225.19 391.761 1223.49 394.852 1223.83 397.328C1224.15 399.788 1219.81 402.879 1218.82 396.697Z" fill="#F1F1F1"/>
<path fill-rule="evenodd" clip-rule="evenodd" d="M1257.33 344.122C1256.5 341.189 1255.63 336.411 1259.33 335.464C1263.02 334.55 1265.33 333.004 1268.01 330.529C1270.67 328.084 1270.67 328.352 1274.99 328.084C1279.39 327.753 1281.73 329.614 1283.05 326.523C1284.39 323.432 1285.77 322.518 1288.79 320.042C1291.76 317.566 1294.41 315.721 1296.77 312.63C1299.11 309.539 1300.81 305.534 1300.81 302.743C1300.81 299.952 1300.43 297.176 1302.81 296.876C1305.16 296.561 1306.5 297.192 1307.81 300.267C1309.15 303.358 1309.78 308.625 1307.14 310.154C1304.47 311.684 1304.14 312.015 1304.14 315.421C1304.14 318.828 1303.79 323.133 1303.79 324.662C1303.79 326.192 1301.14 333.02 1295.1 333.619C1289.11 334.25 1286.74 332.705 1286.08 333.32C1285.42 333.935 1284.76 337.026 1282.38 338.555C1280.03 340.116 1279.08 339.186 1278.7 337.625C1278.35 336.095 1276.73 333.619 1277.06 335.464C1277.38 337.325 1276.73 338.555 1274.38 339.801C1272.01 341.031 1269.98 345.037 1269.03 342.592C1268.01 340.116 1267 338.271 1268.67 337.625C1270.33 337.026 1269.33 335.796 1267 336.395C1264.65 337.01 1262.33 337.01 1263.66 338.855C1264.98 340.716 1264.98 343.507 1264.33 345.983C1263.66 348.458 1263.02 351.218 1259.33 350.903C1255.63 350.603 1256.95 349.058 1257.6 347.528C1258.28 345.967 1257.6 345.352 1257.33 344.106V344.122Z" fill="#F1F1F1"/>
<path fill-rule="evenodd" clip-rule="evenodd" d="M1304.14 290.395C1303.71 289.827 1306.49 288.866 1306.49 288.866C1306.49 288.866 1308.49 290.096 1310.48 290.711C1312.54 291.357 1314.52 291.657 1315.52 289.481C1316.49 287.304 1316.2 286.39 1319.51 286.39C1322.83 286.39 1325.57 286.39 1324.17 284.214C1322.84 282.069 1324.88 279.293 1319.51 279.893C1314.14 280.508 1315.52 281.454 1312.81 278.048C1310.16 274.626 1308.81 269.39 1306.84 270.604C1304.79 271.85 1305.46 273.08 1306.84 276.171C1308.11 279.262 1308.49 281.738 1307.13 282.968C1305.83 284.198 1307.13 284.813 1305.16 285.444C1303.11 286.059 1302.81 285.444 1301.14 286.973C1299.49 288.534 1298.79 290.064 1299.49 290.979C1300.15 291.925 1301.49 293.155 1303.11 292.839C1304.77 292.54 1304.77 291.31 1304.14 290.364V290.395Z" fill="#F1F1F1"/>
<path fill-rule="evenodd" clip-rule="evenodd" d="M1310.46 261.064V252.706C1310.46 249 1311.82 244.049 1310.83 240.958C1309.77 237.899 1308.11 236.637 1309.5 232.947C1310.83 229.241 1310.83 229.856 1311.47 227.711C1312.13 225.535 1312.8 222.145 1314.5 221.829C1316.2 221.53 1316.2 228.311 1316.88 230.455C1317.5 232.632 1314.82 236.937 1316.49 240.674C1318.17 244.348 1322.54 247.139 1318.17 248.37C1313.85 249.615 1313.85 253.637 1313.49 257.327C1313.19 261.064 1313.85 263.824 1314.82 265.684C1315.84 267.529 1313.49 267.829 1312.81 266.599C1312.13 265.369 1307.81 270.305 1309.5 266.284C1311.14 262.278 1310.46 262.893 1310.46 261.048V261.064Z" fill="#F1F1F1"/>
<path fill-rule="evenodd" clip-rule="evenodd" d="M645.697 157.159C650.003 154.352 654.734 152.16 657.73 151.024C660.743 149.921 663.455 146.041 660.443 144.07C657.446 142.13 653.835 136.311 651.107 137.967C648.394 139.623 646.896 141.563 642.685 140.475C638.474 139.355 633.049 137.132 631.851 140.191C630.621 143.266 628.823 144.07 628.223 140.758C627.624 137.415 626.126 135.192 622.814 138.535C619.518 141.862 614.093 143.518 617.72 144.922C621.316 146.294 622.215 148.801 619.818 148.801C617.42 148.801 622.53 151.024 624.013 152.144C625.527 153.248 622.215 158.247 628.539 159.098C634.863 159.918 640.572 160.47 645.697 157.159Z" fill="#F1F1F1"/>
<path fill-rule="evenodd" clip-rule="evenodd" d="M781.246 67.3042C782.082 67.6827 784.732 64.6391 785.678 60.5391C786.608 56.439 790.125 47.34 791.702 45.5738C793.279 43.8077 795.251 43.8077 794.604 49.9735C793.942 56.1552 797.096 57.9213 801.244 57.606C805.423 57.3063 806.984 53.2063 804.082 48.507C801.244 43.8077 799.036 38.8087 797.096 35.3079C795.251 31.7913 795.188 28.5428 797.742 27.9593C800.282 27.3758 800.282 36.4591 805.691 30.6086C811.148 24.7266 817.14 20.3111 811.416 17.378C805.691 14.4606 799.682 10.6286 793.926 12.9783C788.217 15.3279 788.217 20.0273 781.846 19.1284C775.49 18.2611 772.951 10.9283 769.813 17.9772C766.58 25.0104 763.11 31.7755 765.98 35.576C768.803 39.3764 774.828 41.458 773.897 46.1573C772.935 50.8566 772.32 53.2063 774.828 57.9056C777.367 62.5733 779.307 66.4053 781.231 67.3042H781.246Z" fill="#F1F1F1"/>
<path fill-rule="evenodd" clip-rule="evenodd" d="M954.298 101.193C952.752 100.357 947.39 97.8182 951.081 92.4092C954.739 87.0003 955.433 86.6691 959.817 82.9318C964.249 79.2259 959.502 79.8882 967.939 75.5043C976.298 71.1046 981.124 68.7392 989.182 66.358C997.21 64.0084 1003.41 65.6957 1005.63 60.271C1007.85 54.8621 1004.89 52.1497 999.749 53.1747C994.655 54.1682 998.661 58.2525 990.633 58.9148C982.575 59.6087 976.314 61.2645 973.38 61.6272C970.478 61.9583 963.161 65.6799 958.035 68.0454C952.91 70.4266 951.096 77.5228 948.147 80.2352C945.182 82.9475 943.747 87.0003 939.694 88.3565C935.688 89.6969 930.563 96.4778 935.31 98.4962C940.073 100.515 941.886 102.896 948.51 104.583C955.07 106.302 959.833 106.964 960.196 105.608C960.59 104.252 956.931 102.565 954.329 101.209L954.298 101.193Z" fill="#F1F1F1"/>
<path fill-rule="evenodd" clip-rule="evenodd" d="M920.659 27.8174C924.649 25.8778 924.665 26.1143 929.096 24.427C933.449 22.7396 933.134 21.3835 932.708 18.0088C932.393 14.6183 933.859 9.55634 929.443 12.931C925.012 16.3372 924.681 19.6961 921.038 17.6619C917.363 15.6434 912.616 11.906 906.04 14.2872C899.416 16.6684 889.165 19.018 893.928 21.0523C898.675 23.1023 902.744 23.4335 904.904 24.0958C907.096 24.7897 905.661 23.4335 908.563 21.3835C911.528 19.365 915.171 19.365 914.477 21.7462C913.689 24.0958 912.947 31.5548 920.675 27.8174H920.659Z" fill="#F1F1F1"/>
<path fill-rule="evenodd" clip-rule="evenodd" d="M930.91 32.8636C933.701 33.731 933.134 28.8267 931.635 28.8267C930.137 28.8267 927.646 28.8267 927.646 30.8452C927.646 32.8636 929.775 32.5325 930.91 32.8636Z" fill="#F1F1F1"/>
<path fill-rule="evenodd" clip-rule="evenodd" d="M938.606 28.4797C940.152 29.347 942.265 27.8174 942.643 25.7674C943.006 23.7489 941.555 22.3927 939.316 22.7239C937.108 23.0866 936.777 27.4705 938.606 28.464V28.4797Z" fill="#F1F1F1"/>
<path fill-rule="evenodd" clip-rule="evenodd" d="M973.365 24.08C977.434 24.08 980.335 24.08 978.885 20.3427C977.434 16.6368 978.885 14.5868 978.885 13.2464C978.885 11.906 978.885 6.82822 975.194 6.82822C971.504 6.82822 973.759 11.5591 971.535 13.2464C969.391 14.9653 968.602 15.2807 967.94 19.6804C967.151 24.08 969.391 24.08 973.365 24.08Z" fill="#F1F1F1"/>
<path fill-rule="evenodd" clip-rule="evenodd" d="M983.268 14.6026C984.262 16.8261 985.098 15.6276 989.167 14.2714C993.141 12.9152 991.296 15.2964 990.98 9.54056C990.602 3.7847 991.28 -0.268061 988.015 0.0630982C984.751 0.394258 984.751 2.11313 982.559 4.46279C980.335 6.84398 981.786 11.2279 983.268 14.6026Z" fill="#F1F1F1"/>
<path fill-rule="evenodd" clip-rule="evenodd" d="M970.084 28.8267C967.924 28.8267 965.684 28.8267 965.337 30.1828C964.927 31.539 966.741 32.8636 968.996 32.8636C971.251 32.8636 971.535 28.8267 970.084 28.8267Z" fill="#F1F1F1"/>
<path fill-rule="evenodd" clip-rule="evenodd" d="M963.492 26.0985C966.883 26.0985 964.612 20.7053 963.492 20.0115C962.404 19.3492 957.673 18.6553 957.673 22.0615C957.673 25.4677 957.673 26.4612 958.729 27.1235C959.865 27.8174 962.404 26.0985 963.476 26.0985H963.492Z" fill="#F1F1F1"/>
<path fill-rule="evenodd" clip-rule="evenodd" d="M951.081 26.0985C952.027 27.912 952.531 29.1578 953.982 29.1578C955.433 29.1578 955.433 28.8266 954.314 24.4112C953.225 20.0115 951.396 18.6553 954.755 17.3307C958.035 15.9745 954.755 16.6368 955.828 13.5933C956.916 10.5498 956.537 10.2186 961.663 8.18437C966.804 6.13434 964.943 0.0630834 960.969 1.41926C956.932 2.77544 953.241 6.8282 950.702 8.18437C948.147 9.54055 944.804 9.20939 944.488 11.559C944.094 13.9402 941.145 14.6026 945.545 15.9745C949.977 17.3307 949.251 18.6553 949.551 21.3677C949.992 24.08 950.292 24.7581 951.081 26.0985Z" fill="#F1F1F1"/>
<path fill-rule="evenodd" clip-rule="evenodd" d="M920.249 117.088C919.602 117.987 918.435 120.148 921.763 120.479C924.996 120.81 926.147 121.804 927.63 119.454C929.081 117.073 928.371 113.367 925.784 113.367C923.198 113.367 921.763 115.054 920.249 117.073V117.088Z" fill="#F1F1F1"/>
<path fill-rule="evenodd" clip-rule="evenodd" d="M1141.91 47.7658C1146.31 47.7658 1147.36 47.0719 1151.4 47.0719C1155.44 47.0719 1156.53 46.0785 1155.78 41.6788C1155.04 37.2948 1153.56 34.9137 1148.8 34.5825C1144.05 34.2198 1144.79 28.4797 1142.6 32.8636C1140.38 37.2791 1141.51 38.2726 1138.18 43.3661C1134.92 48.4281 1133.44 49.7843 1135.63 50.1312C1137.87 50.4624 1139.71 47.75 1141.91 47.75V47.7658Z" fill="#F1F1F1"/>
<path fill-rule="evenodd" clip-rule="evenodd" d="M1135.63 38.2883C1134.86 35.7021 1134.54 35.9387 1136.72 32.8794C1138.93 29.8359 1137.47 27.4862 1131.95 27.1393C1126.51 26.8081 1124.29 22.4084 1117.7 27.1393C1111.12 31.8701 1104.91 30.8609 1108.54 34.5983C1112.19 38.3041 1114.02 37.3106 1119.18 41.6945C1124.31 46.0942 1124.67 48.7908 1129.48 45.7315C1134.19 42.688 1136.42 40.6695 1135.64 38.3041L1135.63 38.2883Z" fill="#F1F1F1"/>
<path fill-rule="evenodd" clip-rule="evenodd" d="M1120.62 21.7304C1122.84 20.0746 1122.46 19.3492 1120.62 16.9837C1118.77 14.6026 1117.7 8.20014 1114.02 9.55631C1110.38 10.8809 1105.22 11.2436 1102.31 15.6276C1099.36 20.0273 1097.54 22.0615 1100.46 23.7489C1103.39 25.4362 1104.13 27.1235 1108.9 27.4705C1113.66 27.8016 1118.77 23.0708 1120.62 21.7304Z" fill="#F1F1F1"/>
<path fill-rule="evenodd" clip-rule="evenodd" d="M1101.23 28.8267C1098.65 28.8267 1096.79 30.514 1097.92 32.2013C1098.99 33.8887 1101.23 33.8887 1102.68 33.8887C1104.13 33.8887 1106.33 33.5575 1105.21 31.5075C1104.13 29.489 1101.93 28.8267 1101.23 28.8267Z" fill="#F1F1F1"/>
<path fill-rule="evenodd" clip-rule="evenodd" d="M1297.12 74.1166C1300.43 74.6055 1303.73 74.8105 1308.49 74.1166C1313.3 73.4543 1313.66 71.4358 1316.57 71.767C1319.51 72.0981 1320.21 71.767 1320.97 68.7235C1321.71 65.6642 1318.43 62.9834 1314.39 63.3145C1310.3 63.6457 1307.04 58.2525 1305.95 61.9584C1304.85 65.6642 1304.5 65.0019 1301.21 63.3145C1297.91 61.6272 1295.34 62.6522 1292.37 65.0019C1289.47 67.3831 1292.37 73.4543 1297.12 74.1166Z" fill="#F1F1F1"/>
<path fill-rule="evenodd" clip-rule="evenodd" d="M1330.54 72.0982C1327.94 70.9154 1320.59 66.0111 1327.57 65.6642C1334.54 65.3646 1336.74 66.6892 1340.05 67.0204C1343.31 67.3831 1346.67 67.7142 1346.67 70.742C1346.67 73.7697 1346.59 74.4636 1341.14 74.4636C1335.68 74.4636 1332.72 73.1074 1330.55 72.0982H1330.54Z" fill="#F1F1F1"/>
<path fill-rule="evenodd" clip-rule="evenodd" d="M1472.59 104.236C1476.67 104.441 1480.63 104.567 1481.02 103.211C1481.42 101.855 1483.61 98.8116 1477.74 98.8116C1471.88 98.8116 1469.32 96.7931 1466.75 99.8366C1464.15 102.88 1466.01 103.905 1472.59 104.236Z" fill="#F1F1F1"/>
<path fill-rule="evenodd" clip-rule="evenodd" d="M1326.45 278.742C1325.35 279.073 1327.16 275.335 1327.16 275.335C1327.16 275.335 1329.02 276.707 1329.02 277.717C1329.02 278.726 1327.56 278.41 1326.45 278.742Z" fill="#F1F1F1"/>
<path fill-rule="evenodd" clip-rule="evenodd" d="M1332.32 273.317C1330.59 274.389 1332.32 271.961 1334.13 270.605C1335.98 269.248 1337.43 265.211 1337.81 268.586C1338.17 271.961 1339.26 272.655 1335.98 273.664C1332.68 274.657 1333.43 272.639 1332.32 273.301V273.317Z" fill="#F1F1F1"/>
<path fill-rule="evenodd" clip-rule="evenodd" d="M1364.46 238.435C1362.76 239.554 1362.14 240.579 1362.99 242.062C1363.93 243.576 1364.65 244.049 1366.43 243.386C1368.25 242.724 1371.27 241.573 1369.82 239.917C1368.39 238.277 1365.71 237.615 1364.46 238.435Z" fill="#F1F1F1"/>
<path fill-rule="evenodd" clip-rule="evenodd" d="M1340.54 268.113C1340.54 269.012 1341.47 269.753 1343.93 268.271C1346.44 266.788 1346.66 264.155 1346.12 263.824C1345.54 263.492 1342.32 264.486 1341.64 265.306C1340.88 266.142 1340.54 267.782 1340.54 268.113Z" fill="#F1F1F1"/>
<path fill-rule="evenodd" clip-rule="evenodd" d="M1348.93 261.852C1348.63 261.237 1348.93 261.695 1350.76 259.865C1352.51 258.052 1354.46 257.894 1355.03 255.592C1355.52 253.274 1356.58 251.634 1358.06 250.782C1359.46 249.962 1361.64 249.142 1359.97 251.445C1358.36 253.763 1356.58 254.583 1356.26 255.734C1355.87 256.885 1354.45 259.03 1352.7 260.354C1350.9 261.663 1349.15 262.168 1348.91 261.837L1348.93 261.852Z" fill="#F1F1F1"/>
<path fill-rule="evenodd" clip-rule="evenodd" d="M1052.77 466.73C1051.32 469.363 1049.77 471.839 1049.77 474.599C1049.77 477.358 1053.16 482.878 1054.25 484.076C1055.31 485.259 1057.25 483.288 1060.2 480.733C1063.21 478.147 1064.93 478.352 1061.51 473.227C1058.08 468.086 1054.71 463.197 1052.77 466.745V466.73Z" fill="#F1F1F1"/>
<path fill-rule="evenodd" clip-rule="evenodd" d="M1514.35 619.899C1514.57 621.917 1512.86 621.507 1511.13 622.706C1509.41 623.873 1510.02 625.86 1511.74 627.657C1513.46 629.471 1516.73 630.259 1518.24 627.657C1519.74 625.087 1518.67 621.081 1517.77 619.505C1516.93 617.912 1514.16 617.912 1514.35 619.883V619.899Z" fill="#F1F1F1"/>
<path fill-rule="evenodd" clip-rule="evenodd" d="M1479.68 590.899C1482.06 593.296 1486.32 592.066 1486.32 592.066C1486.32 592.066 1486.16 588.486 1482.24 585.9C1478.37 583.329 1476.43 584.118 1475.99 586.105C1475.57 588.107 1477.73 588.896 1479.67 590.883L1479.68 590.899Z" fill="#F1F1F1"/>
<path fill-rule="evenodd" clip-rule="evenodd" d="M852.814 335.953C850.89 335.622 853.539 330.639 856.252 330.639C858.964 330.639 867.433 327.438 863.916 331.002C860.447 334.55 854.69 336.316 852.798 335.953H852.814Z" fill="#F1F1F1"/>
<path fill-rule="evenodd" clip-rule="evenodd" d="M821.982 334.55C818.165 334.55 815.106 332.074 816.62 330.639C818.165 329.204 818.954 328.132 822.786 329.914C826.618 331.68 831.996 331.68 829.71 333.462C827.391 335.228 825.073 334.534 821.982 334.534V334.55Z" fill="#F1F1F1"/>
<path fill-rule="evenodd" clip-rule="evenodd" d="M781.988 322.47C780.016 320.01 781.988 316.068 778.565 316.446C775.096 316.809 765.87 317.14 769.702 319.995C773.519 322.833 775.869 321.398 777.761 322.833C779.732 324.237 783.155 323.905 781.988 322.47Z" fill="#F1F1F1"/>
<path fill-rule="evenodd" clip-rule="evenodd" d="M759.704 305.786C759.278 303.72 757.795 300.456 756.991 300.456C756.25 300.456 753.143 297.255 752.764 300.819C752.386 304.367 750.462 308.64 753.537 310.407C756.612 312.189 760.476 309.713 759.704 305.802V305.786Z" fill="#F1F1F1"/>
<path fill-rule="evenodd" clip-rule="evenodd" d="M732.767 310.028C734.849 310.028 733.934 305.045 732.388 305.045C730.843 305.045 728.556 306.827 728.935 308.262C729.329 309.697 731.253 310.028 732.783 310.028H732.767Z" fill="#F1F1F1"/>
<path fill-rule="evenodd" clip-rule="evenodd" d="M764.293 216.294C763.457 214.686 761.612 212.383 763.536 209.892C765.475 207.416 766.958 204.925 768.503 209.182C770.081 213.44 768.503 214.875 766.958 216.31C765.476 217.714 764.671 217.02 764.277 216.31L764.293 216.294Z" fill="#F1F1F1"/>
<path fill-rule="evenodd" clip-rule="evenodd" d="M792.759 199.941C791.434 199.2 793.926 195.684 795.866 194.958C797.742 194.264 800.439 191.047 799.729 194.596C798.941 198.144 795.503 201.361 792.759 199.926V199.941Z" fill="#F1F1F1"/>
<path fill-rule="evenodd" clip-rule="evenodd" d="M921.889 582.052C920.123 586.609 913.547 591.088 909.572 591.75C905.582 592.413 902.728 599.777 902.728 601.464C902.728 603.152 909.572 610.5 904.857 615.531C900.142 620.529 898.675 620.529 900.504 627.563C902.318 634.58 903.043 637.923 905.977 640.273C908.863 642.623 911.717 642.276 914.997 638.917C918.294 635.574 920.785 633.587 921.195 625.197C921.542 616.855 919.382 615.515 923.009 611.809C926.589 608.135 926.226 605.123 926.999 600.108C927.693 595.078 929.144 591.734 930.957 589.385C932.787 587.067 930.595 585.048 929.885 580.365C929.144 575.665 927.346 567.654 921.921 582.036L921.889 582.052Z" fill="#F1F1F1"/>
<path fill-rule="evenodd" clip-rule="evenodd" d="M494.977 119.407C492.927 117.183 491.413 115.291 494.977 110.907C498.541 106.507 496.459 103.495 501.522 107.075C506.568 110.655 511.347 113.383 505.086 117.215C498.841 121.062 498.241 122.986 494.977 119.407Z" fill="#F1F1F1"/>
<path fill-rule="evenodd" clip-rule="evenodd" d="M151.57 205.508C149.094 201.881 145.83 197.387 150.025 198.096C154.251 198.79 153.873 197.734 158.446 203.032C163.051 208.347 165.354 214.702 165.354 215.774C165.354 216.846 163.051 218.25 165.732 225.299C168.398 232.379 174.532 241.573 169.565 237.331C164.565 233.089 159.976 228.5 160.355 221.782C160.733 215.064 158.446 212.589 155.75 209.387C153.069 206.218 153.463 208.347 151.555 205.508H151.57Z" fill="#F1F1F1"/>
<path fill-rule="evenodd" clip-rule="evenodd" d="M302.054 34.3775C302.054 38.6984 305.886 36.8533 307.4 36.8533C308.914 36.8533 307.4 32.2486 305.492 31.9175C303.584 31.5548 302.054 32.2486 302.054 34.3775Z" fill="#F1F1F1"/>
<path fill-rule="evenodd" clip-rule="evenodd" d="M289.801 52.0709C292.056 52.8909 293.649 56.9909 292.482 57.3536C291.346 57.7163 287.892 57.7163 286.757 56.3129C285.59 54.9094 287.892 51.3612 289.801 52.0709Z" fill="#F1F1F1"/>
<path fill-rule="evenodd" clip-rule="evenodd" d="M277.168 49.2481C278.635 52.3074 279.06 55.2563 276.001 56.3286C272.941 57.3694 272.547 54.5467 271.806 52.7805C271.017 51.0143 275.622 46.0627 277.168 49.2639V49.2481Z" fill="#F1F1F1"/>
<path fill-rule="evenodd" clip-rule="evenodd" d="M279.849 85.6599C281.82 86.2433 281.395 88.1357 280.622 90.5957C279.849 93.0715 277.547 91.6681 275.244 88.8295C272.957 85.991 276.395 84.5875 279.849 85.6599Z" fill="#F1F1F1"/>
<path fill-rule="evenodd" clip-rule="evenodd" d="M282.893 76.4663C280.732 78.469 278.698 73.2809 279.061 72.587C279.455 71.8774 280.606 69.7485 282.515 72.587C284.423 75.394 284.029 75.394 282.893 76.4663Z" fill="#F1F1F1"/>
<path fill-rule="evenodd" clip-rule="evenodd" d="M387.894 169.317C388.304 167.299 388.052 165.39 385.67 165.895C383.258 166.4 383.636 168.797 383.825 170.311C384.015 171.84 385.497 172.707 386.979 172.534C388.462 172.376 387.705 170.153 387.91 169.317H387.894Z" fill="#F1F1F1"/>
<path fill-rule="evenodd" clip-rule="evenodd" d="M392.846 163.34C391.505 162.568 389.897 160.612 391.379 159.398C392.846 158.231 394.139 158.042 395.416 158.736C396.71 159.398 396.536 158.562 398.192 157.695C399.864 156.843 401.52 155.676 402.072 158.736C402.624 161.795 399.312 162.315 398.744 161.448C398.192 160.597 396.536 160.092 395.606 161.448C394.675 162.836 393.761 163.845 392.83 163.34H392.846Z" fill="#F1F1F1"/>
</g>
<circle opacity="0.15" cx="786" cy="236" r="17" fill="#745EFF"/>
<circle opacity="0.3" cx="786" cy="236" r="13" fill="#745EFF"/>
<circle cx="786" cy="236" r="9" fill="#745EFF"/>
<circle opacity="0.15" cx="712" cy="217" r="17" fill="#745EFF"/>
<circle opacity="0.3" cx="712" cy="217" r="13" fill="#745EFF"/>
<circle cx="712" cy="217" r="9" fill="#745EFF"/>
<circle opacity="0.15" cx="261" cy="199" r="17" fill="#745EFF"/>
<circle opacity="0.3" cx="261" cy="199" r="13" fill="#745EFF"/>
<circle cx="261" cy="199" r="9" fill="#745EFF"/>
<circle opacity="0.15" cx="340" cy="316" r="17" fill="#745EFF"/>
<circle opacity="0.3" cx="340" cy="316" r="13" fill="#745EFF"/>
<circle cx="340" cy="316" r="9" fill="#745EFF"/>
</svg>
