<svg width="807" height="521" viewBox="0 0 807 521" fill="none" xmlns="http://www.w3.org/2000/svg">
<g clip-path="url(#clip0_581_2)">
<path d="M758.31 111H110.69C104.674 111.007 98.9074 113.4 94.6538 117.654C90.4001 121.907 88.0073 127.674 88 133.69V475.31C87.9952 481.09 90.207 486.652 94.18 490.85C94.58 491.28 95 491.69 95.43 492.07C99.5928 495.891 105.04 498.007 110.69 498H758.31C764.326 497.993 770.093 495.6 774.346 491.346C778.6 487.093 780.993 481.326 781 475.31C796.823 361.986 796.823 247.014 781 133.69C780.993 127.674 778.6 121.907 774.346 117.654C770.092 113.4 764.325 111.007 758.31 111Z" fill="#F2F2F2"/>
<path d="M741.794 97.9556H94.1744C88.1588 97.9628 82.3918 100.356 78.1381 104.609C73.8845 108.863 71.4916 114.63 71.4844 120.646V462.266C71.4795 468.046 73.6914 473.607 77.6644 477.806C78.0644 478.236 78.4844 478.646 78.9144 479.026C83.0772 482.846 88.524 484.963 94.1744 484.956H741.794C747.81 484.948 753.577 482.555 757.831 478.302C762.084 474.048 764.477 468.281 764.484 462.266V120.646C764.477 114.63 762.084 108.863 757.831 104.609C753.577 100.356 747.81 97.9628 741.794 97.9556Z" fill="white"/>
<path d="M475.524 325.615C475.059 325.637 474.599 325.515 474.205 325.266C473.812 325.017 473.505 324.653 473.326 324.224C473.146 323.795 473.103 323.321 473.202 322.866C473.301 322.411 473.537 321.998 473.879 321.682L474.034 321.064C474.014 321.014 473.993 320.965 473.973 320.916C473.504 319.809 472.72 318.866 471.717 318.205C470.715 317.543 469.539 317.193 468.338 317.197C467.137 317.202 465.964 317.561 464.966 318.23C463.969 318.899 463.191 319.848 462.731 320.957C460.893 325.385 458.552 329.821 457.975 334.503C457.722 336.573 457.829 338.671 458.292 340.704C453.974 331.284 451.731 321.045 451.717 310.683C451.716 308.083 451.86 305.484 452.15 302.9C452.389 300.781 452.72 298.678 453.144 296.59C455.459 285.258 460.428 274.638 467.644 265.6C471.137 263.694 473.961 260.764 475.737 257.203C476.381 255.924 476.835 254.557 477.087 253.147C476.693 253.199 475.602 247.199 475.899 246.83C475.35 245.997 474.367 245.583 473.767 244.77C470.785 240.727 466.676 241.433 464.531 246.927C459.949 249.24 459.905 253.075 462.716 256.764C464.505 259.111 464.751 262.287 466.32 264.799C466.159 265.006 465.991 265.206 465.829 265.413C462.878 269.208 460.305 273.284 458.148 277.581C458.673 272.767 458.047 267.897 456.322 263.372C454.574 259.154 451.297 255.603 448.411 251.957C447.648 250.977 446.612 250.246 445.433 249.856C444.255 249.465 442.987 249.433 441.79 249.763C440.593 250.093 439.52 250.77 438.708 251.71C437.896 252.649 437.381 253.808 437.227 255.04C437.222 255.094 437.216 255.148 437.21 255.201C437.639 255.443 438.058 255.7 438.469 255.971C438.984 256.316 439.384 256.808 439.615 257.384C439.846 257.959 439.898 258.591 439.764 259.196C439.63 259.802 439.316 260.353 438.863 260.777C438.411 261.201 437.841 261.478 437.228 261.573L437.165 261.583C437.318 263.127 437.588 264.658 437.972 266.162C434.271 280.478 442.262 285.692 453.674 285.926C453.926 286.055 454.171 286.184 454.423 286.307C452.256 292.448 450.897 298.844 450.38 305.335C450.087 309.164 450.104 313.011 450.431 316.838L450.412 316.703C449.585 312.447 447.315 308.608 443.986 305.832C439.04 301.77 432.053 300.274 426.717 297.008C426.15 296.644 425.491 296.45 424.817 296.448C424.143 296.446 423.483 296.637 422.914 296.999C422.345 297.36 421.892 297.876 421.607 298.487C421.322 299.098 421.217 299.777 421.306 300.445L421.328 300.588C422.123 300.912 422.898 301.285 423.647 301.705C424.075 301.947 424.495 302.204 424.905 302.475C425.421 302.82 425.82 303.312 426.052 303.887C426.283 304.463 426.335 305.095 426.2 305.7C426.066 306.306 425.752 306.857 425.3 307.281C424.847 307.705 424.277 307.982 423.664 308.077L423.601 308.086C423.556 308.093 423.517 308.099 423.472 308.106C424.831 311.351 426.738 314.337 429.111 316.935C431.425 329.432 441.367 330.618 452.001 326.979H452.007C453.174 332.049 454.865 336.984 457.052 341.705H475.072C475.137 341.505 475.195 341.298 475.253 341.098C473.585 341.203 471.91 341.103 470.267 340.801C471.604 339.16 472.941 337.507 474.278 335.866C474.307 335.835 474.335 335.803 474.362 335.769C475.04 334.93 475.724 334.096 476.403 333.257L476.403 333.256C476.439 330.682 476.143 328.114 475.524 325.615Z" fill="#F2F2F2"/>
<path d="M764.484 356.956V393.266C764.477 399.281 762.084 405.048 757.831 409.302C753.577 413.556 747.81 415.948 741.794 415.956H94.1744C88.524 415.963 83.0772 413.846 78.9144 410.026C78.4844 409.646 78.0644 409.236 77.6644 408.806C73.6914 404.607 71.4795 399.046 71.4844 393.266V356.956C268.636 324.396 511.095 335.419 764.484 356.956Z" fill="#3F3D56"/>
<path d="M764.484 396.956V433.266C764.477 439.281 762.084 445.048 757.831 449.302C753.577 453.556 747.81 455.949 741.794 455.956H94.1744C88.524 455.963 83.0772 453.847 78.9144 450.026C78.4844 449.646 78.0644 449.236 77.6644 448.806C73.6914 444.608 71.4795 439.046 71.4844 433.266V396.956C252.954 372.672 499.902 380.491 764.484 396.956Z" fill="white"/>
<path d="M764.484 425.956V462.266C764.477 468.281 762.084 474.048 757.831 478.302C753.577 482.556 747.81 484.948 741.794 484.956H94.1744C88.524 484.963 83.0772 482.846 78.9144 479.026C78.4844 478.646 78.0644 478.236 77.6644 477.806C73.6914 473.608 71.4795 468.046 71.4844 462.266V425.956C267.835 405.565 507.058 410.404 764.484 425.956Z" fill="#3F3D56"/>
<path d="M710.524 320.615C710.059 320.637 709.599 320.515 709.205 320.266C708.812 320.017 708.505 319.653 708.326 319.224C708.146 318.795 708.103 318.321 708.202 317.866C708.301 317.411 708.537 316.998 708.879 316.682L709.034 316.064C709.014 316.014 708.993 315.965 708.973 315.916C708.504 314.809 707.72 313.866 706.717 313.205C705.715 312.543 704.539 312.193 703.338 312.197C702.137 312.202 700.964 312.561 699.966 313.23C698.969 313.899 698.191 314.848 697.731 315.957C695.893 320.385 693.552 324.821 692.975 329.503C692.722 331.573 692.829 333.671 693.292 335.704C688.974 326.284 686.731 316.045 686.717 305.683C686.716 303.083 686.86 300.484 687.15 297.9C687.389 295.781 687.72 293.678 688.144 291.59C690.459 280.258 695.428 269.638 702.644 260.6C706.137 258.694 708.961 255.764 710.737 252.203C711.381 250.924 711.835 249.557 712.087 248.147C711.693 248.199 710.602 242.199 710.899 241.83C710.35 240.997 709.367 240.583 708.767 239.77C705.785 235.727 701.676 236.433 699.531 241.927C694.949 244.24 694.905 248.075 697.716 251.764C699.505 254.111 699.751 257.287 701.32 259.799C701.159 260.006 700.991 260.206 700.829 260.413C697.878 264.208 695.305 268.284 693.148 272.581C693.673 267.767 693.047 262.897 691.322 258.372C689.574 254.154 686.297 250.603 683.411 246.957C682.648 245.977 681.612 245.246 680.433 244.856C679.255 244.465 677.987 244.433 676.79 244.763C675.593 245.093 674.52 245.77 673.708 246.71C672.896 247.649 672.381 248.808 672.227 250.04C672.222 250.094 672.216 250.148 672.21 250.201C672.639 250.443 673.058 250.7 673.469 250.971C673.984 251.316 674.384 251.808 674.615 252.384C674.846 252.959 674.898 253.591 674.764 254.196C674.63 254.802 674.316 255.353 673.863 255.777C673.411 256.201 672.841 256.478 672.228 256.573L672.165 256.583C672.318 258.127 672.588 259.658 672.972 261.162C669.271 275.478 677.262 280.692 688.674 280.926C688.926 281.055 689.171 281.184 689.423 281.307C687.256 287.448 685.897 293.844 685.38 300.335C685.087 304.164 685.104 308.011 685.431 311.838L685.412 311.703C684.585 307.447 682.315 303.608 678.986 300.832C674.04 296.77 667.053 295.274 661.717 292.008C661.15 291.644 660.491 291.45 659.817 291.448C659.143 291.446 658.483 291.637 657.914 291.999C657.345 292.36 656.892 292.876 656.607 293.487C656.322 294.098 656.217 294.777 656.306 295.445L656.328 295.588C657.123 295.912 657.898 296.285 658.647 296.705C659.075 296.947 659.495 297.204 659.905 297.475C660.421 297.82 660.82 298.312 661.052 298.887C661.283 299.463 661.335 300.095 661.2 300.7C661.066 301.306 660.752 301.857 660.3 302.281C659.847 302.705 659.277 302.982 658.664 303.077L658.601 303.086C658.556 303.093 658.517 303.099 658.472 303.106C659.831 306.351 661.738 309.337 664.111 311.935C666.425 324.432 676.367 325.618 687.001 321.979H687.007C688.174 327.049 689.865 331.984 692.052 336.705H710.072C710.137 336.505 710.195 336.298 710.253 336.098C708.585 336.203 706.91 336.103 705.267 335.801C706.604 334.16 707.941 332.507 709.278 330.866C709.307 330.835 709.335 330.803 709.362 330.769C710.04 329.93 710.724 329.096 711.403 328.257L711.403 328.256C711.439 325.682 711.143 323.114 710.524 320.615Z" fill="#F2F2F2"/>
<path d="M699.017 361.981C699.017 362.307 699.012 362.634 699.008 362.955H633.097C631.589 362.957 630.097 362.648 628.714 362.049C627.33 361.45 626.084 360.573 625.054 359.472C625.078 359.014 625.117 358.561 625.166 358.108C627.105 339.483 651.344 311.408 661.992 324.955C672.639 338.502 699.017 341.534 699.017 361.981Z" fill="#3F3D56"/>
<path d="M734.094 362.277C734.098 362.504 734.091 362.732 734.088 362.956H688.147C687.096 362.957 686.056 362.742 685.092 362.324C684.128 361.906 683.259 361.295 682.541 360.528C682.558 360.209 682.585 359.893 682.619 359.577C683.971 346.595 704.461 323.688 708.287 336.47C718.038 369.047 733.895 349.47 734.094 362.277Z" fill="#3F3D56"/>
<path d="M741.794 97.9556H94.1744C88.1588 97.9628 82.3918 100.356 78.1381 104.609C73.8845 108.863 71.4916 114.63 71.4844 120.646V462.266C71.4795 468.046 73.6914 473.607 77.6644 477.806C78.0644 478.236 78.4844 478.646 78.9144 479.026C83.0772 482.846 88.524 484.963 94.1744 484.956H741.794C747.81 484.948 753.577 482.555 757.831 478.302C762.084 474.048 764.477 468.281 764.484 462.266C795.595 374.43 784.655 251.401 764.484 120.645C764.477 114.63 762.084 108.863 757.83 104.609C753.577 100.356 747.81 97.9628 741.794 97.9556ZM762.484 352.436C762.484 387.052 748.733 420.25 724.256 444.727C699.779 469.204 666.581 482.956 631.965 482.956H94.1744C89.3098 482.964 84.6001 481.245 80.8844 478.106C79.7859 477.176 78.7841 476.137 77.8944 475.006C75.0299 471.378 73.4757 466.888 73.4844 462.266V120.646C73.4844 115.158 75.6642 109.896 79.5443 106.016C83.4244 102.135 88.6871 99.9556 94.1744 99.9556H569.788C676.211 99.9556 762.484 186.229 762.484 292.652V352.436Z" fill="#3F3D56"/>
<path d="M217.644 437.899C217.65 438.253 217.639 438.607 217.634 438.956H146.202C144.567 438.957 142.951 438.622 141.451 437.973C139.952 437.324 138.601 436.373 137.484 435.18C137.511 434.684 137.553 434.193 137.606 433.702C139.707 413.517 160.516 409.661 177.517 397.772C196.648 384.393 217.297 414.204 217.644 437.899Z" fill="#3F3D56"/>
<path d="M233.485 429.244C233.332 429.438 233.481 429.737 233.477 429.98H183.688C182.549 429.981 181.422 429.748 180.377 429.295C179.332 428.842 178.391 428.18 177.612 427.349C177.631 427.003 177.66 426.66 177.697 426.318C179.162 412.249 191.062 401.692 205.515 401.275C232.46 400.497 246.316 412.931 233.485 429.244Z" fill="#3F3D56"/>
<path d="M240.645 349.9C240.645 350.254 240.639 350.607 240.634 350.956H169.202C167.567 350.957 165.951 350.623 164.451 349.973C162.952 349.324 161.601 348.373 160.484 347.181C160.511 346.684 160.553 346.193 160.606 345.702C162.707 325.517 185.394 319.042 200.517 309.772C215.639 300.503 240.645 327.74 240.645 349.9Z" fill="#3F3D56"/>
<path d="M256.485 341.244C256.46 341.488 256.457 341.735 256.477 341.98H206.688C205.549 341.981 204.422 341.748 203.377 341.295C202.332 340.842 201.391 340.18 200.612 339.348C200.631 339.002 200.66 338.66 200.697 338.318C202.162 324.249 214.841 317.975 228.515 313.275C251.1 305.511 260.436 321.501 256.485 341.244Z" fill="#3F3D56"/>
<path d="M290.485 355.219C290.497 355.465 290.495 355.711 290.477 355.956H240.688C239.549 355.957 238.422 355.723 237.377 355.271C236.332 354.818 235.391 354.156 234.612 353.324C234.631 352.978 234.66 352.636 234.697 352.294C236.162 338.225 252.423 337.605 262.515 327.25C271.865 317.656 288.444 336.564 290.485 355.219Z" fill="#3F3D56"/>
<path d="M582.484 239.956H562.484V484.956H582.484V239.956Z" fill="#3F3D56"/>
<path d="M714.564 130.196C713.824 115.736 708.904 101.216 699.234 90.4456C695.014 85.7456 677.174 74.7256 671.484 71.9556C673.644 54.9656 685.264 45.1656 676.764 30.6356C665.974 12.2056 643.464 1.39562 622.334 4.50562C614.772 5.65737 607.551 8.44186 601.174 12.6656C593.874 6.2856 583.884 2.36561 574.154 0.87561C543.504 -3.82439 510.734 10.7256 493.674 36.6156C491.095 40.5291 490.92 46.3853 492.264 53.3664C497.445 80.2733 482.599 106.498 457.061 116.429C456.57 116.61 456.124 116.895 455.754 117.266C441.014 132.516 436.174 156.576 443.884 176.346C445.708 181.026 446.251 189.162 451.251 189.382C483.547 190.804 486.021 208.432 467.708 234.642C463.873 240.129 469.444 247.881 472.914 253.716C480.894 267.146 497.004 274.046 512.604 274.966C528.134 275.886 543.474 271.776 558.484 267.686L578.484 266.886C595.694 269.856 613.694 269.386 630.004 263.226C647.594 256.576 662.934 242.716 668.754 224.836C670.744 218.726 704.994 226.386 704.484 219.956C713.004 215.606 687.244 195.566 693.694 188.486C708.067 172.569 715.569 151.618 714.564 130.196Z" fill="#63FFB4"/>
<path opacity="0.1" d="M637.997 234.603C633.392 248.748 622.821 260.359 609.9 267.893C616.43 267.094 622.842 265.527 629.004 263.226C643.99 257.56 657.32 246.649 664.544 232.49C654.394 232.5 639.298 230.607 637.997 234.603Z" fill="black"/>
<path opacity="0.1" d="M693.695 188.486C708.068 172.569 715.569 151.618 714.565 130.196C713.825 115.736 708.905 101.216 699.235 90.4458C695.015 85.7458 677.175 74.7258 671.485 71.9558C673.645 54.9658 685.265 45.1658 676.765 30.6358C665.975 12.2058 643.465 1.39578 622.335 4.50578C614.773 5.65754 607.552 8.44202 601.175 12.6658C593.875 6.28577 583.885 2.36578 574.155 0.875776C556.466 -1.83662 538.078 1.87297 522.404 10.4628C529.707 9.48654 537.111 9.54729 544.397 10.6432C554.127 12.1332 564.117 16.0533 571.417 22.4333C577.797 18.2533 596.288 7.58262 592.577 14.2733C576.715 42.8707 595.462 56.9061 647.007 40.4033C655.214 37.7754 644.241 51.5539 631.285 67.9087C619.308 83.0269 632.562 104.858 651.512 101.264C660.767 99.508 668.054 98.629 669.477 100.213C679.147 110.983 714.129 127.971 684.807 139.963C655.485 151.956 678.217 182.593 663.937 198.253C659.406 203.227 670.76 214.592 674.969 222.425C685.349 221.621 704.871 224.823 704.485 219.956C713.005 215.606 687.245 195.566 693.695 188.486Z" fill="black"/>
<path d="M481.473 301.76H562.906C563.171 301.76 563.425 301.655 563.613 301.467C563.8 301.28 563.906 301.025 563.906 300.76C563.906 300.495 563.8 300.241 563.613 300.053C563.425 299.866 563.171 299.76 562.906 299.76H481.473C481.207 299.76 480.953 299.866 480.766 300.053C480.578 300.241 480.473 300.495 480.473 300.76C480.473 301.025 480.578 301.28 480.766 301.467C480.953 301.655 481.207 301.76 481.473 301.76Z" fill="#3F3D56"/>
<path d="M591.724 381.288C575.213 359.326 565.67 334.768 565.357 306.77C564.825 305.261 564.914 303.603 565.603 302.159C566.292 300.715 567.526 299.604 569.033 299.068L625.311 279.156C626.82 278.624 628.478 278.712 629.922 279.401C631.366 280.09 632.477 281.324 633.012 282.832L659.379 357.35C659.911 358.858 659.823 360.517 659.133 361.96C658.444 363.404 657.211 364.516 655.703 365.051L599.425 384.964C597.917 385.496 596.258 385.407 594.815 384.718C593.371 384.029 592.259 382.795 591.724 381.288Z" fill="#E6E6E6"/>
<path d="M588.077 357.252C578.147 347.212 573.896 329.305 571.127 309.346C570.628 307.933 570.711 306.38 571.356 305.027C572.002 303.675 573.157 302.634 574.569 302.133L622.935 285.02C624.348 284.521 625.901 284.604 627.253 285.249C628.606 285.895 629.647 287.05 630.148 288.462L653.611 354.773C654.109 356.186 654.026 357.739 653.381 359.091C652.735 360.444 651.58 361.484 650.168 361.986L620.206 372.587C613.912 374.806 606.994 374.438 600.971 371.563C594.948 368.688 590.311 363.542 588.077 357.252Z" fill="white"/>
<path d="M630.795 324.184L593.12 337.633C592.823 337.739 592.508 337.786 592.193 337.77C591.878 337.755 591.569 337.677 591.284 337.542C590.998 337.408 590.743 337.218 590.531 336.984C590.319 336.75 590.156 336.477 590.05 336.18C589.944 335.883 589.897 335.568 589.913 335.253C589.929 334.938 590.007 334.629 590.142 334.344C590.277 334.059 590.467 333.804 590.701 333.592C590.935 333.381 591.209 333.217 591.506 333.112L629.181 319.663C629.781 319.45 630.44 319.483 631.015 319.756C631.59 320.029 632.033 320.519 632.246 321.118C632.46 321.717 632.428 322.376 632.155 322.951C631.883 323.526 631.394 323.97 630.795 324.184Z" fill="#6C63FF"/>
<path d="M596.983 322.277L588.694 325.235C588.398 325.341 588.083 325.388 587.768 325.372C587.453 325.356 587.145 325.279 586.86 325.144C586.575 325.009 586.319 324.819 586.108 324.585C585.896 324.352 585.733 324.079 585.627 323.782C585.521 323.485 585.475 323.17 585.49 322.855C585.506 322.541 585.584 322.232 585.719 321.947C585.854 321.662 586.043 321.407 586.277 321.195C586.511 320.984 586.784 320.82 587.081 320.714L595.369 317.756C595.666 317.649 595.981 317.603 596.296 317.618C596.611 317.634 596.92 317.711 597.205 317.846C597.49 317.981 597.746 318.171 597.958 318.404C598.169 318.638 598.333 318.911 598.439 319.209C598.545 319.506 598.592 319.821 598.576 320.136C598.56 320.451 598.482 320.76 598.347 321.044C598.212 321.329 598.022 321.585 597.788 321.796C597.554 322.008 597.28 322.171 596.983 322.277Z" fill="#6C63FF"/>
<path d="M637.89 344.06L600.214 357.508C599.917 357.615 599.602 357.662 599.287 357.646C598.972 357.631 598.663 357.553 598.378 357.418C598.093 357.283 597.838 357.094 597.626 356.86C597.414 356.626 597.251 356.353 597.145 356.056C597.039 355.759 596.992 355.444 597.008 355.129C597.024 354.814 597.101 354.505 597.237 354.22C597.372 353.935 597.562 353.679 597.796 353.468C598.03 353.256 598.303 353.093 598.601 352.987L636.276 339.539C636.876 339.325 637.536 339.358 638.111 339.631C638.686 339.903 639.13 340.393 639.344 340.993C639.558 341.592 639.525 342.252 639.252 342.828C638.979 343.403 638.489 343.846 637.89 344.06Z" fill="#6C63FF"/>
<path d="M634.342 334.122L596.666 347.571C596.37 347.677 596.055 347.724 595.74 347.708C595.424 347.693 595.116 347.615 594.831 347.48C594.545 347.345 594.29 347.156 594.078 346.922C593.866 346.688 593.703 346.415 593.597 346.118C593.491 345.821 593.444 345.506 593.46 345.191C593.476 344.876 593.554 344.567 593.689 344.282C593.824 343.997 594.014 343.741 594.248 343.53C594.482 343.319 594.756 343.155 595.053 343.05L632.728 329.601C633.328 329.388 633.987 329.421 634.562 329.694C635.137 329.967 635.579 330.457 635.793 331.056C636.007 331.655 635.974 332.314 635.702 332.889C635.43 333.464 634.941 333.908 634.342 334.122Z" fill="#6C63FF"/>
<path d="M568.558 314.76C574.08 314.76 578.558 310.283 578.558 304.76C578.558 299.237 574.08 294.76 568.558 294.76C563.035 294.76 558.558 299.237 558.558 304.76C558.558 310.283 563.035 314.76 568.558 314.76Z" fill="#FFC163"/>
<path d="M495.642 49.7603H414.209C413.944 49.7603 413.689 49.6549 413.502 49.4674C413.314 49.2798 413.209 49.0255 413.209 48.7603C413.209 48.495 413.314 48.2407 413.502 48.0531C413.689 47.8656 413.944 47.7603 414.209 47.7603H495.642C495.907 47.7603 496.162 47.8656 496.349 48.0531C496.537 48.2407 496.642 48.495 496.642 48.7603C496.642 49.0255 496.537 49.2798 496.349 49.4674C496.162 49.6549 495.907 49.7603 495.642 49.7603Z" fill="#3F3D56"/>
<path d="M308.903 85.2316C315.975 58.682 329.394 36.0079 351.219 18.4678C352.077 17.1175 353.436 16.1627 354.997 15.8128C356.558 15.4629 358.194 15.7465 359.547 16.6015L409.968 48.5598C411.318 49.4178 412.273 50.7764 412.623 52.3375C412.973 53.8986 412.689 55.5348 411.834 56.8871L369.518 123.651C368.66 125.001 367.301 125.956 365.74 126.306C364.179 126.656 362.543 126.372 361.191 125.517L310.769 93.559C309.419 92.701 308.464 91.3423 308.114 89.7812C307.764 88.2201 308.048 86.5839 308.903 85.2316Z" fill="#E6E6E6"/>
<path d="M325.552 67.5176C327.314 53.5064 338.771 39.1023 352.757 24.5957C353.56 23.3311 354.832 22.4368 356.295 22.1091C357.757 21.7815 359.289 22.0471 360.555 22.8478L403.888 50.3133C405.153 51.1169 406.047 52.3892 406.375 53.8513C406.703 55.3134 406.437 56.8458 405.636 58.1123L367.981 117.523C367.177 118.788 365.905 119.682 364.443 120.009C362.98 120.337 361.448 120.071 360.182 119.271L333.338 102.256C327.705 98.6771 323.721 93.0095 322.262 86.497C320.802 79.9844 321.985 73.1588 325.552 67.5176Z" fill="white"/>
<path d="M377.943 80.6862L344.096 59.3641C343.829 59.1962 343.597 58.9774 343.415 58.7201C343.232 58.4628 343.102 58.172 343.033 57.8645C342.963 57.5569 342.954 57.2386 343.007 56.9277C343.06 56.6168 343.174 56.3194 343.342 56.0525C343.51 55.7857 343.729 55.5545 343.987 55.3724C344.244 55.1902 344.535 55.0606 344.843 54.9909C345.15 54.9213 345.469 54.9129 345.779 54.9663C346.09 55.0198 346.388 55.1339 346.654 55.3023L380.502 76.6245C381.041 76.9638 381.422 77.5032 381.563 78.1239C381.704 78.7447 381.593 79.3961 381.254 79.9347C380.914 80.4733 380.375 80.8551 379.754 80.996C379.133 81.137 378.482 81.0255 377.943 80.6862Z" fill="#6C63FF"/>
<path d="M358.558 52.9175L351.112 48.2266C350.574 47.887 350.193 47.3478 350.052 46.7273C349.912 46.1069 350.024 45.456 350.363 44.9178C350.702 44.3795 351.241 43.9979 351.861 43.8567C352.481 43.7156 353.132 43.8264 353.671 44.1649L361.117 48.8558C361.656 49.1951 362.038 49.7345 362.178 50.3552C362.319 50.976 362.208 51.6274 361.869 52.166C361.529 52.7046 360.99 53.0864 360.369 53.2273C359.748 53.3683 359.097 53.2568 358.558 52.9175Z" fill="#6C63FF"/>
<path d="M366.695 98.543L332.847 77.2208C332.309 76.8812 331.928 76.3419 331.788 75.7214C331.647 75.101 331.759 74.4502 332.098 73.9119C332.437 73.3737 332.976 72.992 333.596 72.8509C334.216 72.7097 334.867 72.8206 335.406 73.1591L369.254 94.4812C369.521 94.6491 369.752 94.8679 369.935 95.1252C370.117 95.3825 370.247 95.6733 370.317 95.9808C370.387 96.2884 370.396 96.6067 370.343 96.9176C370.289 97.2285 370.175 97.5259 370.007 97.7928C369.839 98.0596 369.62 98.2907 369.363 98.4729C369.105 98.6551 368.814 98.7847 368.507 98.8544C368.199 98.924 367.881 98.9324 367.57 98.879C367.259 98.8255 366.962 98.7114 366.695 98.543Z" fill="#6C63FF"/>
<path d="M372.319 89.6146L338.471 68.2924C337.933 67.9531 337.551 67.4138 337.41 66.793C337.269 66.1722 337.381 65.5209 337.72 64.9822C338.059 64.4436 338.599 64.0618 339.219 63.9209C339.84 63.78 340.492 63.8914 341.03 64.2307L374.878 85.5529C375.145 85.7207 375.376 85.9396 375.559 86.1969C375.741 86.4542 375.871 86.7449 375.941 87.0525C376.011 87.36 376.02 87.6783 375.967 87.9892C375.914 88.3001 375.8 88.5975 375.632 88.8644C375.463 89.1313 375.244 89.3624 374.987 89.5445C374.729 89.7267 374.439 89.8563 374.131 89.926C373.823 89.9957 373.505 90.004 373.194 89.9506C372.883 89.8972 372.586 89.783 372.319 89.6146Z" fill="#6C63FF"/>
<path d="M408.558 62.7603C414.08 62.7603 418.558 58.2831 418.558 52.7603C418.558 47.2374 414.08 42.7603 408.558 42.7603C403.035 42.7603 398.558 47.2374 398.558 52.7603C398.558 58.2831 403.035 62.7603 408.558 62.7603Z" fill="#FFC163"/>
<path d="M320.121 178.479H214.244C213.639 178.479 213.058 178.238 212.63 177.81C212.202 177.382 211.961 176.801 211.961 176.196C211.961 175.59 212.202 175.01 212.63 174.581C213.058 174.153 213.639 173.913 214.244 173.913H320.121C320.726 173.913 321.307 174.153 321.735 174.581C322.164 175.01 322.404 175.59 322.404 176.196C322.404 176.801 322.164 177.382 321.735 177.81C321.307 178.238 320.726 178.479 320.121 178.479Z" fill="#3F3D56"/>
<path d="M373.717 199.353H214.244C213.944 199.354 213.646 199.295 213.369 199.181C213.091 199.066 212.839 198.898 212.626 198.686C212.414 198.474 212.245 198.222 212.13 197.945C212.015 197.667 211.956 197.37 211.956 197.07C211.956 196.77 212.015 196.472 212.13 196.195C212.245 195.918 212.414 195.666 212.626 195.454C212.839 195.242 213.091 195.074 213.369 194.959C213.646 194.845 213.944 194.786 214.244 194.787H373.717C374.322 194.788 374.902 195.029 375.329 195.457C375.756 195.885 375.996 196.465 375.996 197.07C375.996 197.675 375.756 198.255 375.329 198.683C374.902 199.111 374.322 199.352 373.717 199.353Z" fill="#F2F2F2"/>
<path d="M373.72 215.657H214.24C213.634 215.657 213.053 215.898 212.624 216.327C212.196 216.755 211.955 217.336 211.955 217.942C211.955 218.548 212.196 219.129 212.624 219.558C213.053 219.987 213.634 220.227 214.24 220.227H373.72C374.326 220.227 374.907 219.987 375.336 219.558C375.764 219.129 376.005 218.548 376.005 217.942C376.005 217.336 375.764 216.755 375.336 216.327C374.907 215.898 374.326 215.657 373.72 215.657Z" fill="#F2F2F2"/>
<path d="M373.717 241.101H214.244C213.944 241.102 213.646 241.043 213.369 240.929C213.091 240.814 212.839 240.646 212.626 240.434C212.414 240.222 212.245 239.97 212.13 239.693C212.015 239.415 211.956 239.118 211.956 238.818C211.956 238.518 212.015 238.22 212.13 237.943C212.245 237.666 212.414 237.414 212.626 237.202C212.839 236.99 213.091 236.822 213.369 236.707C213.646 236.593 213.944 236.534 214.244 236.535H373.717C374.322 236.536 374.902 236.777 375.329 237.205C375.756 237.633 375.996 238.213 375.996 238.818C375.996 239.423 375.756 240.003 375.329 240.431C374.902 240.859 374.322 241.1 373.717 241.101Z" fill="#F2F2F2"/>
<path d="M86.0454 288.697L90.8502 249.16L77.7732 248.22L74.84 289.678C74.3427 290.717 74.1291 291.87 74.221 293.018C74.3129 294.167 74.7069 295.271 75.3631 296.218C76.0194 297.165 76.9144 297.922 77.9575 298.411C79.0006 298.901 80.1546 299.105 81.3025 299.005C82.4503 298.904 83.5512 298.502 84.4933 297.839C85.4354 297.175 86.1854 296.275 86.667 295.228C87.1486 294.181 87.3448 293.026 87.2356 291.879C87.1265 290.732 86.7158 289.634 86.0454 288.697Z" fill="#A0616A"/>
<path d="M102.838 193.639C100.406 193.308 97.9333 193.8 95.8136 195.037C93.6939 196.274 92.0493 198.185 91.142 200.465C85.6455 214.282 75.0426 241.393 75.6183 243.503C76.3937 246.344 77.1686 246.602 75.1024 247.635C73.0362 248.669 70.1947 246.861 73.0362 248.669C75.8778 250.477 72.2617 250.994 73.5534 252.285C74.8451 253.576 96.2839 256.414 96.2839 256.414C96.2839 256.414 91.5495 242.018 93.1404 239.917C94.7312 237.817 99.8975 240.399 97.3141 237.817C94.7308 235.234 92.3252 234.521 95.3358 233.327C98.3464 232.134 100.984 230.815 100.984 230.815L111.277 209.275C112.024 207.713 112.391 205.996 112.349 204.264C112.306 202.533 111.855 200.836 111.032 199.312C110.21 197.788 109.039 196.48 107.615 195.494C106.191 194.508 104.554 193.873 102.838 193.639Z" fill="#E6E6E6"/>
<path d="M121.63 462.438L128.77 462.437L132.166 434.897H121.628L121.63 462.438Z" fill="#A0616A"/>
<path d="M121.378 469.886L143.335 469.885V469.608C143.335 467.341 142.434 465.168 140.832 463.565C139.229 461.962 137.055 461.062 134.789 461.062L130.778 458.019L123.295 461.062L121.378 461.062L121.378 469.886Z" fill="#2F2E41"/>
<path d="M6.89941 414.859L9.82141 421.374L36.3414 413.204L32.0284 403.589L6.89941 414.859Z" fill="#A0616A"/>
<path d="M0 417.677L8.98466 437.712L9.23801 437.598C11.3061 436.67 12.921 434.959 13.7276 432.841C14.5342 430.723 14.4664 428.371 13.5392 426.303L14.6743 421.398L8.83571 415.815L8.05142 414.066L0 417.677Z" fill="#2F2E41"/>
<path d="M114.695 176.869C122.216 176.869 128.313 170.772 128.313 163.251C128.313 155.73 122.216 149.634 114.695 149.634C107.175 149.634 101.078 155.73 101.078 163.251C101.078 170.772 107.175 176.869 114.695 176.869Z" fill="#A0616A"/>
<path d="M138.898 289.43L87.4396 287.797C87.4396 287.797 76.5511 308.867 83.2205 322.019C89.8899 335.171 84.6097 372.431 84.6097 372.431L18.0117 406.233L23.7293 419.301C23.7293 419.301 38.4317 418.485 40.8821 416.034C43.1512 414.043 46.034 412.89 49.0501 412.767C50.6837 412.767 98.8747 391.53 98.8747 391.53L111.395 355.257L124.099 404.805L117.87 448.834L132.74 449.225C132.74 449.225 137.869 446.648 136.342 442.776C134.814 438.905 134.024 437.219 137.686 433.978C141.348 430.737 148.441 381.652 148.441 381.652L140.029 325.012C140.029 325.012 135.018 323.602 139.252 319.779C143.485 315.955 139.159 311.394 139.159 311.394C139.159 311.394 142.739 306.33 139.112 307.143C135.485 307.956 138.898 287.797 138.898 287.797" fill="#2F2E41"/>
<path d="M127.397 185.877L108.397 184.7L105.075 190.199C105.075 190.199 97.5949 189.781 99.2285 192.232C100.862 194.682 99.9126 192.676 97.5285 194.496C95.1444 196.316 91.9251 196.639 93.5348 198.111C93.7695 198.325 93.6747 198.961 93.3415 199.889C86.7671 217.716 85.1493 236.992 88.6604 255.666C89.7769 261.35 90.4889 265.498 90.2437 265.743C89.4269 266.56 85.3429 265.743 87.7933 268.194C90.2437 270.644 94.3277 268.194 89.4269 273.095C84.5261 277.995 74.2357 298.749 86.1597 300.049C98.0836 301.349 142.519 298.415 141.702 295.148L135.984 272.278L131.328 206.472L126.663 193.904L127.397 185.877Z" fill="#E6E6E6"/>
<path d="M128.39 301.305L120.452 262.277L107.748 265.518L118.069 305.778C117.926 306.921 118.087 308.082 118.538 309.143C118.988 310.203 119.71 311.126 120.632 311.817C121.554 312.508 122.643 312.943 123.787 313.078C124.931 313.213 126.091 313.042 127.148 312.584C128.205 312.126 129.123 311.396 129.807 310.469C130.491 309.542 130.918 308.45 131.044 307.305C131.17 306.16 130.991 305.001 130.525 303.948C130.059 302.894 129.322 301.982 128.39 301.305Z" fill="#A0616A"/>
<path d="M114.276 205.814C111.864 206.267 109.674 207.516 108.054 209.359C106.434 211.203 105.478 213.536 105.338 215.986C104.49 230.832 103 259.904 104.213 261.724C105.846 264.174 106.663 264.174 105.03 265.808C103.396 267.442 100.129 266.625 103.396 267.442C106.663 268.258 103.396 269.892 105.03 270.709C106.663 271.526 127.9 267.442 127.9 267.442C127.9 267.442 118.858 255.28 119.703 252.784C120.549 250.289 126.266 251.106 122.999 249.472C119.732 247.838 117.224 247.922 119.703 245.838C122.182 243.754 124.267 241.669 124.267 241.669L127.225 217.981C127.44 216.262 127.245 214.517 126.658 212.888C126.07 211.259 125.106 209.791 123.844 208.605C122.582 207.419 121.057 206.548 119.395 206.063C117.732 205.578 115.978 205.493 114.276 205.814Z" fill="#E6E6E6"/>
<path d="M118.801 176.373C117.086 177.68 115.228 178.787 113.263 179.674C111.278 180.562 109.05 180.746 106.947 180.197C105.902 179.868 104.946 179.305 104.151 178.552C103.356 177.799 102.743 176.874 102.359 175.848C101.609 173.798 95.3407 171.402 96.5233 169.566C97.1182 168.835 97.6107 168.027 97.9872 167.164C98.1585 166.726 98.1533 166.238 97.9727 165.803C97.7922 165.369 97.4503 165.021 97.0188 164.833C96.6417 164.779 96.2572 164.852 95.9269 165.042C95.5967 165.233 95.34 165.528 95.1979 165.882C94.9322 166.597 94.835 167.364 94.9139 168.123C94.3093 167.617 93.8849 166.928 93.7045 166.16C93.5241 165.392 93.5973 164.587 93.9131 163.864L91.7949 162.8C93.6233 162.088 100.581 159.203 99.0347 157.996C97.7265 156.974 93.5155 153.655 93.9856 152.459C94.535 151.294 95.3055 150.247 96.2543 149.376C98.0802 147.469 100.071 145.468 102.656 144.934C104.865 144.477 107.128 145.176 109.298 145.793C111.468 146.409 113.816 146.946 115.94 146.188C118.065 145.431 119.678 142.851 118.614 140.862C119.428 140.855 120.226 141.081 120.914 141.514C121.603 141.947 122.153 142.569 122.498 143.306L122.862 139.956C124.486 140.382 125.987 141.185 127.244 142.299C128.403 143.505 128.896 145.529 127.886 146.862C126.766 148.339 124.262 148.507 123.599 150.239C123.017 151.758 124.278 153.293 125.33 154.534C126.383 155.774 127.302 157.699 126.198 158.893C125.284 159.881 123.68 159.567 122.377 159.905C120.412 160.415 119.203 162.486 118.946 164.5C118.849 166.529 119 168.562 119.398 170.555C119.792 172.565 119.475 174.649 118.501 176.451" fill="#2F2E41"/>
<path d="M127.484 167.956C126.092 167.956 124.549 167.416 124.549 166.023V157.18C124.549 155.788 126.092 155.956 127.484 155.956C130.955 153.629 133.896 157.021 134.013 161.602C133.973 166.543 131.256 169.702 127.484 167.956Z" fill="#3F3D56"/>
<path d="M125.546 154.659H121.101C119.615 154.659 113.778 154.556 113.484 155.956C105.64 154.566 102.558 154.529 98.0029 157.109C97.4614 157.109 96.942 157.324 96.559 157.707C96.1761 158.09 95.9609 158.61 95.9609 159.151C95.9609 159.693 96.1761 160.212 96.559 160.595C96.942 160.978 97.4614 161.193 98.0029 161.193L112.484 160.956L118.014 165.458C118.014 165.863 118.094 166.265 118.249 166.639C118.405 167.014 118.632 167.354 118.918 167.64C119.205 167.927 119.545 168.154 119.92 168.31C120.294 168.465 120.696 168.544 121.101 168.544H125.546C125.952 168.544 126.353 168.465 126.727 168.31C127.102 168.154 127.442 167.927 127.729 167.64C128.015 167.354 128.243 167.014 128.398 166.639C128.553 166.265 128.633 165.863 128.633 165.458C127.209 162.707 126.973 160.106 128.633 157.746C128.633 157.34 128.553 156.939 128.398 156.564C128.243 156.19 128.015 155.85 127.729 155.563C127.442 155.276 127.102 155.049 126.727 154.894C126.353 154.739 125.952 154.659 125.546 154.659Z" fill="#6C63FF"/>
</g>
<defs>
<clipPath id="clip0_581_2">
<rect width="806.352" height="520.956" fill="white"/>
</clipPath>
</defs>
</svg>
