<svg width="934" height="630" viewBox="0 0 934 630" fill="none" xmlns="http://www.w3.org/2000/svg">
<g clip-path="url(#clip0_571_2)">
<path d="M603.482 142.659C621.156 142.659 635.482 128.332 635.482 110.659C635.482 92.9861 621.156 78.6592 603.482 78.6592C585.809 78.6592 571.482 92.9861 571.482 110.659C571.482 128.332 585.809 142.659 603.482 142.659Z" fill="#FFC163"/>
<path d="M677.982 427.859C672.982 416.359 665.282 406.259 649.882 397.759C641.923 393.259 633.374 389.893 624.482 387.759C630.465 384.98 635.967 381.267 640.782 376.759C647.862 370.431 653.228 362.416 656.382 353.459C659.286 344.357 660.473 334.795 659.882 325.259C658.782 308.459 655.482 292.159 646.682 280.459C637.882 268.759 625.482 259.759 609.082 253.459C596.482 248.659 583.582 245.659 563.582 244.559V180.659L523.582 205.659V244.659H491.582V203.659L450.582 180.659V244.659H363.482L391.482 292.659C400.132 292.669 405.992 293.469 408.982 294.959C411.774 296.154 414.069 298.272 415.482 300.959C416.782 303.459 417.382 309.359 417.382 318.459V491.659C417.382 500.659 416.782 506.459 415.482 509.059C414.182 511.659 413.482 513.959 410.382 515.359C407.282 516.759 407.182 516.659 398.582 516.659H398.482L363.482 564.659H450.482V628.659H491.482V564.659H523.482V628.659H563.482V564.259C589.482 562.959 607.982 559.559 622.882 553.959C642.182 546.759 656.982 536.259 667.582 522.459C678.182 508.659 682.482 487.559 683.382 471.259C684.082 456.759 682.482 438.059 677.982 427.859ZM491.482 298.659H491.492V297.329H519.452C535.182 297.329 587.602 292.089 588.472 334.899C589.352 377.709 519.452 375.959 519.452 375.959H491.492V372.659H491.482V298.659ZM491.482 420.659H523.482C529.982 420.659 552.342 421.649 560.482 422.019C563.801 422.14 567.086 422.726 570.242 423.759C571.392 424.149 572.482 424.589 573.662 425.079C578.595 426.673 583.248 429.028 587.452 432.059C590.194 433.87 592.605 436.136 594.582 438.759C595.439 439.943 596.227 441.175 596.942 442.449C598.836 445.653 600.241 449.121 601.112 452.739C602.065 456.234 602.56 459.837 602.582 463.459C602.582 471.249 601.142 477.699 597.592 483.159C592.782 491.219 584.892 496.929 576.012 500.959C553.052 511.399 523.482 510.659 523.482 510.659H491.482V420.659Z" fill="#F6F6F6"/>
<path opacity="0.3" d="M612.142 112.006C611.839 111.256 611.281 110.638 610.567 110.259C610.123 109.998 609.643 109.803 609.143 109.678C609.48 109.516 609.789 109.301 610.057 109.04C610.456 108.669 610.757 108.204 610.932 107.688C611.094 107.158 611.161 106.604 611.128 106.051C611.125 105.133 610.869 104.233 610.388 103.451C609.851 102.736 609.119 102.192 608.28 101.884C607.465 101.568 606.603 101.394 605.729 101.368V97.6592L603.487 99.1101V101.373H601.693V98.994L599.395 97.6592V101.373H594.512L596.081 104.159C596.414 104.136 596.748 104.182 597.062 104.293C597.22 104.363 597.349 104.486 597.427 104.641C597.522 104.97 597.559 105.314 597.533 105.657V115.708C597.558 116.049 597.522 116.39 597.427 116.718C597.354 116.869 597.315 117.002 597.141 117.084C596.967 117.165 596.961 117.159 596.479 117.159H596.474L594.512 119.945H599.389V123.659H601.687V119.945H603.481V123.659H605.724V119.922C606.858 119.902 607.983 119.7 609.054 119.324C610.048 118.969 610.918 118.334 611.559 117.496C612.119 116.604 612.425 115.577 612.445 114.524C612.504 113.673 612.402 112.819 612.142 112.006ZM601.687 104.507L601.688 104.43H603.255C604.137 104.43 607.076 104.126 607.125 106.611C607.174 109.095 603.255 108.994 603.255 108.994H601.688V108.802L601.687 104.507ZM601.687 111.588H603.481C603.846 111.588 605.099 111.645 605.555 111.667C605.742 111.674 605.926 111.708 606.103 111.768C606.167 111.79 606.228 111.816 606.294 111.844C606.572 111.937 606.833 112.074 607.067 112.249C607.222 112.355 607.357 112.487 607.467 112.638C607.637 112.884 607.761 113.159 607.833 113.45C607.887 113.653 607.914 113.862 607.916 114.072C607.934 114.472 607.837 114.869 607.636 115.215C607.348 115.675 606.926 116.036 606.426 116.248C605.492 116.631 604.491 116.822 603.481 116.811H601.687V111.588Z" fill="#6C63FF"/>
<path d="M798.13 475.793C804.608 475.793 809.859 470.541 809.859 464.063C809.859 457.585 804.608 452.334 798.13 452.334C791.652 452.334 786.4 457.585 786.4 464.063C786.4 470.541 791.652 475.793 798.13 475.793Z" fill="#FFC163"/>
<path d="M890.596 591.744V458.194" stroke="#3F3D56" stroke-width="2" stroke-miterlimit="10"/>
<path d="M890.597 477.08C901.027 477.08 909.483 468.625 909.483 458.194C909.483 447.764 901.027 439.309 890.597 439.309C880.166 439.309 871.711 447.764 871.711 458.194C871.711 468.625 880.166 477.08 890.597 477.08Z" fill="#3F3D56"/>
<path d="M853.402 532.97C826.122 574.804 833.597 628.013 833.597 628.013C833.597 628.013 885.301 613.394 912.58 571.559C939.86 529.724 932.385 476.516 932.385 476.516C932.385 476.516 880.681 491.135 853.402 532.97Z" fill="#3F3D56"/>
<path d="M833.452 627.526C833.452 627.526 832.788 627.42 831.566 627.173C830.591 626.975 829.248 626.692 827.609 626.304C812.957 622.849 774.001 611.171 748.533 580.467C716.656 542.02 717.998 488.306 717.998 488.306C717.998 488.306 766.739 496.226 798.855 530.752C800.247 532.235 801.601 533.773 802.918 535.365C830.654 568.817 833.24 613.827 833.445 624.954C833.473 626.622 833.452 627.526 833.452 627.526Z" fill="#6C63FF"/>
<path d="M813.791 532.97C841.071 574.804 833.596 628.013 833.596 628.013C833.596 628.013 781.892 613.394 754.613 571.559C727.333 529.724 734.808 476.516 734.808 476.516C734.808 476.516 786.511 491.135 813.791 532.97Z" stroke="#3F3D56" stroke-width="2" stroke-miterlimit="10"/>
<path opacity="0.1" d="M833.445 624.955C832.724 625.824 832.088 626.565 831.566 627.173C830.407 628.494 829.75 629.186 829.75 629.186C829.75 629.186 828.952 628.183 827.609 626.304C820.241 616.032 796.538 579.506 798.368 537.315C798.467 535.104 798.629 532.916 798.855 530.752C800.247 532.236 801.601 533.773 802.918 535.365C830.654 568.817 833.24 613.827 833.445 624.955Z" fill="black"/>
<path d="M873.893 540.366C871.737 590.263 834.698 629.187 834.698 629.187C834.698 629.187 801.154 587.213 803.311 537.316C805.467 487.42 842.506 448.496 842.506 448.496C842.506 448.496 876.049 490.47 873.893 540.366Z" fill="#6C63FF"/>
<path d="M834.697 627.774L842.84 450.531" stroke="#3F3D56" stroke-width="2" stroke-miterlimit="10"/>
<path d="M57.4727 627.968H903.493" stroke="#3F3D56" stroke-width="2" stroke-miterlimit="10"/>
<path d="M237.156 411.814C260.755 411.814 279.885 392.683 279.885 369.084C279.885 345.485 260.755 326.354 237.156 326.354C213.557 326.354 194.426 345.485 194.426 369.084C194.426 392.683 213.557 411.814 237.156 411.814Z" fill="#FCF75E"/>
<path d="M164.527 512.378C188.126 512.378 207.256 493.248 207.256 469.648C207.256 446.049 188.126 426.919 164.527 426.919C140.928 426.919 121.797 446.049 121.797 469.648C121.797 493.248 140.928 512.378 164.527 512.378Z" fill="#FCF75E"/>
<path d="M75.136 592.69C98.735 592.69 117.866 573.559 117.866 549.96C117.866 526.361 98.735 507.23 75.136 507.23C51.537 507.23 32.4062 526.361 32.4062 549.96C32.4062 573.559 51.537 592.69 75.136 592.69Z" fill="#FCF75E"/>
<path d="M75.0977 627.235V549.725" stroke="#3F3D56" stroke-width="2" stroke-miterlimit="10"/>
<path d="M75.0977 560.686C81.1514 560.686 86.0588 555.779 86.0588 549.725C86.0588 543.672 81.1514 538.764 75.0977 538.764C69.0441 538.764 64.1367 543.672 64.1367 549.725C64.1367 555.779 69.0441 560.686 75.0977 560.686Z" fill="#3F3D56"/>
<path d="M75.0976 597.496C75.0976 597.496 73.5318 563.818 41.4316 567.732Z" fill="#3F3D56"/>
<path d="M237.182 627.779V369.241" stroke="#3F3D56" stroke-width="2" stroke-miterlimit="10"/>
<path d="M237.182 380.08C243.235 380.08 248.143 375.172 248.143 369.119C248.143 363.065 243.235 358.158 237.182 358.158C231.128 358.158 226.221 363.065 226.221 369.119C226.221 375.172 231.128 380.08 237.182 380.08Z" fill="#3F3D56"/>
<path d="M203.516 567.133C209.569 567.133 214.477 562.226 214.477 556.172C214.477 550.119 209.569 545.211 203.516 545.211C197.462 545.211 192.555 550.119 192.555 556.172C192.555 562.226 197.462 567.133 203.516 567.133Z" fill="#3F3D56"/>
<path d="M237.182 425.108C237.182 425.108 235.616 391.43 203.516 395.345Z" fill="#3F3D56"/>
<path d="M237.182 520.583C237.182 520.583 235.616 486.904 203.516 490.819Z" fill="#3F3D56"/>
<path d="M237.182 624.766C237.182 624.766 244.228 559.304 203.516 556.172" stroke="#3F3D56" stroke-width="2" stroke-miterlimit="10"/>
<path d="M270.854 567.133C276.907 567.133 281.815 562.226 281.815 556.172C281.815 550.119 276.907 545.211 270.854 545.211C264.8 545.211 259.893 550.119 259.893 556.172C259.893 562.226 264.8 567.133 270.854 567.133Z" fill="#3F3D56"/>
<path d="M237.187 624.766C237.187 624.766 230.14 559.304 270.853 556.172" stroke="#3F3D56" stroke-width="2" stroke-miterlimit="10"/>
<path d="M271.522 464.315C277.575 464.315 282.483 459.407 282.483 453.354C282.483 447.3 277.575 442.393 271.522 442.393C265.468 442.393 260.561 447.3 260.561 453.354C260.561 459.407 265.468 464.315 271.522 464.315Z" fill="#3F3D56"/>
<path d="M237.855 518.456C237.855 518.456 230.808 456.485 271.521 453.354" stroke="#3F3D56" stroke-width="2" stroke-miterlimit="10"/>
<path d="M164.564 627.414V469.601" stroke="#3F3D56" stroke-width="2" stroke-miterlimit="10"/>
<path d="M164.565 480.562C170.618 480.562 175.526 475.654 175.526 469.601C175.526 463.547 170.618 458.64 164.565 458.64C158.511 458.64 153.604 463.547 153.604 469.601C153.604 475.654 158.511 480.562 164.565 480.562Z" fill="#3F3D56"/>
<path d="M164.564 514.24C164.564 514.24 162.999 480.562 130.898 484.476Z" fill="#3F3D56"/>
<path d="M164.564 624.401C164.564 624.401 171.611 559.638 130.898 556.506" stroke="#3F3D56" stroke-width="2" stroke-miterlimit="10"/>
<path d="M130.899 567.467C136.952 567.467 141.86 562.56 141.86 556.506C141.86 550.452 136.952 545.545 130.899 545.545C124.845 545.545 119.938 550.452 119.938 556.506C119.938 562.56 124.845 567.467 130.899 567.467Z" fill="#3F3D56"/>
<path d="M766.482 387.659C776.424 387.659 784.482 379.6 784.482 369.659C784.482 359.718 776.424 351.659 766.482 351.659C756.541 351.659 748.482 359.718 748.482 369.659C748.482 379.6 756.541 387.659 766.482 387.659Z" fill="#FFC163"/>
<path opacity="0.1" d="M576.012 500.959C553.052 511.399 523.482 510.659 523.482 510.659H491.482V504.549C504.522 500.909 522.552 498.659 542.482 498.659C553.7 498.62 564.905 499.389 576.012 500.959Z" fill="black"/>
<path opacity="0.1" d="M614.482 518.659C614.482 529.709 582.242 538.659 542.482 538.659C502.722 538.659 470.482 529.709 470.482 518.659C470.482 513.149 478.502 508.159 491.482 504.549V510.659H523.482C523.482 510.659 553.052 511.399 576.012 500.959C598.882 504.299 614.482 510.969 614.482 518.659Z" fill="black"/>
<path d="M551.678 394.129H521.043V424.818H551.678V394.129Z" fill="#2F2E41"/>
<path d="M532.435 415.832C532.435 415.832 534.97 424.707 530.533 425.341C527.779 425.77 525.17 426.857 522.926 428.51L531.167 439.287H546.381L555.89 429.778C555.89 429.778 543.212 420.269 545.747 414.564C548.283 408.859 532.435 415.832 532.435 415.832Z" fill="#FFB9B9"/>
<path opacity="0.1" d="M532.435 415.832C532.435 415.832 534.97 424.707 530.533 425.341C527.779 425.77 525.17 426.857 522.926 428.51L531.167 439.287H546.381L555.89 429.778C555.89 429.778 543.212 420.269 545.747 414.564C548.283 408.859 532.435 415.832 532.435 415.832Z" fill="black"/>
<path d="M536.238 526.136L550.819 531.207L560.961 531.841L560.327 522.966L539.408 516.779L536.238 526.136Z" fill="#FFB9B9"/>
<path d="M554.94 524.234C554.94 524.234 554.94 533.109 556.207 533.109C557.475 533.109 574.591 531.207 579.663 533.109C584.734 535.011 592.342 528.038 588.538 524.234C584.734 520.431 578.53 514.725 574.659 515.993C570.788 517.261 554.939 520.43 554.939 520.43L554.94 524.234Z" fill="#2F2E41"/>
<path d="M508.345 515.993C508.345 515.993 500.738 531.207 505.81 532.475C510.881 533.743 516.587 531.841 517.221 531.207C517.854 530.573 526.729 528.038 527.997 529.305C529.265 530.573 529.265 524.234 529.265 524.234L508.345 515.993Z" fill="#2F2E41"/>
<path d="M514.686 495.073C514.686 495.073 502.641 511.556 511.516 515.993C520.391 520.431 562.865 520.431 566.035 515.993C569.204 511.556 570.472 497.609 566.035 496.341C561.597 495.073 514.686 495.073 514.686 495.073Z" fill="#2F2E41"/>
<path opacity="0.2" d="M514.686 495.073C514.686 495.073 502.641 511.556 511.516 515.993C520.391 520.431 562.865 520.431 566.035 515.993C569.204 511.556 570.472 497.609 566.035 496.341C561.597 495.073 514.686 495.073 514.686 495.073Z" fill="black"/>
<path d="M537.506 420.269C545.559 420.269 552.087 413.741 552.087 405.689C552.087 397.636 545.559 391.108 537.506 391.108C529.454 391.108 522.926 397.636 522.926 405.689C522.926 413.741 529.454 420.269 537.506 420.269Z" fill="#FFB9B9"/>
<path d="M514.686 428.51L527.364 425.975C527.364 425.975 530.534 436.117 540.677 434.216C550.82 432.314 553.355 425.975 553.355 425.975C553.355 425.975 560.963 429.144 561.597 429.144C562.23 429.144 570.472 432.314 570.472 434.216C570.472 436.117 560.963 455.135 560.963 455.135L562.23 489.368L515.319 488.1L518.489 454.502L514.686 428.51Z" fill="#6C63FF"/>
<path d="M507.712 444.993C507.712 444.993 503.908 478.591 506.444 481.127C508.98 483.663 519.123 490.636 519.123 490.636V483.029L514.051 473.52L519.123 451.332L507.712 444.993Z" fill="#FFB9B9"/>
<path d="M573.324 444.042C573.324 444.042 571.105 478.591 571.105 479.859C571.105 481.127 565.4 485.564 563.498 485.564C561.596 485.564 560.328 482.395 560.328 482.395L564.766 477.323L561.596 451.332L573.324 444.042Z" fill="#FFB9B9"/>
<path d="M567.301 492.538C567.301 492.538 595.828 476.689 596.462 492.538C597.096 508.386 581.881 514.725 581.881 514.725C581.881 514.725 542.578 526.511 540.993 522.203C539.408 517.895 536.238 510.922 538.774 510.288C541.31 509.654 544.479 508.386 545.747 509.654C547.015 510.922 562.863 500.145 562.863 500.145L567.301 492.538Z" fill="#2F2E41"/>
<path opacity="0.2" d="M580.613 490.636C580.613 490.636 574.908 493.171 573.006 495.073C571.104 496.975 562.863 500.145 562.863 500.145" stroke="black" stroke-width="2" stroke-miterlimit="10"/>
<path d="M518.489 429.778L514.685 428.51C514.685 428.51 500.739 443.091 505.176 446.894C509.614 450.698 512.15 451.966 513.418 453.234C514.685 454.501 521.025 455.135 521.025 455.135L518.489 429.778Z" fill="#6C63FF"/>
<path d="M564.766 432.948L570.471 434.216C570.471 434.216 574.909 443.725 576.176 444.992C577.444 446.26 574.275 445.626 572.373 448.162C570.471 450.698 568.569 455.135 564.766 455.135C560.962 455.135 555.891 448.796 555.891 448.796L564.766 432.948Z" fill="#6C63FF"/>
<path d="M515.954 498.243C515.954 498.243 491.865 481.127 483.623 493.805C475.382 506.484 519.124 523.6 525.463 526.136C531.802 528.672 537.508 531.207 537.508 531.207C537.508 531.207 543.213 517.261 543.213 514.725C543.213 512.189 538.776 512.189 537.508 512.189C536.24 512.189 530.534 510.922 529.267 509.02C527.999 507.118 515.954 498.243 515.954 498.243Z" fill="#2F2E41"/>
<path opacity="0.2" d="M502.641 493.805C502.641 493.805 508.98 498.877 514.685 500.145C520.391 501.413 522.293 504.582 522.293 504.582" stroke="black" stroke-width="2" stroke-miterlimit="10"/>
<path d="M511.581 469.97L512.087 496.811C512.104 497.697 512.47 498.541 513.107 499.159C513.743 499.776 514.598 500.117 515.484 500.107L565.434 499.546C566.285 499.537 567.101 499.204 567.716 498.617C568.332 498.029 568.702 497.229 568.751 496.38L570.267 470.1C570.293 469.643 570.226 469.186 570.069 468.756C569.913 468.326 569.67 467.933 569.356 467.6C569.042 467.267 568.663 467.002 568.243 466.821C567.823 466.64 567.37 466.546 566.912 466.546H514.94C514.494 466.546 514.051 466.635 513.64 466.808C513.228 466.981 512.855 467.234 512.542 467.553C512.229 467.872 511.983 468.25 511.818 468.665C511.653 469.08 511.572 469.523 511.581 469.97Z" fill="#575A89"/>
<path d="M505.802 428.67C507.162 425.668 508.991 422.851 509.862 419.672C510.906 415.862 510.499 411.831 510.375 407.883C510.177 404.391 510.474 400.888 511.259 397.48C512.056 394.055 513.844 390.941 516.401 388.527C523.044 382.597 535.203 382.171 543.315 384.64C546.513 385.613 549.92 387.467 550.713 390.714C550.832 391.204 550.886 391.709 551.02 392.196C551.684 394.614 554.157 396.144 555.05 398.487C556.204 401.518 554.424 404.814 554.192 408.048C553.92 411.825 555.776 415.393 557.606 418.708C558.694 420.678 559.825 422.777 559.717 425.025C559.627 426.255 559.253 427.447 558.625 428.508C557.459 430.432 555.824 432.027 553.872 433.146C551.921 434.264 549.718 434.869 547.469 434.903C546.007 435.02 544.545 434.675 543.29 433.917C541.31 432.553 540.73 429.808 541.143 427.44C541.555 425.072 542.757 422.931 543.699 420.719C543.988 420.041 544.249 419.35 544.489 418.653C547.41 417.023 549.66 414.413 550.844 411.285C552.027 408.156 552.066 404.71 550.955 401.555C549.844 398.401 547.654 395.74 544.772 394.043C541.89 392.346 538.5 391.722 535.203 392.281C531.905 392.841 528.911 394.547 526.75 397.1C524.588 399.652 523.398 402.886 523.39 406.231C523.381 409.576 524.555 412.816 526.703 415.379C528.852 417.943 531.837 419.665 535.132 420.241C535.842 423.818 535.52 427.524 534.202 430.925C533.003 433.693 531.498 436.317 529.715 438.748C528.986 439.995 528.014 441.083 526.857 441.947C526.094 442.399 525.275 442.748 524.422 442.987C520.841 444.139 517.07 445.065 513.345 444.547C509.619 444.029 505.93 441.782 504.66 438.242C503.548 435.139 504.442 431.672 505.802 428.67Z" fill="#2F2E41"/>
<path d="M536.8 406.27C545.346 406.27 552.273 402.345 552.273 397.502C552.273 392.659 545.346 388.734 536.8 388.734C528.254 388.734 521.326 392.659 521.326 397.502C521.326 402.345 528.254 406.27 536.8 406.27Z" fill="#2F2E41"/>
<path opacity="0.3" d="M773.212 370.705C772.976 370.123 772.543 369.642 771.988 369.348C771.642 369.145 771.27 368.994 770.881 368.897C771.143 368.771 771.383 368.603 771.591 368.401C771.902 368.112 772.135 367.751 772.271 367.35C772.398 366.939 772.449 366.508 772.423 366.078C772.421 365.365 772.222 364.666 771.848 364.058C771.431 363.502 770.862 363.08 770.21 362.84C769.577 362.595 768.907 362.459 768.228 362.439V359.557L766.486 360.685V362.443H765.092V360.594L763.306 359.557V362.443H759.512L760.731 364.608C760.99 364.59 761.249 364.626 761.494 364.712C761.616 364.767 761.716 364.862 761.777 364.982C761.851 365.238 761.879 365.506 761.86 365.772V373.582C761.879 373.847 761.851 374.112 761.777 374.367C761.72 374.484 761.69 374.588 761.555 374.651C761.42 374.714 761.415 374.71 761.041 374.71H761.036L759.512 376.875H763.302V379.761H765.088V376.875H766.482V379.761H768.224V376.856C769.106 376.841 769.979 376.684 770.812 376.392C771.584 376.116 772.26 375.623 772.759 374.971C773.193 374.278 773.431 373.48 773.447 372.662C773.493 372.001 773.413 371.337 773.212 370.705ZM765.088 364.879L765.088 364.819H766.306C766.991 364.819 769.275 364.582 769.313 366.513C769.351 368.444 766.306 368.365 766.306 368.365H765.088V368.216L765.088 364.879ZM765.088 370.381H766.482C766.765 370.381 767.739 370.425 768.093 370.442C768.238 370.447 768.381 370.474 768.519 370.52C768.569 370.538 768.616 370.558 768.668 370.58C768.883 370.652 769.086 370.758 769.268 370.895C769.388 370.977 769.493 371.079 769.579 371.197C769.711 371.388 769.807 371.602 769.863 371.827C769.905 371.985 769.926 372.148 769.927 372.311C769.942 372.622 769.866 372.93 769.71 373.199C769.486 373.557 769.158 373.837 768.77 374.002C768.044 374.299 767.266 374.448 766.482 374.439H765.088V370.381Z" fill="#6C63FF"/>
<path d="M64.4824 450.659C74.4235 450.659 82.4824 442.6 82.4824 432.659C82.4824 422.718 74.4235 414.659 64.4824 414.659C54.5413 414.659 46.4824 422.718 46.4824 432.659C46.4824 442.6 54.5413 450.659 64.4824 450.659Z" fill="#FFC163"/>
<path opacity="0.3" d="M71.21 433.705C70.9743 433.123 70.5409 432.642 69.9859 432.348C69.6405 432.146 69.2679 431.994 68.8794 431.897C69.1412 431.771 69.3809 431.603 69.5894 431.401C69.8997 431.113 70.1333 430.751 70.269 430.35C70.3956 429.939 70.4472 429.508 70.4214 429.078C70.4192 428.365 70.2203 427.666 69.8465 427.058C69.4294 426.503 68.8605 426.08 68.2085 425.84C67.5755 425.595 66.9052 425.459 66.2265 425.439V422.557L64.484 423.685V425.444H63.09V423.595L61.304 422.557V425.444H57.5098L58.7295 427.608C58.988 427.59 59.2474 427.626 59.4918 427.712C59.6145 427.767 59.7145 427.862 59.775 427.983C59.8493 428.239 59.8773 428.506 59.8578 428.772V436.583C59.8767 436.847 59.8487 437.113 59.775 437.367C59.7183 437.485 59.6879 437.588 59.5528 437.651C59.4178 437.715 59.4134 437.71 59.0388 437.71H59.0345L57.5098 439.875H61.2997V442.761H63.0857V439.875H64.4797V442.761H66.2221V439.857C67.1039 439.841 67.9775 439.684 68.8097 439.392C69.5821 439.116 70.2583 438.623 70.7569 437.972C71.1916 437.279 71.4295 436.48 71.4452 435.663C71.4911 435.001 71.4113 434.337 71.21 433.705ZM63.0857 427.879L63.0862 427.819H64.3042C64.9894 427.819 67.2729 427.583 67.3108 429.513C67.3491 431.444 64.3042 431.365 64.3042 431.365H63.0862V431.216L63.0857 427.879ZM63.0857 433.381H64.4797C64.7629 433.381 65.7369 433.425 66.0915 433.442C66.2363 433.448 66.3795 433.474 66.5166 433.521C66.5667 433.538 66.6142 433.558 66.6656 433.58C66.8814 433.652 67.0841 433.759 67.2664 433.895C67.3864 433.977 67.4914 434.079 67.577 434.197C67.709 434.388 67.8054 434.602 67.8614 434.827C67.903 434.985 67.9245 435.148 67.9254 435.311C67.9398 435.622 67.8643 435.93 67.708 436.199C67.4844 436.557 67.1562 436.837 66.768 437.002C66.0421 437.299 65.264 437.448 64.4797 437.44H63.0857L63.0857 433.381Z" fill="#6C63FF"/>
</g>
<defs>
<clipPath id="clip0_571_2">
<rect width="933.321" height="629.287" fill="white"/>
</clipPath>
</defs>
</svg>
