<svg width="646" height="530" viewBox="0 0 646 530" fill="none" xmlns="http://www.w3.org/2000/svg">
<g clip-path="url(#clip0_588_103)">
<path d="M86.9265 501.654C86.1864 501.688 85.4538 501.493 84.8278 501.097C84.2018 500.701 83.7128 500.122 83.427 499.438C83.1412 498.755 83.0724 498 83.23 497.276C83.3875 496.552 83.7638 495.894 84.3078 495.391C84.3989 495.029 84.4643 494.769 84.5554 494.407C84.5228 494.328 84.49 494.249 84.457 494.17C83.7115 492.409 82.4621 490.908 80.866 489.855C79.2698 488.801 77.398 488.243 75.4857 488.25C73.5733 488.257 71.7057 488.829 70.1174 489.895C68.5291 490.96 67.291 492.47 66.5585 494.237C63.6312 501.287 59.9041 508.35 58.9864 515.805C58.5822 519.1 58.7527 522.44 59.4903 525.677C52.6146 510.679 49.0443 494.377 49.0213 477.878C49.0199 473.738 49.2499 469.601 49.7103 465.486C50.0908 462.113 50.6188 458.764 51.2941 455.439C54.9793 437.397 62.8915 420.487 74.3811 406.097C79.942 403.063 84.4392 398.397 87.2667 392.728C88.291 390.691 89.0149 388.515 89.416 386.27C88.7887 386.352 88.1511 386.404 87.5238 386.445C87.3284 386.455 87.1227 386.465 86.9273 386.476L86.8536 386.479C86.1642 386.51 85.4805 386.341 84.8849 385.992C84.2893 385.644 83.8071 385.131 83.4965 384.514C83.1858 383.898 83.0599 383.205 83.1339 382.519C83.2079 381.833 83.4786 381.183 83.9135 380.647C84.1843 380.313 84.4554 379.98 84.7266 379.647C85.138 379.133 85.5596 378.629 85.9709 378.115C86.0184 378.066 86.063 378.015 86.1046 377.961C86.5777 377.375 87.0507 376.799 87.5238 376.213C86.6603 374.872 85.4989 373.75 84.1301 372.932C79.3893 370.156 72.8488 372.079 69.4243 376.367C65.9895 380.655 65.3417 386.671 66.5345 392.029C67.7076 396.588 69.6482 400.914 72.273 404.822C72.0158 405.151 71.7484 405.47 71.4913 405.799C66.7916 411.842 62.6954 418.332 59.2616 425.174C60.0967 417.508 59.1 409.754 56.3536 402.549C53.5702 395.835 48.353 390.179 43.7586 384.374C38.24 377.402 26.9237 380.445 25.9515 389.284C25.9421 389.369 25.9329 389.455 25.9239 389.54C26.6063 389.925 27.2743 390.334 27.9279 390.766C28.749 391.315 29.3852 392.099 29.7532 393.015C30.1212 393.931 30.2038 394.937 29.9902 395.902C29.7766 396.866 29.2768 397.743 28.5562 398.418C27.8356 399.093 26.9279 399.535 25.9519 399.685L25.852 399.701C26.0951 402.16 26.5248 404.598 27.1374 406.992C28.9126 413.676 32.0495 419.922 36.3514 425.337C40.6534 430.752 46.0277 435.22 52.1373 438.46C52.5384 438.666 52.9293 438.872 53.3303 439.067C49.8803 448.844 47.7163 459.028 46.8926 469.363C46.4263 475.46 46.4538 481.586 46.9749 487.679L46.9441 487.463C45.6276 480.687 42.0134 474.574 36.7116 470.155C28.8373 463.686 17.7123 461.304 9.2172 456.105C8.31437 455.525 7.2646 455.216 6.19172 455.213C5.11884 455.211 4.0676 455.515 3.16196 456.09C2.25633 456.665 1.53406 457.488 1.08039 458.46C0.626719 459.432 0.460551 460.514 0.601477 461.577C0.612857 461.653 0.624457 461.729 0.636237 461.804C1.90259 462.32 3.13556 462.914 4.32804 463.583C5.01046 463.969 5.67849 464.377 6.33207 464.809C7.15315 465.358 7.78936 466.142 8.15735 467.058C8.52535 467.974 8.60795 468.981 8.39435 469.945C8.18076 470.909 7.68093 471.786 6.96033 472.461C6.23974 473.136 5.33201 473.578 4.35605 473.729L4.25605 473.744C4.18405 473.754 4.12236 473.765 4.05048 473.775C6.21423 478.941 9.25111 483.697 13.0281 487.833C17.6941 492.839 23.3334 496.84 29.6005 499.59C35.8676 502.34 42.6302 503.781 49.4739 503.824H49.4842C51.3419 511.897 54.0336 519.755 57.5159 527.271H86.2075C86.3104 526.952 86.4029 526.623 86.4955 526.304C83.8398 526.471 81.1735 526.312 78.5564 525.831C80.6851 523.219 82.8139 520.586 84.9426 517.974C84.9901 517.926 85.0348 517.874 85.0763 517.82C86.1561 516.483 87.2462 515.157 88.326 513.82L88.3266 513.818C88.3841 509.72 87.9139 505.632 86.9274 501.654L86.9265 501.654Z" fill="#F2F2F2"/>
<path d="M557.999 501.654C558.739 501.688 559.472 501.493 560.098 501.097C560.724 500.701 561.213 500.122 561.499 499.438C561.785 498.755 561.853 498 561.696 497.276C561.538 496.552 561.162 495.894 560.618 495.391C560.527 495.029 560.461 494.769 560.37 494.407C560.403 494.328 560.436 494.249 560.469 494.17C561.214 492.409 562.464 490.908 564.06 489.855C565.656 488.801 567.528 488.243 569.44 488.25C571.352 488.257 573.22 488.829 574.808 489.895C576.397 490.96 577.635 492.47 578.367 494.237C581.295 501.287 585.022 508.35 585.939 515.805C586.344 519.1 586.173 522.44 585.435 525.677C592.311 510.679 595.881 494.377 595.904 477.878C595.906 473.738 595.676 469.601 595.215 465.486C594.835 462.113 594.307 458.764 593.632 455.439C589.946 437.397 582.034 420.487 570.545 406.097C564.984 403.063 560.487 398.397 557.659 392.728C556.635 390.691 555.911 388.515 555.51 386.27C556.137 386.352 556.775 386.404 557.402 386.445C557.597 386.455 557.803 386.465 557.998 386.476L558.072 386.479C558.762 386.51 559.445 386.341 560.041 385.992C560.636 385.644 561.119 385.131 561.429 384.514C561.74 383.898 561.866 383.205 561.792 382.519C561.718 381.833 561.447 381.183 561.012 380.647C560.741 380.313 560.47 379.98 560.199 379.647C559.788 379.133 559.366 378.629 558.955 378.115C558.907 378.066 558.863 378.015 558.821 377.961C558.348 377.375 557.875 376.799 557.402 376.213C558.265 374.872 559.427 373.75 560.796 372.932C565.536 370.156 572.077 372.079 575.502 376.367C578.936 380.655 579.584 386.671 578.391 392.029C577.218 396.588 575.278 400.914 572.653 404.822C572.91 405.151 573.177 405.47 573.434 405.799C578.134 411.842 582.23 418.332 585.664 425.174C584.829 417.508 585.826 409.754 588.572 402.549C591.356 395.835 596.573 390.179 601.167 384.374C606.686 377.402 618.002 380.445 618.974 389.284C618.984 389.369 618.993 389.455 619.002 389.54C618.319 389.925 617.652 390.334 616.998 390.766C616.177 391.315 615.541 392.099 615.173 393.015C614.805 393.931 614.722 394.937 614.936 395.902C615.149 396.866 615.649 397.743 616.37 398.418C617.09 399.093 617.998 399.535 618.974 399.685L619.074 399.701C618.831 402.16 618.401 404.598 617.788 406.992C616.013 413.676 612.876 419.922 608.574 425.337C604.272 430.752 598.898 435.22 592.789 438.46C592.387 438.666 591.997 438.872 591.596 439.067C595.046 448.844 597.21 459.028 598.033 469.363C598.5 475.46 598.472 481.586 597.951 487.678L597.982 487.462C599.298 480.687 602.913 474.574 608.214 470.155C616.089 463.686 627.214 461.304 635.709 456.105C636.612 455.525 637.661 455.216 638.734 455.213C639.807 455.211 640.858 455.515 641.764 456.09C642.67 456.665 643.392 457.488 643.845 458.46C644.299 459.432 644.465 460.514 644.324 461.577C644.313 461.653 644.301 461.729 644.29 461.804C643.023 462.32 641.79 462.914 640.598 463.583C639.915 463.969 639.247 464.377 638.594 464.809C637.773 465.358 637.136 466.142 636.768 467.058C636.4 467.974 636.318 468.981 636.531 469.945C636.745 470.909 637.245 471.786 637.966 472.461C638.686 473.136 639.594 473.578 640.57 473.729L640.67 473.744C640.742 473.754 640.803 473.764 640.875 473.775C638.712 478.941 635.675 483.697 631.898 487.833C627.232 492.839 621.592 496.84 615.325 499.59C609.058 502.34 602.296 503.781 595.452 503.824H595.442C593.584 511.897 590.892 519.755 587.41 527.271H558.718C558.615 526.952 558.523 526.623 558.43 526.304C561.086 526.471 563.752 526.312 566.369 525.831C564.241 523.219 562.112 520.586 559.983 517.974C559.936 517.926 559.891 517.874 559.849 517.82C558.77 516.483 557.68 515.157 556.6 513.82L556.599 513.818C556.542 509.72 557.013 505.631 557.999 501.654Z" fill="#F2F2F2"/>
<path d="M202.721 514.442H209.667L212.973 487.648H202.721V514.442Z" fill="#9E616A"/>
<path d="M200.454 509.684L211.552 509.021V513.776L222.103 521.063C222.624 521.423 223.017 521.94 223.223 522.539C223.43 523.137 223.439 523.787 223.251 524.391C223.062 524.996 222.686 525.524 222.175 525.9C221.665 526.275 221.049 526.477 220.415 526.477H207.203L204.925 521.774L204.036 526.477H199.055L200.454 509.684Z" fill="#2F2E41"/>
<path d="M115.658 508.54L122.112 511.109L135.092 487.438L125.567 483.646L115.658 508.54Z" fill="#9E616A"/>
<path d="M115.312 503.281L125.868 506.77L124.109 511.188L131.217 521.86C131.568 522.387 131.742 523.013 131.712 523.646C131.683 524.278 131.452 524.885 131.053 525.377C130.654 525.869 130.109 526.221 129.496 526.381C128.883 526.541 128.235 526.501 127.647 526.266L115.371 521.38L114.995 516.168L112.429 520.209L107.801 518.366L115.312 503.281Z" fill="#2F2E41"/>
<path d="M188.719 434.714L177.135 380.657L159.047 440.719L130.406 497.672L130.254 497.974L121.182 493.089C119.901 469.964 122.942 448.293 134.065 429.344L139.331 377.333C139.493 375.555 143.421 333.833 155.861 326.434L159.504 318.127L195.739 309.178L195.871 309.326C199.355 313.243 201.657 318.067 202.509 323.239L213.336 388.831L213.342 388.868L210.439 434.626L214.41 502.133H200.041C191.152 485.408 187.378 462.934 188.719 434.714Z" fill="#2F2E41"/>
<path d="M390.392 114.39H353.182C352.408 114.39 351.643 114.542 350.928 114.838C350.214 115.134 349.565 115.568 349.018 116.114C348.471 116.661 348.037 117.31 347.741 118.025C347.445 118.739 347.293 119.505 347.293 120.278V157.488C347.293 159.05 347.913 160.548 349.018 161.652C350.122 162.757 351.62 163.377 353.182 163.377H390.392C391.954 163.377 393.451 162.757 394.556 161.652C395.66 160.548 396.281 159.05 396.281 157.488V120.278C396.28 118.717 395.66 117.219 394.556 116.114C393.451 115.01 391.954 114.39 390.392 114.39ZM383.405 126.952H379.138C376.224 126.952 375.657 128.332 375.657 130.368V134.687H382.605L381.703 141.468H375.644V159.15C373.053 159.636 370.394 159.63 367.806 159.131V141.468H362.25V134.687H367.909V129.672C367.909 123.678 372.073 120.403 377.436 120.403C380.014 120.403 382.773 120.597 383.405 120.687V126.952Z" fill="#FFC163"/>
<path d="M287.099 156H249.889C248.327 156 246.829 156.62 245.725 157.725C244.62 158.829 244 160.327 244 161.889V199.099C244 200.661 244.62 202.158 245.725 203.263C246.829 204.367 248.327 204.988 249.889 204.988H287.099C288.661 204.988 290.158 204.367 291.263 203.263C292.367 202.158 292.988 200.661 292.988 199.099V161.889C292.988 160.327 292.367 158.829 291.263 157.725C290.158 156.62 288.661 156 287.099 156ZM268.494 193.557C265.91 193.557 263.384 192.791 261.236 191.356C259.088 189.92 257.413 187.88 256.425 185.493C255.436 183.106 255.177 180.479 255.681 177.945C256.185 175.411 257.43 173.084 259.257 171.257C261.083 169.43 263.411 168.185 265.945 167.681C268.479 167.177 271.106 167.436 273.493 168.425C275.88 169.414 277.92 171.088 279.356 173.236C280.791 175.384 281.557 177.91 281.557 180.494C281.557 183.958 280.181 187.281 277.731 189.731C275.281 192.181 271.958 193.557 268.494 193.557ZM283.19 167.43C282.544 167.43 281.913 167.239 281.376 166.88C280.839 166.521 280.42 166.011 280.173 165.414C279.926 164.818 279.861 164.161 279.987 163.527C280.113 162.894 280.424 162.312 280.881 161.855C281.337 161.399 281.919 161.087 282.553 160.961C283.186 160.835 283.843 160.9 284.44 161.147C285.037 161.395 285.547 161.813 285.905 162.35C286.264 162.887 286.456 163.519 286.456 164.165C286.456 165.031 286.112 165.861 285.499 166.474C284.887 167.086 284.056 167.43 283.19 167.43Z" fill="#FFC163"/>
<path d="M399.358 202.277C400.419 202.284 401.465 202.524 402.423 202.98C403.382 203.436 404.228 204.096 404.904 204.914C405.579 205.733 406.067 206.689 406.333 207.716C406.599 208.744 406.636 209.817 406.443 210.86L420.345 219.906L416.908 229.696L397.455 216.645C395.724 216.203 394.215 215.142 393.214 213.662C392.213 212.182 391.79 210.387 392.024 208.616C392.259 206.844 393.135 205.221 394.486 204.053C395.838 202.884 397.571 202.252 399.358 202.277Z" fill="#FFB6B6"/>
<path d="M404.309 226.065L414.231 214.608L427.053 220.554L453.254 241.406C456.689 241.807 482.753 245.171 482.274 254.743C482.262 255.861 482.008 256.964 481.53 257.976C481.052 258.987 480.36 259.883 479.503 260.601C475.389 263.997 468.26 263.033 467.994 262.994L450.936 262.14C450.044 262.356 440.785 264.483 435.884 261.439C434.397 260.515 404.309 226.065 404.309 226.065Z" fill="#3F3D56"/>
<path d="M432.925 518.689L424.798 518.688L420.932 487.341H432.926L432.925 518.689Z" fill="#FFB6B6"/>
<path d="M434.998 526.566L408.793 526.565V526.234C408.793 523.529 409.868 520.935 411.781 519.022C413.693 517.109 416.288 516.034 418.993 516.034L423.78 512.403L432.711 516.035L434.999 516.035L434.998 526.566Z" fill="#2F2E41"/>
<path d="M522.128 512.328L514.294 514.492L502.221 485.305L513.783 482.112L522.128 512.328Z" fill="#FFB6B6"/>
<path d="M526.224 519.37L500.964 526.346L500.876 526.027C500.156 523.419 500.501 520.633 501.835 518.28C503.17 515.927 505.384 514.2 507.992 513.48L511.639 508.705L521.215 509.828L523.42 509.219L526.224 519.37Z" fill="#2F2E41"/>
<path d="M433.282 328.979L494.693 332.112L494.713 332.168C498.391 342.386 499.25 353.406 497.199 364.071L499.079 379.737L508.479 428.614L521.012 491.278C521.012 491.278 537.304 495.664 515.998 503.184C494.693 510.704 499.079 506.317 502.212 500.677C505.346 495.038 486.86 431.434 486.86 431.434L464.301 380.677L442.369 433.314L439.862 491.591C439.862 491.591 446.442 499.424 427.643 502.557C408.844 505.691 409.784 499.737 414.17 495.351C418.556 490.965 422.316 432.687 422.316 432.687L426.703 377.543C426.703 377.543 425.449 345.585 433.282 328.979Z" fill="#2F2E41"/>
<path d="M493.331 257.388L488.393 244.437L472.493 228.776L452.356 227.195L437.556 240.446L433.371 253.628C438.86 279.044 438.747 302.452 430.97 325.13C430.418 326.698 430.214 328.367 430.373 330.022C430.532 331.677 431.05 333.277 431.891 334.71C432.732 336.144 433.876 337.377 435.242 338.324C436.609 339.27 438.165 339.907 439.803 340.19C462.616 344.024 505.097 349.772 502.171 338.829C498.3 324.353 484.834 293.195 489.822 276.72C491.637 270.996 492.78 265.079 493.226 259.091L493.331 257.388Z" fill="#3F3D56"/>
<path d="M459.039 222.142C468.965 222.142 477.011 214.095 477.011 204.169C477.011 194.243 468.965 186.197 459.039 186.197C449.113 186.197 441.066 194.243 441.066 204.169C441.066 214.095 449.113 222.142 459.039 222.142Z" fill="#FFB6B6"/>
<path d="M454.134 221.197L467.833 220.498C469.589 220.409 471.505 220.254 472.781 219.046C473.468 218.3 473.997 217.422 474.334 216.466C475.601 213.524 476.867 210.582 478.102 207.627C479.809 203.538 481.485 199.222 481.05 194.813C480.947 192.799 480.103 190.895 478.679 189.468C477.953 188.78 477.019 188.352 476.023 188.251C475.028 188.15 474.027 188.382 473.178 188.91C472.966 187.516 472.441 186.188 471.641 185.026C470.841 183.864 469.787 182.9 468.56 182.206C466.081 180.836 463.25 180.236 460.428 180.482C456.334 180.745 452.425 182.286 449.251 184.887C448.359 185.71 447.406 186.465 446.4 187.146C445.894 187.484 445.325 187.716 444.726 187.827C444.128 187.937 443.514 187.925 442.92 187.79C442.332 187.633 441.821 187.268 441.482 186.764C441.142 186.259 440.996 185.649 441.071 185.045C440.107 185.766 439.445 186.821 439.216 188.004C438.987 189.187 439.206 190.412 439.832 191.442C439.121 191.74 438.345 191.849 437.579 191.758C436.813 191.668 436.084 191.381 435.462 190.925C434.796 191.256 434.206 191.722 433.73 192.294C433.254 192.865 432.903 193.53 432.699 194.246C432.495 194.961 432.443 195.711 432.545 196.448C432.648 197.185 432.903 197.892 433.295 198.525C433.687 199.157 434.207 199.701 434.821 200.121C435.435 200.54 436.13 200.828 436.861 200.963C437.592 201.099 438.344 201.081 439.068 200.91C439.792 200.738 440.472 200.417 441.065 199.968C441.896 201.132 441.587 202.715 441.478 204.142C441.37 205.569 441.753 207.342 443.128 207.736C444.988 208.269 446.494 205.766 448.428 205.792C448.905 205.831 449.366 205.987 449.768 206.246C450.17 206.506 450.503 206.86 450.735 207.279C451.191 208.12 451.503 209.031 451.658 209.975L454.134 221.119" fill="#2F2E41"/>
<path d="M362.369 249.793C355.526 249.798 348.829 247.813 343.093 244.08L340.207 242.203L343.628 242.583C344.525 242.683 345.49 242.741 346.497 242.755C351.109 242.759 355.624 241.432 359.501 238.934C357.197 238.434 355.064 237.342 353.312 235.766C351.56 234.189 350.249 232.182 349.511 229.944L349.083 228.623L350.445 228.891C351.063 229.013 351.691 229.084 352.322 229.102C350.163 227.991 348.351 226.309 347.085 224.238C345.818 222.167 345.145 219.788 345.139 217.36V215.962L346.357 216.5C347.079 216.907 347.844 217.232 348.637 217.47C346.76 215.364 345.594 212.72 345.305 209.913C345.017 207.107 345.619 204.281 347.028 201.837L347.623 200.81L348.369 201.731C353.805 208.458 361.594 212.867 370.159 214.065C370.393 214.099 370.633 214.081 370.86 214.013C371.088 213.945 371.298 213.829 371.476 213.672C371.658 213.514 371.804 213.318 371.904 213.099C372.004 212.879 372.055 212.641 372.055 212.4C372.035 209.789 372.793 207.232 374.232 205.054C375.67 202.876 377.725 201.176 380.134 200.17C382.542 199.165 385.196 198.899 387.756 199.407C390.317 199.915 392.668 201.174 394.51 203.024C397.03 202.474 399.447 201.525 401.668 200.212L403.542 199.103L402.859 201.171C402.226 203.09 401.164 204.839 399.754 206.286C401.005 205.96 402.229 205.535 403.412 205.015L405.952 203.899L404.422 206.213C402.801 208.668 400.776 210.831 398.432 212.609V213.789C398.432 231.487 384.97 249.793 362.442 249.793L362.369 249.793Z" fill="#FFC163"/>
<path d="M378.508 237.192C379.568 237.148 380.625 237.337 381.604 237.746C382.583 238.155 383.461 238.774 384.175 239.559C384.889 240.344 385.422 241.276 385.737 242.289C386.052 243.302 386.141 244.372 385.998 245.424L400.321 253.79L397.36 263.733L377.299 251.635C375.549 251.277 373.991 250.29 372.92 248.86C371.849 247.43 371.339 245.657 371.488 243.877C371.637 242.096 372.434 240.433 373.728 239.2C375.021 237.968 376.722 237.254 378.508 237.192Z" fill="#FFB6B6"/>
<path d="M395.373 268.409L384.676 256.833L392.091 245.746L400.084 252.452L408.822 254.542L421.152 259.218C422.869 256.215 436.188 233.56 444.804 237.756C445.829 238.205 446.743 238.871 447.486 239.708C448.229 240.545 448.781 241.532 449.106 242.603C450.616 247.719 446.933 253.899 446.792 254.128L439.316 269.483C439.163 270.388 437.488 279.74 432.765 283.054C432.098 283.542 431.336 283.886 430.529 284.065C429.721 284.243 428.886 284.252 428.075 284.091C413.4 281.315 403.059 277.023 397.782 271.564C396.852 270.616 396.043 269.556 395.373 268.409Z" fill="#3F3D56"/>
<path d="M205.091 223.655C203.444 220.113 206.057 216.159 206.99 212.346C208.73 205.231 203.827 197.529 197.18 195.063C190.534 192.598 182.896 194.659 177.187 198.972C171.59 203.201 167.655 205.194 163.8 211.169C162.507 213.172 161.138 219.393 160.894 221.793C160.649 224.193 161.891 226.943 164.154 227.469C163.937 227.897 163.842 228.376 163.879 228.855C163.915 229.334 164.083 229.793 164.362 230.183C164.642 230.573 165.023 230.879 165.465 231.067C165.906 231.256 166.391 231.319 166.866 231.251C171.198 230.415 179.156 232.715 179.156 232.715C186.575 233.14 193.994 233.565 201.413 233.989C203.314 234.098 205.287 234.197 206.995 233.147C207.467 232.87 207.875 232.494 208.188 232.046C208.502 231.597 208.714 231.085 208.812 230.546C209.246 227.736 206.226 226.096 205.091 223.655Z" fill="#2F2E41"/>
<path d="M210.694 254.643L209.07 265.449L206.496 282.57L206.059 288.913L202.856 335.406L194.032 342.193C188.923 346.123 182.545 348.035 176.117 347.563C169.689 347.092 163.659 344.27 159.178 339.636L148.463 334.477C154.206 328.827 153.138 302.644 153.138 302.644L153.073 251.217L167.598 246.333L172.383 236.914H189.546L193.837 246.926L201.625 250.488L205.173 252.118L210.694 254.643Z" fill="#E6E6E6"/>
<path d="M181.674 232.084C189.689 232.084 196.186 225.586 196.186 217.572C196.186 209.557 189.689 203.06 181.674 203.06C173.659 203.06 167.162 209.557 167.162 217.572C167.162 225.586 173.659 232.084 181.674 232.084Z" fill="#9E616A"/>
<path d="M173.383 213.02C169.549 213.026 165.807 211.845 162.671 209.64L162.566 209.567C162.566 207.713 162.932 205.878 163.641 204.165C164.35 202.452 165.39 200.896 166.701 199.586C168.012 198.275 169.568 197.235 171.28 196.526C172.993 195.816 174.828 195.451 176.682 195.451H182.444C184.286 195.453 186.109 195.819 187.809 196.526C189.509 197.234 191.053 198.27 192.352 199.574C193.651 200.879 194.681 202.428 195.381 204.131C196.081 205.834 196.438 207.659 196.432 209.5C196.42 210.341 196.08 211.144 195.485 211.738C194.89 212.332 194.087 212.67 193.247 212.68L173.714 213.017C173.604 213.019 173.493 213.02 173.383 213.02Z" fill="#2F2E41"/>
<path d="M215.862 284.478L202.717 284.585L201.751 307.982L191.07 321.058C189.771 321.276 188.557 321.85 187.564 322.715C186.57 323.58 185.835 324.703 185.439 325.96C185.044 327.217 185.003 328.559 185.322 329.837C185.641 331.115 186.307 332.281 187.247 333.204C188.187 334.128 189.364 334.773 190.647 335.07C191.931 335.367 193.272 335.303 194.521 334.886C195.771 334.468 196.881 333.713 197.729 332.705C198.577 331.696 199.129 330.473 199.325 329.17L214.038 308.774L215.862 284.478Z" fill="#9E616A"/>
<path d="M146.55 285.177L133.075 278.877L118.361 297.094L101.993 301.234C100.819 300.635 99.5027 300.373 98.1892 300.476C96.8756 300.579 95.6161 301.043 94.5497 301.816C93.4832 302.59 92.6514 303.644 92.1461 304.861C91.6408 306.077 91.4817 307.41 91.6863 308.712C91.891 310.013 92.4514 311.233 93.3057 312.236C94.16 313.239 95.2749 313.987 96.5273 314.396C97.7797 314.805 99.1208 314.86 100.403 314.555C101.684 314.25 102.857 313.596 103.79 312.667L127.758 305.05L146.55 285.177Z" fill="#9E616A"/>
<path d="M188.936 230.964L193.96 224.696C194.503 224.147 194.856 223.439 194.968 222.675C194.995 221.909 194.273 221.088 193.545 221.328C192.869 221.551 188.975 211.795 188.263 211.797C187.526 211.799 187.285 210.816 187.276 210.078C187.24 207.284 189.512 210.285 190.263 207.593C191.014 204.901 193.941 207.215 196.464 206.013C198.987 204.811 202.415 205.357 203.974 207.676C205.131 209.395 205.088 211.63 204.935 213.696C204.578 218.491 203.857 223.252 202.776 227.938C202.511 229.089 202.116 230.375 201.055 230.895C200.471 231.126 199.842 231.22 199.216 231.17L191.48 231.132" fill="#2F2E41"/>
<path d="M200.989 204.017C204.939 204.017 208.141 200.815 208.141 196.865C208.141 192.916 204.939 189.714 200.989 189.714C197.04 189.714 193.838 192.916 193.838 196.865C193.838 200.815 197.04 204.017 200.989 204.017Z" fill="#2F2E41"/>
<path d="M217.072 284.25C216.3 285.595 214.655 286.131 213.153 286.546C211.122 287.111 210.529 287.683 208.498 288.248C207.689 288.477 206.874 288.706 206.059 288.913C204.721 289.274 203.362 289.553 201.99 289.75C200.838 289.914 199.479 289.914 198.729 289.021C198.23 288.253 198.03 287.33 198.164 286.424C198.457 275.44 198.752 264.455 199.05 253.47L199.673 253.685C199.953 253.5 200.244 253.333 200.545 253.184C201.977 252.455 203.566 252.089 205.172 252.118C206.091 252.126 207.005 252.268 207.883 252.54C209.246 252.973 210.498 253.697 211.553 254.663C212.608 255.629 213.439 256.813 213.99 258.133C214.703 260.125 215.043 262.232 214.991 264.348C214.998 264.669 214.998 264.991 215.005 265.313C215.048 268.059 213.654 270.805 213.697 273.552C213.664 274.325 213.771 275.098 214.011 275.833C214.297 276.562 214.855 277.17 215.07 277.928C215.284 278.679 214.934 279.709 214.154 279.766C214.705 279.708 215.261 279.802 215.761 280.04C216.262 280.278 216.686 280.65 216.988 281.114C217.29 281.578 217.458 282.117 217.473 282.67C217.488 283.224 217.349 283.771 217.072 284.25Z" fill="#E6E6E6"/>
<path d="M153.133 251.279C154.563 251.365 155.957 251.766 157.214 252.453C158.472 253.14 159.562 254.095 160.407 255.252C161.253 256.409 161.833 257.738 162.105 259.144C162.378 260.551 162.336 262 161.984 263.389C161.237 265.709 160.062 267.869 158.52 269.757L153.713 276.447C153.225 277.046 152.85 277.729 152.606 278.462C152.403 279.221 152.483 280.043 152.206 280.778C151.929 281.513 151.037 282.129 150.375 281.708C150.852 281.989 151.242 282.396 151.502 282.885C151.763 283.374 151.883 283.925 151.849 284.478C151.816 285.03 151.63 285.563 151.313 286.017C150.996 286.471 150.559 286.828 150.052 287.05C148.626 287.672 146.987 287.117 145.534 286.561L139.631 284.302C137.532 283.553 135.486 282.661 133.508 281.633C132.487 281.072 131.396 280.264 131.323 279.101C131.267 278.196 132.032 277.5 132.416 276.678C137.224 266.386 144.293 258.196 153.073 251.217L153.133 251.279Z" fill="#E6E6E6"/>
<path d="M160.04 313.237C160.04 307.481 155.798 302.845 150.493 302.845C143.388 302.504 136.16 302.381 128.768 302.381H126.463C119.085 302.381 111.83 302.504 104.738 302.845C99.5147 302.845 95.2733 307.495 95.2733 313.264C94.946 317.833 94.8095 322.388 94.8232 326.902C94.8368 331.416 94.946 336.026 95.2596 340.54C95.2596 346.309 99.501 350.986 104.724 350.986C112.171 351.327 119.822 351.478 127.595 351.478C135.369 351.478 143.006 351.341 150.48 350.986C155.717 350.986 160.026 346.309 160.026 340.54C160.326 335.971 160.476 331.416 160.463 326.834C160.449 322.251 160.34 317.724 160.04 313.196L160.04 313.237ZM121.404 339.517V314.341L139.979 326.915L121.404 339.517Z" fill="#FFC163"/>
<path d="M643.941 529.229L1.19113 529.537C0.87594 529.536 0.573962 529.41 0.35141 529.187C0.128858 528.964 0.00390625 528.661 0.00390625 528.346C0.00390625 528.031 0.128858 527.729 0.35141 527.505C0.573962 527.282 0.87594 527.156 1.19113 527.155L643.941 526.848C644.256 526.849 644.558 526.975 644.781 527.198C645.003 527.421 645.128 527.724 645.128 528.039C645.128 528.354 645.003 528.656 644.781 528.88C644.558 529.103 644.256 529.229 643.941 529.229Z" fill="#CACACA"/>
</g>
<defs>
<clipPath id="clip0_588_103">
<rect width="645.131" height="529.537" fill="white"/>
</clipPath>
</defs>
</svg>
