<svg width="888" height="461" viewBox="0 0 888 461" fill="none" xmlns="http://www.w3.org/2000/svg">
<g clip-path="url(#clip0_597_142)">
<path d="M462.447 454.077L440.573 419.363L462.457 457.858L462.469 461.814C464.03 461.795 465.574 461.736 467.104 461.634L465.319 410.822L465.343 410.429L465.303 410.354L465.133 405.553L488.004 367.507L465.109 401.957L465.041 402.974L463.693 364.584L483.355 325.22L463.539 357.838L462.617 278.265L462.613 278L462.61 278.261L462.161 340.999L443.373 315.896L462.178 346.402L462.265 380.764L444.832 347.577L462.275 385.816L462.323 404.923L437 358.715L462.343 411.589L462.447 454.077Z" fill="#E2E2E2"/>
<path d="M415.375 454.939L399.58 429.872L415.383 457.669L415.391 460.526C416.518 460.512 417.633 460.469 418.738 460.396L417.449 423.705L417.466 423.421L417.437 423.367L417.315 419.9L433.83 392.427L417.297 417.304L417.248 418.038L416.275 390.316L430.473 361.892L416.164 385.445L415.498 327.986L415.495 327.795L415.493 327.983L415.169 373.286L401.602 355.159L415.181 377.188L415.244 402L402.656 378.036L415.251 405.648L415.286 419.445L397 386.078L415.3 424.258L415.375 454.939Z" fill="#E2E2E2"/>
<path d="M73.3753 454.939L57.5799 429.872L73.3826 457.669L73.3911 460.526C74.518 460.512 75.6335 460.469 76.7376 460.396L75.4492 423.705L75.4662 423.421L75.4372 423.367L75.3145 419.9L91.83 392.427L75.2975 417.304L75.248 418.038L74.2748 390.316L88.4728 361.892L74.1638 385.445L73.4982 327.986L73.4952 327.795L73.4929 327.983L73.1688 373.286L59.6018 355.159L73.1808 377.188L73.2438 402L60.6556 378.036L73.2508 405.648L73.2856 419.445L55 386.078L73.2999 424.258L73.3753 454.939Z" fill="#E2E2E2"/>
<path d="M857.945 452.706L836.071 417.992L857.955 456.488L857.967 460.443C859.528 460.425 861.073 460.365 862.602 460.264L860.817 409.452L860.841 409.059L860.801 408.984L860.631 404.182L883.502 366.136L860.607 400.587L860.539 401.604L859.191 363.213L878.853 323.849L859.037 356.467L858.115 276.894L858.111 276.63L858.108 276.89L857.659 339.628L838.871 314.526L857.676 345.032L857.763 379.394L840.33 346.207L857.773 384.445L857.821 403.552L832.498 357.344L857.841 410.218L857.945 452.706Z" fill="#E2E2E2"/>
<path d="M428.338 122.242C432.098 122.238 435.734 123.592 438.574 126.056C440.819 125.443 443.172 125.34 445.462 125.754C447.357 123.003 450.083 120.93 453.24 119.839C456.397 118.747 459.82 118.694 463.01 119.687C466.2 120.679 468.988 122.666 470.969 125.357C472.949 128.047 474.017 131.3 474.016 134.641H413.02C413.767 131.133 415.697 127.987 418.485 125.731C421.273 123.474 424.751 122.243 428.338 122.242Z" fill="#F2F2F2"/>
<path d="M336.572 171.59C340.127 171.586 343.564 172.867 346.25 175.196C348.371 174.617 350.596 174.519 352.761 174.91C354.553 172.309 357.129 170.35 360.114 169.318C363.099 168.286 366.336 168.236 369.351 169.174C372.367 170.113 375.003 171.991 376.875 174.535C378.747 177.078 379.757 180.154 379.757 183.312H322.09C322.797 179.995 324.621 177.022 327.257 174.888C329.893 172.755 333.181 171.591 336.572 171.59Z" fill="#E2E2E2"/>
<path d="M198.824 90.1982C202.523 90.1939 206.099 91.5263 208.893 93.95C211.101 93.347 213.416 93.2453 215.668 93.6523C217.532 90.9465 220.213 88.9079 223.319 87.8343C226.424 86.7606 229.792 86.7082 232.929 87.6846C236.067 88.6611 238.81 90.6153 240.758 93.2617C242.706 95.9081 243.756 99.108 243.756 102.394H183.756C184.492 98.9433 186.389 95.8495 189.132 93.6298C191.874 91.41 195.296 90.1987 198.824 90.1982Z" fill="#F2F2F2"/>
<path d="M594.998 245.186V370.091H643.572V243.451L632.296 243.853V218.296H624.118L622.77 161.692C626.07 159.542 628.393 154.434 628.393 148.47C628.397 146.758 628.197 145.052 627.799 143.386C629.361 141.696 630.318 139.536 630.521 137.244C630.724 134.951 630.16 132.656 628.919 130.719C629.957 131.625 631.165 132.317 632.472 132.754C633.78 133.19 635.161 133.362 636.535 133.261C637.91 133.159 639.25 132.786 640.479 132.162C641.708 131.538 642.801 130.676 643.694 129.626C644.587 128.576 645.263 127.36 645.682 126.047C646.101 124.734 646.255 123.351 646.136 121.977C646.016 120.604 645.625 119.269 644.984 118.048C644.344 116.828 643.468 115.746 642.407 114.867C644.191 114.208 645.762 113.073 646.946 111.585C648.131 110.097 648.886 108.312 649.128 106.426C649.37 104.539 649.09 102.622 648.319 100.882C647.548 99.1434 646.316 97.6487 644.755 96.561C643.194 95.4733 641.365 94.834 639.467 94.7126C637.568 94.5913 635.673 94.9925 633.987 95.8726C632.3 96.7528 630.887 98.0782 629.901 99.705C628.915 101.332 628.393 103.198 628.393 105.1C628.393 105.253 628.398 105.404 628.404 105.554C626.975 105.118 625.469 104.994 623.987 105.191C622.506 105.388 621.085 105.902 619.819 106.697C618.554 107.492 617.475 108.55 616.655 109.8C615.835 111.049 615.293 112.46 615.066 113.937C613.768 113.165 612.318 112.684 610.815 112.529C609.313 112.373 607.795 112.547 606.366 113.037C604.937 113.527 603.632 114.322 602.542 115.367C601.451 116.413 600.601 117.683 600.051 119.089C599.501 120.496 599.263 122.005 599.354 123.513C599.446 125.02 599.864 126.49 600.581 127.82C601.297 129.15 602.294 130.307 603.503 131.213C604.712 132.119 606.104 132.75 607.581 133.064C607.579 133.14 607.575 133.215 607.575 133.291C608.542 136.208 609.772 139.031 611.251 141.725C610.528 143.9 610.166 146.178 610.178 148.47C610.178 154.434 612.5 159.542 615.8 161.692L614.453 218.296H606.274V244.783L594.998 245.186ZM625.33 125.917L625.357 125.918C625.507 125.918 625.656 125.913 625.805 125.906C625.898 126.214 626.006 126.515 626.126 126.81C625.878 126.497 625.612 126.199 625.33 125.917Z" fill="#F2F2F2"/>
<path d="M568.255 459H715.713V288.411H568.255V459Z" fill="#3F3D56"/>
<path d="M622.105 459H661.861V424.304H622.105V459Z" fill="#E2E2E2"/>
<path d="M519.111 63.9548C519.108 64.0808 519.101 64.2057 519.101 64.3323C519.099 66.6523 519.563 68.9489 520.467 71.0857C521.37 73.2224 522.695 75.1555 524.361 76.7698C524.621 77.3248 524.911 77.8657 525.228 78.3901C524.023 82.0145 523.418 85.8118 523.438 89.6315C523.438 102.805 530.234 113.485 538.618 113.485C547.001 113.485 553.797 102.805 553.797 89.6315C553.803 86.7778 553.471 83.9335 552.808 81.158C555.411 78.3413 557.006 74.7407 557.344 70.9203C557.682 67.0998 556.743 63.2752 554.675 60.0454C556.404 61.5568 558.417 62.7096 560.596 63.4368C562.775 64.1641 565.076 64.4513 567.367 64.2818C569.658 64.1124 571.892 63.4896 573.94 62.4497C575.989 61.4098 577.81 59.9734 579.298 58.2239C580.787 56.4745 581.913 54.4468 582.612 52.2585C583.31 50.0703 583.567 47.7651 583.368 45.4768C583.168 43.1884 582.516 40.9625 581.449 38.9282C580.382 36.8939 578.922 35.0917 577.153 33.6263C580.128 32.5286 582.745 30.6368 584.72 28.1564C586.695 25.676 587.952 22.7018 588.355 19.557C588.759 16.4122 588.293 13.2169 587.008 10.3184C585.723 7.41984 583.668 4.92882 581.067 3.11592C578.466 1.30303 575.418 0.237592 572.253 0.0353407C569.089 -0.166911 565.93 0.501761 563.119 1.96872C560.309 3.43568 557.954 5.64483 556.31 8.35619C554.667 11.0675 553.797 14.1774 553.797 17.348C553.797 17.602 553.806 17.854 553.816 18.1053C551.434 17.3777 548.924 17.1712 546.455 17.4998C543.986 17.8283 541.617 18.6843 539.508 20.0096C537.399 21.3349 535.6 23.0984 534.233 25.1805C532.867 27.2625 531.964 29.6143 531.586 32.0762C529.423 30.789 527.005 29.988 524.501 29.7289C521.997 29.4698 519.467 29.7588 517.085 30.5758C514.704 31.3928 512.529 32.7182 510.712 34.4601C508.894 36.202 507.478 38.3185 506.56 40.6628C505.643 43.0071 505.247 45.523 505.399 48.0358C505.551 50.5486 506.249 52.9981 507.443 55.2143C508.637 57.4305 510.299 59.3602 512.314 60.8696C514.329 62.3789 516.648 63.4317 519.111 63.9548ZM548.737 52.0441C548.987 52.0441 549.236 52.0357 549.484 52.0252C549.639 52.538 549.818 53.0399 550.02 53.5312C549.606 53.0101 549.163 52.5132 548.692 52.043L548.737 52.0441Z" fill="#F2F2F2"/>
<path d="M529.941 232.03H547.292L546.672 206.01V206L544.401 110.59C542.66 111.654 540.658 112.218 538.616 112.218C536.575 112.218 534.573 111.654 532.832 110.59L530.562 206V206.01L529.941 232.03Z" fill="#6C63FF"/>
<path d="M498.141 250.82V459H579.092V247.93L560.301 248.6V206.01H516.931V250.15L498.141 250.82Z" fill="#6C63FF"/>
<path d="M725.841 63.9548C725.838 64.0808 725.832 64.2057 725.832 64.3323C725.829 66.6523 726.294 68.9489 727.197 71.0857C728.101 73.2224 729.425 75.1555 731.091 76.7698C731.352 77.3248 731.641 77.8657 731.959 78.3901C730.753 82.0145 730.148 85.8118 730.169 89.6315C730.169 102.805 736.965 113.485 745.348 113.485C753.732 113.485 760.528 102.805 760.528 89.6315C760.534 86.7778 760.202 83.9335 759.538 81.158C762.141 78.3413 763.737 74.7407 764.074 70.9203C764.412 67.0998 763.473 63.2752 761.405 60.0454C763.135 61.5569 765.148 62.7097 767.326 63.4369C769.505 64.1642 771.807 64.4515 774.098 64.282C776.389 64.1126 778.623 63.4898 780.671 62.4499C782.719 61.4099 784.54 59.9736 786.029 58.2241C787.517 56.4746 788.644 54.4469 789.342 52.2586C790.041 50.0704 790.298 47.7652 790.098 45.4768C789.899 43.1884 789.247 40.9625 788.18 38.9282C787.113 36.8939 785.653 35.0917 783.884 33.6263C786.858 32.5286 789.475 30.6368 791.45 28.1564C793.425 25.676 794.682 22.7018 795.086 19.557C795.489 16.4122 795.023 13.2169 793.738 10.3184C792.453 7.41984 790.399 4.92882 787.797 3.11592C785.196 1.30303 782.148 0.237593 778.984 0.0353408C775.82 -0.166911 772.661 0.501761 769.85 1.96872C767.039 3.43568 764.684 5.64483 763.041 8.35619C761.397 11.0675 760.528 14.1774 760.528 17.348C760.528 17.602 760.536 17.854 760.547 18.1053C758.165 17.3777 755.654 17.1712 753.185 17.4998C750.716 17.8283 748.347 18.6843 746.238 20.0096C744.13 21.3349 742.331 23.0984 740.964 25.1805C739.597 27.2625 738.694 29.6143 738.317 32.0762C736.153 30.789 733.736 29.988 731.231 29.7289C728.727 29.4698 726.197 29.7588 723.816 30.5758C721.435 31.3928 719.26 32.7182 717.442 34.4601C715.625 36.202 714.208 38.3185 713.291 40.6628C712.373 43.0071 711.977 45.523 712.13 48.0358C712.282 50.5486 712.979 52.9981 714.174 55.2143C715.368 57.4305 717.03 59.3602 719.045 60.8696C721.059 62.3789 723.379 63.4317 725.841 63.9548ZM755.468 52.0441C755.718 52.0441 755.966 52.0357 756.214 52.0252C756.37 52.5379 756.548 53.0399 756.75 53.5312C756.336 53.0101 755.893 52.5132 755.423 52.043L755.468 52.0441Z" fill="#F2F2F2"/>
<path d="M736.674 232.03H754.022L751.131 110.594C747.392 111.937 743.303 111.937 739.565 110.594L736.674 232.03Z" fill="#6C63FF"/>
<path d="M704.871 250.82V459H785.831V247.93L779.181 248.17L767.031 248.6V206.01H723.661V250.15L704.871 250.82Z" fill="#6C63FF"/>
<path d="M663.982 329H683.982V309H663.982V329Z" fill="white"/>
<path d="M631.982 329H651.982V309H631.982V329Z" fill="white"/>
<path d="M599.982 329H619.982V309H599.982V329Z" fill="white"/>
<path d="M663.982 361H683.982V341H663.982V361Z" fill="white"/>
<path d="M631.982 361H651.982V341H631.982V361Z" fill="white"/>
<path d="M599.982 361H619.982V341H599.982V361Z" fill="white"/>
<path d="M663.982 393H683.982V373H663.982V393Z" fill="white"/>
<path d="M631.982 393H651.982V373H631.982V393Z" fill="white"/>
<path d="M599.982 393H619.982V373H599.982V393Z" fill="white"/>
<path d="M528.617 321H548.617V301H528.617V321Z" fill="white"/>
<path d="M528.617 353H548.617V333H528.617V353Z" fill="white"/>
<path d="M528.617 385H548.617V365H528.617V385Z" fill="white"/>
<path d="M528.617 417H548.617V397H528.617V417Z" fill="white"/>
<path d="M735.182 321H755.182V301H735.182V321Z" fill="white"/>
<path d="M735.182 353H755.182V333H735.182V353Z" fill="white"/>
<path d="M735.182 385H755.182V365H735.182V385Z" fill="white"/>
<path d="M735.182 417H755.182V397H735.182V417Z" fill="white"/>
<path d="M888 458.295H0V460.295H888V458.295Z" fill="#3F3D56"/>
<path d="M444 149H98V370H444V149Z" fill="#E6E6E6"/>
<path d="M434 177H108V357H434V177Z" fill="white"/>
<path d="M444 148H98V163H444V148Z" fill="#6C63FF"/>
<path d="M108 158C109.657 158 111 156.881 111 155.5C111 154.119 109.657 153 108 153C106.343 153 105 154.119 105 155.5C105 156.881 106.343 158 108 158Z" fill="white"/>
<path d="M119 158C120.657 158 122 156.881 122 155.5C122 154.119 120.657 153 119 153C117.343 153 116 154.119 116 155.5C116 156.881 117.343 158 119 158Z" fill="white"/>
<path d="M129 158C130.657 158 132 156.881 132 155.5C132 154.119 130.657 153 129 153C127.343 153 126 154.119 126 155.5C126 156.881 127.343 158 129 158Z" fill="white"/>
<path d="M212 191H148V260H212V191Z" fill="#E6E6E6"/>
<path d="M303 191H239V260H303V191Z" fill="#E6E6E6"/>
<path d="M394 191H330V260H394V191Z" fill="#E6E6E6"/>
<path d="M212 273H148V342H212V273Z" fill="#E6E6E6"/>
<path d="M303 273H239V342H303V273Z" fill="#E6E6E6"/>
<path d="M394 273H330V342H394V273Z" fill="#E6E6E6"/>
<path d="M254.722 290.624L266.751 286L268.15 309.121C268.15 309.121 270.668 316.193 269.829 318.913C269.829 318.913 270.388 323.537 268.989 323.809C267.59 324.081 263.673 324.625 263.396 324.353C263.119 324.081 263.116 323.265 263.116 323.265C263.116 323.265 260.318 325.169 260.039 327.345C260.039 327.345 248.289 330.881 248.009 327.617C247.73 324.352 253.884 321.632 253.884 321.632L258.64 314.56L254.722 290.624Z" fill="white"/>
<path d="M279.418 290.624L290.899 286L292.234 309.121C292.234 309.121 294.637 316.193 293.837 318.913C293.837 318.913 294.37 323.537 293.035 323.809C291.7 324.081 287.96 324.625 287.696 324.353C287.432 324.081 287.429 323.265 287.429 323.265C287.429 323.265 284.759 325.169 284.492 327.345C284.492 327.345 273.276 330.881 273.009 327.617C272.742 324.352 278.616 321.632 278.616 321.632L283.156 314.56L279.418 290.624Z" fill="white"/>
<path d="M280.432 201.924C280.432 201.924 277.923 208.865 280.831 211.995L278.407 220.24C278.407 220.24 287.018 245.814 284.558 249.386C284.558 249.386 275.373 253.933 257 247.762L264.463 219.103L263.397 207.006L264.873 201.322L268.153 201C268.153 201 266.185 208.307 269.794 209.444C273.402 210.581 276.923 201.183 276.923 201.183L280.432 201.924Z" fill="#3F3D56"/>
<path d="M166 247.286L169.081 248.572L183.785 228.857L188.407 252L191.487 251.429C193.464 231.476 195.077 211.126 193.098 201.5L181.685 201L176.503 217.859L173.982 229.288L166 247.286Z" fill="white"/>
<path d="M355.945 201C355.945 201 351.805 206.925 352.007 209.316C352.209 211.707 354.835 250.688 354.835 250.688L360.994 251L359.175 222.933L360.69 215.345L364.426 250.688L372 250.896L365.235 205.054L363.922 201.001L355.945 201Z" fill="white"/>
<path d="M379.854 296.364C378.723 294.996 376.778 294.256 374.91 293.856C374.964 293.685 369.23 292.49 369.132 292.736L366.971 291L360.328 294.477L356.595 291.915L354.861 292.535C354.932 292.227 349.479 293.179 349.479 293.179C348.437 293.217 347.107 293.283 345.617 293.398C340.402 293.803 340 307.42 340 307.42C342.4 306.43 344.958 305.89 347.55 305.826L348.96 322.112C356.21 321.486 363.815 322.215 371.697 324L375.393 311.197L384 307.823C384 307.823 382.529 299.599 379.854 296.364Z" fill="#3F3D56"/>
<path d="M194.609 288.455C193.683 287.319 192.092 286.704 190.563 286.372C190.609 286.229 185.916 285.237 185.835 285.442L184.066 284L178.632 286.888L175.578 284.761L174.159 285.276C174.217 285.02 169.755 285.81 169.755 285.81C168.905 285.842 167.814 285.896 166.596 285.993C162.328 286.329 162 297.639 162 297.639C163.964 296.817 166.057 296.368 168.178 296.315L169.331 329.432C175.264 328.911 181.486 329.517 187.933 331L190.957 300.777L198 297.975C198 297.975 196.797 291.144 194.609 288.455Z" fill="white"/>
<path d="M222 382.687L221.058 427.626L192.076 443L139.296 433.539L138 386.826L171.459 375L222 382.687Z" fill="white"/>
<path d="M192.017 443L221.054 427.641L222 382.657L171.509 375L171.402 375.038L138 386.81L139.301 433.578L192.017 443ZM220.15 427.083L191.867 442.043L140.196 432.807L138.934 387.452L171.598 375.94L221.068 383.442L220.15 427.083Z" fill="#CACACA"/>
<path d="M192.634 395L192.747 394.954L222 382.889L221.659 382L192.519 394.017L138.126 386.236L138 387.184L192.634 395Z" fill="#CACACA"/>
<path d="M191.91 394.46L192.83 394.472L192.245 442.607L191.324 442.595L191.91 394.46Z" fill="#CACACA"/>
<path d="M198.976 392L207 388.58L156.023 380L148 383.42L198.976 392Z" fill="#CACACA"/>
<path d="M221.349 395.782L221.713 396.627L209.521 401.876L209.157 401.031L221.349 395.782Z" fill="#CACACA"/>
<path d="M215.828 410.964L216.191 411.81L203.999 417.059L203.635 416.214L215.828 410.964Z" fill="#6C63FF"/>
<path d="M171 388.817L169.923 440.365L136.801 458L76.4809 447.148L75 393.565L113.238 380L171 388.817Z" fill="#FFC163"/>
<path d="M137.019 459L170.896 441.156L172 388.896L113.094 380L112.969 380.044L74 393.72L75.518 448.054L137.019 459ZM169.842 440.508L136.845 457.888L76.5614 447.158L75.0893 394.467L113.198 381.092L170.913 389.808L169.842 440.508Z" fill="#3F3D56"/>
<path d="M137.739 403L137.87 402.946L172 389.027L171.602 388L137.605 401.866L74.1472 392.887L74 393.982L137.739 403Z" fill="#3F3D56"/>
<path d="M137.092 402.426L138.16 402.439L137.48 458.316L136.412 458.303L137.092 402.426Z" fill="#3F3D56"/>
<path d="M144.288 399L154 395.278L95.7128 386L86 389.722L144.288 399Z" fill="#3F3D56"/>
<path d="M171.269 403.96L171.691 404.941L157.538 411.035L157.116 410.054L171.269 403.96Z" fill="#3F3D56"/>
<path d="M164.859 421.585L165.281 422.566L151.128 428.659L150.706 427.678L164.859 421.585Z" fill="white"/>
</g>
<defs>
<clipPath id="clip0_597_142">
<rect width="888" height="460.526" fill="white"/>
</clipPath>
</defs>
</svg>
