<svg width="616" height="497" viewBox="0 0 616 497" fill="none" xmlns="http://www.w3.org/2000/svg">
<g clip-path="url(#clip0_585_56)">
<path d="M324.648 460.435C271.347 460.435 221.049 443.687 179.193 412L180.47 410.426C221.958 441.833 271.814 458.435 324.648 458.435C377.523 458.435 427.41 441.81 468.916 410.358L470.193 411.932C428.32 443.663 377.991 460.435 324.648 460.435Z" fill="#3F3D56"/>
<path d="M561.551 392.516C563.617 392.645 564.759 390.078 563.196 388.582L563.04 387.964C563.061 387.915 563.081 387.865 563.102 387.816C565.191 382.834 572.272 382.868 574.343 387.858C576.182 392.286 578.523 396.722 579.099 401.404C579.357 403.47 579.241 405.576 578.783 407.604C583.091 398.193 585.358 387.917 585.358 377.583C585.358 374.987 585.216 372.39 584.925 369.8C584.686 367.682 584.357 365.576 583.93 363.49C581.625 352.213 576.632 341.472 569.43 332.5C565.968 330.608 563.081 327.65 561.337 324.104C560.711 322.825 560.22 321.449 559.987 320.048C560.381 320.099 561.473 314.099 561.176 313.731C561.725 312.898 562.707 312.484 563.307 311.671C566.289 307.627 570.398 308.333 572.543 313.828C577.126 316.14 577.17 319.976 574.358 323.665C572.569 326.011 572.324 329.187 570.754 331.699C570.916 331.906 571.084 332.106 571.245 332.313C574.206 336.111 576.767 340.193 578.926 344.482C578.316 339.715 579.217 333.973 580.753 330.272C582.501 326.055 585.777 322.503 588.663 318.857C592.129 314.478 599.236 316.389 599.847 321.94C599.853 321.994 599.859 322.048 599.864 322.102C599.436 322.343 599.016 322.6 598.606 322.872C596.266 324.419 597.075 328.045 599.847 328.473L599.91 328.483C599.755 330.027 599.49 331.557 599.102 333.062C602.804 347.378 594.812 352.592 583.401 352.826C583.149 352.956 582.903 353.085 582.651 353.208C583.808 356.463 584.731 359.802 585.416 363.186C586.029 366.177 586.456 369.2 586.695 372.235C586.992 376.065 586.966 379.915 586.643 383.739L586.662 383.603C587.483 379.392 589.769 375.458 593.089 372.733C598.035 368.67 605.022 367.174 610.357 363.908C612.926 362.336 616.217 364.368 615.768 367.345L615.747 367.488C614.952 367.811 614.177 368.186 613.428 368.605C612.999 368.847 612.579 369.104 612.169 369.375C609.83 370.923 610.638 374.549 613.41 374.977L613.473 374.987C613.518 374.993 613.557 375 613.602 375.006C612.239 378.242 610.341 381.245 607.964 383.835C605.649 396.333 595.708 397.518 585.074 393.879H585.067C583.904 398.943 582.206 403.89 580.023 408.605H562.003C561.938 408.405 561.88 408.198 561.822 407.998C563.488 408.101 565.167 408.004 566.808 407.701C565.471 406.06 564.134 404.407 562.797 402.766C562.765 402.734 562.739 402.702 562.713 402.669C562.035 401.83 561.35 400.997 560.672 400.157L560.672 400.156C560.629 397.578 560.939 395.009 561.551 392.516Z" fill="#F2F2F2"/>
<path d="M54.2999 392.516C52.234 392.645 51.0922 390.078 52.6552 388.582L52.8107 387.964C52.7902 387.915 52.7697 387.865 52.7489 387.816C50.6597 382.834 43.579 382.868 41.5075 387.858C39.6689 392.286 37.3281 396.722 36.7518 401.404C36.4934 403.47 36.6096 405.576 37.0682 407.604C32.7602 398.193 30.4931 387.917 30.4931 377.583C30.4931 374.987 30.6352 372.39 30.9258 369.8C31.1648 367.682 31.4942 365.576 31.9205 363.49C34.2263 352.213 39.2191 341.472 46.4207 332.5C49.8826 330.608 52.7697 327.65 54.5136 324.104C55.1401 322.825 55.631 321.449 55.8635 320.048C55.4695 320.099 54.378 314.099 54.6751 313.731C54.126 312.898 53.1433 312.484 52.5437 311.671C49.5614 307.627 45.4525 308.333 43.3075 313.828C38.7252 316.14 38.6809 319.976 41.4925 323.665C43.2813 326.011 43.5271 329.187 45.0966 331.699C44.9351 331.906 44.7671 332.106 44.6057 332.313C41.6446 336.111 39.0836 340.193 36.9246 344.482C37.5348 339.715 36.634 333.973 35.0982 330.272C33.35 326.055 30.0733 322.503 27.1878 318.857C23.7218 314.478 16.6144 316.389 16.0038 321.94C15.9979 321.994 15.9921 322.048 15.9865 322.102C16.4151 322.343 16.835 322.6 17.2451 322.872C19.5846 324.419 18.7761 328.045 16.004 328.473L15.9413 328.483C16.0963 330.027 16.3611 331.557 16.7486 333.062C13.0468 347.378 21.0387 352.592 32.4501 352.826C32.702 352.956 32.9475 353.085 33.1994 353.208C32.0432 356.463 31.1195 359.802 30.435 363.186C29.8214 366.177 29.395 369.2 29.1561 372.235C28.859 376.065 28.8848 379.915 29.2078 383.739L29.1884 383.603C28.3682 379.392 26.0817 375.458 22.7618 372.733C17.8162 368.67 10.829 367.174 5.49354 363.908C2.92521 362.336 -0.36591 364.368 0.0823301 367.345L0.10415 367.488C0.89858 367.811 1.67362 368.186 2.42286 368.605C2.85146 368.847 3.27134 369.104 3.6815 369.375C6.02099 370.923 5.21246 374.549 2.44043 374.977L2.37761 374.987C2.33241 374.993 2.29364 375 2.2485 375.006C3.61132 378.242 5.51018 381.245 7.88704 383.835C10.2017 396.333 20.1431 397.518 30.7773 393.879H30.7837C31.9463 398.943 33.645 403.89 35.8281 408.605H53.8483C53.913 408.405 53.9711 408.198 54.0292 407.998C52.3628 408.101 50.6835 408.004 49.0429 407.701C50.3799 406.06 51.7169 404.407 53.0539 402.766C53.0862 402.734 53.1121 402.702 53.1379 402.669C53.816 401.83 54.5007 400.997 55.1789 400.157L55.1792 400.156C55.2217 397.578 54.9121 395.009 54.2999 392.516Z" fill="#F2F2F2"/>
<path d="M179.049 410.481L177.751 412C127.068 368.857 98 306.008 98 239.568C98 179.048 121.612 122.151 164.485 79.3588C207.359 36.5669 264.364 13 325 13C385.636 13 442.641 36.5669 485.515 79.3588C528.388 122.151 552 179.048 552 239.568C552 306.008 522.932 368.857 472.249 412L470.951 410.481" fill="#F2F2F2"/>
<path d="M472.429 410.552L471.131 409.031C521.368 366.186 550.18 303.771 550.18 237.792C550.18 113.726 449.245 12.7915 325.18 12.7915C201.114 12.7915 100.18 113.726 100.18 237.792C100.18 303.771 128.992 366.186 179.229 409.031L177.931 410.552C127.248 367.327 98.1797 304.358 98.1797 237.792C98.1797 177.156 121.792 120.151 164.665 77.2769C207.539 34.4033 264.544 10.7915 325.18 10.7915C385.815 10.7915 442.82 34.4033 485.694 77.2769C528.568 120.151 552.18 177.156 552.18 237.792C552.18 304.358 523.111 367.327 472.429 410.552Z" fill="#3F3D56"/>
<path d="M395 410.152C395 410.812 395.53 411.342 396.19 411.342H614.48C615.14 411.342 615.67 410.812 615.67 410.152C615.67 409.492 615.14 408.962 614.48 408.962H396.19C395.53 408.962 395 409.492 395 410.152Z" fill="#CCCCCC"/>
<path d="M326.18 11.7915H324.18V81.1934H326.18V11.7915Z" fill="#3F3D56"/>
<path d="M169.88 234.493H100.479V236.493H169.88V234.493Z" fill="#3F3D56"/>
<path d="M177.014 66.976L175.464 68.2407L219.345 122.009L220.894 120.744L177.014 66.976Z" fill="#3F3D56"/>
<path d="M196.426 327.77L142.668 371.665L143.933 373.214L197.691 329.319L196.426 327.77Z" fill="#3F3D56"/>
<path d="M549.88 234.493H480.479V236.493H549.88V234.493Z" fill="#3F3D56"/>
<path d="M473.343 66.9747L429.466 120.746L431.016 122.01L474.893 68.2393L473.343 66.9747Z" fill="#3F3D56"/>
<path d="M453.927 327.777L452.663 329.326L506.432 373.208L507.696 371.658L453.927 327.777Z" fill="#3F3D56"/>
<path d="M325.18 258.792C340.644 258.792 353.18 246.255 353.18 230.792C353.18 215.328 340.644 202.792 325.18 202.792C309.716 202.792 297.18 215.328 297.18 230.792C297.18 246.255 309.716 258.792 325.18 258.792Z" fill="#3F3D56"/>
<path d="M454.18 337.792C459.703 337.792 464.18 333.314 464.18 327.792C464.18 322.269 459.703 317.792 454.18 317.792C448.657 317.792 444.18 322.269 444.18 327.792C444.18 333.314 448.657 337.792 454.18 337.792Z" fill="#3F3D56"/>
<path d="M476.18 247.792C481.703 247.792 486.18 243.314 486.18 237.792C486.18 232.269 481.703 227.792 476.18 227.792C470.657 227.792 466.18 232.269 466.18 237.792C466.18 243.314 470.657 247.792 476.18 247.792Z" fill="#3F3D56"/>
<path d="M428.18 131.792C433.703 131.792 438.18 127.314 438.18 121.792C438.18 116.269 433.703 111.792 428.18 111.792C422.657 111.792 418.18 116.269 418.18 121.792C418.18 127.314 422.657 131.792 428.18 131.792Z" fill="#3F3D56"/>
<path d="M324.18 93.7915C329.703 93.7915 334.18 89.3144 334.18 83.7915C334.18 78.2687 329.703 73.7915 324.18 73.7915C318.657 73.7915 314.18 78.2687 314.18 83.7915C314.18 89.3144 318.657 93.7915 324.18 93.7915Z" fill="#3F3D56"/>
<path d="M221.18 131.792C226.703 131.792 231.18 127.314 231.18 121.792C231.18 116.269 226.703 111.792 221.18 111.792C215.657 111.792 211.18 116.269 211.18 121.792C211.18 127.314 215.657 131.792 221.18 131.792Z" fill="#3F3D56"/>
<path d="M170.18 244.792C175.703 244.792 180.18 240.314 180.18 234.792C180.18 229.269 175.703 224.792 170.18 224.792C164.657 224.792 160.18 229.269 160.18 234.792C160.18 240.314 164.657 244.792 170.18 244.792Z" fill="#3F3D56"/>
<path d="M198.18 336.792C203.703 336.792 208.18 332.314 208.18 326.792C208.18 321.269 203.703 316.792 198.18 316.792C192.657 316.792 188.18 321.269 188.18 326.792C188.18 332.314 192.657 336.792 198.18 336.792Z" fill="#3F3D56"/>
<path d="M270.24 242.834C275.763 242.834 280.24 238.357 280.24 232.834C280.24 227.311 275.763 222.834 270.24 222.834C264.717 222.834 260.24 227.311 260.24 232.834C260.24 238.357 264.717 242.834 270.24 242.834Z" fill="#3F3D56"/>
<path d="M501.027 215.544L277.235 225.181C273.372 225.348 270.376 228.614 270.542 232.476L270.542 232.476C270.709 236.338 273.975 239.335 277.837 239.168L501.63 229.531C505.492 229.364 508.488 226.099 508.322 222.236C508.156 218.374 504.89 215.377 501.027 215.544Z" fill="#FFC163"/>
<path d="M402.068 487.721L390.406 487.719L384.857 442.733L402.071 442.735L402.068 487.721Z" fill="#A0616A"/>
<path d="M362.109 487.456C361.746 488.068 361.555 490.042 361.555 490.753C361.555 492.939 363.327 494.711 365.513 494.711H401.632C403.123 494.711 404.332 493.502 404.332 492.011V490.507C404.332 490.507 406.119 485.988 402.44 480.417C402.44 480.417 397.868 484.779 391.037 477.947L389.022 474.297L374.439 484.963L366.355 485.958C364.587 486.175 363.019 485.924 362.109 487.456Z" fill="#2F2E41"/>
<path d="M463.482 487.721L451.819 487.719L446.271 442.733L463.484 442.735L463.482 487.721Z" fill="#A0616A"/>
<path d="M423.523 487.456C423.159 488.068 422.968 490.042 422.968 490.753C422.968 492.939 424.74 494.711 426.926 494.711H463.045C464.536 494.711 465.745 493.502 465.745 492.011V490.507C465.745 490.507 467.532 485.988 463.853 480.417C463.853 480.417 459.281 484.779 452.45 477.947L450.435 474.297L435.852 484.963L427.769 485.958C426 486.175 424.432 485.924 423.523 487.456Z" fill="#2F2E41"/>
<path d="M490.594 125.591L491.829 178.425L480.394 225.977L469.748 222.439L472.849 179.12L470.121 120.749L490.594 125.591Z" fill="#A0616A"/>
<path d="M480.623 233.569C481.611 226.756 479.131 220.757 475.085 220.17C471.04 219.584 466.96 224.633 465.972 231.447C464.985 238.26 467.464 244.259 471.51 244.846C475.556 245.432 479.636 240.383 480.623 233.569Z" fill="#A0616A"/>
<path d="M463.681 77.7944C463.681 77.7944 483.302 77.7499 486.615 89.2471C490.061 101.202 495.557 145.789 493.18 145.791L468.683 148.887L463.681 77.7944Z" fill="#6C63FF"/>
<path d="M387.854 131.222L377.041 182.952L355.093 226.659L345.53 220.793L358.401 179.314L375.018 121.851L387.854 131.222Z" fill="#A0616A"/>
<path d="M353.591 234.104C356.101 227.694 355.051 221.288 351.245 219.797C347.438 218.306 342.317 222.295 339.806 228.706C337.295 235.116 338.345 241.522 342.152 243.013C345.958 244.504 351.08 240.515 353.591 234.104Z" fill="#A0616A"/>
<path d="M384.358 79.9219C384.358 79.9219 395.087 84.7068 398.087 96.2897C400.816 106.826 407.564 153.191 387.739 151.014L362.739 149.014C362.561 124.407 373.184 101.205 384.358 79.9219Z" fill="#6C63FF"/>
<path d="M381.18 230.791L377.18 266.791L379.18 367.949L383.18 462.791H404.337L428.18 289.791L443.644 462.791H468.211L475.18 345.791C475.18 345.791 480.18 236.791 471.18 227.791C462.18 218.791 381.18 230.791 381.18 230.791Z" fill="#2F2E41"/>
<path d="M447.68 59.2915H414.92L407.68 69.2915C407.68 69.2915 393.68 71.2915 384.68 80.2915L383.68 176.292L377.18 239.067L475.172 236.292L469.18 201.792L473.172 80.7049C473.172 80.7049 462.68 68.2915 455.68 70.2915L447.68 59.2915Z" fill="#6C63FF"/>
<path d="M422.985 53.945C436.522 53.945 447.497 42.9706 447.497 29.4329C447.497 15.8953 436.522 4.9209 422.985 4.9209C409.447 4.9209 398.473 15.8953 398.473 29.4329C398.473 42.9706 409.447 53.945 422.985 53.945Z" fill="#A0616A"/>
<path d="M444.045 6.60771C441.302 4.19269 437.539 2.80241 433.948 3.04881C431.772 3.19815 429.658 2.51369 427.726 1.5007C427.595 1.43212 427.462 1.36968 427.326 1.31373C426.108 0.81029 424.754 0.75388 423.436 0.78582C421.034 0.84407 418.193 -1.56486 416.313 1.77589C409.193 0.43515 408.536 4.57227 405.223 7.01016C404.285 6.45644 398.213 7.46517 397.573 8.46144C397.087 9.22013 396.748 9.99309 396.519 10.7437C396.372 11.2251 397.261 12.9818 397.193 13.4351C397.126 13.8885 396.103 13.0386 396.094 13.4446C396.072 14.5312 396.223 15.4132 396.351 15.9051C396.676 17.1605 393.342 15.5522 392.248 16.2488C391.154 16.9455 392.27 20.1689 391.2 20.902C389.923 21.7766 390.769 22.7433 391.881 23.8864C392.648 24.6743 393.542 25.5458 393.955 26.5287C394.969 28.938 389.398 31.0728 391.962 30.5638C394.608 30.0383 395.471 34.157 397.698 32.6333C402.734 29.1864 402.552 29.4693 406.948 33.703C408.168 34.8786 410.566 30.2749 412.18 30.7915C415.221 31.7651 417.706 35.0281 419.714 39.9604C419.998 40.6585 417.304 52.0481 417.18 52.7915C416.891 54.5234 424.955 50.6154 424.934 52.5045C424.906 54.9975 429.337 51.855 430.613 54.0401C430.773 53.841 439.763 49.7527 440.193 49.4351L446.422 43.4146C450.505 36.4273 452.064 28.0001 450.751 20.0145C449.924 14.9849 447.87 9.97649 444.045 6.60771Z" fill="#2F2E41"/>
<path d="M324 495.152C324 495.812 324.53 496.342 325.19 496.342H543.48C544.14 496.342 544.67 495.812 544.67 495.152C544.67 494.492 544.14 493.962 543.48 493.962H325.19C324.53 493.962 324 494.492 324 495.152Z" fill="#CCCCCC"/>
<path d="M0 410.152C0 410.812 0.53003 411.342 1.19006 411.342H219.48C220.14 411.342 220.67 410.812 220.67 410.152C220.67 409.492 220.14 408.962 219.48 408.962H1.19006C0.53003 408.962 0 409.492 0 410.152Z" fill="#CCCCCC"/>
</g>
<defs>
<clipPath id="clip0_585_56">
<rect width="615.81" height="496.342" fill="white"/>
</clipPath>
</defs>
</svg>
