<svg width="831" height="730" viewBox="0 0 831 730" fill="none" xmlns="http://www.w3.org/2000/svg">
<g clip-path="url(#clip0_558_2)">
<path d="M723.977 703.571V631.231C723.977 631.231 752.168 682.517 723.977 703.571Z" fill="#F1F1F1"/>
<path d="M725.717 703.559L672.428 654.638C672.428 654.638 729.273 668.553 725.717 703.559Z" fill="#F1F1F1"/>
<path d="M106.459 703.571V631.231C106.459 631.231 78.2677 682.517 106.459 703.571Z" fill="#F1F1F1"/>
<path d="M104.718 703.559L158.007 654.638C158.007 654.638 101.162 668.553 104.718 703.559Z" fill="#F1F1F1"/>
<path d="M590.756 167.048H586.893V61.2393C586.893 53.1973 585.309 45.234 582.232 37.8041C579.154 30.3742 574.643 23.6232 568.957 17.9366C563.27 12.25 556.519 7.73915 549.089 4.66158C541.659 1.58401 533.696 6.56623e-06 525.654 1.38002e-10H301.484C293.441 -1.70717e-05 285.478 1.58397 278.048 4.66151C270.618 7.73906 263.867 12.2499 258.181 17.9365C252.494 23.6231 247.983 30.374 244.906 37.8039C241.828 45.2338 240.244 53.1971 240.244 61.2392V641.715C240.244 657.957 246.696 673.533 258.181 685.018C269.665 696.502 285.242 702.954 301.483 702.954H525.654C541.895 702.954 557.472 696.502 568.957 685.018C580.441 673.533 586.893 657.957 586.893 641.715V242.365H590.756V167.048Z" fill="#3F3D56"/>
<path d="M528.125 15.9324H498.864C500.209 19.2315 500.723 22.811 500.359 26.3554C499.996 29.8998 498.766 33.3005 496.779 36.2577C494.791 39.215 492.107 41.6381 488.963 43.3136C485.818 44.9891 482.31 45.8656 478.747 45.8659H350.323C346.76 45.8656 343.251 44.9891 340.107 43.3136C336.962 41.6381 334.278 39.215 332.291 36.2577C330.303 33.3005 329.074 29.8998 328.71 26.3554C328.347 22.811 328.86 19.2315 330.206 15.9324H302.875C290.746 15.9324 279.114 20.7506 270.537 29.3272C261.961 37.9037 257.143 49.536 257.143 61.6651V641.289C257.143 647.295 258.325 653.242 260.624 658.79C262.922 664.339 266.291 669.381 270.537 673.627C274.784 677.874 279.826 681.243 285.374 683.541C290.923 685.839 296.87 687.022 302.875 687.022H528.125C534.131 687.022 540.078 685.839 545.627 683.541C551.175 681.243 556.217 677.874 560.463 673.627C564.71 669.381 568.079 664.339 570.377 658.791C572.675 653.242 573.858 647.295 573.858 641.289V61.6652C573.858 55.6595 572.675 49.7125 570.377 44.164C568.079 38.6154 564.71 33.5739 560.463 29.3272C556.217 25.0805 551.175 21.7119 545.627 19.4136C540.078 17.1153 534.131 15.9324 528.125 15.9324Z" fill="white"/>
<path d="M522.482 677.07H308.517C283.932 677.07 263.931 659.217 263.931 637.274V608.463C263.931 590.974 279.86 576.745 299.439 576.745H531.561C551.14 576.745 567.069 590.974 567.069 608.463V637.274C567.069 659.217 547.068 677.07 522.482 677.07Z" fill="#E5E5E5"/>
<path d="M331.009 192.845H283.281C282.427 192.844 281.607 192.504 281.002 191.899C280.398 191.295 280.058 190.475 280.057 189.62V141.893C280.058 141.038 280.398 140.218 281.002 139.613C281.607 139.009 282.427 138.669 283.281 138.668H331.009C331.864 138.669 332.684 139.009 333.288 139.613C333.893 140.218 334.233 141.038 334.234 141.893V189.62C334.233 190.475 333.893 191.295 333.288 191.899C332.684 192.504 331.864 192.844 331.009 192.845Z" fill="#FFC163"/>
<path d="M403.245 192.845H355.518C354.663 192.844 353.843 192.504 353.239 191.899C352.634 191.295 352.294 190.475 352.293 189.62V141.893C352.294 141.038 352.634 140.218 353.239 139.613C353.843 139.009 354.663 138.669 355.518 138.668H403.245C404.1 138.669 404.92 139.009 405.524 139.613C406.129 140.218 406.469 141.038 406.47 141.893V189.62C406.469 190.475 406.129 191.295 405.524 191.899C404.92 192.504 404.1 192.844 403.245 192.845Z" fill="#E5E5E5"/>
<path d="M475.482 192.845H427.754C426.899 192.844 426.079 192.504 425.475 191.899C424.87 191.295 424.53 190.475 424.529 189.62V141.893C424.53 141.038 424.87 140.218 425.475 139.613C426.079 139.009 426.899 138.669 427.754 138.668H475.482C476.337 138.669 477.156 139.009 477.761 139.613C478.365 140.218 478.705 141.038 478.706 141.893V189.62C478.705 190.475 478.365 191.295 477.761 191.899C477.156 192.504 476.337 192.844 475.482 192.845Z" fill="#E5E5E5"/>
<path d="M547.718 192.845H499.99C499.136 192.844 498.316 192.504 497.711 191.899C497.107 191.295 496.767 190.475 496.766 189.62V141.893C496.767 141.038 497.107 140.218 497.711 139.613C498.316 139.009 499.136 138.669 499.99 138.668H547.718C548.573 138.669 549.393 139.009 549.997 139.613C550.602 140.218 550.942 141.038 550.943 141.893V189.62C550.942 190.475 550.602 191.295 549.997 191.899C549.393 192.504 548.573 192.844 547.718 192.845Z" fill="#E5E5E5"/>
<path d="M330.839 281.205H283.112C282.257 281.204 281.437 280.864 280.832 280.26C280.228 279.655 279.888 278.835 279.887 277.98V230.253C279.888 229.398 280.228 228.578 280.832 227.974C281.437 227.369 282.257 227.029 283.112 227.028H330.839C331.694 227.029 332.514 227.369 333.118 227.974C333.723 228.578 334.063 229.398 334.064 230.253V277.98C334.063 278.835 333.723 279.655 333.118 280.26C332.514 280.864 331.694 281.204 330.839 281.205Z" fill="#E5E5E5"/>
<path d="M403.075 281.205H355.348C354.493 281.204 353.673 280.864 353.069 280.26C352.464 279.655 352.124 278.835 352.123 277.98V230.253C352.124 229.398 352.464 228.578 353.069 227.974C353.673 227.369 354.493 227.029 355.348 227.028H403.075C403.93 227.029 404.75 227.369 405.355 227.974C405.959 228.578 406.299 229.398 406.3 230.253V277.98C406.299 278.835 405.959 279.655 405.355 280.26C404.75 280.864 403.93 281.204 403.075 281.205Z" fill="#E5E5E5"/>
<path d="M475.311 281.205H427.583C426.728 281.204 425.909 280.864 425.304 280.26C424.699 279.655 424.359 278.835 424.358 277.98V230.253C424.359 229.398 424.699 228.578 425.304 227.974C425.909 227.369 426.728 227.029 427.583 227.028H475.311C476.166 227.029 476.985 227.369 477.59 227.974C478.194 228.578 478.535 229.398 478.536 230.253V277.98C478.535 278.835 478.194 279.655 477.59 280.26C476.985 280.864 476.166 281.204 475.311 281.205Z" fill="#FCF75E"/>
<path d="M547.547 281.205H499.82C498.965 281.204 498.145 280.864 497.54 280.26C496.936 279.655 496.596 278.835 496.595 277.98V230.253C496.596 229.398 496.936 228.578 497.54 227.974C498.145 227.369 498.965 227.029 499.82 227.028H547.547C548.402 227.029 549.222 227.369 549.826 227.974C550.431 228.578 550.771 229.398 550.772 230.253V277.98C550.771 278.835 550.431 279.655 549.826 280.26C549.222 280.864 548.402 281.204 547.547 281.205Z" fill="#6C63FF"/>
<path d="M330.668 369.566H282.941C282.086 369.565 281.266 369.225 280.661 368.62C280.057 368.015 279.717 367.196 279.716 366.341V318.613C279.717 317.758 280.057 316.939 280.661 316.334C281.266 315.73 282.086 315.389 282.941 315.388H330.668C331.523 315.389 332.343 315.73 332.947 316.334C333.552 316.939 333.892 317.758 333.893 318.613V366.341C333.892 367.196 333.552 368.015 332.947 368.62C332.343 369.225 331.523 369.565 330.668 369.566Z" fill="#E5E5E5"/>
<path d="M402.904 369.566H355.177C354.322 369.565 353.502 369.225 352.898 368.62C352.293 368.015 351.953 367.196 351.952 366.341V318.613C351.953 317.758 352.293 316.939 352.898 316.334C353.502 315.73 354.322 315.389 355.177 315.388H402.904C403.759 315.389 404.579 315.73 405.184 316.334C405.788 316.939 406.128 317.758 406.129 318.613V366.341C406.128 367.196 405.788 368.015 405.184 368.62C404.579 369.225 403.759 369.565 402.904 369.566Z" fill="#E5E5E5"/>
<path d="M475.141 369.566H427.413C426.558 369.565 425.739 369.225 425.134 368.62C424.53 368.015 424.189 367.196 424.188 366.341V318.613C424.189 317.758 424.53 316.939 425.134 316.334C425.739 315.73 426.558 315.389 427.413 315.388H475.141C475.996 315.389 476.815 315.73 477.42 316.334C478.025 316.939 478.365 317.758 478.366 318.613V366.341C478.365 367.196 478.025 368.015 477.42 368.62C476.815 369.225 475.996 369.565 475.141 369.566Z" fill="#E5E5E5"/>
<path d="M547.376 369.566H499.649C498.794 369.565 497.974 369.225 497.37 368.62C496.765 368.015 496.425 367.196 496.424 366.341V318.613C496.425 317.758 496.765 316.939 497.37 316.334C497.974 315.73 498.794 315.389 499.649 315.388H547.376C548.231 315.389 549.051 315.73 549.655 316.334C550.26 316.939 550.6 317.758 550.601 318.613V366.341C550.6 367.196 550.26 368.015 549.655 368.62C549.051 369.225 548.231 369.565 547.376 369.566Z" fill="#E5E5E5"/>
<path d="M330.497 457.926H282.77C281.915 457.925 281.095 457.585 280.491 456.98C279.886 456.376 279.546 455.556 279.545 454.701V406.974C279.546 406.119 279.886 405.299 280.491 404.694C281.095 404.09 281.915 403.75 282.77 403.749H330.497C331.352 403.75 332.172 404.09 332.776 404.694C333.381 405.299 333.721 406.119 333.722 406.974V454.701C333.721 455.556 333.381 456.376 332.776 456.98C332.172 457.585 331.352 457.925 330.497 457.926Z" fill="#E5E5E5"/>
<path d="M402.734 457.926H355.006C354.151 457.925 353.331 457.585 352.727 456.98C352.122 456.376 351.782 455.556 351.781 454.701V406.974C351.782 406.119 352.122 405.299 352.727 404.694C353.331 404.09 354.151 403.75 355.006 403.749H402.734C403.589 403.75 404.408 404.09 405.013 404.694C405.617 405.299 405.957 406.119 405.958 406.974V454.701C405.957 455.556 405.617 456.376 405.013 456.98C404.408 457.585 403.589 457.925 402.734 457.926Z" fill="#E5E5E5"/>
<path d="M474.97 457.926H427.242C426.387 457.925 425.568 457.585 424.963 456.98C424.359 456.376 424.019 455.556 424.018 454.701V406.974C424.019 406.119 424.359 405.299 424.963 404.694C425.568 404.09 426.387 403.75 427.242 403.749H474.97C475.825 403.75 476.645 404.09 477.249 404.694C477.854 405.299 478.194 406.119 478.195 406.974V454.701C478.194 455.556 477.854 456.376 477.249 456.98C476.645 457.585 475.825 457.925 474.97 457.926Z" fill="#E5E5E5"/>
<path d="M547.206 457.926H499.479C498.624 457.925 497.804 457.585 497.2 456.98C496.595 456.376 496.255 455.556 496.254 454.701V406.974C496.255 406.119 496.595 405.299 497.2 404.694C497.804 404.09 498.624 403.75 499.479 403.749H547.206C548.061 403.75 548.881 404.09 549.485 404.694C550.09 405.299 550.43 406.119 550.431 406.974V454.701C550.43 455.556 550.09 456.376 549.485 456.98C548.881 457.585 548.061 457.925 547.206 457.926Z" fill="#E5E5E5"/>
<path d="M331.009 655.286H283.281C282.427 655.285 281.607 654.945 281.002 654.34C280.398 653.736 280.058 652.916 280.057 652.061V604.333C280.058 603.479 280.398 602.659 281.002 602.054C281.607 601.45 282.427 601.11 283.281 601.109H331.009C331.864 601.11 332.684 601.45 333.288 602.054C333.893 602.659 334.233 603.479 334.234 604.333V652.061C334.233 652.916 333.893 653.736 333.288 654.34C332.684 654.945 331.864 655.285 331.009 655.286Z" fill="white"/>
<path d="M403.245 655.286H355.518C354.663 655.285 353.843 654.945 353.239 654.34C352.634 653.736 352.294 652.916 352.293 652.061V604.333C352.294 603.479 352.634 602.659 353.239 602.054C353.843 601.45 354.663 601.11 355.518 601.109H403.245C404.1 601.11 404.92 601.45 405.524 602.054C406.129 602.659 406.469 603.479 406.47 604.333V652.061C406.469 652.916 406.129 653.736 405.524 654.34C404.92 654.945 404.1 655.285 403.245 655.286Z" fill="white"/>
<path d="M475.482 655.286H427.754C426.899 655.285 426.079 654.945 425.475 654.34C424.87 653.736 424.53 652.916 424.529 652.061V604.333C424.53 603.479 424.87 602.659 425.475 602.054C426.079 601.45 426.899 601.11 427.754 601.109H475.482C476.337 601.11 477.156 601.45 477.761 602.054C478.365 602.659 478.705 603.479 478.706 604.333V652.061C478.705 652.916 478.365 653.736 477.761 654.34C477.156 654.945 476.337 655.285 475.482 655.286Z" fill="white"/>
<path d="M547.718 655.286H499.99C499.136 655.285 498.316 654.945 497.711 654.34C497.107 653.736 496.767 652.916 496.766 652.061V604.333C496.767 603.479 497.107 602.659 497.711 602.054C498.316 601.45 499.136 601.11 499.99 601.109H547.718C548.573 601.11 549.393 601.45 549.997 602.054C550.602 602.659 550.942 603.479 550.943 604.333V652.061C550.942 652.916 550.602 653.736 549.997 654.34C549.393 654.945 548.573 655.285 547.718 655.286Z" fill="white"/>
<path d="M392.111 554.671C395.673 554.671 398.56 551.783 398.56 548.221C398.56 544.659 395.673 541.772 392.111 541.772C388.549 541.772 385.661 544.659 385.661 548.221C385.661 551.783 388.549 554.671 392.111 554.671Z" fill="#E5E5E5"/>
<path d="M415.33 554.671C418.892 554.671 421.779 551.783 421.779 548.221C421.779 544.659 418.892 541.772 415.33 541.772C411.767 541.772 408.88 544.659 408.88 548.221C408.88 551.783 411.767 554.671 415.33 554.671Z" fill="#E5E5E5"/>
<path d="M438.548 554.671C442.11 554.671 444.998 551.783 444.998 548.221C444.998 544.659 442.11 541.772 438.548 541.772C434.986 541.772 432.099 544.659 432.099 548.221C432.099 551.783 434.986 554.671 438.548 554.671Z" fill="#E5E5E5"/>
<path d="M830 704H1C0.734784 704 0.480429 703.895 0.292892 703.707C0.105356 703.52 0 703.265 0 703C0 702.735 0.105356 702.48 0.292892 702.293C0.480429 702.105 0.734784 702 1 702H830C830.265 702 830.52 702.105 830.707 702.293C830.895 702.48 831 702.735 831 703C831 703.265 830.895 703.52 830.707 703.707C830.52 703.895 830.265 704 830 704Z" fill="#CBCBCB"/>
<path d="M326.364 507.102C327.713 505.753 328.751 504.125 329.402 502.332C330.054 500.539 330.305 498.625 330.138 496.725C329.97 494.825 329.387 492.984 328.431 491.333C327.475 489.682 326.169 488.261 324.604 487.17L337.2 442.541L314.236 449.844L305.796 491.105C304.136 493.855 303.543 497.118 304.129 500.276C304.715 503.434 306.439 506.267 308.975 508.239C311.51 510.211 314.681 511.184 317.886 510.975C321.091 510.765 324.107 509.387 326.364 507.102Z" fill="#FFB7B7"/>
<path d="M332.894 479.746C332.483 479.825 332.066 479.86 331.649 479.852L309.619 479.41C308.79 479.394 307.974 479.201 307.225 478.844C306.476 478.488 305.812 477.976 305.277 477.343C304.742 476.709 304.347 475.969 304.12 475.172C303.893 474.374 303.838 473.538 303.959 472.717L326.307 321.727C326.974 317.359 329.181 313.375 332.529 310.492C335.878 307.61 340.146 306.02 344.564 306.01C347.354 306.017 350.105 306.658 352.611 307.884C355.117 309.11 357.311 310.889 359.028 313.088C360.746 315.286 361.941 317.846 362.524 320.574C363.107 323.302 363.063 326.127 362.394 328.835L346.554 392.992L337.571 474.653C337.44 475.891 336.915 477.055 336.073 477.972C335.231 478.889 334.116 479.511 332.894 479.746Z" fill="#3F3D56"/>
<path d="M342.105 718.105H354.365L360.198 670.817L342.103 670.818L342.105 718.105Z" fill="#FFB7B7"/>
<path d="M338.979 714.103L363.122 714.102H363.124C367.204 714.102 371.118 715.723 374.003 718.608C376.889 721.494 378.51 725.407 378.51 729.488V729.988L338.979 729.989L338.979 714.103Z" fill="#2F2E41"/>
<path d="M394.382 714.123L406.565 715.489L417.632 669.146L399.65 667.13L394.382 714.123Z" fill="#FFB7B7"/>
<path d="M391.72 709.797L415.714 712.487C419.769 712.942 423.478 714.989 426.024 718.178C428.57 721.367 429.745 725.437 429.291 729.492L429.235 729.989L389.95 725.585L391.72 709.797Z" fill="#2F2E41"/>
<path d="M330.598 454.955C330.598 454.955 313.79 492.164 328.633 516.332L337.476 704.5H357.779L377.476 552.5L412.476 597.5L391.152 702.528L415.984 703.922L450.476 597.5C450.476 597.5 423.978 480.151 415.227 477.326L409.476 450.5L330.598 454.955Z" fill="#2F2E41"/>
<path d="M323.118 487.622C323.118 487.622 307.976 505 347.976 511C387.976 517 429.976 508 430.976 496C431.976 484 323.118 487.622 323.118 487.622Z" fill="#CBCBCB"/>
<path d="M523.635 272.053C523.573 273.749 523.14 275.412 522.366 276.922C521.592 278.433 520.496 279.756 519.156 280.798C517.816 281.839 516.263 282.574 514.608 282.951C512.953 283.328 511.235 283.337 509.576 282.978L494.456 304.782L478.965 298.826L500.75 268.334C501.537 265.586 503.305 263.224 505.719 261.693C508.132 260.162 511.023 259.57 513.844 260.028C516.665 260.487 519.22 261.964 521.024 264.18C522.829 266.397 523.758 269.198 523.635 272.053Z" fill="#FFB7B7"/>
<path d="M395.764 300.107L374.387 290.436L346.997 292.394C346.997 292.394 313.977 331 326.977 368L318.977 497C369.977 511 393.16 484.742 429.977 496L418.605 352.631L395.764 300.107Z" fill="#3F3D56"/>
<path d="M381.477 309.5L395.764 300.107C395.764 300.107 415.61 297.107 423.544 304.803C423.544 304.803 450.47 307.057 456.973 313.779L464.134 315.393L487.92 284.591L502.477 292.5L481.477 349.5L418.605 352.631L381.477 309.5Z" fill="#3F3D56"/>
<path d="M386.406 279.587C402.759 270.648 408.769 250.144 399.83 233.791C390.891 217.439 370.387 211.429 354.034 220.368C337.681 229.307 331.672 249.811 340.611 266.164C349.55 282.516 370.054 288.526 386.406 279.587Z" fill="#FFB7B7"/>
<path d="M341.033 223.595C347.056 212.762 354.583 205.747 366.976 206C379.369 206.253 390.089 205.763 395.665 216.834C397.139 214.075 397.877 210.982 397.808 207.855C399.491 208.948 400.818 210.51 401.625 212.348C402.432 214.186 402.683 216.22 402.347 218.199C403.432 217.564 404.339 216.667 404.987 215.59C405.635 214.513 406.002 213.29 406.055 212.034C410.191 213.411 411.266 219.239 409.173 223.063C407.081 226.887 402.976 229.098 399.038 230.967C395.1 232.836 396.918 242.722 394.347 246.242C392.552 248.698 391.731 251.709 390.522 254.5C390.471 254.611 390.385 254.701 390.277 254.756C387.504 256.302 385.754 259.064 386.244 262.201C386.302 262.436 386.288 262.684 386.204 262.911C382.694 269.524 378.905 276.443 372.543 280.389C367.437 283.472 361.322 284.417 355.524 283.02C349.02 281.465 343.398 277.153 339.344 271.835C335.29 266.517 332.682 260.233 330.722 253.839C328.984 248.168 327.72 242.104 329.098 236.335C330.476 230.565 335.145 225.223 341.06 224.777" fill="#2F2E41"/>
</g>
<defs>
<clipPath id="clip0_558_2">
<rect width="831" height="729.989" fill="white"/>
</clipPath>
</defs>
</svg>
