<svg width="710" height="559" viewBox="0 0 710 559" fill="none" xmlns="http://www.w3.org/2000/svg">
<g clip-path="url(#clip0_591_149)">
<path d="M644.137 0.365234H0.275391V412.723H644.137V0.365234Z" fill="#E6E6E6"/>
<path d="M625.725 52.085H18.6855V388.328H625.725V52.085Z" fill="white"/>
<path d="M643.862 0H0V27.3536H643.862V0Z" fill="#6C63FF"/>
<path d="M20.3276 19.0546C23.1276 19.0546 25.3974 16.7848 25.3974 13.9848C25.3974 11.1849 23.1276 8.91504 20.3276 8.91504C17.5276 8.91504 15.2578 11.1849 15.2578 13.9848C15.2578 16.7848 17.5276 19.0546 20.3276 19.0546Z" fill="white"/>
<path d="M39.5698 19.0546C42.3697 19.0546 44.6396 16.7848 44.6396 13.9848C44.6396 11.1849 42.3697 8.91504 39.5698 8.91504C36.7698 8.91504 34.5 11.1849 34.5 13.9848C34.5 16.7848 36.7698 19.0546 39.5698 19.0546Z" fill="white"/>
<path d="M58.8139 19.0546C61.6139 19.0546 63.8837 16.7848 63.8837 13.9848C63.8837 11.1849 61.6139 8.91504 58.8139 8.91504C56.014 8.91504 53.7441 11.1849 53.7441 13.9848C53.7441 16.7848 56.014 19.0546 58.8139 19.0546Z" fill="white"/>
<path d="M229.824 86.9727H73.8438V353.439H229.824V86.9727Z" fill="#E6E6E6"/>
<path d="M386.734 86.9727H256.75V160.321H386.734V86.9727Z" fill="#FFC163"/>
<path d="M386.734 180.747H256.75V259.666H386.734V180.747Z" fill="#E6E6E6"/>
<path d="M386.734 280.092H256.75V353.44H386.734V280.092Z" fill="#E6E6E6"/>
<path d="M570.568 86.9727H414.588V203.097H570.568V86.9727Z" fill="#E6E6E6"/>
<path d="M570.568 237.315H414.588V353.44H570.568V237.315Z" fill="#E6E6E6"/>
<path d="M510.479 211.44V186.44C510.479 177.555 514.008 169.034 520.29 162.752C526.573 156.469 535.094 152.94 543.979 152.94C552.863 152.94 561.384 156.469 567.667 162.752C573.949 169.034 577.479 177.555 577.479 186.44V211.44C577.477 212.633 577.003 213.777 576.159 214.62C575.315 215.464 574.172 215.939 572.979 215.94H514.979C513.785 215.939 512.642 215.464 511.798 214.62C510.954 213.777 510.48 212.633 510.479 211.44Z" fill="#2F2E41"/>
<path d="M593.515 536.786L581.699 540.056L563.463 496.038L580.902 491.212L593.515 536.786Z" fill="#FFB8B8"/>
<path d="M572.324 539.016L595.111 532.71L599.082 547.057L561.947 557.334C561.426 555.45 561.281 553.482 561.52 551.542C561.759 549.601 562.378 547.727 563.342 546.026C564.305 544.325 565.595 542.831 567.136 541.628C568.677 540.425 570.44 539.538 572.324 539.016Z" fill="#2F2E41"/>
<path d="M470.327 545.875H458.067L452.234 498.587H470.329L470.327 545.875Z" fill="#FFB8B8"/>
<path d="M449.311 542.372H472.955V557.258H434.424C434.424 555.304 434.809 553.368 435.557 551.562C436.305 549.755 437.402 548.114 438.784 546.732C440.166 545.349 441.808 544.253 443.614 543.505C445.42 542.757 447.356 542.372 449.311 542.372Z" fill="#2F2E41"/>
<path d="M455.545 281.598C456.42 282.779 457.543 283.754 458.836 284.454C460.129 285.154 461.559 285.563 463.027 285.65C464.494 285.738 465.963 285.502 467.33 284.961C468.696 284.419 469.928 283.584 470.937 282.515L503.527 297.173L500.563 278.842L470.069 267.733C468.161 266.156 465.741 265.335 463.267 265.423C460.794 265.512 458.439 266.505 456.649 268.214C454.858 269.923 453.757 272.23 453.554 274.696C453.35 277.163 454.059 279.619 455.545 281.598Z" fill="#FFB8B8"/>
<path d="M523.258 391.836C513.019 391.836 502.419 390.311 493.509 385.775C488.779 383.414 484.588 380.103 481.197 376.048C477.805 371.993 475.287 367.282 473.8 362.209C469.158 347.51 475.011 333.069 480.672 319.104C484.179 310.45 487.492 302.277 488.352 294.22L488.652 291.36C489.991 278.512 491.147 267.417 497.549 263.255C500.868 261.098 505.329 260.975 511.19 262.878L566.235 280.759L564.211 385.25L563.876 385.361C563.588 385.458 544.184 391.836 523.258 391.836Z" fill="#2F2E41"/>
<path d="M510.229 230.348C510.229 230.348 537.229 222.348 558.229 225.348C558.229 225.348 546.229 291.348 550.229 313.348C554.229 335.348 480.729 321.848 495.729 300.848L500.729 275.848C500.729 275.848 490.729 265.848 499.729 253.848L510.229 230.348Z" fill="#6C63FF"/>
<path d="M496.948 389.855L463.672 383.616L475.29 294.209C476.071 291.713 494.068 235.066 502.241 232.001C508.176 229.911 514.245 228.225 520.407 226.954L521.591 226.717L514.919 236.726L488.354 300.38L496.948 389.855Z" fill="#2F2E41"/>
<path d="M479.61 534.918L436.615 527.753L460.743 429.229L496.647 294.492L497.001 296.884C497.029 297.062 500.383 314.664 550.152 306.854L550.589 306.786L550.71 307.212L610.862 519.75L561.872 527.914L517.189 372.848L479.61 534.918Z" fill="#2F2E41"/>
<path d="M539.201 406.587L539.228 405.83C539.258 404.99 542.216 321.458 541.228 287.863C540.237 254.154 551.15 224.962 551.26 224.671L551.349 224.437L551.59 224.367C565.71 220.334 577.959 232.373 578.081 232.495L578.253 232.667L574.232 265.843L591.448 386.484L539.201 406.587Z" fill="#2F2E41"/>
<path d="M537.094 215.358C550.659 215.358 561.655 204.362 561.655 190.797C561.655 177.232 550.659 166.236 537.094 166.236C523.53 166.236 512.533 177.232 512.533 190.797C512.533 204.362 523.53 215.358 537.094 215.358Z" fill="#FFB8B8"/>
<path d="M502.553 188.44C502.561 181.414 505.355 174.678 510.323 169.71C515.291 164.742 522.027 161.948 529.053 161.94H534.053C541.079 161.948 547.815 164.742 552.782 169.71C557.75 174.678 560.545 181.414 560.553 188.44V188.94H549.986L546.382 178.848L545.661 188.94H540.2L538.382 183.848L538.018 188.94H502.553V188.44Z" fill="#2F2E41"/>
<path d="M534.678 218.751C534.182 218.08 533.885 217.281 533.823 216.449C533.761 215.616 533.935 214.783 534.325 214.044C539.624 203.966 547.043 185.344 537.195 173.86L536.488 173.035H565.075V215.955L539.106 220.537C538.843 220.583 538.576 220.607 538.309 220.607C537.6 220.607 536.901 220.439 536.27 220.116C535.639 219.794 535.093 219.326 534.678 218.751Z" fill="#2F2E41"/>
<path d="M419.58 41.5465C399.576 24.6668 375.097 13.9653 349.122 10.7442C323.147 7.52309 296.796 11.9213 273.275 23.4035C249.754 34.8858 230.077 52.957 216.639 75.4183C203.201 97.8795 196.582 123.762 197.586 149.917C198.59 176.072 207.174 201.371 222.295 222.736C237.415 244.101 258.419 260.61 282.751 270.256C307.083 279.901 333.694 282.266 359.346 277.063C384.998 271.86 408.584 259.313 427.235 240.949L592.853 380.697C595.373 382.827 598.636 383.87 601.925 383.594C605.213 383.319 608.257 381.748 610.388 379.229C612.518 376.709 613.56 373.446 613.285 370.157C613.01 366.869 611.439 363.825 608.919 361.694L608.901 361.679L443.283 221.931C462.523 194.318 470.757 160.515 466.372 127.147C461.988 93.7795 445.3 63.2517 419.58 41.5465ZM408.903 208.474C396.001 223.765 378.854 234.887 359.631 240.432C340.408 245.978 319.972 245.699 300.908 239.63C281.843 233.562 265.006 221.976 252.526 206.338C240.046 190.701 232.484 171.714 230.795 151.778C229.106 131.842 233.366 111.853 243.038 94.3392C252.709 76.825 267.357 62.5719 285.129 53.3825C302.9 44.1931 322.998 40.48 342.88 42.7127C362.762 44.9455 381.536 53.0239 396.827 65.9262C406.98 74.4931 415.346 84.9758 421.447 96.7759C427.549 108.576 431.266 121.462 432.388 134.699C433.509 147.936 432.013 161.264 427.983 173.922C423.954 186.581 417.47 198.321 408.903 208.474Z" fill="#3F3D56"/>
<path opacity="0.3" d="M266.355 220.551C246.949 204.174 234.411 181.099 231.231 155.906C228.051 130.714 234.461 105.246 249.189 84.5615C247.255 86.5094 245.385 88.5493 243.58 90.6814C235.013 100.834 228.53 112.575 224.5 125.233C220.471 137.892 218.974 151.22 220.095 164.457C221.217 177.693 224.934 190.58 231.036 202.38C237.138 214.18 245.504 224.662 255.656 233.229C265.809 241.796 277.55 248.279 290.208 252.309C302.867 256.338 316.195 257.835 329.431 256.714C342.668 255.592 355.555 251.875 367.355 245.773C379.155 239.672 389.637 231.306 398.204 221.153C400.006 219.018 401.702 216.832 403.293 214.594C385.381 232.592 361.355 243.195 335.987 244.299C310.618 245.402 285.762 236.925 266.355 220.551Z" fill="black"/>
<path d="M544.98 324.536C546.408 324.885 547.895 324.917 549.337 324.629C550.778 324.341 552.139 323.741 553.324 322.87C554.508 322 555.488 320.88 556.193 319.59C556.897 318.3 557.311 316.871 557.404 315.404L591.837 305.846L577.84 293.643L547.288 304.589C544.813 304.597 542.426 305.512 540.581 307.161C538.735 308.81 537.558 311.079 537.274 313.538C536.99 315.996 537.617 318.474 539.037 320.501C540.457 322.528 542.572 323.964 544.98 324.536Z" fill="#FFB8B8"/>
<path d="M559.293 319.477L557.197 299.571L585.96 283.702L567.207 261.001L570.267 235.502L577.887 232.236L578.124 232.541C581.717 237.161 613.229 277.822 613.229 282.848C613.229 288.011 607.201 303.171 598.953 307.295C590.997 311.273 561.122 319.005 559.854 319.332L559.293 319.477Z" fill="#2F2E41"/>
<path d="M708.533 558.594H327.533C327.268 558.594 327.014 558.488 326.826 558.301C326.639 558.113 326.533 557.859 326.533 557.594C326.533 557.329 326.639 557.074 326.826 556.887C327.014 556.699 327.268 556.594 327.533 556.594H708.533C708.798 556.594 709.053 556.699 709.24 556.887C709.428 557.074 709.533 557.329 709.533 557.594C709.533 557.859 709.428 558.113 709.24 558.301C709.053 558.488 708.798 558.594 708.533 558.594Z" fill="#CCCCCC"/>
</g>
<defs>
<clipPath id="clip0_591_149">
<rect width="709.533" height="558.594" fill="white"/>
</clipPath>
</defs>
</svg>
