<svg width="750" height="500" viewBox="0 0 750 500" fill="none" xmlns="http://www.w3.org/2000/svg">
<path d="M126.631 407.5H679.151" stroke="#100E3A" stroke-linecap="round" stroke-linejoin="round"/>
<g style="mix-blend-mode:multiply" opacity="0.1">
<path d="M637.679 425.23C637.679 429.27 622.179 432.53 603.059 432.53C583.939 432.53 568.449 429.27 568.449 425.23C568.449 421.19 583.949 417.94 603.059 417.94C622.169 417.94 637.679 421.2 637.679 425.23Z" fill="#100E3A"/>
</g>
<path d="M280.58 51.64H181.96V114.55H280.58V51.64Z" stroke="#D9D9FC" stroke-miterlimit="10"/>
<path d="M280.58 51.64H181.96V63.54H280.58V51.64Z" stroke="#D9D9FC" stroke-miterlimit="10"/>
<path d="M216.18 102.44L201.73 90.21C200.97 89.57 200.97 88.4 201.73 87.76L216.18 75.53C216.78 75.02 217.68 75.1 218.18 75.7C218.69 76.3 218.61 77.19 218.01 77.7L206.12 87.76C205.36 88.4 205.36 89.57 206.12 90.21L218.01 100.27C218.61 100.78 218.68 101.67 218.18 102.27C217.67 102.87 216.78 102.94 216.18 102.44Z" fill="#D9D9FC"/>
<path d="M244.36 102.27C243.85 101.67 243.93 100.77 244.53 100.27L256.42 90.21C257.18 89.57 257.18 88.4 256.42 87.76L244.53 77.7C243.93 77.19 243.86 76.3 244.36 75.7C244.87 75.1 245.76 75.02 246.36 75.53L260.81 87.76C261.57 88.4 261.57 89.57 260.81 90.21L246.36 102.44C245.76 102.95 244.86 102.87 244.36 102.27Z" fill="#D9D9FC"/>
<path d="M222.611 108.84C221.881 108.55 221.531 107.72 221.821 106.99L236.961 69.13C237.251 68.4 238.081 68.05 238.811 68.34C239.541 68.63 239.891 69.46 239.601 70.19L224.461 108.05C224.171 108.78 223.341 109.13 222.611 108.84Z" fill="#D9D9FC"/>
<path d="M193.13 57.6801C193.13 59.3301 191.79 60.6701 190.14 60.6701C188.49 60.6701 187.15 59.3301 187.15 57.6801C187.15 56.0301 188.49 54.6901 190.14 54.6901C191.79 54.6901 193.13 56.0301 193.13 57.6801Z" fill="#FF9CBD"/>
<path d="M205.361 57.6801C205.361 59.3301 204.021 60.6701 202.371 60.6701C200.721 60.6701 199.381 59.3301 199.381 57.6801C199.381 56.0301 200.721 54.6901 202.371 54.6901C204.021 54.6901 205.361 56.0301 205.361 57.6801Z" fill="#D9D9FC"/>
<path d="M217.581 57.6801C217.581 59.3301 216.241 60.6701 214.591 60.6701C212.941 60.6701 211.601 59.3301 211.601 57.6801C211.601 56.0301 212.941 54.6901 214.591 54.6901C216.241 54.6901 217.581 56.0301 217.581 57.6801Z" fill="#6C63FF"/>
<path d="M182.66 245.75H84.04V308.66H182.66V245.75Z" stroke="#D9D9FC" stroke-miterlimit="10"/>
<path d="M182.66 245.75H84.04V257.65H182.66V245.75Z" stroke="#D9D9FC" stroke-miterlimit="10"/>
<path d="M95.2105 251.78C95.2105 253.43 93.8705 254.77 92.2205 254.77C90.5705 254.77 89.2305 253.43 89.2305 251.78C89.2305 250.13 90.5705 248.79 92.2205 248.79C93.8705 248.79 95.2105 250.13 95.2105 251.78Z" fill="#FF9CBD"/>
<path d="M107.43 251.78C107.43 253.43 106.09 254.77 104.44 254.77C102.79 254.77 101.45 253.43 101.45 251.78C101.45 250.13 102.79 248.79 104.44 248.79C106.09 248.79 107.43 250.13 107.43 251.78Z" fill="#D9D9FC"/>
<path d="M119.661 251.78C119.661 253.43 118.321 254.77 116.671 254.77C115.021 254.77 113.681 253.43 113.681 251.78C113.681 250.13 115.021 248.79 116.671 248.79C118.321 248.79 119.661 250.13 119.661 251.78Z" fill="#6C63FF"/>
<path d="M353.719 287.1H352.662C352.6 286.796 352.491 286.529 352.334 286.299C352.181 286.069 351.993 285.876 351.772 285.719C351.553 285.56 351.31 285.441 351.043 285.361C350.776 285.282 350.498 285.242 350.208 285.242C349.679 285.242 349.201 285.376 348.772 285.643C348.346 285.91 348.006 286.303 347.753 286.823C347.503 287.343 347.378 287.981 347.378 288.736C347.378 289.492 347.503 290.13 347.753 290.65C348.006 291.17 348.346 291.563 348.772 291.83C349.201 292.097 349.679 292.231 350.208 292.231C350.498 292.231 350.776 292.191 351.043 292.111C351.31 292.032 351.553 291.914 351.772 291.758C351.993 291.599 352.181 291.404 352.334 291.174C352.491 290.941 352.6 290.674 352.662 290.373H353.719C353.64 290.819 353.495 291.218 353.285 291.57C353.074 291.922 352.813 292.222 352.5 292.469C352.188 292.714 351.837 292.9 351.448 293.028C351.062 293.155 350.648 293.219 350.208 293.219C349.464 293.219 348.802 293.037 348.222 292.674C347.642 292.31 347.187 291.793 346.854 291.123C346.522 290.452 346.356 289.657 346.356 288.736C346.356 287.816 346.522 287.02 346.854 286.35C347.187 285.68 347.642 285.162 348.222 284.799C348.802 284.435 349.464 284.253 350.208 284.253C350.648 284.253 351.062 284.317 351.448 284.445C351.837 284.573 352.188 284.76 352.5 285.008C352.813 285.252 353.074 285.55 353.285 285.903C353.495 286.252 353.64 286.651 353.719 287.1ZM357.847 291.566V285.941H358.802V291.566H357.847ZM355.512 289.231V288.276H361.137V289.231H355.512ZM365.758 291.566V285.941H366.712V291.566H365.758ZM363.422 289.231V288.276H369.047V289.231H363.422Z" fill="#D9D9FC"/>
<path d="M688.6 153.8H589.98V216.71H688.6V153.8Z" stroke="#D9D9FC" stroke-miterlimit="10"/>
<path d="M688.6 153.8H589.98V165.7H688.6V153.8Z" stroke="#D9D9FC" stroke-miterlimit="10"/>
<path d="M601.15 159.83C601.15 161.48 599.81 162.82 598.16 162.82C596.51 162.82 595.17 161.48 595.17 159.83C595.17 158.18 596.51 156.84 598.16 156.84C599.81 156.84 601.15 158.18 601.15 159.83Z" fill="#FF9CBD"/>
<path d="M613.371 159.83C613.371 161.48 612.031 162.82 610.381 162.82C608.731 162.82 607.391 161.48 607.391 159.83C607.391 158.18 608.731 156.84 610.381 156.84C612.031 156.84 613.371 158.18 613.371 159.83Z" fill="#D9D9FC"/>
<path d="M625.599 159.83C625.599 161.48 624.259 162.82 622.609 162.82C620.959 162.82 619.619 161.48 619.619 159.83C619.619 158.18 620.959 156.84 622.609 156.84C624.259 156.84 625.599 158.18 625.599 159.83Z" fill="#6C63FF"/>
<path d="M357.139 195.15H356.082C356.02 194.846 355.91 194.579 355.754 194.349C355.601 194.119 355.413 193.926 355.192 193.769C354.973 193.61 354.73 193.491 354.463 193.411C354.196 193.332 353.918 193.292 353.628 193.292C353.099 193.292 352.621 193.426 352.192 193.693C351.766 193.96 351.426 194.353 351.173 194.873C350.923 195.393 350.798 196.031 350.798 196.786C350.798 197.542 350.923 198.18 351.173 198.7C351.426 199.22 351.766 199.613 352.192 199.88C352.621 200.147 353.099 200.281 353.628 200.281C353.918 200.281 354.196 200.241 354.463 200.161C354.73 200.082 354.973 199.964 355.192 199.808C355.413 199.649 355.601 199.454 355.754 199.224C355.91 198.991 356.02 198.724 356.082 198.423H357.139C357.06 198.869 356.915 199.268 356.704 199.62C356.494 199.972 356.233 200.272 355.92 200.519C355.608 200.764 355.257 200.95 354.868 201.078C354.481 201.205 354.068 201.269 353.628 201.269C352.883 201.269 352.222 201.088 351.642 200.724C351.062 200.36 350.606 199.843 350.274 199.173C349.942 198.502 349.775 197.707 349.775 196.786C349.775 195.866 349.942 195.07 350.274 194.4C350.606 193.73 351.062 193.213 351.642 192.849C352.222 192.485 352.883 192.303 353.628 192.303C354.068 192.303 354.481 192.367 354.868 192.495C355.257 192.623 355.608 192.811 355.92 193.058C356.233 193.302 356.494 193.6 356.704 193.953C356.915 194.302 357.06 194.701 357.139 195.15ZM363.62 194.605C363.568 194.173 363.361 193.838 362.997 193.599C362.634 193.36 362.188 193.241 361.659 193.241C361.273 193.241 360.935 193.303 360.645 193.428C360.358 193.553 360.134 193.725 359.972 193.944C359.813 194.163 359.733 194.411 359.733 194.69C359.733 194.923 359.789 195.123 359.899 195.291C360.013 195.455 360.158 195.593 360.334 195.704C360.51 195.812 360.695 195.901 360.888 195.972C361.081 196.041 361.259 196.096 361.421 196.139L362.307 196.377C362.534 196.437 362.787 196.519 363.066 196.624C363.347 196.73 363.615 196.873 363.871 197.055C364.13 197.234 364.343 197.464 364.51 197.745C364.678 198.026 364.762 198.372 364.762 198.781C364.762 199.252 364.638 199.678 364.391 200.059C364.147 200.44 363.789 200.742 363.317 200.967C362.848 201.191 362.279 201.303 361.608 201.303C360.983 201.303 360.442 201.203 359.985 201.001C359.53 200.799 359.172 200.518 358.911 200.157C358.652 199.796 358.506 199.377 358.472 198.9H359.563C359.591 199.23 359.702 199.502 359.895 199.718C360.091 199.931 360.338 200.09 360.637 200.195C360.938 200.298 361.262 200.349 361.608 200.349C362.012 200.349 362.374 200.284 362.695 200.153C363.016 200.019 363.27 199.835 363.458 199.599C363.645 199.36 363.739 199.082 363.739 198.764C363.739 198.474 363.658 198.238 363.496 198.056C363.334 197.874 363.121 197.727 362.857 197.613C362.593 197.499 362.307 197.4 362 197.315L360.926 197.008C360.245 196.812 359.705 196.532 359.307 196.168C358.909 195.805 358.71 195.329 358.71 194.741C358.71 194.252 358.843 193.826 359.107 193.463C359.374 193.096 359.732 192.812 360.181 192.61C360.632 192.406 361.137 192.303 361.693 192.303C362.256 192.303 362.756 192.404 363.193 192.606C363.631 192.805 363.978 193.078 364.233 193.424C364.492 193.771 364.628 194.164 364.642 194.605H363.62ZM371.272 194.605C371.221 194.173 371.013 193.838 370.65 193.599C370.286 193.36 369.84 193.241 369.312 193.241C368.925 193.241 368.587 193.303 368.297 193.428C368.011 193.553 367.786 193.725 367.624 193.944C367.465 194.163 367.386 194.411 367.386 194.69C367.386 194.923 367.441 195.123 367.552 195.291C367.665 195.455 367.81 195.593 367.986 195.704C368.163 195.812 368.347 195.901 368.54 195.972C368.734 196.041 368.911 196.096 369.073 196.139L369.959 196.377C370.187 196.437 370.44 196.519 370.718 196.624C370.999 196.73 371.268 196.873 371.523 197.055C371.782 197.234 371.995 197.464 372.163 197.745C372.33 198.026 372.414 198.372 372.414 198.781C372.414 199.252 372.29 199.678 372.043 200.059C371.799 200.44 371.441 200.742 370.969 200.967C370.501 201.191 369.931 201.303 369.261 201.303C368.636 201.303 368.094 201.203 367.637 201.001C367.182 200.799 366.824 200.518 366.563 200.157C366.305 199.796 366.158 199.377 366.124 198.9H367.215C367.244 199.23 367.354 199.502 367.547 199.718C367.744 199.931 367.991 200.09 368.289 200.195C368.59 200.298 368.914 200.349 369.261 200.349C369.664 200.349 370.026 200.284 370.347 200.153C370.668 200.019 370.922 199.835 371.11 199.599C371.297 199.36 371.391 199.082 371.391 198.764C371.391 198.474 371.31 198.238 371.148 198.056C370.986 197.874 370.773 197.727 370.509 197.613C370.245 197.499 369.959 197.4 369.653 197.315L368.579 197.008C367.897 196.812 367.357 196.532 366.959 196.168C366.562 195.805 366.363 195.329 366.363 194.741C366.363 194.252 366.495 193.826 366.759 193.463C367.026 193.096 367.384 192.812 367.833 192.61C368.285 192.406 368.789 192.303 369.346 192.303C369.908 192.303 370.408 192.404 370.846 192.606C371.283 192.805 371.63 193.078 371.886 193.424C372.144 193.771 372.28 194.164 372.295 194.605H371.272Z" fill="#D9D9FC"/>
<path d="M172.3 148.89C171.84 148.15 171.87 147.23 172.32 146.49C172.44 146.29 172.56 146.08 172.67 145.87C172.78 145.66 172.89 145.45 172.99 145.23C173.36 144.45 174.11 143.92 174.98 143.89L177.94 143.8L177.64 134.17L174.69 134.26C173.82 134.29 173.03 133.81 172.61 133.05C172.38 132.63 172.13 132.22 171.86 131.83C171.37 131.12 171.3 130.2 171.71 129.44L173.1 126.84L164.61 122.29L163.22 124.89C162.81 125.65 162.01 126.1 161.14 126.08C160.66 126.08 160.18 126.08 159.71 126.13C158.85 126.21 158.01 125.81 157.55 125.07L155.99 122.56L147.81 127.64L149.37 130.16C149.82 130.89 149.8 131.81 149.35 132.55C149.23 132.75 149.11 132.96 149 133.17C148.89 133.38 148.78 133.59 148.68 133.8C148.31 134.58 147.55 135.12 146.69 135.14L143.73 135.23L144.03 144.86L146.98 144.77C147.85 144.74 148.64 145.22 149.06 145.98C149.29 146.4 149.54 146.81 149.82 147.2C150.31 147.91 150.38 148.83 149.97 149.59L148.58 152.19L157.07 156.74L158.46 154.14C158.87 153.38 159.67 152.93 160.54 152.95C161.02 152.96 161.5 152.95 161.98 152.9C162.84 152.83 163.68 153.23 164.13 153.96L165.68 156.47L173.86 151.39L172.3 148.88V148.89ZM157.1 146.47C153.26 144.41 151.82 139.62 153.87 135.78C155.93 131.94 160.71 130.5 164.55 132.56C168.39 134.62 169.83 139.4 167.77 143.24C165.71 147.08 160.93 148.53 157.09 146.47H157.1Z" fill="#D9D9FC"/>
<path d="M661.539 272.76C660.609 272.23 660.099 271.21 660.159 270.14C660.169 269.85 660.179 269.56 660.179 269.27C660.179 268.98 660.179 268.68 660.159 268.39C660.109 267.33 660.609 266.31 661.539 265.78L664.699 263.96L658.769 253.68L655.609 255.5C654.679 256.03 653.539 255.98 652.649 255.4C652.159 255.08 651.649 254.78 651.119 254.51C650.169 254.03 649.559 253.07 649.559 252V248.36H637.679V252C637.679 253.07 637.069 254.02 636.119 254.51C635.589 254.78 635.079 255.07 634.589 255.4C633.689 255.98 632.559 256.04 631.629 255.5L628.469 253.68L622.539 263.96L625.709 265.79C626.629 266.32 627.139 267.34 627.079 268.4C627.069 268.69 627.059 268.98 627.059 269.27C627.059 269.56 627.059 269.85 627.079 270.14C627.129 271.21 626.619 272.23 625.699 272.76L622.539 274.58L628.469 284.86L631.619 283.04C632.549 282.51 633.679 282.56 634.579 283.14C635.069 283.46 635.589 283.76 636.119 284.03C637.069 284.51 637.679 285.47 637.679 286.54V290.17H649.559V286.54C649.559 285.47 650.169 284.51 651.119 284.03C651.649 283.76 652.159 283.46 652.659 283.14C653.559 282.56 654.689 282.5 655.619 283.04L658.769 284.86L664.699 274.58L661.549 272.76H661.539ZM643.619 279C638.249 279 633.889 274.64 633.889 269.27C633.889 263.9 638.249 259.55 643.619 259.55C648.989 259.55 653.339 263.9 653.339 269.27C653.339 274.64 648.989 279 643.619 279Z" fill="#D9D9FC"/>
<path d="M334.65 81.6101C333.98 81.2301 333.62 80.5001 333.66 79.7301C333.67 79.5201 333.68 79.3101 333.68 79.1001C333.68 78.8901 333.68 78.6801 333.66 78.4701C333.62 77.7101 333.99 76.9801 334.65 76.5901L336.92 75.2801L332.66 67.8901L330.39 69.2001C329.72 69.5801 328.91 69.5501 328.26 69.1301C327.91 68.9001 327.54 68.6901 327.16 68.4901C326.48 68.1401 326.04 67.4501 326.04 66.6901V64.0801H317.51V66.6901C317.51 67.4601 317.07 68.1401 316.39 68.4901C316.01 68.6801 315.64 68.9001 315.29 69.1301C314.65 69.5501 313.83 69.5901 313.16 69.2001L310.89 67.8901L306.63 75.2801L308.91 76.6001C309.57 76.9801 309.94 77.7101 309.9 78.4701C309.89 78.6801 309.88 78.8901 309.88 79.1001C309.88 79.3101 309.88 79.5201 309.9 79.7301C309.94 80.5001 309.57 81.2301 308.91 81.6101L306.64 82.9201L310.9 90.3101L313.16 89.0001C313.82 88.6201 314.64 88.6501 315.29 89.0701C315.65 89.3001 316.01 89.5101 316.39 89.7101C317.07 90.0601 317.51 90.7501 317.51 91.5101V94.1201H326.04V91.5101C326.04 90.7401 326.48 90.0601 327.16 89.7101C327.54 89.5201 327.91 89.3001 328.26 89.0701C328.9 88.6501 329.72 88.6101 330.39 89.0001L332.65 90.3101L336.91 82.9201L334.65 81.6101ZM321.78 86.0901C317.92 86.0901 314.79 82.9601 314.79 79.1001C314.79 75.2401 317.92 72.1201 321.78 72.1201C325.64 72.1201 328.76 75.2401 328.76 79.1001C328.76 82.9601 325.64 86.0901 321.78 86.0901Z" fill="#D9D9FC"/>
<path d="M146 107.65C145.33 107.27 144.97 106.54 145.01 105.77C145.02 105.56 145.03 105.35 145.03 105.14C145.03 104.93 145.03 104.72 145.01 104.51C144.97 103.75 145.34 103.02 146 102.63L148.27 101.32L144.01 93.93L141.74 95.24C141.07 95.62 140.26 95.59 139.61 95.17C139.26 94.94 138.89 94.73 138.51 94.53C137.83 94.18 137.39 93.49 137.39 92.73V90.12H128.86V92.73C128.86 93.49 128.42 94.18 127.74 94.53C127.36 94.72 126.99 94.94 126.64 95.17C126 95.59 125.18 95.63 124.51 95.24L122.24 93.93L117.98 101.32L120.26 102.64C120.92 103.02 121.29 103.75 121.25 104.51C121.24 104.72 121.23 104.93 121.23 105.14C121.23 105.35 121.23 105.56 121.25 105.77C121.29 106.54 120.92 107.27 120.26 107.65L117.99 108.96L122.25 116.35L124.51 115.04C125.17 114.66 125.99 114.69 126.64 115.11C127 115.34 127.36 115.55 127.74 115.75C128.42 116.1 128.86 116.79 128.86 117.55V120.16H137.39V117.55C137.39 116.78 137.83 116.09 138.51 115.75C138.89 115.56 139.26 115.34 139.61 115.11C140.25 114.69 141.07 114.65 141.74 115.04L144 116.35L148.26 108.96L146 107.65ZM133.13 112.13C129.27 112.13 126.14 109 126.14 105.14C126.14 101.28 129.27 98.16 133.13 98.16C136.99 98.16 140.11 101.28 140.11 105.14C140.11 109 136.99 112.13 133.13 112.13Z" fill="#D9D9FC"/>
<path d="M592.29 267C592.29 267 574.25 255 568.01 231.79C561.76 208.59 558.35 159.15 558.35 159.15C558.35 159.15 593.21 201.28 597.28 226.75C601.35 252.22 592.29 267 592.29 267Z" fill="#FF9CBD"/>
<path d="M615.799 283.52C615.799 283.52 612.869 257.44 624.949 236.09C637.029 214.73 677.759 200.43 677.759 200.43C677.759 200.43 653.349 246.75 642.079 259.98C630.809 273.21 615.799 283.52 615.799 283.52Z" fill="#FF9CBD"/>
<path d="M614.479 345.77C614.479 345.77 616.669 323.67 623.889 309.84C631.109 296.01 657.039 276.48 670.089 271.26C670.089 271.26 653.819 333.95 614.479 345.76V345.77Z" fill="#FF9CBD"/>
<path d="M589.129 326.79C589.129 326.79 570.369 315.26 560.209 294.61C550.059 273.96 547.939 244.76 547.939 244.76C547.939 244.76 593.499 281.6 589.129 326.79Z" fill="#FF9CBD"/>
<path d="M607.23 412.48C603.12 395.73 601.42 378.42 601.25 361.15C601.13 352.51 601.65 343.86 602.53 335.26C603.43 326.66 604.82 318.1 606.77 309.67C608.76 301.25 611.3 292.94 614.39 284.87L616.72 278.82C617.52 276.81 618.39 274.83 619.22 272.84L620.48 269.86C620.92 268.87 621.38 267.89 621.84 266.92C622.77 264.97 623.65 263 624.62 261.07C628.45 253.32 632.72 245.79 637.51 238.6C638.72 236.81 639.99 235.06 641.26 233.31C642.58 231.6 643.86 229.86 645.26 228.22C648.02 224.91 650.92 221.68 654.25 218.93C652.65 220.37 651.16 221.93 649.76 223.56C649.04 224.36 648.35 225.18 647.67 226.02C646.97 226.84 646.31 227.69 645.66 228.54C644.32 230.22 643.1 231.99 641.85 233.74C640.65 235.52 639.45 237.3 638.3 239.12C633.7 246.37 629.59 253.94 625.94 261.72C625.01 263.66 624.18 265.64 623.29 267.59L621.97 270.53L620.74 273.51C619.93 275.5 619.07 277.47 618.29 279.47L616.02 285.5C613 293.54 610.55 301.76 608.63 310.12C604.64 326.81 602.92 344 602.71 361.17C602.6 369.76 602.94 378.36 603.69 386.93C604.4 395.5 605.51 404.05 607.23 412.49V412.48Z" fill="#100E3A"/>
<path d="M574.789 202.15C577.479 209.9 579.889 217.74 582.279 225.59C584.599 233.46 586.809 241.36 588.879 249.3C589.899 253.27 590.929 257.25 591.829 261.25L593.199 267.25L594.479 273.28C596.109 281.33 597.669 289.4 598.699 297.57C599.699 305.73 600.479 313.9 601.139 322.08C601.779 330.26 602.399 338.44 602.779 346.64C603.189 354.83 603.539 363.03 603.809 371.23C604.019 379.43 604.239 387.63 604.239 395.83C603.799 387.64 603.399 379.45 602.869 371.27C602.409 363.09 601.889 354.91 601.309 346.73C600.129 330.39 598.899 314.04 596.799 297.81C594.759 281.6 591.219 265.58 587.449 249.65C585.559 241.68 583.499 233.75 581.379 225.84C579.299 217.91 577.069 210.03 574.779 202.15H574.789Z" fill="#100E3A"/>
<path d="M643.369 299.7C639.399 305.88 635.499 312.09 631.619 318.31C627.759 324.54 623.949 330.79 620.309 337.15C616.659 343.49 613.179 349.93 610.059 356.53C608.529 359.84 607.079 363.2 605.899 366.64C604.689 370.07 603.749 373.63 603.619 377.3C603.499 375.47 603.539 373.6 603.859 371.78L604.069 370.41L604.359 369.05L604.649 367.69L605.009 366.35C605.999 362.79 607.279 359.31 608.709 355.91C610.139 352.51 611.749 349.19 613.399 345.89C615.079 342.61 616.859 339.39 618.669 336.18C620.519 333 622.409 329.84 624.359 326.72C626.329 323.62 628.309 320.52 630.389 317.48C634.489 311.38 638.819 305.43 643.389 299.68L643.369 299.7Z" fill="#100E3A"/>
<path d="M567.33 279.1C571.94 287.15 576.19 295.41 580.16 303.8C584.14 312.19 587.82 320.72 591.16 329.39C594.47 338.07 597.47 346.89 599.73 355.93C600.86 360.45 601.8 365.01 602.44 369.63C603.02 374.24 603.36 378.93 602.91 383.55C602.93 378.91 602.41 374.3 601.52 369.77C600.67 365.23 599.54 360.75 598.3 356.31C597.04 351.87 595.64 347.47 594.13 343.1C592.65 338.72 591.05 334.39 589.38 330.07C587.75 325.74 586.01 321.46 584.24 317.18C582.49 312.9 580.65 308.65 578.81 304.4C575.08 295.92 571.29 287.47 567.33 279.08V279.1Z" fill="#100E3A"/>
<path d="M625.639 357.88L625.309 363.06L625.289 363.26L625.209 364.59V364.69L625.199 364.79L625.109 366.12L625.099 366.33L625.019 367.64L625.009 367.84L624.299 379L624.279 379.31L624.199 380.52L624.189 380.84L624.159 381.29L624.099 382.05L624.079 382.36L623.999 383.58L623.989 383.89L621.439 424.12H584.679L582.169 384.49L582.129 383.99L582.069 382.97L582.039 382.46L581.979 381.45L581.959 381.29L581.939 380.93L581.869 379.92L581.849 379.41L581.059 367.07L581.039 366.72L580.969 365.54L580.939 365.17L580.909 364.69L580.869 364.03L580.839 363.67L580.779 362.48L580.749 362.13L580.479 357.88H625.639Z" fill="#6C63FF"/>
<path d="M625.21 364.69L625.2 364.79L625.11 366.12L625.1 366.33L625.02 367.64L625.01 367.84L624.3 379L624.28 379.31L624.2 380.52L624.19 380.84L624.16 381.29H581.96L581.94 380.93L581.87 379.92L581.85 379.41L581.06 367.07L581.04 366.72L580.97 365.54L580.94 365.17L580.91 364.69H625.21Z" fill="#100E3A"/>
<path d="M629.099 355.52H577.029V368.35H629.099V355.52Z" fill="#6C63FF"/>
<g style="mix-blend-mode:multiply" opacity="0.1">
<path d="M559.94 440.62C559.94 450.11 488.13 457.8 399.55 457.8C372.88 457.8 347.72 457.1 325.59 455.87C325.63 456.02 325.65 456.16 325.65 456.31C325.65 464.38 271.85 470.93 205.49 470.93C139.13 470.93 85.3203 464.38 85.3203 456.31C85.3203 448.24 139.13 441.68 205.49 441.68C217.45 441.68 229.01 441.89 239.91 442.29C239.41 441.74 239.16 441.19 239.16 440.62C239.16 431.13 310.97 423.44 399.55 423.44C488.13 423.44 559.94 431.13 559.94 440.62Z" fill="#100E3A"/>
</g>
<path d="M560.43 122.09H244.79C235.838 122.09 228.58 129.347 228.58 138.3V364.9C228.58 373.852 235.838 381.11 244.79 381.11H560.43C569.383 381.11 576.64 373.852 576.64 364.9V138.3C576.64 129.347 569.383 122.09 560.43 122.09Z" fill="#100E3A"/>
<path d="M559.06 138.93H246.16V324.93H559.06V138.93Z" fill="white"/>
<path d="M576.64 342.9V364.9C576.64 373.86 569.39 381.11 560.43 381.11H244.79C235.83 381.11 228.58 373.86 228.58 364.9V342.9H576.64Z" fill="#D9D9FC"/>
<path d="M338.33 427.8H466.9C472.39 427.8 476.84 432.26 476.84 437.74V440.2H328.39V437.74C328.39 432.25 332.85 427.8 338.33 427.8Z" fill="#A7A5D8"/>
<path d="M459.161 427.81H346.061L348.931 406.28L349.071 405.26L349.341 403.24L349.471 402.23L349.751 400.21L349.791 399.89L349.881 399.19L350.161 397.17L350.291 396.16L352.301 381.11H452.921L454.811 395.3L454.911 395.99L455.221 398.34L455.311 399.02L455.431 399.89L455.631 401.37L455.721 402.06L456.031 404.42L456.121 405.09L459.161 427.81Z" fill="#D9D9FC"/>
<path d="M559.06 138.93H246.16V148.99H559.06V138.93Z" fill="#474799"/>
<path d="M349.92 178.85H265.38V239.57H349.92V178.85Z" fill="#D9D9FC"/>
<path d="M342.619 210.56C342.619 220.05 334.929 227.74 325.439 227.74C319.799 227.74 314.809 225.02 311.669 220.84H319.149V208.68H308.359C309.299 200.07 316.589 193.36 325.439 193.36C334.929 193.36 342.619 201.06 342.619 210.56Z" fill="white"/>
<path d="M311.659 220.84H274.979V208.68H308.349C308.279 209.29 308.249 209.92 308.249 210.56C308.249 214.41 309.519 217.97 311.659 220.85V220.84Z" fill="white"/>
<path d="M538.69 249.9H361.13V307.74H538.69V249.9Z" stroke="#D9D9FC" stroke-miterlimit="10"/>
<path d="M361.13 249.9L538.69 307.74" stroke="#D9D9FC" stroke-miterlimit="10"/>
<path d="M538.69 249.9L361.13 307.74" stroke="#D9D9FC" stroke-miterlimit="10"/>
<path d="M442.94 178.85H361.13V181.82H442.94V178.85Z" fill="#A7A5D8"/>
<path d="M442.94 185.88H361.13V188.85H442.94V185.88Z" fill="#A7A5D8"/>
<path d="M442.94 192.91H361.13V195.88H442.94V192.91Z" fill="#A7A5D8"/>
<path d="M442.94 199.94H361.13V202.91H442.94V199.94Z" fill="#A7A5D8"/>
<path d="M408.63 206.97H361.13V209.94H408.63V206.97Z" fill="#A7A5D8"/>
<path d="M442.94 214H361.13V216.97H442.94V214Z" fill="#A7A5D8"/>
<path d="M442.94 221.03H361.13V224H442.94V221.03Z" fill="#A7A5D8"/>
<path d="M442.94 228.07H361.13V231.04H442.94V228.07Z" fill="#A7A5D8"/>
<path d="M422.96 235.1H361.13V238.07H422.96V235.1Z" fill="#A7A5D8"/>
<path d="M349.93 249.9H265.48V307.74H349.93V249.9Z" fill="#67C6B4"/>
<path d="M277.8 302.63H272.69V307.74H277.8V302.63Z" fill="white"/>
<path d="M288.621 288.01H283.511V307.75H288.621V288.01Z" fill="#FF9CBD"/>
<path d="M299.44 278.82H294.33V307.74H299.44V278.82Z" fill="#474799"/>
<path d="M310.26 265.55H305.15V307.74H310.26V265.55Z" fill="#6C63FF"/>
<path d="M321.07 255.15H315.96V307.74H321.07V255.15Z" fill="#DD6A57"/>
<path d="M331.89 294.37H326.78V307.74H331.89V294.37Z" fill="white"/>
<path d="M342.711 277.25H337.601V307.75H342.711V277.25Z" fill="#FF9CBD"/>
<path d="M542.629 176.64H458.369V237.48H542.629V176.64Z" fill="#6C63FF"/>
<path d="M535.3 230.76L505.67 231.75L519.49 188.35L535.3 230.76Z" fill="#FF9CBD"/>
<path d="M499.65 223.49L470.02 224.47L484.43 199.41L499.65 223.49Z" fill="#FF9CBD"/>
<path d="M254.15 143.96C254.15 145.34 253.03 146.46 251.66 146.46C250.29 146.46 249.16 145.34 249.16 143.96C249.16 142.58 250.28 141.47 251.66 141.47C253.04 141.47 254.15 142.59 254.15 143.96Z" fill="#FF9CBD"/>
<path d="M264.341 143.96C264.341 145.34 263.221 146.46 261.841 146.46C260.461 146.46 259.351 145.34 259.351 143.96C259.351 142.58 260.471 141.47 261.841 141.47C263.211 141.47 264.341 142.59 264.341 143.96Z" fill="white"/>
<path d="M274.53 143.96C274.53 145.34 273.41 146.46 272.03 146.46C270.65 146.46 269.54 145.34 269.54 143.96C269.54 142.58 270.66 141.47 272.03 141.47C273.4 141.47 274.53 142.59 274.53 143.96Z" fill="#6C63FF"/>
<path d="M538.7 159.14H426.23V169.18H538.7V159.14Z" fill="#D9D9FC"/>
<path d="M275.42 159.14H265.38V169.18H275.42V159.14Z" fill="#67C6B4"/>
<path d="M289.18 159.14H279.14V169.18H289.18V159.14Z" fill="#6C63FF"/>
<path d="M302.93 159.14H292.89V169.18H302.93V159.14Z" fill="#FF9CBD"/>
<path d="M369.88 159.14H320.8V169.18H369.88V159.14Z" fill="#D9D9FC"/>
<path d="M408.81 359.43C408.81 362.92 405.98 365.74 402.5 365.74C399.02 365.74 396.19 362.91 396.19 359.43C396.19 355.95 399.02 353.12 402.5 353.12C405.98 353.12 408.81 355.95 408.81 359.43Z" fill="#A7A5D8"/>
<path d="M455.43 399.89H349.79L349.88 399.19L350.16 397.17L350.29 396.16L352.3 381.11H452.92L454.81 395.3L454.91 395.99L455.22 398.34L455.31 399.02L455.43 399.89Z" fill="#100E3A"/>
<path d="M298.43 455.86C296.14 456.62 230.79 456.43 228.3 454.85C227.35 454.26 226.83 444.73 226.51 433.21C226.44 430.72 226.39 428.15 226.35 425.54C226.07 408.6 226.16 390.61 226.16 390.61H269.88L268.87 425.54L268.65 433.21C268.65 433.21 293.64 444.48 296.18 446.5C298.71 448.53 300.71 455.1 298.42 455.86H298.43Z" fill="#DD6A57"/>
<path d="M298.431 455.86C296.141 456.62 230.791 456.43 228.301 454.85C227.151 454.12 226.611 440.22 226.351 425.54H268.871L268.651 433.21C268.651 433.21 293.641 444.48 296.181 446.5C298.711 448.53 300.711 455.1 298.421 455.86H298.431Z" fill="white"/>
<path d="M298.43 455.86C296.14 456.62 230.79 456.43 228.3 454.85C227.35 454.26 226.83 444.73 226.51 433.21H268.65C268.65 433.21 293.64 444.48 296.18 446.5C298.71 448.53 300.71 455.1 298.42 455.86H298.43Z" fill="#FF9CBD"/>
<path d="M297.501 453.24C286.541 452.94 242.331 452.76 231.481 453.3C231.391 453.3 231.391 453.36 231.481 453.37C242.331 453.91 286.551 453.73 297.501 453.43C297.731 453.43 297.731 453.26 297.501 453.25V453.24Z" fill="#100E3A"/>
<path d="M291.99 444.14C289.39 444.03 286.85 445.25 285.43 446.8C284.06 448.28 282.89 450.37 282.96 452.64C282.96 452.71 283.08 452.71 283.09 452.64C283.73 448.35 287.64 444.6 291.99 444.28C292.08 444.28 292.08 444.15 291.99 444.14Z" fill="#100E3A"/>
<path d="M272.9 434.31C268.51 434.24 263.43 435.77 260.69 439.35C260.58 439.49 260.78 439.64 260.91 439.57C264.88 437.54 268.65 436.03 272.97 434.85C273.27 434.77 273.21 434.32 272.9 434.31Z" fill="#100E3A"/>
<path d="M276.28 435.64C271.89 435.57 266.81 437.1 264.07 440.68C263.96 440.82 264.16 440.97 264.29 440.9C268.26 438.87 272.03 437.36 276.35 436.18C276.65 436.1 276.59 435.65 276.28 435.64Z" fill="#100E3A"/>
<path d="M279.66 436.97C275.27 436.9 270.19 438.43 267.45 442.01C267.34 442.15 267.54 442.3 267.67 442.23C271.64 440.2 275.41 438.69 279.73 437.51C280.03 437.43 279.97 436.98 279.66 436.97Z" fill="#100E3A"/>
<path d="M283.05 438.3C278.66 438.23 273.58 439.76 270.84 443.34C270.73 443.48 270.93 443.63 271.06 443.56C275.03 441.53 278.8 440.02 283.12 438.84C283.42 438.76 283.36 438.31 283.05 438.3Z" fill="#100E3A"/>
<path d="M234.3 442.9C229.38 442.9 229.37 450.55 234.3 450.55C239.23 450.55 239.23 442.9 234.3 442.9Z" fill="#100E3A"/>
<path d="M277.67 422.62C275.46 420.77 272.65 422.56 271.28 424.47C269.05 427.56 267.52 431.89 267.26 435.67C267.26 435.76 267.32 435.8 267.4 435.8C267.49 436.11 267.86 436.38 268.19 436.16C271.32 434.01 274.93 432.1 277.3 429.05C278.69 427.27 279.76 424.37 277.67 422.62ZM272.27 431.93C270.76 433.03 269.2 434.04 267.73 435.19C268.52 433.01 269.21 430.8 270.22 428.7C270.7 427.7 271.22 426.68 271.83 425.75C272.79 424.3 277.1 420.65 277.52 425.42C277.75 428.05 274.07 430.62 272.27 431.93Z" fill="#100E3A"/>
<path d="M256.37 437.27C260.19 437.87 264.13 436.79 267.88 436.22C268.27 436.16 268.36 435.71 268.21 435.42C268.27 435.37 268.29 435.3 268.22 435.23C265.45 432.65 261.36 430.54 257.63 429.81C255.32 429.36 252.05 429.97 251.7 432.83C251.37 435.54 254.14 436.92 256.36 437.27H256.37ZM253.73 434.76C250.77 430.99 256.42 430.7 258.11 431.1C259.19 431.36 260.27 431.75 261.3 432.15C263.47 432.99 265.49 434.13 267.56 435.18C265.7 435.35 263.87 435.67 262.02 435.91C259.81 436.19 255.37 436.83 253.74 434.75L253.73 434.76Z" fill="#100E3A"/>
<path d="M122.86 435.56C120.9 434.16 82.4604 381.3 82.2604 378.36C82.1804 377.24 89.5504 371.2 98.6704 364.14C100.64 362.62 102.68 361.05 104.76 359.48C118.27 349.24 132.84 338.7 132.84 338.7L158.66 373.98L129.87 393.79L123.55 398.14C123.55 398.14 129.22 424.96 129.08 428.21C128.94 431.45 124.81 436.95 122.85 435.55L122.86 435.56Z" fill="#DD6A57"/>
<path d="M122.86 435.56C120.9 434.16 82.4603 381.3 82.2603 378.36C82.1703 377 93.0703 368.36 104.76 359.48L129.87 393.79L123.55 398.14C123.55 398.14 129.22 424.96 129.08 428.21C128.94 431.45 124.81 436.95 122.85 435.55L122.86 435.56Z" fill="white"/>
<path d="M122.86 435.56C120.9 434.16 82.4604 381.3 82.2604 378.36C82.1804 377.24 89.5504 371.2 98.6704 364.14L123.55 398.15C123.55 398.15 129.22 424.97 129.08 428.22C128.94 431.46 124.81 436.96 122.85 435.56H122.86Z" fill="#FF9CBD"/>
<path d="M124.421 433.26C118.191 424.24 92.2306 388.45 85.3906 380.01C85.3306 379.94 85.2906 379.98 85.3306 380.05C91.3106 389.12 117.561 424.7 124.271 433.37C124.411 433.55 124.551 433.45 124.411 433.26H124.421Z" fill="#100E3A"/>
<path d="M128.521 423.44C127.081 421.28 124.591 419.95 122.501 419.71C120.501 419.48 118.121 419.77 116.331 421.17C116.281 421.21 116.351 421.31 116.411 421.28C120.251 419.26 125.581 420.2 128.411 423.52C128.471 423.59 128.571 423.52 128.521 423.44Z" fill="#100E3A"/>
<path d="M125.171 402.23C122.641 398.65 118.401 395.45 113.891 395.35C113.721 395.35 113.711 395.59 113.841 395.66C117.821 397.66 121.271 399.82 124.771 402.61C125.021 402.81 125.341 402.49 125.161 402.23H125.171Z" fill="#100E3A"/>
<path d="M126.1 405.74C123.57 402.16 119.33 398.96 114.82 398.86C114.65 398.86 114.64 399.1 114.77 399.17C118.75 401.17 122.2 403.33 125.7 406.12C125.95 406.32 126.27 406 126.09 405.74H126.1Z" fill="#100E3A"/>
<path d="M127.02 409.26C124.49 405.68 120.25 402.48 115.74 402.38C115.57 402.38 115.56 402.62 115.69 402.69C119.67 404.69 123.12 406.85 126.62 409.64C126.87 409.84 127.19 409.52 127.01 409.26H127.02Z" fill="#100E3A"/>
<path d="M127.951 412.77C125.421 409.19 121.181 405.99 116.671 405.89C116.501 405.89 116.491 406.13 116.621 406.2C120.601 408.2 124.051 410.36 127.551 413.15C127.801 413.35 128.121 413.03 127.941 412.77H127.951Z" fill="#100E3A"/>
<path d="M95.4505 376.15C92.5405 372.18 86.3705 376.69 89.2805 380.67C92.1905 384.64 98.3605 380.13 95.4505 376.15Z" fill="#100E3A"/>
<path d="M137.43 399.18C137.61 396.3 134.51 395.1 132.16 395.12C128.35 395.15 123.95 396.47 120.75 398.49C120.67 398.54 120.68 398.62 120.73 398.67C120.53 398.93 120.54 399.39 120.91 399.52C124.49 400.77 128.17 402.56 132.03 402.68C134.28 402.75 137.26 401.9 137.43 399.18ZM126.72 400.31C124.94 399.74 123.2 399.08 121.41 398.57C123.64 397.92 125.83 397.17 128.12 396.75C129.21 396.55 130.34 396.36 131.45 396.31C133.18 396.23 138.68 397.55 135.08 400.71C133.09 402.45 128.84 401 126.72 400.32V400.31Z" fill="#100E3A"/>
<path d="M113.021 390.63C114.791 394.06 117.991 396.61 120.661 399.3C120.941 399.58 121.351 399.39 121.501 399.1C121.571 399.12 121.651 399.1 121.661 399C122.111 395.24 121.401 390.7 119.781 387.25C118.781 385.12 116.361 382.84 113.841 384.25C111.461 385.58 111.981 388.63 113.011 390.63H113.021ZM113.481 387.02C114.781 382.41 118.341 386.8 119.021 388.39C119.451 389.42 119.771 390.52 120.061 391.59C120.661 393.84 120.941 396.14 121.311 398.43C120.081 397.03 118.731 395.74 117.451 394.39C115.921 392.77 112.781 389.56 113.491 387.02H113.481Z" fill="#100E3A"/>
<path d="M270.68 420.67H224.6C224.6 420.67 225.07 386.91 224.6 359.52C224.58 358.57 224.57 357.62 224.55 356.68C224.51 354.78 224.48 352.9 224.45 351.06C224.43 350.11 224.41 349.18 224.39 348.26C224.35 346.33 224.31 344.46 224.27 342.66C224.27 342.39 224.27 342.12 224.25 341.85C224.25 341.16 224.22 340.49 224.21 339.83C224.16 337.88 224.11 336.03 224.06 334.3C224.04 333.35 224.01 332.43 223.98 331.55C223.86 327.43 223.72 324.18 223.58 322.16C222.99 313.6 216.02 275.23 210.25 244.36C210.23 244.32 210.23 244.27 210.22 244.23C210.12 243.76 210.04 243.29 209.95 242.82C209.95 242.78 209.93 242.73 209.92 242.69C209.83 242.23 209.75 241.77 209.67 241.33C209.67 241.31 209.67 241.29 209.67 241.28C209.67 241.23 209.65 241.18 209.64 241.15C209.55 240.67 209.47 240.21 209.37 239.75C209.37 239.7 209.37 239.65 209.35 239.62C205.53 219.28 202.44 203.3 202.44 203.3H251.07C251.07 203.3 266.1 304.87 268.14 321.72C270.18 338.56 270.69 420.7 270.69 420.7L270.68 420.67Z" fill="#474799"/>
<path d="M268.45 412.39C261.26 412.24 263.33 412.18 256.13 412.11C252.61 412.08 229.49 411.87 226.2 412.42C226.13 412.43 226.13 412.55 226.2 412.57C229.49 413.11 252.61 412.91 256.13 412.88C263.32 412.81 261.26 412.75 268.45 412.6C268.58 412.6 268.59 412.39 268.45 412.39Z" fill="#100E3A"/>
<path d="M242.72 242.85L224.23 341.85C224.23 341.16 224.2 340.49 224.19 339.83C224.14 337.88 224.09 336.03 224.04 334.3C224.02 333.35 223.99 332.43 223.96 331.55C223.84 327.43 223.7 324.18 223.56 322.16C222.97 313.6 216 275.23 210.23 244.36C210.21 244.32 210.21 244.27 210.2 244.23C210.1 243.76 210.02 243.29 209.93 242.82C209.93 242.78 209.91 242.73 209.9 242.69C209.81 242.23 209.73 241.77 209.65 241.33L242.71 242.86L242.72 242.85Z" fill="#100E3A"/>
<path d="M251.51 203.28C252.3 227.34 242.67 235.81 242.67 235.81C242.67 235.81 222.47 304.44 211.24 325.2C200.01 345.96 134.84 394.04 134.84 394.04L105.23 355.42C105.23 355.42 164.29 319.53 169.4 310.86C172.24 306.04 194.27 249.8 193.39 244.53C189.18 219.42 197.46 203.29 197.46 203.29H251.51V203.28Z" fill="#474799"/>
<path d="M239.541 242.88C236.751 254.1 235.691 258.38 231.951 269.32C228.221 280.23 223.981 290.99 220.641 302.03C220.611 302.12 220.761 302.19 220.801 302.1C225.271 291.61 229.041 280.78 232.761 270C236.581 258.94 237.731 254.51 240.301 243.09C240.411 242.59 239.661 242.38 239.531 242.88H239.541Z" fill="#100E3A"/>
<path d="M247.821 238.12C243.251 240.25 238.921 243.05 234.801 245.94C234.641 246.05 234.781 246.31 234.961 246.21C239.371 243.74 243.871 241.35 248.131 238.65C248.461 238.44 248.171 237.96 247.821 238.13V238.12Z" fill="#100E3A"/>
<path d="M244.831 204.71C244.801 204.55 244.521 204.55 244.541 204.71C245.151 210.18 245.311 215.04 245.391 220.21C245.431 222.61 244.891 235.94 240.671 235.42C239.961 235.33 239.541 234.69 239.321 233.66C239.061 232.42 239.371 230.84 239.441 229.57C239.611 226.77 239.691 223.98 239.631 221.17C239.531 215.94 239.001 210.75 237.831 205.65C237.791 205.48 237.551 205.52 237.571 205.69C238.331 212.87 238.891 220.05 238.571 227.27C238.411 230.74 237.231 236.06 240.861 236.21C244.561 236.36 246.001 227.5 246.201 225.1C246.751 218.39 246.051 211.29 244.831 204.69V204.71Z" fill="#100E3A"/>
<path d="M240.81 235.77C240.53 236.69 240.33 237.64 240.17 238.59C240.05 239.33 239.86 240.13 240.02 240.87C240.05 241.01 240.24 241.01 240.31 240.9C240.73 240.24 240.84 239.38 241.04 238.62C241.26 237.75 241.51 236.87 241.71 235.99C241.84 235.41 240.98 235.2 240.81 235.77Z" fill="#100E3A"/>
<path d="M141.311 387.71C137.261 381.77 138.511 383.41 134.391 377.52C132.381 374.63 119.131 355.68 116.781 353.31C116.731 353.26 116.631 353.33 116.661 353.39C118.121 356.38 131.701 375.11 133.761 377.96C137.991 383.78 136.841 382.06 141.131 387.83C141.211 387.94 141.381 387.83 141.301 387.71H141.311Z" fill="#100E3A"/>
<path d="M231.28 144.89C231.7 152.99 243.91 196.03 257.83 205.07C270.85 213.52 307.04 207.64 314.67 205.32C318.02 204.3 311.91 184 308.9 181.78C305.89 179.56 274.19 183.9 271.54 183C268.89 182.1 253.95 163.33 246.51 152C241.81 144.85 231 139.18 231.29 144.89H231.28Z" fill="#DD6A57"/>
<path d="M231.1 143.34C229.57 149.92 237.85 181.75 238.62 181.78C239.4 181.82 260.87 170.87 260.92 169.84C260.97 168.81 250.82 155.17 246.04 149.73C241.26 144.29 232.2 138.59 231.1 143.33V143.34Z" fill="#6C63FF"/>
<path d="M257.791 165.73C254.311 167.38 240.81 174.99 237.52 177.01C237.29 177.15 237.49 177.48 237.73 177.37C241.21 175.69 254.811 168.24 258.011 166.11C258.251 165.95 258.041 165.61 257.791 165.73Z" fill="#100E3A"/>
<path d="M222.491 143.36C213.951 148.79 208.381 158.38 205.901 167.13C203.421 175.87 196.941 204.3 198.351 205.09C199.771 205.89 217.101 218.39 232.361 215.53C247.621 212.67 253.821 208.69 255.761 206.47C257.711 204.25 249.571 164.51 247.771 157.36C245.971 150.21 240.401 142.29 238.711 142.07C237.021 141.85 225.741 141.3 222.481 143.37L222.491 143.36Z" fill="white"/>
<path d="M241.981 146.05C241.961 145.84 241.661 145.83 241.651 146.05C241.531 148.7 241.751 151.68 239.681 153.7C237.391 155.93 233.751 154.66 231.281 153.44C227.421 151.53 224.511 148.25 222.171 144.71C222.081 144.58 221.881 144.7 221.961 144.83C224.641 149.56 228.921 153.92 234.361 155.24C240.511 156.72 242.591 151.28 241.991 146.05H241.981Z" fill="#D9D9FC"/>
<path d="M227.73 221.53C227.42 221.69 221.15 220.84 213.83 218.18C213.66 218.12 213.51 218.08 213.34 218.01C213.16 217.93 212.97 217.87 212.78 217.8C212.65 217.74 212.52 217.7 212.39 217.65C212.24 217.58 212.08 217.53 211.92 217.47C211.86 217.45 211.82 217.43 211.77 217.41C211.49 217.3 211.23 217.18 210.96 217.07C210.8 217 210.65 216.94 210.48 216.86C210.16 216.74 209.84 216.59 209.52 216.46C209.37 216.38 209.21 216.31 209.05 216.24C204.13 213.99 199.2 210.91 195.6 206.76C193.97 204.89 200.05 183.97 204.31 170.18C204.36 170.05 204.41 169.89 204.44 169.76C204.62 169.17 204.81 168.6 204.98 168.03C205.03 167.88 205.08 167.73 205.12 167.59C205.14 167.51 205.16 167.44 205.18 167.37C205.35 166.85 205.5 166.34 205.66 165.85C205.72 165.71 205.76 165.56 205.79 165.43C205.79 165.39 205.82 165.34 205.83 165.31C206.02 164.75 206.18 164.21 206.35 163.7C206.39 163.55 206.44 163.4 206.48 163.26C207 161.65 207.41 160.34 207.71 159.45C210.18 151.94 223.68 141.64 223.68 141.64C223.68 141.64 228.31 221.24 227.72 221.53H227.73Z" fill="#6C63FF"/>
<path d="M239.93 142.55C239.93 142.55 250.74 215.35 251.76 215.99C252.78 216.63 257.78 209.77 258.11 206.21C258.44 202.65 249.06 157.04 247.02 152.99C244.99 148.94 239.92 142.55 239.92 142.55H239.93Z" fill="#6C63FF"/>
<path d="M250.33 165.06C250.22 163.76 250.09 162.47 250.04 161.17C250.04 161.1 249.93 161.1 249.93 161.17C249.91 161.91 249.9 162.66 249.93 163.41C249.44 161.41 248.95 159.41 248.45 157.42C248.42 157.31 248.26 157.36 248.28 157.46C250.72 169.81 253.45 182.14 256.5 194.36C256.55 194.58 256.88 194.49 256.84 194.27C254.87 184.5 252.69 174.76 250.34 165.07L250.33 165.06Z" fill="#100E3A"/>
<path d="M218.79 156.8L212.77 217.8C212.64 217.74 212.51 217.7 212.38 217.65C212.23 217.58 212.07 217.53 211.91 217.47C211.85 217.45 211.81 217.43 211.76 217.41C211.48 217.3 211.22 217.18 210.95 217.07C210.79 217 210.64 216.94 210.47 216.86C210.15 216.74 209.83 216.59 209.51 216.46C209.36 216.38 209.2 216.31 209.04 216.24C204.12 213.99 199.19 210.91 195.59 206.76C193.96 204.89 200.04 183.97 204.3 170.18C204.35 170.05 204.4 169.89 204.43 169.76C204.61 169.17 204.8 168.6 204.97 168.03C205.02 167.88 205.07 167.73 205.11 167.59C205.13 167.51 205.15 167.44 205.17 167.37C205.34 166.85 205.49 166.34 205.65 165.85C205.71 165.71 205.75 165.56 205.78 165.43C205.78 165.39 205.81 165.34 205.82 165.31L218.78 156.8H218.79Z" fill="#100E3A"/>
<path d="M237.411 151.47C233.841 152.65 227.101 147.61 224.241 143.31C224.051 143.01 224.241 139.71 224.291 135.68C224.311 133.24 224.271 130.51 224.061 128.03C224.011 127.52 225.831 128.31 225.831 128.31L229.111 128.81L239.951 130.48C239.951 130.48 238.871 135.81 239.271 140.13C239.311 140.49 239.371 140.82 239.461 141.14C239.461 141.19 239.491 141.24 239.501 141.31C239.981 143.22 240.881 150.34 237.431 151.47H237.411Z" fill="#DD6A57"/>
<path d="M239.44 141.14C239.44 141.14 239.47 141.24 239.48 141.31C239 141.42 238.47 141.5 237.89 141.53C227.39 142.2 224.94 128.99 224.94 128.99L229.1 128.81L239.94 130.48C239.94 130.48 238.86 135.81 239.26 140.13C239.3 140.49 239.36 140.82 239.45 141.14H239.44Z" fill="#100E3A"/>
<path d="M241.54 101.51C241.54 101.51 246.71 104.11 247.29 109.6C247.87 115.09 246.22 120.67 245.73 120.92C245.24 121.16 241.54 101.51 241.54 101.51Z" fill="#100E3A"/>
<path d="M220.59 108.44C218.67 113.9 220.92 130.01 224.71 133.74C230.2 139.15 239.52 140.03 244.19 133.36C248.72 126.89 245.42 105.95 241.16 102.53C234.89 97.49 223.43 100.38 220.59 108.45V108.44Z" fill="#DD6A57"/>
<path d="M221 124.63C222.95 124.91 224.22 118.96 224.49 116.71C224.73 114.72 224.4 108.6 224.43 108.17C224.46 107.74 233.4 112.24 237.89 110.13C242.38 108.02 244.86 103.31 244.62 101.33C244.38 99.35 237.76 95.26 232.66 95.8C227.57 96.33 221.73 103.82 221.73 103.82C221.73 103.82 223.62 100.68 223.51 100.47C223.4 100.26 220.33 102.07 220.1 104.49C220.1 104.49 220.29 101.47 220.03 101.45C219.77 101.43 217.63 104.33 218.5 106.14C218.5 106.14 215.96 109.14 216.13 111.97C216.29 114.8 218.71 124.3 221.01 124.63H221Z" fill="#100E3A"/>
<path d="M241.08 108.63C239.75 109.51 238.43 110.46 236.89 110.91C235.22 111.4 233.38 111.25 231.69 110.89C229.97 110.52 228.35 109.85 226.83 108.95C225.5 108.17 224.28 107.16 222.89 106.49C222.54 106.32 222.25 106.83 222.49 107.09C224.84 109.65 228.59 111.51 232.01 112.04C235.6 112.59 238.7 111.32 241.12 108.65C241.13 108.63 241.12 108.6 241.1 108.62L241.08 108.63Z" fill="#100E3A"/>
<path d="M223.321 123.6C223.321 123.6 219.821 118.35 217.441 119.59C215.071 120.83 217.621 128.38 220.351 129.47C223.081 130.56 224.141 128.05 224.141 128.05L223.321 123.61V123.6Z" fill="#DD6A57"/>
<path d="M218.231 121.73C218.231 121.73 218.181 121.79 218.211 121.8C220.121 122.62 221.101 124.44 221.771 126.31C221.211 125.58 220.441 125.17 219.461 125.84C219.411 125.87 219.461 125.95 219.511 125.94C220.301 125.79 220.871 125.94 221.391 126.58C221.761 127.04 222.001 127.61 222.261 128.13C222.351 128.3 222.661 128.22 222.601 128.02C222.601 128.01 222.591 127.99 222.591 127.97C222.691 125.51 220.851 122.02 218.211 121.71L218.231 121.73Z" fill="#100E3A"/>
<path d="M234.45 119.58C234.45 119.58 234.37 119.64 234.38 119.69C234.56 120.77 234.59 122.04 233.65 122.53C233.62 122.55 233.63 122.6 233.67 122.59C234.85 122.26 234.8 120.58 234.45 119.58Z" fill="#100E3A"/>
<path d="M233.33 118.57C231.57 118.67 231.9 122.19 233.54 122.1C235.15 122.01 234.81 118.49 233.33 118.57Z" fill="#100E3A"/>
<path d="M241.119 118.79C241.119 118.79 241.209 118.83 241.209 118.88C241.279 119.97 241.539 121.21 242.559 121.48C242.589 121.48 242.589 121.54 242.559 121.54C241.339 121.49 241.009 119.83 241.119 118.79Z" fill="#100E3A"/>
<path d="M241.99 117.56C243.73 117.26 244.2 120.76 242.59 121.04C241 121.31 240.53 117.81 241.99 117.56Z" fill="#100E3A"/>
<path d="M231.79 117.1C232.26 116.93 232.66 116.7 233.11 116.49C233.61 116.25 234.04 116.11 234.33 115.61C234.49 115.34 234.37 114.9 234.12 114.72C233.55 114.3 232.86 114.44 232.24 114.71C231.57 115 231.13 115.39 230.79 116.03C230.46 116.65 231.17 117.32 231.78 117.1H231.79Z" fill="#100E3A"/>
<path d="M243.18 115.66C242.68 115.63 242.23 115.51 241.75 115.43C241.2 115.34 240.75 115.32 240.33 114.92C240.1 114.71 240.1 114.25 240.29 114.01C240.73 113.45 241.43 113.4 242.09 113.49C242.81 113.58 243.35 113.84 243.84 114.37C244.32 114.88 243.83 115.71 243.18 115.67V115.66Z" fill="#100E3A"/>
<path d="M235.71 129.1C236 129.33 236.29 129.66 236.69 129.65C237.07 129.65 237.5 129.43 237.84 129.26C237.87 129.24 237.91 129.28 237.89 129.31C237.65 129.76 237.08 130.07 236.56 130.03C236.06 129.99 235.77 129.59 235.61 129.15C235.59 129.09 235.67 129.06 235.71 129.09V129.1Z" fill="#100E3A"/>
<path d="M235.29 126.05C235.99 126.94 236.94 127.37 237.93 127.47C238.37 127.52 238.83 127.49 239.27 127.4C239.36 127.39 239.44 127.37 239.52 127.35C239.6 127.33 239.67 127.32 239.76 127.29C239.89 127.26 239.95 127.15 239.96 127.03C239.96 127.03 239.96 126.95 239.94 126.91L239.93 126.81C239.87 125.97 239.67 124.7 239.67 124.7C239.99 124.82 241.62 125.38 241.56 124.94C241 121.33 240.37 117.32 239.05 113.84C239.01 113.72 238.83 113.77 238.85 113.89C239.25 117.38 240.27 120.78 240.73 124.28C240.21 124.14 239.37 123.86 238.93 123.92C238.81 123.97 239.37 126.37 239.36 126.75C239.36 126.75 239.36 126.77 239.36 126.79C237.97 127.1 236.86 126.78 235.4 125.96C235.31 125.91 235.23 125.99 235.31 126.07L235.29 126.05Z" fill="#100E3A"/>
<path d="M302.462 153.012L144.067 235.854L171.054 287.452L329.449 204.611L302.462 153.012Z" fill="#A7A5D8"/>
<path d="M199.91 235.52C202.6 240.66 202.63 246.5 200.47 251.44C198.85 255.17 196 258.4 192.1 260.44C188.2 262.48 183.92 262.98 179.93 262.18C174.65 261.13 169.87 257.78 167.18 252.64C162.45 243.6 165.93 232.44 174.98 227.71C184.02 222.98 195.18 226.49 199.91 235.53V235.52Z" fill="#D9D9FC"/>
<path d="M187.271 236.46C189.021 239.8 187.731 243.93 184.381 245.68C181.041 247.43 176.911 246.14 175.161 242.79C173.411 239.45 174.701 235.32 178.051 233.57C181.391 231.82 185.521 233.11 187.271 236.46Z" fill="white"/>
<path d="M200.09 250.6C200.23 250.87 200.36 251.15 200.47 251.43C198.85 255.16 196 258.39 192.1 260.43C188.2 262.47 183.92 262.97 179.93 262.17C179.76 261.91 179.6 261.65 179.46 261.38C176.48 255.68 178.67 248.64 184.37 245.66C190.07 242.68 197.1 244.9 200.08 250.59L200.09 250.6Z" fill="white"/>
<path d="M296.829 179.643L208.084 226.057L208.853 227.528L297.599 181.114L296.829 179.643Z" fill="#474799"/>
<path d="M241.597 214.574L210.574 230.799L211.344 232.27L242.367 216.045L241.597 214.574Z" fill="white"/>
<path d="M301.788 189.125L213.043 235.539L213.812 237.01L302.557 190.596L301.788 189.125Z" fill="white"/>
<path d="M304.273 193.865L215.527 240.28L216.297 241.751L305.042 195.336L304.273 193.865Z" fill="white"/>
<path d="M272.257 216.642L218.009 245.015L218.778 246.486L273.027 218.113L272.257 216.642Z" fill="white"/>
<path d="M205.6 211.68L208.12 213.52L211.05 212.49L210.08 215.44L211.97 217.91H208.86L207.09 220.47L206.14 217.51L203.16 216.61L205.68 214.79L205.6 211.68Z" fill="#6C63FF"/>
<path d="M216.73 205.86L219.24 207.7L222.18 206.67L221.21 209.62L223.1 212.09H219.99L218.22 214.64L217.26 211.69L214.28 210.79L216.8 208.97L216.73 205.86Z" fill="#6C63FF"/>
<path d="M227.86 200.04L230.37 201.88L233.31 200.85L232.34 203.8L234.22 206.27H231.12L229.35 208.82L228.39 205.86L225.41 204.97L227.93 203.15L227.86 200.04Z" fill="#6C63FF"/>
<path d="M238.99 194.22L241.5 196.06L244.43 195.03L243.47 197.98L245.35 200.45H242.24L240.48 203L239.52 200.04L236.54 199.15L239.06 197.33L238.99 194.22Z" fill="#6C63FF"/>
<path d="M250.12 188.4L252.63 190.23L255.56 189.2L254.6 192.16L256.48 194.63H253.37L251.6 197.18L250.65 194.22L247.67 193.33L250.19 191.51L250.12 188.4Z" fill="#6C63FF"/>
<path d="M315.99 172.69C318.45 175.37 323.41 178.1 324.51 180.57C325.5 182.8 323.83 184.21 323.83 184.21C323.83 184.21 326.78 184.69 327.41 187.1C327.73 188.34 326.04 189.94 326.04 189.94C326.04 189.94 328.39 190.43 328.82 192.6C329.16 194.33 327.42 195.68 327.42 195.68C327.42 195.68 329.45 197.2 329.24 199.08C328.8 202.88 314.33 207.37 310.44 202.73C308.63 200.57 312.22 199.67 312.22 199.67C312.22 199.67 306.74 199.72 305.74 196.76C304.74 193.8 309.48 192.91 309.48 192.91C309.48 192.91 304.17 192.91 303.44 189.74C302.68 186.44 307.58 186.36 307.58 186.36C307.58 186.36 303.69 185.18 303.69 182.62C303.69 178.4 313.27 181.06 316.21 179.32L313.38 174.04L315.98 172.7L315.99 172.69Z" fill="#DD6A57"/>
<path d="M320.3 176.35C318.19 173.61 320.84 168.6 319.2 165.7C316.98 161.77 311.87 168.38 313.64 174.5L315.89 178.71L320.3 176.35Z" fill="#DD6A57"/>
<path d="M327.18 195.93C327.18 195.93 327.26 195.97 327.22 196C322.82 198.63 317.18 200.18 312.04 199.73C311.87 199.72 311.82 199.43 312.01 199.42C317.4 198.87 322.13 197.96 327.18 195.94V195.93Z" fill="#100E3A"/>
<path d="M326.13 189.94C326.18 189.92 326.22 190.01 326.17 190.04C321.62 192.73 315.22 194.3 309.36 193.08C309.16 193.04 309.02 192.8 309.26 192.83C313.22 193.34 321.6 191.78 326.14 189.94H326.13Z" fill="#100E3A"/>
<path d="M307.18 186.12C312.85 187.07 318.25 186.11 323.65 184.32C323.72 184.3 323.75 184.4 323.69 184.43C321.28 186.02 317.72 186.8 314.9 187.17C312.19 187.53 309.68 187.3 307.15 186.31C307.05 186.27 307.06 186.09 307.18 186.11V186.12Z" fill="#100E3A"/>
<path d="M216.72 145.45C209.85 149.76 177.21 178.79 176.1 195.34C175.06 210.83 191.82 231.51 196.38 238.11C198.37 240.99 218.27 228.9 218.74 225.19C219.21 221.48 202.55 199.31 202.04 196.56C201.54 193.81 211.65 174.22 217.92 162.2C221.88 154.61 221.56 142.41 216.72 145.44V145.45Z" fill="#DD6A57"/>
<path d="M228.94 244.27C231.61 247.73 237.99 250.09 236.11 252.74C234.44 255.11 230.17 253.05 230.17 253.05C230.17 253.05 234.22 256.92 231.7 258.95C229.18 260.98 224.97 257.77 224.97 257.77C224.97 257.77 228.49 260.84 225.82 262.69C223.16 264.54 219.08 262.46 219.08 262.46C219.08 262.46 219.48 264.03 217.01 264.49C213.48 265.15 207.65 260.02 205.24 256.62C202.83 253.22 196.52 239 195.59 236.8L217.27 221.14C217.27 221.14 224.35 225.21 227.68 227.71C231.02 230.21 239.72 241.5 237.07 243.85C234.42 246.2 228.4 238.12 226.5 236.47C224.6 234.82 223.89 234.97 224.17 236.39C224.35 237.32 227.76 242.74 228.94 244.27Z" fill="#DD6A57"/>
<path d="M230.02 252.85C224.29 249.56 222.35 247.13 219.3 241.38C219.24 241.27 219.06 241.33 219.11 241.45C221.58 247.35 223.57 250.75 229.87 253.13C230.18 253.25 230.29 253 230.01 252.84L230.02 252.85Z" fill="#100E3A"/>
<path d="M225.24 257.85C219.58 253.91 217.46 251.3 213.83 245.51C213.78 245.43 213.63 245.51 213.68 245.59C216.77 251.57 218.83 254.91 225 258.1C225.28 258.24 225.5 258.03 225.24 257.85Z" fill="#100E3A"/>
<path d="M219.05 262.38C213.85 258.17 211.39 255.4 208.59 249.33C208.52 249.19 208.31 249.27 208.36 249.42C210.62 255.89 213.66 259.37 218.9 262.52C219.26 262.74 219.37 262.64 219.04 262.38H219.05Z" fill="#100E3A"/>
<path d="M217.99 144.55C211.5 146.42 187.74 169.16 188.08 169.85C188.43 170.54 208.44 183.97 209.37 183.5C210.3 183.04 217.26 167.53 219.68 160.71C222.1 153.88 222.67 143.2 217.99 144.55Z" fill="#6C63FF"/>
<path d="M211.44 178.77C208.3 176.54 195.08 168.45 191.71 166.57C191.48 166.44 191.29 166.78 191.5 166.93C194.66 169.15 207.79 177.4 211.21 179.16C211.47 179.29 211.66 178.94 211.43 178.78L211.44 178.77Z" fill="#100E3A"/>
</svg>
